<svg fill="none" height="64" viewBox="0 0 64 64" width="64" xmlns="http://www.w3.org/2000/svg"><path clip-rule="evenodd" d="m18 15v-5.5c0-.82843-.6716-1.5-1.5-1.5s-1.5.67157-1.5 1.5v5.5zm-5-5.5v5.5h-1c-1.1046 0-2 .8954-2 2v4c0 1.1046.8954 2 2 2v2.5121c-3.49558 1.2355-6 4.5692-6 8.4879v19c0 2.7614 2.23858 5 5 5h5c.5523 0 1-.4477 1-1s-.4477-1-1-1h-5c-1.65685 0-3-1.3431-3-3v-19c0-3.866 3.134-7 7-7h3c3.866 0 7 3.134 7 7 0 .5523.4477 1 1 1s1-.4477 1-1c0-3.9187-2.5044-7.2524-6-8.4879v-2.5121c1.1046 0 2-.8954 2-2v-4c0-1.1046-.8954-2-2-2h-1v-5.5c0-1.933-1.567-3.5-3.5-3.5s-3.5 1.567-3.5 3.5zm-1 7.5v4h9v-4zm2 8.0549v-2.0549h5v2.0549c-.3283-.0363-.662-.0549-1-.0549h-3c-.338 0-.6717.0186-1 .0549zm38 23.9451h-3c-.5523 0-1-.4477-1-1s.4477-1 1-1h3 2.0476l1.6585-34h-14.4433l.9106 20.8626c.024.5518-.4037 1.0186-.9555 1.0427-.5517.0241-1.0185-.4037-1.0426-.9554l-1.0833-24.81909c-.0745-1.70656 1.289-3.13081 2.9972-3.13081h12.8108c1.7143 0 3.08 1.43395 2.9965 3.14617l-1.8965 38.87753v6.9763c0 1.6569-1.3431 3-3 3h-5c-.5523 0-1-.4477-1-1s.4477-1 1-1h5c.5523 0 1-.4477 1-1v-6zm-10.8245-38h14.6282l.0951-1.95128c.0279-.57074-.4273-1.04872-.9988-1.04872h-12.8108c-.5694 0-1.0239.47475-.9991 1.0436zm-21.1755 28h24v4h-24zm26 0v5 1 9c0 2.2091-1.7909 4-4 4h-20c-2.2091 0-4-1.7909-4-4v-9-1-5c0-1.1046.8954-2 2-2h24c1.1046 0 2 .8954 2 2zm-26 6h24v9c0 1.1046-.8954 2-2 2h-20c-1.1046 0-2-.8954-2-2zm32.6112-30.03c.5517.0269.977.4959.9501 1.0475l-.0625 1.2812c-.0269.5517-.4959.977-1.0475.9501s-.977-.4959-.9501-1.0475l.0625-1.2813c.0269-.5516.4959-.9769 1.0475-.95zm-.25 5.125c.5517.0269.977.4959.9501 1.0475l-1.0625 21.7812c-.0269.5517-.4959.977-1.0475.9501s-.977-.4959-.9501-1.0475l1.0625-21.7813c.0269-.5516.4959-.9769 1.0475-.95zm-23.0539 2.905c.6721-.4448 1.248-1.0206 1.6927-1.6927.4448.6721 1.0207 1.2479 1.6928 1.6927-.6721.4447-1.248 1.0206-1.6928 1.6927-.4447-.6721-1.0206-1.248-1.6927-1.6927zm.7549-4.4655c.3222-.8706 1.5535-.8706 1.8757 0l.3145.8499c.4051 1.0949 1.2684 1.9581 2.3633 2.3632l.8498.3145c.8707.3222.8707 1.5536 0 1.8757l-.8498.3145c-1.0949.4052-1.9582 1.2684-2.3633 2.3633l-.3145.8499c-.3222.8706-1.5535.8706-1.8757 0l-.3145-.8499c-.4051-1.0949-1.2684-1.9581-2.3633-2.3633l-.8498-.3145c-.8707-.3221-.8707-1.5535 0-1.8757l.8499-.3145c1.0948-.4051 1.9581-1.2683 2.3632-2.3632zm-20.0622 28.4655c0 .5523.4477 1 1 1s1-.4477 1-1v-14c0-.5523-.4477-1-1-1s-1 .4477-1 1zm13 7c-.5523 0-1-.4477-1-1v-5c0-.5523.4477-1 1-1s1 .4477 1 1v5c0 .5523-.4477 1-1 1zm-11-3c0-.5523-.4477-1-1-1s-1 .4477-1 1v2c0 .5523.4477 1 1 1s1-.4477 1-1z" fill="rgb(0,0,0)" fill-rule="evenodd"/></svg>