<svg height="512" viewBox="0 0 32 32" width="512" xmlns="http://www.w3.org/2000/svg"><g id="Layer_2" data-name="Layer 2"><path d="m25.861 29.35h-9.861c-7.72 0-14-5.989-14-13.35s6.28-13.35 14-13.35 14 5.989 14 13.35a12.892 12.892 0 0 1 -3.316 8.62l.8.8a2.3 2.3 0 0 1 -1.627 3.926zm-9.861-24.7c-6.617 0-12 5.092-12 11.35s5.383 11.35 12 11.35h9.861a.3.3 0 0 0 .213-.512l-1.5-1.5a1 1 0 0 1 .011-1.425 10.978 10.978 0 0 0 3.415-7.913c0-6.258-5.383-11.35-12-11.35z"/><path d="m17.5 22h-3a1 1 0 0 1 0-2h3a1 1 0 0 1 0 2z"/><path d="m16 22a1 1 0 0 1 -1-1v-6.134a1 1 0 0 1 .5-1.866h.5a1 1 0 0 1 1 1v7a1 1 0 0 1 -1 1z"/><circle cx="16" cy="10" r="1.5"/></g></svg>