<svg id="&#x421;&#x43B;&#x43E;&#x439;_1" viewBox="0 0 2047.11 2065.52" xmlns="http://www.w3.org/2000/svg"><g fill="#fff" transform="translate(-727.64 -717)"><path d="m2682.84 2156.66c95.06-838.72-92.25-943-413.77-1037.13-319.25-93.51-294.62-193.82-277-370h-478.63c17.62 176.2 22.25 276.52-297 370-321.53 94.17-508.84 198.4-413.78 1037.13v592.84h1881.09z"/><path d="m1140.84 1648c37.7 282.75 60.22 777 67.77 841.09s-33.61 260.41-33.61 260.41h1135.51s-41.16-196.34-33.62-260.43 30.11-558.35 67.77-841.07"/><path d="m1992.06 749.5c-17.62 176.2-42.25 276.52 277 370 321.53 94.17 508.83 198.41 413.77 1037.13v522.37" stroke="#000" stroke-linecap="round" stroke-linejoin="round" stroke-width="65"/><path d="m1513.44 749.5c17.62 176.2 22.25 276.52-297 370-321.53 94.2-508.84 198.43-413.78 1037.16v592.34" stroke="#000" stroke-linecap="round" stroke-linejoin="round" stroke-width="65"/><path d="m2310.51 2749.5s-41.16-196.34-33.62-260.43 30.11-558.35 67.77-841.07" stroke="#000" stroke-linecap="round" stroke-linejoin="round" stroke-width="65"/><path d="m1140.84 1648c37.7 282.75 60.22 777 67.77 841.09s-33.61 260.41-33.61 260.41" stroke="#000" stroke-linecap="round" stroke-linejoin="round" stroke-width="65"/><path d="m1195.93 1699.45 143-208.37c16.92-24.66 47.73-32.92 68.81-18.45l10.1 6.93c21.08 14.47 24.45 46.18 7.53 70.84l-141.54 206.26" stroke="#000" stroke-linecap="round" stroke-linejoin="round" stroke-width="65"/><path d="m1284 1758.3 180.61-263.3c16.52-24.08 46.6-32.14 67.18-18l11.91 8.17c20.58 14.12 23.88 45.09 7.35 69.17l-158.92 231.66" stroke="#000" stroke-linecap="round" stroke-linejoin="round" stroke-width="65"/><path d="m1195.93 1699.45 143-208.37c16.92-24.66 47.73-32.92 68.81-18.45l10.1 6.93c21.08 14.47 24.45 46.18 7.53 70.84l-141.54 206.26" stroke="#000" stroke-linecap="round" stroke-linejoin="round" stroke-width="65"/><path d="m1391.24 1789.08 108.76-158.56c18-26.17 50.66-34.94 73-19.59l5.41 3.72c22.38 15.35 26 49 8 75.19l-118.17 172.21-54.69 82 89.83-69c25.54-18.84 59.31-16.42 75.42 5.42l3.9 5.28c16.11 21.84 8.46 54.82-17.08 73.66l-199 148s-32.95 20.86-43.63 22.85c-30.6 5.7-50.93 3.52-68.78-3.73l2.06 1.41-430.7 622.56-67.82-1v-406.85l249.47-385.65 2.06 1.41c-38.78-41.33-6.93-164 25.26-210.91l43.37-63.19 117.27-170.9c18.14-26.43 51.15-35.28 73.75-19.78l4.62 3.17c22.59 15.5 26.21 49.5 8.07 75.93l-85.79 125"/><path d="m1284 1758.3 180.61-263.3c16.52-24.08 46.6-32.14 67.18-18l11.91 8.17c20.58 14.12 23.88 45.09 7.35 69.17l-158.92 231.66" stroke="#000" stroke-linecap="round" stroke-linejoin="round" stroke-width="65"/><path d="m760.14 2342.18 250.92-390.88 2.06 1.41c-38.78-41.33-6.93-164 25.26-210.91l43.37-63.19 117.25-170.91c18.14-26.43 51.15-35.28 73.75-19.78l4.62 3.17c22.59 15.5 26.21 49.5 8.07 75.93l-85.79 125" stroke="#000" stroke-linecap="round" stroke-linejoin="round" stroke-width="65"/><path d="m1391.24 1789.08 108.76-158.56c18-26.17 50.66-34.94 73-19.59l5.41 3.72c22.38 15.35 26 49 8 75.19l-118.17 172.21-54.69 82 89.83-69c25.54-18.84 59.31-16.42 75.42 5.42l3.9 5.28c16.11 21.84 8.46 54.82-17.08 73.66l-199 148s-32.95 20.86-43.63 22.85c-30.6 5.7-50.93 3.52-68.78-3.73l2.06 1.41-431.18 622.06" stroke="#000" stroke-linecap="round" stroke-linejoin="round" stroke-width="65"/><path d="m2245.1 2033-169.26-186c-20-22-51.52-26-70.33-8.84l-9 8.2c-18.81 17.12-17.83 48.84 2.2 70.85l167.54 184.07" stroke="#000" stroke-linecap="round" stroke-linejoin="round" stroke-width="65"/><path d="m2166.34 2102.93-213.85-234.93c-19.56-21.48-50.3-25.35-68.67-8.63l-10.62 9.63c-18.37 16.72-17.4 47.69 2.15 69.17l188.12 206.67" stroke="#000" stroke-linecap="round" stroke-linejoin="round" stroke-width="65"/><path d="m2245.1 2033-169.26-186c-20-22-51.52-26-70.33-8.84l-9 8.2c-18.81 17.12-17.83 48.84 2.2 70.85l167.54 184.07" stroke="#000" stroke-linecap="round" stroke-linejoin="round" stroke-width="65"/><path d="m2064.77 2147.85-128.77-141.5c-21.26-23.36-54.68-27.56-74.65-9.38l-4.83 4.4c-20 18.17-18.92 51.84 2.34 75.2l139.88 153.68 65 73.35-97.91-55.79c-27.74-15.1-60.69-8.12-73.6 15.59l-3.12 5.74c-12.91 23.71-.89 55.18 26.85 70.28l216.26 118.87s35.31 16.09 46.11 16.59c30.94 1.45 50.68-3.45 67.29-13l-1.84 1.67 284.15 286 213.83-8.55v-211l-275.67-268.78-1.84 1.67c32.6-46-15.45-162.59-53.56-204.45l-51.31-56.44-138.82-152.51c-21.47-23.58-55.21-27.83-75.38-9.47l-4.12 3.75c-20.16 18.35-19.11 52.35 2.36 75.93l101.58 111.59"/><g stroke="#000" stroke-linecap="round" stroke-linejoin="round" stroke-width="65"><path d="m2166.34 2102.93-213.85-234.93c-19.56-21.48-50.3-25.35-68.67-8.63l-10.62 9.63c-18.37 16.72-17.4 47.69 2.15 69.17l188.12 206.67"/><path d="m2742.25 2529.5-280.7-273.44-1.84 1.67c32.6-46-15.45-162.59-53.56-204.45l-51.33-56.39-138.82-152.51c-21.47-23.58-55.21-27.83-75.38-9.47l-4.12 3.75c-20.16 18.35-19.11 52.35 2.36 75.93l101.55 111.56"/><path d="m2064.77 2147.85-128.77-141.5c-21.26-23.36-54.68-27.56-74.65-9.38l-4.83 4.4c-20 18.17-18.92 51.84 2.34 75.2l139.88 153.68 65 73.35-97.91-55.79c-27.74-15.1-60.69-8.12-73.6 15.59l-3.12 5.74c-12.91 23.71-.89 55.18 26.85 70.28l216.26 118.87s35.31 16.09 46.11 16.59c30.94 1.45 50.68-3.45 67.29-13l-1.84 1.67 283.69 285.45"/><path d="m2114.56 1666.39a232 232 0 0 0 -354.74 19.16"/><path d="m2056.82 1493.54a232.23 232.23 0 0 0 -242.89 12.18"/><path d="m1734.43 1425.39a232 232 0 0 0 -316-162.3"/><path d="m1771.71 1247a232.23 232.23 0 0 0 -215.9-111.94"/><path d="m2180.59 1249.39s71.44 7.87 247.81 83.72"/></g></g></svg>