<svg id="Layer_1" enable-background="new 0 0 75 75" viewBox="0 0 75 75" xmlns="http://www.w3.org/2000/svg"><g id="Back_Massage"><path d="m57.7237816 52.3704071c-.0029297 0-.0063477 0-.0092773 0-.4140625.0053711-.7460938.3452148-.7407227.7592773l.1972656 15.7456055c.0053711.4111328.3398438.7407227.75.7407227h.0092773c.4140625-.0053711.7460938-.3452148.7407227-.7592773l-.1972656-15.7456055c-.0053711-.4111329-.3398438-.7407227-.75-.7407227z"/><path d="m35.5660667 39.1545868c.2866211 0 .5600586-.1650391.6850586-.4433594 1.1962891-2.6708984.9570313-5.0019531-.7109375-6.9282227-.2714844-.3120117-.7451172-.3481445-1.0581055-.0756836-.3129883.2709961-.3466797.7446289-.0756836 1.0581055 1.2705078 1.4667969 1.4257813 3.2109375.4755859 5.3325195-.2228545.4970933.1435586 1.0566407.6840821 1.0566407z"/><path d="m41.3072777 31.7073212c-.3149414-.2724609-.7880859-.2363281-1.0581055.0756836-1.6679688 1.9262695-1.9072266 4.2573242-.7109375 6.9282227.1692314.3768005.6118202.5471687.9912109.3779297.3779297-.1694336.5473633-.6132813.3779297-.9912109-.9501953-2.121582-.7949219-3.8657227.4755859-5.3325195.2709962-.3134767.2373048-.7871095-.0756835-1.0581056z"/><path d="m33.6441917 27.6936493c.3554688 0 .6713867-.2539063.7368164-.6166992.2348633-1.2978516.0854492-2.4213867.0791016-2.46875-.0566406-.4101563-.4360352-.6972656-.84375-.640625-.409668.0556641-.6972656.4331055-.6425781.8432617.0009766.0092773.1220703.9453125-.0683594 1.9995117-.0830078.4584637.2691345.8833008.7387695.8833008z"/><path d="m54.026516 6.6873021h-8.3837891c-.4140625 0-.75.3359375-.75.75s.3359375.7500005.75.7500005h8.3837891c1.6416016 0 2.9770508 1.3999023 2.9785156 3.1655273l.1674805 2.7856445c.0239258.3984375.3540039.7050781.7480469.7050781.4316483 0 .7750282-.3630762.7490234-.7949219l-.1660156-2.7407227c-.0000001-2.5478514-2.0083008-4.6206058-4.4770508-4.6206058z"/><path d="m17.932766 8.1873026h10.3051758c.4140625 0 .75-.335938.75-.7500005s-.3359375-.75-.75-.75h-10.3051758c-2.3207998 0-4.2089834 2.2714849-4.2084951 5.0957036l.1005859 2.3427734c.0180769.4142523.3689098.7352343.7817383.7172852.4135742-.0180664.7348633-.3676758.7172852-.7817383l-.1000977-2.3105469c-.0000001-1.9648437 1.215331-3.5634765 2.7089834-3.5634765z"/><path d="m27.1866722 43.3914032c1.5878906-.503418 2.8515625-1.8852539 3.3808594-3.6962891l.1992188-.6801758 2.1132813-2.2485352c1.2180901-1.2955284.4664536-3.6280937-1.2387695-3.7241211-.5292969-.0166016-1.050293.1875-1.3608398.5263672l-3.4599609 2.8383789-.3354492-1.1191406 5.8154297-3.7055664c.9614258-.512207 1.3486328-1.6445313.8803711-2.5776367-.3867188-.7719727-1.2172852-1.1166992-1.9716797-.8188477-7.305069 2.8813972-6.981514 2.7079105-7.1533203 2.8461914-.7832031.6357422-1.3701172 1.5698242-1.6621094 2.6704102-.4321289 2.0834961-1.1020508 4.5776367-1.4101563 4.9682617-.37537.4459534-.0338593.1438026-5.6751699 2.597168l-.1251221-8.7866211c-.0058594-.4106445-.340332-.7392578-.75-.7392578-.003418 0-.0068359 0-.0107422 0-.4140625.0058594-.7451172.3466797-.7392578.7607422l.1339111 9.4033203-2.2169189.9487305c-.3808594.1630859-.5576172.6035156-.3945313.984375.1625977.3803711.6025391.5566406.984375.3945313 2.4448042-1.0463905 7.4569311-3.1916351 8.9360342-3.824707.3457031-.1308594.6835938-.3901367 1.0048828-.7719727.6757813-.8022461 1.4360352-4.2045898 1.7216797-5.5893555.190918-.7163086.5668945-1.34375 1.0644531-1.7802734l6.8378906-2.6860352c.0087891.0014648.0488281.0229492.0849609.0952148.0859375.171875.0458984.4267578-.2949219.6108398l-6.3442383 4.0400391c-.2832031.1806641-.4121094.5268555-.3154297.8481445l.8217773 2.7412109c.1528111.5114441.781744.7055969 1.1938477.3642578l4.4013672-3.6191406c.4537144-.4815712.9649506.5663109.4848633 1.0771484l-2.2363282 2.3793947c-.2001057.212162-.1808949.3983002-.4228516 1.1552734-.5049496 1.7270927-1.8920879 3.0036011-3.7270508 2.8349609-.8447266-.0727539-1.6474609.1391602-2.2822266.6137695l-11.041503 8.6000977c-.5578918.4344711-.2542591 1.3417969.4614258 1.3417969.4890852 0-.064189.1740189 11.4902334-8.7495117.8810789-.659008 1.4728681.0106888 3.157715-.5234375z"/><path d="m48.351223 59.7019501c.7563477 0 1.3720703.7436523 1.3720703 1.6577148v7.5063477c0 .4140625.3359375.75.75.75s.75-.3359375.75-.75v-7.5063477c0-1.7412109-1.2885742-3.1577148-2.8720703-3.1577148h-.5089111c-.8725586-5.8411865-.0571289-10.5411377 2.5665283-14.7071533.2781982-.0014648.6148682.0487061.9082031.2467041 12.6487122 9.1396828 12.0376511 8.9228516 12.5019531 8.9228516.7258568 0 1.0262871-.9313545.4418983-1.3564453l-12.0825233-8.7944336c-.597168-.402832-1.3203125-.5766602-2.1030273-.5048828-.4052734.0366211-.8085938-.0063477-1.2021484-.1308594-1.9556961-.6201706-2.2411804-2.9180374-2.3706055-3.1879883-.0888405-.3031006-.1242409-.2118568-2.2148438-2.4755859-.31073-.3300514-.1132202-.9687614.1645508-.9848633.0839844 0 .1420898.0473633.253418.1567383l3.9536133 3.2441406c.2231445.1831055.5327148.2211914.7944336.0991211.262207-.1230469.4296875-.3857422.4311523-.6748047l.0146484-2.9384766c.0014648-.2524414-.1245117-.4887695-.3349609-.628418l-5.0483398-3.3540039c-.0844727-.0561523-.1606445-.2685547-.0830078-.4614258.0375977-.0932617.0878906-.1220703.0981445-.1225586l5.9360352 2.5874023c.4453125.3901367.7817383.9501953.9438477 1.5537109.2705078 1.3061523.9677734 4.425293 1.5947266 5.1689453.300293.3569336.6176758.6000977.921875.7148438 8.3115845 3.449791 2.4689102 1.0247688 9.6040039 3.9863281.3828125.1577148.8212929-.0229492.9804726-.4052734.1586914-.3828125-.0229492-.8212891-.4052734-.9804688l-5.5738564-2.3132324-.1053467-7.3947754c-.0058594-.4106445-.340332-.7392578-.75-.7392578-.003418 0-.0068359 0-.0107422 0-.4140625.0058594-.7451172.3466797-.7392578.7607422l.0960693 6.7469482-2.543335-1.055542c-.0131836-.0048828-.1318359-.0541992-.324707-.2832031-.2802734-.3686523-.8862305-2.6298828-1.2856445-4.5517578-.2612305-.9804688-.8051758-1.8447266-1.5307617-2.434082-.1468582-.1207809.1403275.0412769-6.2089844-2.7363281-.7753372-.3403435-1.7190628.0205479-2.0888672.9375-.3334961.8295898-.0561523 1.8061523.6450195 2.2709961l4.7109375 3.1298828-.0048828.9609375-2.6650391-2.1811523c-.7509766-.7986755-1.9874077-.7487946-2.6728516.1665039-.6157227.8208008-.5546875 2.0429688.1396484 2.7822266l1.9189453 2.0415039c.088295.1711197.5528183 3.1512718 3.3066406 4.0244141.1070557.0339355.2174072.0428467.3255615.0686035-2.4699707 4.2597656-3.2460938 9.0224609-2.4156494 14.8259277h-8.3063965v-10.8525391c0-.4140625-.3359375-.75-.75-.75s-.75.3359375-.75.75v10.8525391h-10.1339111c1.0510254-5.4313965.6901855-9.6824951-1.1829834-13.6459961-.1777344-.375-.6245117-.5341797-.9985352-.3579102-.3745117.1772461-.534668.6240234-.3579102.9985352 1.7606201 3.7254639 2.0690918 7.765625 1.0137939 13.0053711h-.7247314c-1.5834961 0-2.8720703 1.4165039-2.8720703 3.1577148v7.5063477c0 .4140625.3359375.75.75.75s.75-.3359375.75-.75v-7.5063477c0-.9140625.6157227-1.6577148 1.3720703-1.6577148z"/><path d="m14.7530794 54.8708954v14.6308594c0 .4140625.3359375.75.75.75s.749999-.3359375.749999-.75v-14.6308594c0-.4140625-.3359365-.75-.749999-.75s-.75.3359375-.75.75z"/><path d="m11.0973177 24.8552704 7.8774405 12.8051758c.1416016.2299805.3876953.3569336.6391602.3569336.5813236 0 .9470043-.6413193.6381836-1.1430664l-7.8774405-12.8051758c-.8906727-1.4482307-.3904791-3.332756 1.0605469-4.1552734 9.8794928-5.4655638 9.5043631-5.0606441 9.7257071-5.4650869.0239792 1.573451.2302361 3.0229597.7521973 4.477294l-3.3709717 1.9160156c-1.5463486.9595299-1.9281273 2.8144417-.9345703 4.1914063l3.0556641 4.2373047c.1464844.2036133.3759766.3115234.6088867.3115234.601965 0 .9684772-.6883354.6079102-1.1884766l-3.0556641-4.237793c-.5143795-.7122173-.2406464-1.574028.4838867-2.0244141l3.2208252-1.829834c1.1282368 2.036375 2.8390923 2.9068432 4.9530029 2.092041.2773438-.1064453.527832-.2724609.737793-.484375.5638065.844759 1.153656 1.2084293 1.3330078 1.3691406.6704102.5332031 1.5600586.5249023 2.2138672-.0185547 1.7797852-1.4775391 5.7519531-5.3041992 4.1958008-8.9248037-.1635742-.3798828-.6030273-.5556641-.9853516-.3925781-.3803711.1635742-.5561523.6044922-.3925781.9853516 1.1889648 2.765624-2.5893555 6.1933584-3.7758789 7.1777334-.2324104.1931324-.3904533-.093832-.6176758-.2368164-.5581055-.4438477-.980957-1.0810547-1.222168-1.8427734-.2106113-.6662235-1.1490326-.7106628-1.4121094-.0507813-.2102871.5308342-.2598858.8830872-.6132813 1.0185547-.7358398.2822266-1.359375.265625-1.90625-.0551758-1.0040283-.5881348-1.6224365-2.0959473-1.9449463-3.2509766 1.3831787-1.135498 2.625-1.1207275 4.0108643.0585938.3164063.2695313.7895508.2304688 1.0571289-.0854492.2685547-.3154297.2299805-.7890625-.0854492-1.0571289-1.7283936-1.470336-3.5435791-1.6517324-5.2940674-.5456543-.3266602-2.6923819.0015869-4.5151358.9742432-5.2644033 1.1298828-.8706055 2.9174805-.1254883 2.9335938-.1191406.2939453.128418.637207.0532227.8535156-.1835938 3.097168-3.4091802 7.5620117-4.0683599 7.6508789-4.0820317 1.7792969-.3564453 3.2011719-.1020508 4.2260742.7548828 2.0717773 1.7329106 2.0244141 5.4013677 2.0234375 5.438477-.0039063.2011719.0737305.3969727.2148438.5410156l2.5620117 2.6108398-.7519531 1.0395498c-.1518555.2104492-.1845703.4848633-.0854492.7246094l.4228516 1.0288086c.2275391 1.6025391.2519531 3.6484375-.8647461 4.4985352-1.4906502 1.1334629-4.4140129-.2168159-4.0922852-.0827637-.325573-.130228-2.2533569-.8815651-2.1503906-.8400879-.3833008-.1513672-.8203125.0405273-.9707031.4267578s.0405273.8208008.4267578.9707031l1.6342773.6362305c-.0151367 1.0146484.0820313 3.1914063 1.0439453 5.0244141.1342773.2553711.3950195.4013672.6645508.4013672.5605736 0 .9261284-.5981808.6635742-1.0986328-.6679688-1.2727051-.8348389-2.8078613-.8656006-3.7861328 4.0441895 1.1296024 6.8177872-.8114872 5.9813232-6.4599609-.0224838-.1536369-.0641327-.1977787-.3476563-.9033203l.8779297-1.2143555c.2138672-.2963858.1835938-.7036123-.0727539-.9648428l-2.7939453-2.847168c-.0327148-1.0625-.3168945-4.4150395-2.5522461-6.2895513-1.3901367-1.1669922-3.2363281-1.5302734-5.4423828-1.0878906-.1977539.0273438-4.7294922.6831055-8.1699219 4.1889653-.8452148-.2495117-2.5678711-.5615234-3.9267578.4794922-1.0385742.795166-1.5892334 2.1929932-1.6712646 4.1433105-.0014648-.0026855-.0010986-.0058594-.0025635-.0085449-.1992188-.3632813-.6547852-.4970703-1.0180664-.2983398l-9.4501944 5.1679678c-2.2170764 1.2559051-2.9384967 4.0909233-1.6083985 6.2519531z"/><path d="m54.5968285 34.6160126 6.8876953-9.7680664c1.2819939-2.1390991.7620125-5.1360016-1.6264648-6.2524414l-12.3041993-6.6367178c-.3647461-.1962891-.8198242-.0610352-1.0161133.3041992-.1967773.3642578-.0605469.8193359.3041992 1.0161133l12.3417969 6.6557608c1.5934525.7466145 1.8430595 2.7562294 1.0449219 4.0952148l-6.8574219 9.7216797c-.2387695.3383789-.1582031.8061523.1806641 1.0449219.3368912.2379531.8052559.1591987 1.0449219-.1806641z"/><path d="m48.6993675 28.3577118c-.4038429.4940891-.0425529 1.2246094.5800781 1.2246094.2172852 0 .4331055-.0942383.5810547-.2753906l3.4624023-4.2373047c1.0797462-1.3208046.7966042-3.2434006-1.0625-4.2607422l-3.2866211-1.6474609c-.3696289-.1860352-.8203125-.0366211-1.0063477.3344727-.1855469.3701172-.0361328.8208008.3344727 1.0063477l3.262207 1.6347656c.8211403.4498119 1.1911201 1.2577858.5976563 1.9833984z"/></g></svg>