<svg id="Layer_1" enable-background="new 0 0 512 512" height="512" viewBox="0 0 512 512" width="512" xmlns="http://www.w3.org/2000/svg"><path d="m305.249 264.625c0-8.827-7.149-15.987-15.977-16-61.262-.091-111.177-50.006-111.268-111.268-.013-8.827-7.173-15.977-16-15.977s-15.987 7.149-16 15.977c-.091 61.262-50.006 111.177-111.269 111.268-8.827.013-15.977 7.173-15.977 16s7.148 15.986 15.976 16c61.264.092 111.179 50.007 111.27 111.268.013 8.827 7.173 15.977 16 15.977s15.987-7.149 16-15.977c.091-61.261 50.006-111.176 111.269-111.268 8.828-.014 15.976-7.173 15.976-16zm-117.232 26.013c-10.582 10.581-19.307 22.526-26.012 35.441-6.705-12.915-15.43-24.86-26.012-35.442-10.582-10.581-22.528-19.307-35.442-26.012 12.915-6.705 24.86-15.43 35.442-26.012s19.307-22.527 26.012-35.441c6.705 12.914 15.43 24.859 26.012 35.441s22.527 19.307 35.442 26.012c-12.915 6.705-24.86 15.431-35.442 26.013zm273.892 101.703c-39.467-.059-71.624-32.216-71.683-71.683-.014-8.828-7.173-15.977-16-15.977s-15.986 7.148-16 15.977c-.059 39.467-32.216 71.624-71.683 71.683-8.828.014-15.977 7.173-15.977 16s7.148 15.986 15.977 16c39.467.059 71.624 32.216 71.683 71.683.014 8.828 7.173 15.977 16 15.977s15.986-7.148 16-15.977c.059-39.467 32.216-71.624 71.683-71.683 8.828-.014 15.977-7.173 15.977-16s-7.149-15.987-15.977-16zm-87.682 48.516c-8.284-13.101-19.416-24.232-32.517-32.517 13.101-8.284 24.232-19.416 32.517-32.517 8.284 13.101 19.416 24.232 32.517 32.517-13.101 8.285-24.233 19.417-32.517 32.517zm103.037-337.843c-47.921-.071-86.966-39.116-87.037-87.037-.014-8.829-7.173-15.977-16-15.977s-15.986 7.148-16 15.977c-.071 47.921-39.116 86.966-87.036 87.037-8.828.014-15.977 7.173-15.977 16s7.148 15.986 15.977 16c47.92.071 86.965 39.116 87.036 87.036.014 8.828 7.173 15.977 16 15.977s15.986-7.148 16-15.977c.071-47.92 39.116-86.965 87.037-87.036 8.828-.014 15.977-7.173 15.977-16s-7.149-15.987-15.977-16zm-103.037 59.617c-10.476-18.063-25.554-33.142-43.617-43.617 18.063-10.476 33.142-25.555 43.617-43.618 10.476 18.063 25.555 33.143 43.618 43.618-18.064 10.475-33.143 25.553-43.618 43.617z"/></svg>