<svg id="Layer_1" height="512" viewBox="0 0 48 48" width="512" xmlns="http://www.w3.org/2000/svg" data-name="Layer 1"><path d="m25.026 26.2a15.561 15.561 0 0 0 4.5-2.609l2.055-1.724-1.67 2.214a.818.818 0 0 0 1.2 1.1 21.032 21.032 0 0 0 2.793-2.8c.218-.915.414-2.183.414-2.183l7.264-7.12h-7.082l-3.934 5.957a13.526 13.526 0 0 0 -4.88 3.264c-1.625 2.019-2.58 4.391-.66 3.901z"/><path d="m40.711 23.419-1.861-.213a3.784 3.784 0 0 0 -2.508.588c-1.568 1.026-4.134 2.835-3.959 3.576a1.745 1.745 0 0 0 1.3 1.291 13.539 13.539 0 0 0 3.064.044c3.834-.3 5.429-2.178 5.429-2.178l5.077-2.95v-6.239z"/><path d="m16.327 8.984a16.454 16.454 0 0 1 3.515 1.339 3.2 3.2 0 0 0 -2.876-3.056 5.879 5.879 0 0 0 -2.923.229s.383.987 2.284 1.488z"/><path d="m11.843 13.1c1.306.208 2.37.341 3.277.456a22.226 22.226 0 0 1 3.706.661 9.809 9.809 0 0 1 2.281 1.008 2.838 2.838 0 0 0 -.19-2.05c-.62-1.2-2.856-2.188-4.968-2.738-2.693-.7-3.285-2.347-3.285-2.347a7.343 7.343 0 0 0 -3.364.664 4.483 4.483 0 0 0 -2.2 2.125 13.853 13.853 0 0 0 1.847 1.3 8.89 8.89 0 0 0 2.896.921z"/><path d="m10.692 18.371c3.082-.276 6.276-.257 8.13.614a2.632 2.632 0 0 1 1.347 1.466 3.771 3.771 0 0 0 1.489-2.94 8.288 8.288 0 0 0 -3.266-1.86 21 21 0 0 0 -3.459-.608c-.921-.116-2-.252-3.327-.464a10.314 10.314 0 0 1 -3.384-1.086 15 15 0 0 1 -1.989-1.393c-.823.851-2.185 2.5-2.033 3.991.206 1.992 1.919 2.69 6.492 2.28z"/><path d="m5.484 29.094a2.231 2.231 0 0 1 -1.184-1.279 5.164 5.164 0 0 1 .163-2.637c.054-.25.131-.615.152-.784-.025-.11-.09-.309-.17-.543-1.477 1.014-3.695 2.67-3.695 3.492 0 1.525 2.154 3.363 3.6 4.427.242-.594 1.134-2.676 1.134-2.676z"/><path d="m36.863 30.2c-.548.044-1.153.068-1.7.068a8.45 8.45 0 0 1 -1.813-.146 3.21 3.21 0 0 1 -2.422-2.409 1.867 1.867 0 0 1 -.015-.855 2.382 2.382 0 0 1 -.348.032 2.329 2.329 0 0 1 -1.693-.735c-.043-.046-.085-.093-.123-.142a12.056 12.056 0 0 1 -3.349 1.637 3.239 3.239 0 0 1 -.825.113 2.038 2.038 0 0 1 -1.9-1.137c-.777-1.623.821-4 1.844-5.268.116-.144.248-.278.377-.415-.315.03-.955.1-.955.1-1.314.137-2.571.4-2.571.4l-2.019 1.457-.607-1.981a1.162 1.162 0 0 0 -.561-.578 10.369 10.369 0 0 0 -4.261-.629c-.931 0-1.972.052-3.1.152-.889.08-1.66.118-2.356.118a7.739 7.739 0 0 1 -4.116-.91c.015.049.023.1.04.145 1.083 3.151 1.674 4.53 1.723 5.072s-.591 2.462-.394 3.053 1.527.64 1.625.985a18.406 18.406 0 0 0 .985 1.822s.11.481.287.985a1.132 1.132 0 0 0 1.76.527 37.434 37.434 0 0 0 3.174-2.894l6.369-.368a11.783 11.783 0 0 1 -3.047 2.919 19.992 19.992 0 0 1 -5.072 2.457l.459-1.724c-.344.3-.673.578-.953.8a2.6 2.6 0 0 1 -1.606.549 2.646 2.646 0 0 1 -2.491-1.764c-.124-.354-.218-.69-.274-.907-.111-.187-.206-.351-.294-.5 0 0-3.671 7.845-2.448 9.952 1.12 1.928 6.466.725 12.073-1.462 7.119-2.775 7.652-3.809 9.118-3.487 8.336 1.832 21.87.731 21.87.731v-10.651l-4.142 2.406a9.9 9.9 0 0 1 -6.249 2.482z"/></svg>