<svg id="Capa_1" enable-background="new 0 0 512.497 512.497" height="512" viewBox="0 0 512.497 512.497" width="512" xmlns="http://www.w3.org/2000/svg"><g><path d="m229.52 82.399c2.66-3.051 5.24-6.419 7.668-10.011 2.32-3.432 1.418-8.094-2.013-10.414-3.432-2.32-8.094-1.418-10.414 2.013-2.086 3.086-4.289 5.964-6.547 8.554-16.93 19.417-41.39 30.017-66.324 30.015-10.298 0-20.681-1.81-30.642-5.552-18.041-6.78-32.559-19.158-41.985-35.796-9.022-15.928-12.471-34.597-9.709-52.568.629-4.094-2.18-7.923-6.274-8.552-4.097-.625-7.923 2.18-8.552 6.274-3.271 21.288.808 43.393 11.486 62.241 5.937 10.48 13.589 19.517 22.647 26.907l15.69 31.398c31.291 62.618 26.048 137.32-13.684 194.954l-.992 1.439c-2.351 3.411-1.491 8.081 1.919 10.431 1.299.896 2.782 1.325 4.249 1.325 2.384 0 4.728-1.133 6.182-3.245l.991-1.438c42.833-62.132 48.485-142.666 14.751-210.172l-5.22-10.447c1.066.443 2.136.881 3.225 1.29 11.666 4.384 23.82 6.502 35.881 6.502 29.197 0 57.844-12.412 77.667-35.148z"/><path d="m264.901 82.399c10.504 12.047 23.891 21.601 38.713 27.628.926.376 1.882.554 2.822.554 2.961 0 5.767-1.765 6.95-4.677 1.561-3.837-.285-8.212-4.122-9.773-12.658-5.147-24.089-13.304-33.057-23.59-2.262-2.594-4.465-5.472-6.547-8.553-2.318-3.431-6.98-4.334-10.413-2.014-3.433 2.319-4.334 6.981-2.015 10.414 2.426 3.587 5.005 6.955 7.669 10.011z"/><path d="m129.501 45.15c4.142 0 7.5-3.358 7.5-7.5v-4.049c0-4.142-3.358-7.5-7.5-7.5s-7.5 3.358-7.5 7.5v4.049c0 4.142 3.358 7.5 7.5 7.5z"/><path d="m365.627 45.15c4.143 0 7.5-3.358 7.5-7.5v-4.049c0-4.142-3.357-7.5-7.5-7.5s-7.5 3.358-7.5 7.5v4.049c0 4.142 3.358 7.5 7.5 7.5z"/><path d="m82.08 347.76c-3.427-2.329-8.091-1.439-10.419 1.986-26.86 39.517-36.688 87.112-27.674 134.019l4.352 22.646c.69 3.589 3.832 6.086 7.357 6.086.469 0 .946-.044 1.424-.136 4.067-.782 6.731-4.713 5.95-8.781l-4.352-22.646c-8.256-42.964.747-86.56 25.349-122.755 2.328-3.426 1.438-8.091-1.987-10.419z"/><path d="m446.659 439.269c-4.142.08-7.434 3.502-7.354 7.644.222 11.427-.752 22.874-2.895 34.021l-4.352 22.646c-.781 4.068 1.882 7.999 5.95 8.781.478.092.954.136 1.423.136 3.525 0 6.668-2.497 7.357-6.086l4.352-22.646c2.34-12.174 3.403-24.671 3.162-37.144-.08-4.14-3.459-7.422-7.643-7.352z"/><path d="m411.116 352.51c1.468 0 2.95-.43 4.25-1.326 3.41-2.351 4.269-7.021 1.918-10.432l-13.024-18.892c-39.73-57.633-44.974-132.335-13.683-194.953l16.175-32.371c8.541-7.205 15.778-15.914 21.455-25.934 10.678-18.849 14.758-40.953 11.486-62.241-.63-4.094-4.458-6.9-8.552-6.274-4.095.629-6.903 4.458-6.274 8.552 2.762 17.971-.688 36.641-9.711 52.569-9.426 16.638-23.944 29.016-41.985 35.796-11.264 4.233-23.079 6.08-35.117 5.491-4.128-.196-7.656 2.987-7.858 7.125s2.987 7.655 7.124 7.858c1.708.083 3.408.125 5.107.125 12.33 0 24.425-2.2 36.021-6.558 1.389-.522 2.759-1.075 4.112-1.653l-5.401 10.81c-33.733 67.506-28.082 148.04 14.751 210.172l13.023 18.892c1.456 2.11 3.799 3.244 6.183 3.244z"/><path d="m311.466 430.323-16.935 16.604c-12.617 12.371-29.298 19.185-46.968 19.185s-34.351-6.813-46.968-19.185l-16.934-16.604c-2.958-2.899-7.706-2.853-10.606.104-2.9 2.958-2.853 7.706.104 10.606l16.934 16.604c13.52 13.255 30.851 21.295 49.47 23.089v24.269c0 4.142 3.358 7.5 7.5 7.5 4.143 0 7.5-3.358 7.5-7.5v-24.196c18.997-1.599 36.71-9.67 50.47-23.162l16.935-16.604c2.957-2.9 3.004-7.648.104-10.606-2.901-2.958-7.649-3.003-10.606-.104z"/><path d="m143.367 377.907c-6.463-2.817-10.845-7.041-13.396-12.911-1.58-3.638-5.165-5.912-9.143-5.886-3.969.062-7.479 2.481-8.943 6.162v.001c-2.26 5.684-6.523 9.787-13.033 12.542-3.733 1.58-6.093 5.216-6.013 9.264.079 4.017 2.56 7.529 6.32 8.948 5.898 2.226 10.004 6.478 12.551 13 1.468 3.759 5.022 6.202 9.055 6.225h.057c4.033 0 7.609-2.414 9.122-6.163 2.573-6.376 6.831-10.636 13.019-13.024 3.743-1.445 6.216-4.963 6.3-8.962.085-3.989-2.23-7.599-5.896-9.196zm-17.544-7.093c-.001.003-.002.005-.002.007.001-.002.002-.005.002-.007zm-4.906 23.8c-2.149-3.034-4.677-5.637-7.575-7.799 3.009-2.172 5.595-4.69 7.748-7.541 2.182 2.831 4.757 5.334 7.714 7.501-3.027 2.185-5.659 4.802-7.887 7.839z"/><path d="m212.478 175.291c-1.626-3.742-5.291-6.136-9.369-6.136-.054 0-.109 0-.164.001-4.138.065-7.797 2.586-9.322 6.423-2.812 7.072-8.089 12.165-16.133 15.57-3.895 1.649-6.358 5.442-6.274 9.665.083 4.186 2.669 7.846 6.587 9.324 7.35 2.773 12.458 8.052 15.617 16.137 1.53 3.918 5.235 6.465 9.439 6.489h.059c4.207 0 7.938-2.519 9.516-6.43 3.188-7.901 8.472-13.183 16.152-16.147 3.905-1.507 6.486-5.176 6.575-9.347.089-4.159-2.325-7.923-6.149-9.589-7.969-3.473-13.377-8.693-16.534-15.96zm-9.468 36.86c-3.039-4.726-6.815-8.612-11.31-11.636 4.665-3.081 8.512-6.826 11.519-11.211 3.082 4.369 6.929 8.106 11.519 11.19-4.676 3.058-8.594 6.951-11.728 11.657z"/><path d="m465.393 380.819c-9.3-4.053-15.617-10.157-19.312-18.664-1.709-3.928-5.562-6.411-9.88-6.354-4.286.068-8.076 2.68-9.656 6.653-3.301 8.302-9.477 14.272-18.881 18.253-4.039 1.71-6.592 5.644-6.505 10.021.086 4.336 2.766 8.127 6.824 9.658 8.637 3.259 14.634 9.448 18.333 18.918 1.585 4.059 5.423 6.698 9.776 6.723h.062c4.36 0 8.228-2.61 9.865-6.666 3.733-9.253 9.926-15.441 18.93-18.917 4.049-1.563 6.725-5.366 6.817-9.689.093-4.308-2.409-8.209-6.373-9.936zm-29.147 24.725c-3.794-6.338-8.716-11.399-14.725-15.141 6.24-3.861 11.243-8.731 14.964-14.566 3.843 5.822 8.855 10.69 14.995 14.562-6.239 3.79-11.332 8.853-15.234 15.145z"/></g></svg>