<?xml version="1.0" encoding="UTF-8"?>
<svg xmlns="http://www.w3.org/2000/svg" id="outline" viewBox="0 0 512 512" width="512" height="512"><path d="M45.646,171.516a39.991,39.991,0,0,0,27.82,59.942A81.615,81.615,0,0,0,70.2,278.943l.786,3.414A8,8,0,0,0,81.7,288.011l11.431-4.48a82.114,82.114,0,0,0,45.509-44.3l1.347,7.409A224.171,224.171,0,0,0,193.82,356.653a23.966,23.966,0,0,0,.11,38.772A80.479,80.479,0,0,0,176,446.279a29.911,29.911,0,0,0,23.563,29.375c1.079.239,2.167.464,3.253.69A23.918,23.918,0,0,0,226.349,496h61.737a23.95,23.95,0,0,0,23.622-20.19c.243-.053.487-.1.729-.156A29.912,29.912,0,0,0,336,446.279a80.479,80.479,0,0,0-17.93-50.854,23.967,23.967,0,0,0,.386-38.568l2.926-2.926a226.451,226.451,0,0,0,54.43-88.068l6.733-20.2,3.7,7.059a73.564,73.564,0,0,0,55.7,38.75l37.031,4.769a8,8,0,0,0,8.928-9.155l-3.447-22.341a73.125,73.125,0,0,0-22.925-42.917,39.974,39.974,0,0,0-1.71-31.611,40,40,0,0,0-20.448-77.277,40.132,40.132,0,0,0-24.933-30.235,153.165,153.165,0,0,0,1.754-46.08,10.658,10.658,0,0,0-2.8-6.438,10.742,10.742,0,0,0-7.337-3.083,152.135,152.135,0,0,0-62.423,9.625c-10.375,3.95-18.329,8.7-24.128,14.4a40,40,0,0,0-24.129-2.189,40,40,0,0,0-78.752,0,39.918,39.918,0,0,0-19.186.486c-4.479-9.866-12.887-18.434-23.872-24.094-12.4-6.394-25.976-8.3-36.416-9.247a11.756,11.756,0,0,0-7.317,1.395,11.681,11.681,0,0,0-4.687,5.688,87.521,87.521,0,0,0-6.936,41.323A39.963,39.963,0,0,0,72.624,96.94a39.987,39.987,0,0,0-26.978,74.576Zm41.646,97.118-2.558,1a65.642,65.642,0,0,1,6.73-39.32A40.1,40.1,0,0,0,108,220.559a40.1,40.1,0,0,0,16.959,9.875l-.173.451A66.081,66.081,0,0,1,87.292,268.634ZM304,368a8,8,0,0,1,0,16H208a8,8,0,0,1,0-16ZM192,446.279a64.673,64.673,0,0,1,19.067-46.033l.246-.246H225.87l-4.857,8.1a121.63,121.63,0,0,0-16.2,45.619l-.929,6.5c-.284-.062-.571-.118-.854-.181A14.007,14.007,0,0,1,192,446.279ZM288.086,480H226.349a7.915,7.915,0,0,1-7.835-9.033l2.142-14.99a105.7,105.7,0,0,1,14.077-39.649L244.53,400h23.625l4.556,5.695A106.664,106.664,0,0,1,296,472.086,7.923,7.923,0,0,1,288.086,480Zm23.21-20.694A122.867,122.867,0,0,0,288.484,400h12.2l.246.246A64.673,64.673,0,0,1,320,446.279,14,14,0,0,1,311.3,459.306Zm-1.227-116.688L300.687,352h-7.976a406.932,406.932,0,0,0,17.79-45.426l-15.225-4.922A390.659,390.659,0,0,1,275.008,352H243.747l-1.387-1.665a191.287,191.287,0,0,1-42.441-95.466l-15.838,2.262A207.252,207.252,0,0,0,223.3,352H211.357a208.321,208.321,0,0,1-55.629-108.218l-2.826-15.54a40.184,40.184,0,0,0,12.143-8.783,97.462,97.462,0,0,0,43.481,30.232l12.964,4.454a8,8,0,0,0,10.419-5.879l6.816-31.589a97.135,97.135,0,0,0,1.786-11.8,39.959,39.959,0,0,0,32.547-.7,53.83,53.83,0,0,0,2.981,16.754l4.8,13.716a8,8,0,0,0,9.179,5.188l15.726-3.271a53.185,53.185,0,0,0,5.474-1.464l-4.63,23.148c-1.869,9.346-4.111,18.739-6.662,27.92l15.416,4.284c2.656-9.557,4.989-19.336,6.936-29.066l5.563-27.815-8.718-1.744a53.957,53.957,0,0,0,12-8.33,40.08,40.08,0,0,0,33.8,24.375L360.633,260.8A210.386,210.386,0,0,1,310.069,342.618ZM171.821,174.211a40.053,40.053,0,0,0,12.189-6.225,39.943,39.943,0,0,0,32.614,7.074,39.851,39.851,0,0,0,8.284,18.065v3.082a81.288,81.288,0,0,1-1.823,17.1l-4.916,22.783-4.444-1.526a81.39,81.39,0,0,1-39.813-29.832,39.9,39.9,0,0,0-2.091-30.517Zm146.369-.82a39.832,39.832,0,0,0,15.433,14.162,39.894,39.894,0,0,0-4.867,12.752A37.749,37.749,0,0,1,302.49,220.9l-8.863,1.843-2.487-7.1a37.772,37.772,0,0,1-1.764-17.594c1.008-7.277,1.517-9.96,1.722-10.89a39.725,39.725,0,0,0,4.278-12.1,39.944,39.944,0,0,0,22.814-1.669Zm-27.668,14.8,0,0c.109-.185.211-.374.317-.562C290.749,187.8,290.646,187.992,290.522,188.193Zm178.124,78.992,1.825,11.828-26.48-3.41a57.555,57.555,0,0,1-43.574-30.315l-4.527-8.627c.036-.035.074-.067.11-.1a39.942,39.942,0,0,0,56.848-.893A57.209,57.209,0,0,1,468.646,267.185ZM424,120a24.391,24.391,0,0,1-.241,3.367,8,8,0,0,0,12.01,7.985A24,24,0,1,1,448,176c-.729,0-1.471-.036-2.269-.111a8,8,0,0,0-6,14A24,24,0,1,1,403,219.613a8,8,0,0,0-13.994,0,24,24,0,1,1-36.56-29.879,8,8,0,0,0-4.013-14A23.882,23.882,0,0,1,331.7,164.813a39.9,39.9,0,0,0,11.774-35.252,24.016,24.016,0,0,1,20.755,1.791,8,8,0,0,0,12.009-7.988A24.3,24.3,0,0,1,376,120a24,24,0,0,1,48,0ZM349.326,51.683A136.094,136.094,0,0,1,400.732,42.9a137.187,137.187,0,0,1-2.078,37.134,40.067,40.067,0,0,0-38.03,32.91,40.037,40.037,0,0,0-22.836,1.667q-.846-1.337-1.8-2.607A39.922,39.922,0,0,0,333,60.5C337.027,57.224,342.424,54.31,349.326,51.683ZM220.232,67.352a8,8,0,0,0,12.009-7.988A24.3,24.3,0,0,1,232,56a24,24,0,0,1,48,0,24.391,24.391,0,0,1-.241,3.367,8,8,0,0,0,12.01,7.985A23.995,23.995,0,0,1,319.863,106a8,8,0,0,0,0,12,24,24,0,0,1-28.094,38.648,8,8,0,0,0-12.01,7.985A24.391,24.391,0,0,1,280,168a24,24,0,0,1-48,0,24.3,24.3,0,0,1,.241-3.364,8,8,0,0,0-12.009-7.988A24,24,0,0,1,192.138,118a8,8,0,0,0,0-12,24,24,0,0,1,28.094-38.649ZM138.686,32.313c8.481.905,18.673,2.666,27.551,7.241,8.039,4.143,14.042,10.263,16.925,17.127a39.87,39.87,0,0,0-14.115,40.368,39.776,39.776,0,0,0-17.671-.109A40.063,40.063,0,0,0,135.26,71.48,71.634,71.634,0,0,1,138.686,32.313ZM64,112a23.956,23.956,0,0,1,12.232,3.352,8,8,0,0,0,12.009-7.988A24.3,24.3,0,0,1,88,104a24,24,0,0,1,48,0,24.391,24.391,0,0,1-.241,3.367,8,8,0,0,0,12.01,7.985,23.979,23.979,0,0,1,25.569.7,39.894,39.894,0,0,0,.009,39.886A24.008,24.008,0,0,1,160,160c-.729,0-1.471-.036-2.269-.111a8,8,0,0,0-6,14A24,24,0,1,1,115,203.613a8,8,0,0,0-13.994,0,24,24,0,1,1-36.56-29.879,8,8,0,0,0-4.013-14A24,24,0,0,1,64,112Z"/><path d="M112,176a24,24,0,1,0-24-24A24.027,24.027,0,0,0,112,176Zm0-32a8,8,0,1,1-8,8A8.009,8.009,0,0,1,112,144Z"/><path d="M256,136a24,24,0,1,0-24-24A24.027,24.027,0,0,0,256,136Zm0-32a8,8,0,1,1-8,8A8.009,8.009,0,0,1,256,104Z"/><path d="M376,168a24,24,0,1,0,24-24A24.027,24.027,0,0,0,376,168Zm32,0a8,8,0,1,1-8-8A8.009,8.009,0,0,1,408,168Z"/></svg>
