<svg id="Capa_1" enable-background="new 0 0 511.698 511.698" height="512" viewBox="0 0 511.698 511.698" width="512" xmlns="http://www.w3.org/2000/svg"><g><path d="m402.097 127.684c3.421-.848 6.462-2.502 8.946-4.985 6.688-6.688 7.398-17.403 2.371-28.789 11.605-4.495 18.68-12.575 18.68-22.034 0-9.468-7.089-17.554-18.715-22.048 4.92-11.329 4.232-22.206-2.336-28.775-6.689-6.688-17.405-7.4-28.79-2.372-4.497-11.607-12.576-18.681-22.035-18.681-9.468 0-17.554 7.089-22.048 18.715-11.326-4.92-22.206-4.233-28.772 2.335-.327.327-.842.736-1.408 1.153-5.316-.768-11.401.249-17.695 3.026-4.497-11.605-12.576-18.68-22.034-18.68s-17.538 7.074-22.034 18.68c-5.856-2.586-11.529-3.641-16.573-3.159-.295-.345-.583-.697-.904-1.018-6.688-6.69-17.406-7.401-28.79-2.373-4.497-11.605-12.576-18.679-22.034-18.679s-17.538 7.074-22.034 18.68c-11.387-5.028-22.102-4.315-28.789 2.372-6.569 6.568-7.257 17.445-2.337 28.775-11.626 4.494-18.715 12.58-18.715 22.048 0 12.238 15.497 18.864 26.297 21.996-.911 5.491.075 11.857 2.923 18.372-10.231 4.206-17.104 11.641-18.652 20.678-1.092 6.374 1.408 12.087 5.124 16.829h-24.38v7.5c0 16.863 2.535 33.44 7.525 49.361-4.99 4.234-9.298 10.077-12.684 17.274-3.573 7.597-4.947 14.192-5.003 14.47l-1.136 5.551 5.029 2.61c.251.13 6.242 3.213 14.395 5.216 4.7 1.154 9.223 1.729 13.495 1.729 3.046 0 5.962-.294 8.722-.877 16.404 23.097 38.642 41.701 64.095 53.787v31.184l-35.115 124.747 67.677 15.487v30.379l6.271 1.042c.757.126 15.252 2.487 35.233 2.487 5.161 0 10.688-.157 16.438-.552 37.931-2.601 67.314-14.479 84.977-34.352l2.728-3.069-17.647-62.482-14.436 4.076 15.374 54.434c-31.849 31.567-94.049 27.659-113.938 25.47v-148.91h18.938v72.5h15v-72.5h12.835l12.589 44.575 14.436-4.076-11.438-40.499h16.716l15.234 53.944 14.436-4.076-11.642-41.223 37.283 23.211 7.928-12.734-42.762-26.622 42.762-26.621-7.928-12.734-42.073 26.192v-18.756c17.685-8.226 33.917-19.592 47.721-33.5 3.719.872 7.739 1.32 12.011 1.32 1.2 0 2.421-.035 3.659-.105 8.382-.476 14.835-2.41 15.105-2.492l5.423-1.645-.101-5.665c-.005-.283-.147-7.02-2.27-15.142-1.383-5.293-3.318-10.029-5.73-14.127 12.923-23.94 19.743-50.902 19.743-78.288v-7.5h-15.697c-1.304-7.669-4.5-15.108-9.444-22.065zm-81.998 19.901c-11.354-2.789-21.689-2.195-29.89 1.717-6.591 3.144-12.381 8.711-16.984 16.266l-1.266-15.647c7.846-1.594 14.439-8.241 18.336-18.3 11.387 5.028 22.101 4.316 28.789-2.371.408-.408.792-.832 1.156-1.27 3.515.541 7.364.302 11.37-.693l-5.688 22c-1.757-.594-3.716-1.184-5.823-1.702zm1.887 16.191c-2.49 6.952-7.426 16.557-15.205 20.268-7.781 3.712-18.356 1.503-25.32-.936 2.49-6.952 7.426-16.557 15.205-20.268h.001c7.781-3.713 18.355-1.503 25.319.936zm-74.973 40.738c-3.947-5.67-8.324-10.967-13.069-15.864 1.955-.904 3.732-2.106 5.266-3.639 6.688-6.688 7.398-17.403 2.372-28.789 5.353-2.073 9.726-4.916 12.901-8.298.784.281 1.563.538 2.327.757l3.236 39.999c-4.772 4.937-9.134 10.229-13.033 15.834zm97.775-68.274c4.271 4.802 9.585 7.51 15.43 7.51 8.918 0 16.607-6.291 21.225-16.737 7.713 6.991 12.762 14.751 14.775 22.737h-44.48c-3.522 0-7.048.149-10.557.438zm-6.233-100.18 9.58 6.646 2.075-11.474c1.815-10.026 6.607-16.232 10.008-16.232s8.194 6.206 10.008 16.232l2.074 11.474 9.58-6.646c8.373-5.807 16.151-6.807 18.555-4.4 2.405 2.404 1.406 10.182-4.401 18.553l-6.646 9.58 11.474 2.075c10.026 1.814 16.232 6.607 16.232 10.008s-6.206 8.194-16.231 10.008l-11.475 2.074 6.646 9.58c5.807 8.372 6.806 16.15 4.402 18.555-2.407 2.404-10.185 1.405-18.556-4.401l-9.58-6.646-2.074 11.475c-1.813 10.025-6.606 16.231-10.008 16.231-3.4 0-8.193-6.206-10.008-16.232l-2.075-11.473-9.579 6.646c-5.292 3.669-10.289 5.364-13.864 5.563-.203-4.033-1.278-8.361-3.236-12.795 11.605-4.496 18.68-12.575 18.68-22.034 0-9.468-7.089-17.554-18.715-22.048 4.197-9.665 4.298-18.991.163-25.603 3.368-1.063 9.955.416 16.971 5.284zm-91.957 6.549 9.58 6.646 2.075-11.473c1.813-10.026 6.606-16.232 10.008-16.232 3.4 0 8.193 6.206 10.008 16.232l2.075 11.473 9.579-6.646c8.373-5.807 16.149-6.807 18.555-4.4 2.405 2.404 1.406 10.182-4.401 18.553l-6.646 9.58 11.474 2.075c10.026 1.814 16.232 6.607 16.232 10.008s-6.206 8.194-16.232 10.008l-11.474 2.074 6.646 9.58c5.807 8.372 6.806 16.15 4.4 18.555-2.404 2.405-10.182 1.406-18.554-4.401l-9.579-6.646-2.075 11.473c-1.814 10.026-6.607 16.232-10.008 16.232-2.276 0-5.208-.365-8.007-1.263-.075-9.393-7.129-17.411-18.673-21.884 5.027-11.386 4.316-22.101-2.372-28.788-6.539-6.541-16.925-7.352-28.022-2.689.119-.784.198-1.539.198-2.251 0-3.4 6.206-8.193 16.232-10.008l11.473-2.075-6.646-9.58c-5.808-8.371-6.807-16.148-4.401-18.554 2.405-2.402 10.183-1.405 18.555 4.401zm-125.537 29.032c.275-3.383 6.425-8.001 16.223-9.773l11.473-2.075-6.646-9.58c-5.808-8.371-6.807-16.148-4.401-18.554 2.403-2.403 10.182-1.405 18.554 4.401l9.58 6.646 2.075-11.473c1.813-10.027 6.606-16.233 10.007-16.233 3.4 0 8.194 6.206 10.007 16.232l2.076 11.473 9.58-6.646c6.114-4.241 11.901-5.909 15.52-5.567-4.314 6.628-4.264 16.083-.008 25.885-6.397 2.471-11.409 6.03-14.633 10.293-3.583-2.809-7.679-4.358-12.081-4.358-9.458 0-17.538 7.074-22.034 18.68-9.579-4.23-18.672-4.38-25.302-.346-11.661-2.589-18.902-6.945-19.99-9.005zm10.342 63.813c.894-5.215 7.308-9.64 16.34-11.274l11.473-2.075-6.646-9.58c-5.808-8.371-6.807-16.148-4.401-18.554 2.405-2.403 10.183-1.404 18.554 4.401l9.58 6.646 2.075-11.473c1.813-10.026 6.606-16.232 10.007-16.232s8.194 6.206 10.007 16.232l2.075 11.474 9.58-6.646c8.372-5.808 16.149-6.808 18.554-4.4 2.405 2.404 1.406 10.182-4.402 18.554l-6.645 9.579 11.473 2.075c10.026 1.814 16.232 6.607 16.232 10.008s-6.206 8.194-16.232 10.008l-11.473 2.074 6.645 9.58c5.807 8.372 6.806 16.15 4.402 18.555-1.522 1.523-5.94 1.896-12.1-.783-20.613-14.742-45.474-23.274-71.514-23.826-6.526-3.726-14.254-10.433-13.584-14.343zm-27.802 100.088c2.49-6.953 7.426-16.558 15.205-20.269 7.772-3.709 18.33-1.508 25.294.927-2.277 6.421-6.986 16.369-15.179 20.277-7.781 3.713-18.355 1.502-25.32-.935zm213.075 95.77h-109.875v-16.938h109.875zm-92.313 131.09-48.968-11.205 29.523-104.885h19.445zm150.462-207.081c-6.971-5.074-10.063-15.425-11.237-22.709 7.301-1.122 18.096-1.356 25.063 3.715 6.971 5.074 10.063 15.425 11.237 22.709-7.299 1.123-18.094 1.359-25.063-3.715zm21.913-31.631c-7.275-4.989-17.038-7.294-28.328-6.65-8.382.476-14.835 2.41-15.105 2.492l-5.423 1.645.101 5.665c.005.283.147 7.02 2.27 15.142 2.803 10.728 7.848 19.196 14.628 24.604-15.181 14.232-33.244 25.25-52.791 32.131h-34.349l24.77-49.54-13.416-6.709-28.125 56.249h-21.73v-21.469c0-6.734.599-13.479 1.78-20.048l-14.764-2.654c-1.338 7.441-2.016 15.08-2.016 22.702v21.469h-11.726c-28.215-9.934-53.116-28.43-70.939-52.556 5.528-4.294 10.28-10.499 13.948-18.297 3.573-7.597 4.947-14.192 5.003-14.47l1.136-5.551-5.029-2.61c-.251-.13-6.242-3.213-14.395-5.216-8.701-2.137-16.8-2.28-23.803-.474-3.318-11.301-5.304-22.948-5.886-34.795h29.753c39.243 0 75.745 20.608 96.118 54.014-3.328 6.436-6.112 13.162-8.303 20.115l14.306 4.51c5.646-17.909 15.742-34.124 29.31-47.184 2.499.995 5.818 2.161 9.618 3.095 4.7 1.154 9.224 1.729 13.495 1.729 6.049-.001 11.59-1.153 16.396-3.446 8.2-3.912 15.166-11.571 20.142-22.15 1.735-3.688 2.948-7.133 3.746-9.741 4.828-.625 9.723-.942 14.61-.942h60.312c-1.026 20.525-6.256 40.617-15.314 58.94z"/><path d="m260.761 70.925h15v15h-15z"/><path d="m180.812 126.683h15v15h-15z"/><path d="m352.53 64.375h15v15h-15z"/><path d="m60.143 114.576c7.016 5.721 16.869 8.743 28.502 8.743.043 0 .088 0 .132-.001 8.396-.016 14.945-1.594 15.22-1.661l5.504-1.345.209-5.663c.011-.282.237-7.016-1.436-15.242-2.331-11.456-7.285-20.547-14.327-26.289-7.016-5.721-16.869-8.743-28.503-8.743-.043 0-.088 0-.132.001-8.396.016-14.945 1.594-15.22 1.661l-5.504 1.345-.209 5.662c-.011.283-.238 7.017 1.436 15.243 2.332 11.456 7.286 20.547 14.328 26.289zm24.326-29.833c6.682 5.449 9.203 15.953 9.976 23.291-7.35.719-18.143.363-24.822-5.083-6.682-5.449-9.204-15.953-9.976-23.291 7.348-.721 18.143-.364 24.822 5.083z"/><path d="m478.384 95.097c-10.881-4.273-21.205-5.057-29.854-2.269-8.647 2.788-16.568 9.455-22.906 19.279-4.55 7.055-6.787 13.41-6.881 13.677l-1.863 5.352 4.639 3.255c.231.162 5.759 4.014 13.574 7.082 6.615 2.598 13.024 3.905 18.977 3.905 3.838 0 7.486-.544 10.877-1.638 8.647-2.788 16.568-9.454 22.905-19.278 4.551-7.055 6.788-13.409 6.882-13.677l1.863-5.352-4.639-3.255c-.231-.161-5.759-4.013-13.574-7.081zm-18.041 34.368c-8.197 2.64-18.368-.941-24.947-4.278 3.11-6.062 9.098-15.296 17.738-18.081v-.001c8.195-2.642 18.367.941 24.947 4.278-3.11 6.061-9.098 15.296-17.738 18.082z"/><path d="m442.259 78.774 1.746 5.391 5.662-.206c.283-.011 7.015-.278 15.097-2.551 11.254-3.164 19.957-8.771 25.167-16.216s7.499-17.541 6.619-29.199c-.632-8.371-2.686-14.788-2.772-15.057l-1.745-5.392-5.663.206c-.283.011-7.015.278-15.097 2.551-11.255 3.165-19.957 8.772-25.168 16.217-5.21 7.444-7.499 17.541-6.618 29.198.631 8.373 2.685 14.789 2.772 15.058zm16.135-35.654c4.944-7.064 15.235-10.35 22.497-11.658 1.258 7.277 1.693 18.068-3.249 25.129-4.938 7.055-15.21 10.341-22.47 11.652-1.181-6.71-1.983-17.686 3.222-25.123z"/><path d="m94.503 137.689-4.66-3.224c-.233-.16-5.787-3.974-13.623-6.988-10.912-4.199-21.242-4.911-29.868-2.063-8.629 2.848-16.504 9.568-22.773 19.436-4.502 7.086-6.696 13.456-6.787 13.724l-1.827 5.364 4.661 3.223c.232.161 5.787 3.974 13.622 6.988 6.531 2.512 12.851 3.776 18.724 3.776 3.94 0 7.68-.569 11.144-1.713 8.629-2.848 16.504-9.568 22.773-19.436 4.502-7.086 6.696-13.456 6.787-13.724zm-36.088 24.279c-8.177 2.697-18.374-.814-24.977-4.106 3.069-6.083 8.993-15.358 17.613-18.203 8.178-2.697 18.374.814 24.976 4.106-3.067 6.083-8.992 15.358-17.612 18.203z"/><path d="m59.761 22.925h15v15h-15z"/><path d="m464.238 194.312h15v15h-15z"/><path d="m36.738 203.312h15v15h-15z"/></g></svg>