<svg enable-background="new 0 0 500 500" viewBox="0 0 500 500" xmlns="http://www.w3.org/2000/svg"><g id="Layer_2"/><g id="Layer_1"><g><path d="m35.0661 270.1107c.8586 1.8936 1.9692 3.5803 3.2733 5.1027-.0101.0217-.0253.0391-.035.0609-7.0479 15.7373-1.3662 27.7617 7.3906 32.6973 3.2656 1.8413 6.9473 2.7676 10.8135 2.7676 3.0293 0 6.1738-.5693 9.3184-1.7139.6069-.2209 1.2095-.4699 1.8098-.7316.2698.1633.5876.3521.9551.5654-.002.0591-.0171.1144-.0168.174.0483 11.584 3.4866 20.9136 10.2098 27.7415.0011.0013.0018.0029.0031.0042 1.0879 1.2036 27.1084 29.7002 68.1387 48.8872 23.874 11.1646 47.9199 16.8218 71.4912 16.8218.3652 0 .7314-.0015 1.0967-.0039 20.1316-.1503 39.8923-4.4708 59.0421-12.8434-11.6995 14.1859-25.4862 33.1689-34.5861 53.0881-.7803 1.7075-.5381 3.708.627 5.1802 1.1641 1.4717 3.0527 2.1714 4.8965 1.8013l24.5322-4.8809 14.7725 21.4209c.9434 1.3677 2.4902 2.1611 4.1152 2.1611.2939 0 .5908-.0259.8867-.0791 1.9316-.3477 3.4805-1.793 3.9619-3.6953.0916-.3621 7.0098-27.5458 17.2214-56.1937.6245 13.79 2.3893 25.3726 4.0706 31.2269 3.3057 11.5103 8.502 18.4395 15.4463 20.5962 1.502.4663 3.043.6992 4.6221.6992 5.0059 0 10.3799-2.3428 16.0381-7.002 5.1738-4.2607 8.3721-7.8242 10.9424-10.687 4.7119-5.249 7.5557-8.417 19.1855-12.5947 2.916-1.0474 5.8926-1.9321 8.7725-2.7876 7.8799-2.3418 15.3232-4.5537 20.5029-9.7329 5.1777-5.1787 7.3896-12.6216 9.7314-20.502.8555-2.8794 1.7412-5.8564 2.7891-8.7729 4.1768-11.6294 7.3447-14.4736 12.5938-19.1851 2.8633-2.5703 6.4258-5.769 10.6865-10.9424 6.1289-7.4419 8.25-14.3931 6.3037-20.6606-2.1572-6.9438-9.0859-12.1406-20.5967-15.4458-7.1807-2.0619-20.4746-3.7668-35.0107-4.1877 30.7734-11.4215 61.9377-19.3529 62.3252-19.4509 1.9023-.481 3.3477-2.0308 3.6953-3.9619.3477-1.9316-.4668-3.8877-2.082-5.002l-21.4209-14.7729 4.8809-24.5322c.3662-1.8408-.3301-3.7319-1.8018-4.897-1.4727-1.1641-3.4727-1.4072-5.1807-.6265-20.9061 9.5511-40.7729 24.2607-55.153 36.3053 8.4686-19.5938 12.6924-39.8294 12.5631-60.4401-.1484-23.6152-5.9707-47.7041-17.3066-71.5977-19.1144-40.2889-46.9971-65.833-48.3767-67.0823-7.9717-7.896-18.0629-12.2371-30.0037-12.9232-1.2675-2.491-2.3662-4.4554-3.1453-5.7889 2.8369-6.3077 3.11-12.0619.1213-17.9869-4.1796-8.2877-13.7805-11.2531-28.5383-8.841-2.3798-2.1157-5.1548-3.6315-8.3337-4.4837-9.2407-2.4808-19.1673 1.4558-23.5701 3.5882-5.165-1.8228-13.239-2.3966-24.1223 3.5261-15.9562 8.6851-20.0544 17.1566-20.5095 23.0239-3.3191 2.2476-11.1954 8.205-15.2755 16.4961-.3724-.4996-.7637-.9912-1.1925-1.4673-7.5588-8.3896-19.9636-5.5101-29.8582-1.0239-2.8257-1.402-5.8708-2.1343-9.1272-2.1343-.0303 0-.0625 0-.0928 0-9.5725.0396-18.1124 6.447-21.7981 9.6619-5.4626-.4001-13.4037 1.1691-22.3445 9.7458-13.1108 12.5776-14.8365 21.8284-13.7327 27.6091-3.2708 3.8094-11.9197 15.1139-10.7908 26.9817.197 2.074.6694 4.046 1.4106 5.9128-.0081.0085-.0178.0141-.0259.0227-8.8088 9.419-11.1157 20.9388-6.1316 29.791-3.6641 3.5253-6.2476 7.4818-7.653 9.9211-5.2966 1.3962-12.2955 5.4604-17.9655 16.4769-8.3142 16.1534-6.9407 25.463-4.019 30.5714-1.8553 4.6641-6.3629 18.166-1.4398 29.0247zm132.5733-138.5469c.5464-1.0322 1.0569-2.0005 1.5427-2.9251 3.0911 3.076 7.1741 5.3367 11.9739 6.5521.6277.1589 1.2676.2921 1.9126.4134.9011 1.9554 3.0571 6.3179 6.5515 11.6158-1.3828 1.0023-2.5389 1.9496-3.4193 2.7176-5.4628-.4003-13.4037 1.1688-22.3446 9.7458-.7009.6724-1.3611 1.3328-1.9983 1.9862-1.3858-6.5897-1.2657-16.8004 5.7815-30.1058zm106.8847 32.3186c-.1902.0913-.3706.1882-.5625.2786-4.8943 2.3041-9.7373 4.0551-14.405 5.2165-3.3109-3.9438-6.1619-6.8833-7.867-8.5576 1.0782-6.832-.1714-12.4554-4.6128-17.3859-7.5618-8.3923-19.9692-5.5091-29.8657-1.0206-2.8516-1.4103-5.926-2.1407-9.2124-2.1376-3.4019.0141-6.6715.8361-9.6421 2.0301-1.5991-2.3848-2.8983-4.5739-3.9097-6.4008 4.2018-.4903 8.5902-1.5966 13.0674-3.3251 27.3625-10.559 52.137 1.1415 67.0098 31.3024zm8.583 6.843c.327-.1431.6287-.3192.9078-.5189 2.8444-1.6019 5.4988-3.3188 7.9689-5.1453 1.9126 5.2739 4.9214 12.5196 8.8499 18.6817.0405.0635.0889.1187.1316.1797-5.3096 8.5983-11.6211 17.8093-19.1277 27.5319-2.8774-12.9425-9.3311-24.5633-15.6854-33.5403 3.9734-1.2259 8.015-2.7975 12.0692-4.706 1.6602-.7816 3.2472-1.6081 4.7998-2.4555.0283-.0117.0579-.015.0859-.0273zm-136.4367 57.8699c.9464.8707 1.9783 1.7048 3.1028 2.4983 4.4385 3.1318 9.416 4.4854 14.6309 4.4849 18.1904 0 39.2832-16.4604 50.5645-31.332 1.6689-2.2002 1.2383-5.3364-.9619-7.0054-2.2002-1.6694-5.3359-1.2383-7.0049.9614-10.8242 14.2671-37.2744 34.7314-51.4629 24.7202-3.8428-2.7114-5.8867-5.8423-6.249-9.5718-.5901-6.0873 3.3845-12.9824 6.5825-17.2641 1.4149.9614 3.0391 1.7051 4.8452 2.183 5.4697 1.4478 12.3291-.417 17.4824-4.7466 5.5186-4.6367 8.3301-11.4189 7.7139-18.6069-.2354-2.7515-2.6807-4.7827-5.4082-4.5547-2.752.2358-4.791 2.6577-4.5547 5.4092.4346 5.0737-2.0352 8.291-4.1836 10.0962-2.96 2.4868-6.5088 3.2607-8.4912 2.7358-1.7949-.4751-2.8926-1.4419-3.2627-2.874-.8516-3.2935 1.5293-9.9697 10.7646-18.8286 6.0762-5.8281 11.9199-8.1055 16.8916-6.5903 4.9248 1.5024 8.957 6.9053 10.5225 14.1011 2.8301 13.0073-15.6338 25.5474-22.9941 29.2856-2.4648 1.2451-3.4541 4.2524-2.209 6.7173.8799 1.7422 2.6396 2.7471 4.4668 2.7471.7578 0 1.5273-.1729 2.25-.5376 1.3623-.688 33.3096-17.1172 28.2578-40.3384-1.708-7.8526-5.569-14.2158-10.7764-18.1358 3.0461-1.9776 6.9514-3.8575 10.8525-3.8735 3.0576-.0293 5.8066 1.1987 8.2803 3.7051 3.9658 4.0171 5.9014 8.1548 5.752 12.2979-.2539 7.0913-6.3594 12.5273-6.4033 12.5654-2.0938 1.8003-2.332 4.957-.5322 7.0508.9893 1.1504 2.3877 1.7407 3.7939 1.7407 1.1543 0 2.3135-.3975 3.2578-1.2085.3838-.3301 9.4043-8.2119 9.873-19.6748.2466-6.0097-1.8364-11.7371-6.1807-17.0702 5.196-1.8166 10.9094-2.7266 13.7666.4452 5.4424 6.041 1.4814 16.4243-12.4033 42.6406-9.4673 17.8759-8.355 31.6707-5.9717 39.827-15.8613-3.3718-32.0868.2357-46.6738 10.9709-13.7051 10.0854-25.1807 8.7935-30.04 3.3247-4.1435-4.6608-3.2704-11.6941 2.112-18.2952zm26.4189 46.7171c7.4639 5.584 17.1757 11.0955 28.5193 13.6725-7.0911 5.1743-14.9589 10.8932-19.0835 13.8894-6.3857-4.1367-13.9971-7.2729-19.3965-9.2144 5.044-7.082 8.1316-13.6 9.9607-18.3475zm40.563 5.5519c-.1268.0206-.2548.0261-.3804.0566-.5828-.3003-1.2334-.4916-1.9285-.5417-15.5103-1.116-28.428-9.5388-36.7695-16.6949-.4132-.5544-.9413-1.0161-1.5586-1.3627-1.6383-1.4727-3.0527-2.8532-4.2244-4.0576 3.9255-1.5781 7.8694-3.7996 11.7351-6.6445 19.8955-14.6409 42.6321-13.5596 62.7972 2.8302-10.273 10.0394-20.1926 18.7858-29.6709 26.4146zm36.7783-33.5164c-5.3313-4.4379-10.8796-7.9551-16.5486-10.5471-.1461-.5901-.3921-1.1653-.7651-1.6912-.0967-.1372-9.5771-13.9814 2.9648-37.6616 5.2429-9.9002 9.5654-18.2791 12.3882-25.5057 8.158 8.9738 23.283 28.3052 24.7974 49.7025.0101.1428.0481.2756.0698.4146-6.7759 8.141-14.3847 16.5911-22.9065 25.2885zm-100.3071-60.0555c-1.3569 1.5806-3.6344 4.45-5.7618 8.1177-8.7606-6.4641-16.749-10.6008-20.3978-12.3509-.2286-1.2999-.5195-2.5349-.8872-3.6973 9.1709-3.9733 18.8552-4.9152 28.3538-2.7571-1.7131 4.3495-1.8361 7.9172-1.307 10.6876zm-29.0222 35.474c1.7429-11.0729 3.1096-20.4062 3.4304-28.1604 4.1729 2.2845 9.8723 5.7258 15.75 10.2503-.8352 3.0057-1.256 6.1903-.949 9.4179.197 2.0743.6697 4.0465 1.4109 5.9135-.0078.0083-.0173.0137-.0251.022-11.7783 12.5938-10.3125 25.8115-3.6348 33.3242 4.334 4.8755 10.7568 7.542 18.1357 7.542.1865 0 .374-.002.5625-.0054.6467-.0118 1.2982-.0516 1.9519-.1042 1.1482 1.3673 3.5558 4.0964 7.0364 7.3612-.3497.9875-.7249 1.9797-1.1367 2.9779-10.874-6.0831-21.6271-9.6193-31.8669-10.658-.325-.489-.7288-.9363-1.2336-1.2991-.1368-.098-13.5997-10.1122-9.4317-36.5819zm38.0693 57.4971c-.106.1824-.1989.3645-.3066.5468-9.293 15.7256-21.2559 25.4019-35.5576 28.7603-18.7844 4.4134-37.3529-3.0453-46.0771-7.436 3.1956-2.7661 6.2-6.145 8.9287-10.087 16.693-24.1159 43.7611-28.3641 73.0126-11.7841zm-47.9726 40.6724c4.6465 0 9.4541-.4771 14.3145-1.6108 11.4187-2.6647 21.502-8.5861 30.1482-17.6356 3.5439 1.1331 10.821 3.6633 17.4058 7.209-13.1602 7.5873-24.6746 12.7587-34.0881 16.2626-30.6201 11.3975-48.7246 8.9502-52.9453 4.73-3.9658-3.9662-6.3636-9.3166-7.1602-15.9449 8.1449 3.435 19.6378 6.9897 32.3251 6.9897zm219.4404 4.5371c-2.2803-6.877 1.7539-15.6133 9.3838-20.3208 3.7344-2.3052 13.3691-6.5197 23.4719 2.9221.3611.5539.8295 1.038 1.3904 1.4162 3.3894 3.665 5.6387 8.3114 7.0537 13.4355.0103.785.2053 1.5441.5586 2.2267 3.8762 17.1786-.6361 38.5895-2.4727 46.0263-7.5139 1.8556-29.2861 6.4413-46.5503 2.3517-.4047-.1606-.8297-.2668-1.2689-.3151-5.6246-1.4944-10.7108-3.9592-14.5734-7.8217-10.3682-10.3682-5.9961-20.3887-3.6348-24.2158 3.8223-6.1953 10.2988-10.02 16.2812-10.02 1.3857 0 2.7471.2056 4.041.6348 1.7939.5942 3.7725.1265 5.1084-1.2104 1.3381-1.3376 1.8058-3.3146 1.2111-5.1095zm-39.7422 126.2046-10.5049-15.2329c-.9443-1.3696-2.4922-2.1611-4.1152-2.1611-.3242 0-.6514.0312-.9766.0962l-17.7754 3.5366c14.6904-27.4204 37.374-52.2988 46.2822-61.5659 3.4883 3.3135 7.3213 5.04 10.5684 5.9297-10.5849 25.0795-19.2363 54.1781-23.4785 69.3974zm156.2217-110.6138c1.1016 3.5454-1.8242 8.1226-4.4717 11.3374-3.7822 4.5928-6.8984 7.3901-9.6484 9.8584-5.751 5.1631-10.2949 9.2412-15.3242 23.2451-1.1426 3.1802-2.0684 6.2944-2.9629 9.3057-2.0566 6.9185-3.832 12.8936-7.2178 16.2798-3.3867 3.3862-9.3613 5.1616-16.2803 7.2178-3.0117.895-6.125 1.8203-9.3047 2.9624-14.0039 5.0308-18.083 9.5737-23.2461 15.3257-2.4688 2.7495-5.2656 5.8657-9.8584 9.6479-3.2148 2.6479-7.792 5.5732-11.3369 4.4717-3.4238-1.063-6.5488-5.9663-8.8008-13.8057-2.3667-8.244-5.0204-30.5218-3.4309-52.8987 4.7489.8071 9.6194 1.1415 14.3762 1.1414 18.2148-.001 34.7139-4.73 35.9131-5.082 1.6348-.479 2.9131-1.7568 3.3916-3.3911.4292-1.4632 7.3711-25.6851 4.2996-48.0239 21.4519-1.1859 42.3909 1.3954 50.0969 3.6079 7.8399 2.2514 12.7432 5.3768 13.8057 8.8002zm-11.9238-59.4219 15.2334 10.5054c-15.2197 4.2417-44.3184 12.8926-69.3984 23.478-.8896-3.2476-2.6162-7.0796-5.9297-10.5679 9.2676-8.9087 34.1455-31.5913 61.5664-46.2827l-3.5371 17.7754c-.3887 1.957.4228 3.9585 2.0654 5.0918zm-95.3965-177.731c9.6396 11.2271 22.7061 28.6084 32.8848 50.1514 10.6445 22.5308 16.0967 45.1641 16.2061 67.2705.1304 26.2687-7.3584 51.9565-22.2302 76.4215-11.3888-8.1509-23.6196-6.2136-31.886-1.1129-9.1689 5.6567-14.6709 15.186-14.7715 24.5142-9.3271.1016-18.8584 5.604-24.5146 14.772-5.1941 8.4199-7.104 20.9503 1.5815 32.5176-24.7648 15.7057-50.7959 23.8026-77.4439 24.037-.4014.0034-.8018.0054-1.2041.0054-22.001 0-44.5264-5.2954-66.9688-15.7456-22-10.2441-39.7402-23.5615-51.1377-33.3472.0869.0005.1748.0005.2617.0005 11.5176-.0005 26.0801-2.9775 41.8916-8.8623 25.4062-9.4565 65.4121-30.4492 111.7158-76.7529 46.3037-46.3042 67.2959-86.3096 76.7529-111.7163 5.9307-15.9322 8.9073-30.5943 8.8624-42.1529zm-13.5049-14.2798c.0011.0011.0024.0018.0037.0029 4.2179 4.2247 6.6619 22.3282-4.7332 52.9414-3.2705 8.7872-7.9967 19.407-14.7806 31.4841-3.1674-6.0201-5.4828-12.4874-6.6666-16.1077 6.3606-6.6123 10.8485-14.3058 13.3779-23.0512 5.6932-19.6863.3069-40.4351-5.4736-54.8007 7.1807 1.3184 13.2011 4.4588 18.2724 9.5312zm-22.416 42.5289c-2.2235 7.6633-6.333 14.3935-12.2688 20.1452-.4302.2929-.8096.6393-1.1238 1.0411-2.1852 1.9975-4.5996 3.8712-7.2429 5.6186-5.5679-11.1298-12.4651-20.09-20.3403-26.7014.0029-.5747-.0774-1.1588-.2869-1.7319-.2256-.6582-5.3125-16.3408 12.748-35.6035 7.6626-8.1727 14.0371-15.1197 18.6611-21.3494 5.8694 11.5116 16.2742 36.4481 9.8536 58.5813zm-49.7578-43.2378c-1.6816-2.188-4.8203-2.5991-7.0117-.915-14.1934 10.918-45.0967 23.7026-56.1523 10.3149-2.9941-3.6274-4.1426-7.1855-3.5107-10.8789 1.031-6.0278 6.6794-11.6349 10.8911-14.9249 1.1122 1.2997 2.4839 2.4446 4.1011 3.381 4.8936 2.8335 12.0049 2.8398 18.1162.0176 6.543-3.022 11.0391-8.8257 12.335-15.9224.4961-2.7163-1.3047-5.3208-4.0205-5.8164-2.7188-.499-5.3213 1.3042-5.8174 4.0205-.9141 5.0093-4.1426 7.4634-6.6904 8.6401-3.5107 1.6216-7.1416 1.4316-8.9121.4062-1.6064-.9302-2.4111-2.1514-2.3916-3.6304.0449-3.4019 4.0977-9.2163 15.3379-15.3345 7.3936-4.0239 13.6279-4.6895 18.0303-1.9155 4.3564 2.7446 6.8252 9.0181 6.4434 16.3721-.6914 13.2959-21.8115 20.5386-29.8926 22.2075-2.7031.5547-4.4463 3.1943-3.8936 5.8984.4834 2.3682 2.5664 4.0005 4.8936 4.0005.3311 0 .668-.0332 1.0059-.1021 1.4951-.3057 36.6387-7.7534 37.873-31.4849.4175-8.0259-1.6338-15.1804-5.6267-20.3321 3.5956-1.131 7.8779-1.8616 11.5154-.8754 2.9795.8066 5.2656 2.686 6.9883 5.7451 2.7686 4.9185 3.5479 9.4194 2.3145 13.3779-2.1104 6.7749-9.4307 10.4136-9.4824 10.439-2.4941 1.186-3.5537 4.1689-2.3682 6.6626.8564 1.8008 2.6494 2.854 4.5195 2.8535.7188 0 1.4502-.1558 2.1436-.4858.457-.2173 11.2334-5.4492 14.7002-16.3853 1.818-5.733 1.3151-11.8063-1.4736-18.0941 5.4915-.3855 11.2432.2394 13.165 4.0492 3.6611 7.2603-2.8906 16.2358-23.1816 37.8774-13.7804 14.6976-16.3696 28.2487-16.2377 36.7513-14.2936-7.3888-30.7961-8.1951-47.9147-1.5887-15.876 6.125-26.6045 1.8613-29.8574-4.6934-2.7714-5.5865-.0787-12.1423 6.8501-17.0953.6841 1.0891 1.4602 2.1653 2.3364 3.2267 5.5332 6.7017 13.5928 9.3735 22.5381 9.3735 16.1445-.0005 35.1719-8.7056 47.4229-18.1284 2.1881-1.6834 2.5972-4.8226.9137-7.0115zm-166.689 41.2803c1.4149.9614 3.0391 1.7051 4.8452 2.183 5.4697 1.4492 12.3281-.417 17.4824-4.7466 5.5186-4.6367 8.3301-11.4189 7.7139-18.6069-.2363-2.7515-2.6729-4.7866-5.4082-4.5547-2.752.2358-4.791 2.6577-4.5547 5.4092.4346 5.0737-2.0352 8.291-4.1836 10.0962-2.96 2.4868-6.5088 3.2612-8.4912 2.7358-1.7949-.4751-2.8916-1.4419-3.2627-2.8735-.8506-3.2939 1.5303-9.9697 10.7646-18.8291 6.0762-5.8281 11.9199-8.104 16.8916-6.5903 4.9248 1.5024 8.957 6.9053 10.5225 14.1011 2.8301 13.0073-15.6338 25.5474-22.9941 29.2856-2.4648 1.2451-3.4541 4.2524-2.209 6.7173.8799 1.7422 2.6396 2.7471 4.4668 2.7471.7578 0 1.5273-.1729 2.25-.5376 1.3623-.688 33.3096-17.1172 28.2578-40.3384-1.708-7.8526-5.569-14.2158-10.7764-18.1358 3.0461-1.9776 6.9514-3.8575 10.8525-3.8735 3.1348-.0137 5.8076 1.1987 8.2803 3.7051 3.9658 4.0171 5.9014 8.1548 5.752 12.2979-.2539 7.0913-6.3594 12.5273-6.4033 12.5654-2.0938 1.8003-2.332 4.957-.5322 7.0508.9893 1.1504 2.3877 1.7407 3.7939 1.7407 1.1543 0 2.3135-.3975 3.2578-1.2085.3838-.3301 9.4043-8.2119 9.873-19.6748.2466-6.0096-1.8364-11.7369-6.1805-17.07 5.1957-1.8162 10.9087-2.7261 13.7665.4445 1.7361 1.9281 3.158 4.5552 1.8562 10.6285-8.6646 7.0895-11.1235 15.8354-9.6477 23.1716-1.2825 2.5122-2.752 5.3287-4.6118 8.8411-9.4343 17.8136-8.3787 31.5766-5.9933 39.7797-11.8044-2.5036-23.7976-1.1005-35.0817 4.1311-1.1025-.9964-2.3499-1.894-3.7737-2.6842-1.1248-.624-2.2798-1.0969-3.4609-1.4355 13.9497-5.427 27.6814-17.3015 36.0342-28.3126 1.6689-2.2002 1.2383-5.3364-.9619-7.0054-2.2002-1.6694-5.3359-1.2383-7.0049.9614-10.8223 14.2671-37.2734 34.73-51.4629 24.7202-3.8428-2.7114-5.8867-5.8423-6.249-9.5718-.5901-6.0873 3.3845-12.9824 6.5825-17.2641zm-9.2002 32.5101c.946.8701 1.9773 1.7037 3.1011 2.4966 4.074 2.874 8.6023 4.2355 13.3506 4.4426-2.9875 1.7549-6.0883 4.1435-9.3013 7.1901-3.1576-.4117-6.3044-.1051-9.4126.9767-.5161.1797-1.0188.384-1.5149.5989-2.0342-4.5041-.6548-10.2656 3.7771-15.7049zm-28.814 52.378c3.8535-7.4863 8.6377-11.5391 13.835-11.7202 5.1543-.1973 10.7148 3.6216 14.5322 9.9175 6.9033 11.3853-6.4922 29.249-12.2363 35.1719-1.9229 1.978-1.8809 5.1411.0957 7.0664.9727.9468 2.2314 1.4185 3.4893 1.4185 1.3008 0 2.6016-.5054 3.582-1.5112 1.0645-1.0933 25.9414-27.0103 13.6201-47.3301-4.1664-6.8724-9.8881-11.6303-16.0867-13.6469 2.3381-2.9576 5.4705-5.9714 9.0349-7.2027 2.917-1.0083 5.8633-.7388 9.0078.8228 5.0557 2.5112 8.2305 5.7954 9.4355 9.7627 2.0635 6.7891-1.9453 13.9136-1.9736 13.9639-1.3955 2.3828-.5957 5.4458 1.7871 6.8413.7949.4653 1.6641.6865 2.5225.6865 1.7168 0 3.3887-.8853 4.3193-2.4741.2559-.4365 6.2266-10.8213 2.9463-21.8154-1.7198-5.7634-5.5503-10.5038-11.3918-14.1363 4.3247-3.4056 9.434-6.1204 13.1653-4.0507 7.1094 3.9448 6.7363 15.0513 2.1221 44.3564-3.1338 19.9025 2.343 32.5651 7.2319 39.5229-15.9744 1.9247-30.0752 10.5353-40.519 25.6226-9.6846 13.9912-20.9551 16.4961-27.3301 12.9038-5.4392-3.0653-6.8958-10.0128-3.9369-18.0157 1.1819.5185 2.4104.9948 3.7367 1.3814 2.2676.6606 4.5215.9707 6.751.9707 20.7842 0 39.4014-26.9375 46.1855-47.5415.8643-2.623-.5625-5.4497-3.1855-6.313-2.6191-.8633-5.4492.562-6.3125 3.1851-5.6006 17.0093-23.9688 44.959-40.6396 40.0982-4.5166-1.3159-7.4668-3.6133-9.0205-7.0229-2.5363-5.5648-1.0167-13.3773.6167-18.4656 1.6504.4496 3.4282.6252 5.2925.4905 5.6406-.4077 11.5254-4.3994 14.9922-10.1694 3.7119-6.1782 4.168-13.5054 1.249-20.103-1.1172-2.5254-4.0723-3.668-6.5947-2.5503-2.5254 1.1172-3.667 4.0698-2.5498 6.5952 2.0596 4.6577.7695 8.5024-.6758 10.9072-1.9922 3.3149-5.1006 5.1987-7.1416 5.3467-1.8555.1343-3.2041-.4248-4.0195-1.6587-1.8752-2.8387-1.7931-9.9256 4.0633-21.3045z" fill="rgb(0,0,0)"/></g></g></svg>