<svg id="Layer_1" enable-background="new 0 0 512 512" viewBox="0 0 512 512" xmlns="http://www.w3.org/2000/svg"><path d="m55.2 195.5c5-2.5 10.7-3 16-1.6 7.3-18.3 36.2-21.4 41.6 2.5 2.2 10.1-1 21.8-3.8 32.1-1.5 5.4-3.1 10.5-4.4 14.6-1.9 5.9-8.3 9.1-14.1 7.1-11.1-3.8-31.3-11.1-40.3-18.8-14.2-12.3-6.6-30.1 5-35.9zm222.9-133.3c-5.2-.6-4.3-8.5.9-7.9 16.1 1.8 17.5 14.9 8.4 22.7 8.3.5 15.9-.6 21.1-2.9 4.1-1.8 6.5-4.4 5.8-7.3-1-4.2-6.5-9.6-18.7-15.8-12.8-6.6-39.6-13.5-50.8-.9 4.4 12.1 14.5 19.6 25.8 23.6 5.3 1.5 12.5-1.6 14.1-6.2 1.2-3.2-1.9-4.7-6.6-5.3zm153.1 115.2c1.4 1.7 1.2 4.2-.5 5.6s-4.2 1.2-5.6-.5c-2.7-3.2-5.3-4.9-7-2.7-2.7 3.5-1.5 10.7 2.4 14 8.8 6.8 19.6 10.9 31.1 8.2 3.9-15.1-15-32.5-26.6-39.2-11.1-6.3-18-8-21.7-6.6-2.4.9-3.1 4-2.5 8.1.9 5.2 3.7 11.5 8.2 17.6 1.6-10.9 12.5-16.3 22.2-4.5zm-88.2-47.6c-5-1.8-2.3-9.3 2.7-7.5 19.3 6.8 15 23.2 0 28 11.3 4.2 24.5 6.6 33.9 4.9 5.4-1 8.8-3.3 8.4-6.9-.5-5.4-6.3-13.4-20-24.5-13.1-10.6-33-20.9-51.2-21.5-5.6-.1-10.7 1-14.9 3.7 2.2 14.3 11.7 25.8 23.8 34 .9-.1 1.8.1 2.6.6 11 6.9 23.1-.4 22.2-5.2-.3-1.8-2.6-3.9-7.5-5.6zm-136.8-19.5c.3-.3.5-.5.8-.7.6-1 1.3-1.9 2.2-2.7-6.2-14.9-6.8-26.3-2.8-35-1 .1-1.8.3-2.5.6-23.1 10.3-18.5 37.4-11.3 58 5.3-11.1 9.2-15.1 13.6-20.2zm53 26.2c1.7 1.4 1.9 4 .4 5.6-1.4 1.7-3.9 1.9-5.6.4-5.1-4.4-9.9-6.2-12.2-1.7-3.2 6.3.6 17 7.5 21.1 14.1 7.6 30.6 10.6 46 3.6.9-9-3.5-17.8-10.2-25.6-9.8-11.2-24.5-20.2-36.9-24.7-16.8-6.1-26.8-6.7-31.9-3.9-3.9 2.2-4.2 7.3-2 13.6 2.9 8.2 9.9 17.6 18.8 25.5-2.8-15.9 9.9-27.9 26.1-13.9zm125.3 103.4c-5.5 10-14.2 22.5-22.1 31.6 32 4.1 86.8 4.3 102.8-25.4-19.3 13.2-56.9 2.3-80.7-6.2zm-50.8-34c-5-1.8-2.3-9.3 2.7-7.5 21.5 7.6 16.6 25.5.3 31 12 4.1 24.5 5.6 33.8 3.9 22.2-4.1 8.4-21.9-8.8-36.3-10.7-8.9-26.5-17.6-41.9-20.6-10.7-2.1-21.1-1.4-28.9 4.2 1.6 17.8 13 31.3 27.4 40.2 7.5 4.1 19.4 2 23.5-4.3 2.9-4.6-1.3-8.2-8.1-10.6zm25.1-98.2c1.9-4.9 3.7-9.5 5.9-13.8-5.8-.7-11.5-2.2-17-4.5-2-.5-1.9-.7-3.8-1.7-8-3.8-15.3-8.9-21.4-14.6.5 3.9 1.2 11.7-.5 21.5 12.5 1.3 25.8 6.8 36.8 13.1zm58.9 133.7c.1-1.2.7-2.3 1.8-3 11.6-7.4 21.7-16.5 28.1-27.6-17.9 1.5-34.2-9.6-44.4-23.2-6-7.9-10.2-17.1-10.6-24.9-6.5 4.2-15.4 12.4-19 27.9-.4 1.7-1.8 2.9-3.5 3.1 14 12.4 19.8 22.5 19.9 30.3.1 5.1-1.4 5.6-2 8.7 10.3 3.7 20.4 6.7 29.7 8.7zm40.6-34.3c-6.2 14.9-17.7 26.6-31.5 36 11.1 1.7 24.3 2.1 32.8-3 12.4-7.5 9.9-25.1 6.6-37.6-.3-1-.1-2 .3-2.9 8.8-17-3.2-36.5-15.7-50.7-3.4 4.6-7.5 9.3-12.3 13.6 12.6 10.1 26.4 27.6 19.9 44.3 0 .1-.1.2-.1.3zm-80-130.5c2.8-2.1 5.9-3.5 9.2-4.5-6.5-16.2-28.4-28.8-43.7-33.4-15.4-4.6-24.4-4.6-28.8-1.9-6 3.9-.3 14.6 3.5 19.9 3.4 4.8 8 9.6 13.3 14-2.9-14.4 8.1-25.6 23.7-13.7 1.8 1.3 2.1 3.9.8 5.6-1.4 1.8-3.9 2.1-5.6.8-4.6-3.5-8.9-5-10.6-1.1-2.6 5.8 1.6 15.5 8.3 18.9 6.7 3 13.8 5 20.9 5.2 1.7-2.5 6.3-8 9-9.8zm22.4 45.6-2.8-2.1c-10.1-7.7-18.1-18.2-20.6-31.2-5.2 6.6-8.2 14.3-11.6 23.1 2.7 1.8 5.2 3.7 7.5 5.5 16 13 24.5 24.6 22.8 34 7.3-7.5 22.8-2.3 36 6.2 7.4-6.4 13.5-14.3 18.2-22.1-15.1 2.8-35.7-3.9-49.5-13.4zm17.2-17c-2-.8-3-3.1-2.2-5.2.8-2 3.2-3 5.2-2.2 17.1 7.1 13.7 21.4.6 26.2 9.4 3.5 18.7 4.8 25.7 4 5.6-.7 9.3-2.8 9.5-6.4.2-4.8-4.1-12.3-15.3-22.6-8.3-7.7-20.9-15.6-33.4-18.8-8.5-2.2-16.8-2.1-23.4 1.8.6 14.3 9.2 25.5 20.4 33.3 5.7 3.6 15.4 2.5 18.9-2.3 2.1-3.1-1-5.7-6-7.8zm-193.1-3.3c-1.9-16.9.5-29.1 4-38.3-7.5 2.5-12.6 6.2-15.1 11.5-3.1 6.5-2.5 15.6 2.5 27.8 2.4-.7 5.2-1.1 8.6-1zm71.2 13.3c-2.5 5.6-5.3 13.5-5.4 17.7 0 .4-.1.7-.2 1 8.8 9.8 14.3 21.5 12.6 33.7 21.5-2.8 47.3 9.8 62.6 22.3 0-.3 0-.7.1-1.1 2.7-11.8 8-19.9 13.4-25.6-7.9 1-18.1 0-28.7-3.1-22.3-6.3-46.7-21.6-54.4-44.9zm-1.5-13.4.8-.8c5.3-4.2 11.7-6.2 18.6-6.5 1.1-5.8 1.3-10.9 1.1-14.8-7.2 4.4-18.1 6-28.7 5.3-18.3-1.3-37.3-9.4-46.5-26.4-4.8 9.3-9.8 22.6-7 44.2 17.1 2.9 36.2 11.8 50.6 24.4 1.9-8.2 6.3-18.8 11.1-25.4zm-33.1 141.3c-.5-.3-.9-.6-1.1-1-23.6-21-53.7-59.8-69.8-95.7-6.1-13.7-10.7-28-11.5-41.1-36.3 70.7-40.9 142.3-13.9 211.7 19.4-51.1 62-64.9 111-63-4.4-2.5-9.4-6.2-14.7-10.9zm23.1-53.1c-8.8 15.2-13.9 30.5-16.8 48.1 5.2 4.4 9.9 7.8 14.1 9.9 21.1 10.8 47.8 18.3 71.4 22.1.2-.3.4-.7.7-1 7.5-8 15.5-19.2 21.2-28.7-10.5 2.8-24.7 1.5-38.2-2.6-7.6-2.4-15.3-5.7-22.3-10-1.8-1-1.9-.9-3.3-2.2-12.7-8.6-22.9-20.4-26.8-35.6zm-2.2-11.6c.7-1 .4-.2.9-1.2-11.9 1.4-23.8-1.4-34.5-6.6-1.8-.6-1.6-.7-3.3-1.7-7-3.8-13.4-8.5-19-13.7-10-9.3-18.2-21-20.7-31.4-2.5 3.7-5.4 8.8-8.7 16.7-.1.1-.1.3-.2.4 14.5 33.4 41.7 69.7 63.9 91 3.8-19.7 10.5-36.6 21.6-53.5zm-85.2 249.3c-17.5 2.4-34.6-7.4-41.2-23.8l-7.3-.4c-6 4.1-11.9 8.5-17.5 13.6-5.2 4.8-10.2 10.2-14.7 16.4 7.2 10.3 17 21.7 30.1 30.2 13.5 8.8 30.5 14.5 52 13.2 2.4-5.7 4.1-11.6 5.1-17.5 1.1-6.4 1.6-12.9 1.6-19.4zm14.4-72c3.1 1.8 5.9 4 8.2 6.5 24.2-8.3 46.9-20.4 68.6-35.2 4.3-2.9 8.8 3.7 4.5 6.6-21.4 14.6-44.2 26.8-67.9 35.3 1.1 1.8 2.1 3.7 2.9 5.7l32.1 2c49.1-4.1 87.8-16.5 120.1-37.3 26.5-17 48.7-39.7 68.6-68.1-23 11.2-55.5 11.9-83.2 8.8-23.4-2.6-47.3-8.4-67.5-16-28.3-3.4-55.7-3-78.3 6.1-21.9 8.8-39.5 26.1-49.2 56.4l16.2 24.4c2.6-.3 5.3-.5 7.9-.3-.4-12.2.5-24.1 2.2-36.3.8-5.2 8.7-4.1 7.9 1.2-1.8 12.3-2.6 24.3-2.1 36.6 2.4.4 6.8 2.1 9 3.6zm-4 6.9c-.2-.1-.4-.2-.5-.3-7.3-4.2-15.6-5-23.2-2.9-16.5 4.4-26.2 21.3-21.8 37.8 4.4 16.4 21.3 26.2 37.8 21.8 16.4-4.4 26.2-21.3 21.8-37.8-2-7.6-6.9-14.3-14.1-18.6zm35.1 73.5c1.7 1.3 2.1 3.8.8 5.6-1.3 1.7-3.8 2.1-5.6.8-8.7-6.6-16.4-14.4-21.1-23.4-3.4 2.8-7.2 5-11.3 6.5l22.7 34.2c6.7 10.1 21.5 9.6 27.5-.9l28.6-49.6c6.1-10.5-1-23.5-13-24.3l-41-2.5c.7 4.3.7 8.7 0 13.1 10.2-.4 20.8 2.4 30.8 6.6 2 .9 3 3.2 2.2 5.2-.9 2-3.2 3-5.2 2.1-9.8-4.1-20.2-6.9-30.1-5.8-1.4 3.3-3.1 6.3-5.2 9.1 3.8 9.1 11.5 16.9 19.9 23.3zm-119.9-60.1c-2-.9-3-3.2-2.1-5.2s3.2-3 5.2-2.2c9.8 4.1 20.3 6.9 30.1 5.8 1.3-3.3 3.1-6.2 5.2-9.1-3.9-9-11.7-16.8-20-23.2-1.8-1.3-2.1-3.8-.8-5.6s3.8-2.1 5.6-.8c8.7 6.6 16.4 14.3 21.1 23.4 3.4-2.8 7.2-5 11.3-6.5l-22.7-34.2c-6.8-10.2-21.7-9.5-27.5.9l-28.6 49.6c-6 10.5 1 23.5 13 24.2l41 2.5c-.7-4.3-.8-8.7 0-13.1-10.2.5-20.8-2.3-30.8-6.5zm-35-275.6c4.5-2.2 9.6-2.7 14.3-1.5 6.9-16.5 33-19 37.8 2.6 2 9.1-.8 19.6-3.4 28.9-1.4 4.9-2.8 9.4-4 13.1-1.8 5.5-7.7 8.4-13.2 6.6-10-3.4-28.1-9.9-36.2-16.9-12.8-11.2-6-27.5 4.7-32.8z"/></svg>