<svg id="Capa_1" enable-background="new 0 0 512 512" height="512" viewBox="0 0 512 512" width="512" xmlns="http://www.w3.org/2000/svg"><g><path d="m431.156 341.038v-23.526c0-4.07-1.788-7.903-4.907-10.517-3.126-2.621-7.226-3.711-11.251-3.001-105.56 18.743-212.605 18.741-318.164 0-4.025-.715-8.125.38-11.251 3.001-3.119 2.613-4.907 6.446-4.907 10.517v23.557.003 11.942c0 6.074 3.823 11.562 9.513 13.655.021.008.042.017.064.024l-.056.131c-1.624 3.811.148 8.216 3.959 9.84.96.409 1.956.603 2.937.603 2.916 0 5.688-1.711 6.903-4.562l.108-.254c5.071 2.349 10.062 4.939 14.971 7.757l-1.122 2.635c-1.623 3.811.15 8.216 3.961 9.84.959.408 1.955.602 2.936.602 2.916 0 5.689-1.711 6.904-4.562l.2-.47c4.322 2.93 8.572 6.045 12.745 9.347l-1.497 2.526c-2.111 3.563-.935 8.164 2.629 10.275 1.199.711 2.517 1.049 3.816 1.049 2.562 0 5.059-1.313 6.459-3.678l.194-.327c3.617 3.277 7.168 6.704 10.653 10.27l-1.02 1.294c-2.563 3.253-2.005 7.969 1.248 10.533 1.376 1.084 3.013 1.609 4.638 1.609 1.987 0 3.952-.792 5.405-2.305 2.509 2.885 4.979 5.849 7.409 8.892l-1.217 1.243c-2.898 2.959-2.85 7.707.109 10.605 1.459 1.43 3.354 2.143 5.248 2.143 1.787 0 3.57-.644 4.988-1.911 2.142 2.986 4.247 6.037 6.317 9.152l-1.298 1.325c-2.898 2.959-2.85 7.707.109 10.605 1.459 1.43 3.354 2.143 5.248 2.143 1.421 0 2.839-.406 4.074-1.207 1.548 2.581 3.068 5.208 4.569 7.867l-2.076 2.119c-2.898 2.959-2.85 7.707.109 10.605 1.459 1.43 3.354 2.143 5.248 2.143 1.524 0 3.044-.469 4.338-1.39 7.958 11.707 21.156 18.82 35.517 18.82 14.362 0 27.56-7.113 35.517-18.823 1.295.922 2.814 1.39 4.339 1.39 1.894 0 3.789-.713 5.248-2.143 2.959-2.898 3.008-7.646.109-10.605l-2.076-2.119c1.501-2.658 3.021-5.286 4.568-7.867 1.235.801 2.654 1.208 4.075 1.208 1.895 0 3.789-.713 5.249-2.143 2.959-2.899 3.007-7.647.108-10.606l-1.299-1.325c2.069-3.115 4.175-6.166 6.316-9.151 1.418 1.268 3.2 1.911 4.989 1.911 1.893 0 3.787-.712 5.247-2.142 2.959-2.898 3.009-7.646.11-10.606l-1.218-1.244c2.43-3.042 4.9-6.006 7.409-8.891 1.453 1.514 3.418 2.306 5.406 2.306 1.625 0 3.263-.525 4.638-1.609 3.253-2.564 3.811-7.28 1.248-10.533l-1.021-1.295c3.486-3.566 7.036-6.994 10.654-10.271l.195.329c1.4 2.363 3.896 3.677 6.458 3.677 1.301 0 2.618-.338 3.817-1.05 3.563-2.111 4.739-6.713 2.627-10.275l-1.497-2.526c4.173-3.302 8.424-6.417 12.746-9.347l.201.472c1.215 2.852 3.987 4.562 6.903 4.562.98 0 1.978-.193 2.937-.603 3.811-1.624 5.583-6.029 3.959-9.84l-1.122-2.634c4.909-2.817 9.9-5.407 14.971-7.756l.108.253c1.216 2.852 3.988 4.562 6.904 4.562.98 0 1.977-.193 2.936-.602 3.811-1.624 5.584-6.029 3.961-9.84l-.056-.132.063-.024c5.689-2.095 9.513-7.582 9.513-13.655v-11.928c.001-.016 0-.032 0-.047zm-15 11.667c-24.878 9.207-48.116 23.479-69.254 42.332-7.248-4.109-21.783-14.795-20.613-33.789 30.003-2.32 60.054-6.109 89.867-11.348zm-230.612 8.542c1.169 18.994-13.365 29.681-20.613 33.79-21.138-18.854-44.376-33.125-69.255-42.332v-2.806c29.814 5.239 59.864 9.028 89.868 11.348zm70.372 135.753c-10.415 0-19.907-5.74-24.773-14.979-15.693-29.802-34.169-55.381-54.916-76.28 11.794-7.874 24.855-22.445 24.377-43.451 13.426.818 26.833 1.346 40.195 1.568.043.001.085.001.128.001 4.084 0 7.428-3.276 7.496-7.375.068-4.142-3.233-7.556-7.374-7.624-48.275-.802-97.148-5.586-145.372-14.204v-15.635c106.336 18.708 214.145 18.705 320.48 0v15.635c-48.224 8.618-97.096 13.402-145.371 14.204-4.142.068-7.442 3.482-7.374 7.624.068 4.099 3.412 7.375 7.496 7.375.043 0 .085 0 .128-.001 13.362-.222 26.769-.75 40.195-1.568-.479 21.005 12.582 35.576 24.376 43.45-20.748 20.899-39.223 46.478-54.915 76.279-4.868 9.241-14.361 14.981-24.776 14.981z"/><path d="m94.203 266.409c40.149 36.821 106.478 29.516 136.438-18.043 8.399.912 16.84 1.374 25.284 1.374 8.434 0 16.871-.461 25.268-1.371 21.485 34.101 62.794 48.592 100.421 38.088 3.99-1.114 6.321-5.251 5.207-9.24s-5.251-6.322-9.24-5.207c-15.058 4.201-32.805 3.588-48.04-2.295 19.287-14.229 32.437-37.225 38.344-67.378 3.793-19.37 3.664-36.651 3.279-44.974 15.688-7.812 30.779-17.619 45.217-29.424 6.459 20.515 11.354 42.24 14.274 63.464 3.6 26.171-7.342 52.396-28.557 68.443-3.304 2.499-3.956 7.202-1.457 10.506 2.5 3.306 7.203 3.957 10.506 1.457 25.538-19.316 38.706-50.909 34.367-82.451-3.513-25.535-9.784-51.774-18.141-75.953l-6.887-70.034c-.91-9.252 3.182-18.417 10.678-23.918l8.049-5.906c3.339-2.451 4.06-7.145 1.609-10.484-2.452-3.339-7.146-4.06-10.484-1.609l-8.049 5.906c-11.745 8.62-18.156 22.981-16.73 37.48l6.593 67.048c-2.064 1.781-4.143 3.517-6.236 5.21l-4.22-6.279c-2.309-3.438-6.968-4.353-10.408-2.041-3.438 2.311-4.352 6.97-2.041 10.408l4.703 6.999c-4.885 3.474-9.84 6.727-14.867 9.738l-5.564-8.875c-2.199-3.51-6.831-4.569-10.338-2.371-3.51 2.2-4.571 6.829-2.371 10.338l5.121 8.169c-6.21 3.151-12.521 5.959-18.926 8.431l-4.648-7.984c-2.084-3.581-6.678-4.794-10.255-2.708-3.58 2.084-4.792 6.676-2.708 10.255l3.145 5.403c-6.601 1.982-13.299 3.611-20.087 4.898l-4.198-7.979c-1.929-3.666-6.462-5.073-10.13-3.146-3.666 1.929-5.074 6.464-3.146 10.13l1.756 3.338c-6.608.72-13.294 1.133-20.061 1.216-3.488.043-6.486 2.485-7.233 5.894-2.077 9.479-2.769 20.179-2.07 31.431-7.638.45-15.299.452-22.911.007.701-11.254.009-21.957-2.069-31.439-.747-3.408-3.745-5.851-7.233-5.894-6.767-.083-13.454-.496-20.062-1.216l1.757-3.339c1.929-3.666.52-8.2-3.146-10.129-3.663-1.927-8.199-.519-10.129 3.146l-4.197 7.979c-6.788-1.288-13.487-2.916-20.088-4.898l3.145-5.403c2.084-3.579.872-8.171-2.708-10.255-3.581-2.086-8.172-.873-10.255 2.708l-4.648 7.984c-6.405-2.472-12.716-5.28-18.925-8.431l5.122-8.168c2.2-3.51 1.139-8.139-2.37-10.339-3.509-2.198-8.138-1.139-10.339 2.37l-5.565 8.876c-5.027-3.011-9.981-6.264-14.866-9.737l4.704-6.999c2.311-3.438 1.396-8.098-2.041-10.408-3.438-2.312-8.099-1.395-10.408 2.041l-4.22 6.28c-2.093-1.693-4.172-3.428-6.236-5.21l6.593-67.048c1.426-14.5-4.985-28.861-16.73-37.48l-8.049-5.906c-3.34-2.449-8.032-1.729-10.484 1.609-2.45 3.34-1.729 8.033 1.609 10.484l8.05 5.906c7.495 5.5 11.587 14.665 10.677 23.918l-6.888 70.046c-6.908 19.988-12.294 40.909-15.997 62.207-.709 4.081 2.024 7.964 6.105 8.674 4.078.705 7.963-2.024 8.674-6.105 2.975-17.112 7.071-33.971 12.208-50.257 14.44 11.807 29.532 21.615 45.221 29.428-.386 8.324-.514 25.604 3.279 44.972 5.906 30.153 19.057 53.149 38.343 67.378-23.553 9.095-54.873 6.802-77.95-14.36-14.014-12.853-22.427-30.241-23.688-48.964-.279-4.133-3.862-7.243-7.988-6.979-4.133.279-7.257 3.855-6.979 7.988 1.522 22.584 11.649 43.541 28.515 59.009zm188.859-86.534c25.548-1.007 50.014-6.294 73.256-15.788.166 22.602-3.734 75.735-41.937 97.636-9.32-6.412-17.091-14.931-22.609-24.909-.071-.133-.144-.264-.223-.392-4.052-7.436-6.858-15.669-8.118-24.441-1.643-11.439-1.761-22.411-.369-32.106zm-13.951 37.408c1.05 5.802 2.666 11.39 4.78 16.718-11.966.982-23.993.981-35.949-.002 2.113-5.325 3.728-10.91 4.778-16.708 4.363.273 8.741.424 13.124.424 4.423 0 8.849-.154 13.267-.432zm-113.58-53.188c23.237 9.49 47.697 14.774 73.241 15.781 1.392 9.694 1.272 20.668-.37 32.105-1.262 8.785-4.075 17.03-8.136 24.474-.059.096-.113.196-.168.295-5.52 10.006-13.304 18.547-22.644 24.973-38.103-21.858-42.059-75.01-41.923-97.628z"/></g></svg>