<svg id="Bold" height="512" viewBox="0 0 24 24" width="512" xmlns="http://www.w3.org/2000/svg"><path d="m23 3.747c-.002-.414-.359-.794-.753-.747-.415.002-.749.339-.747.753l.029 6.4c-4.275.974-7.474 3.06-9.529 6.218-2.045-3.144-5.226-5.224-9.471-6.204l-.029-6.42c-.002-.414-.337-.747-.75-.747-.001 0-.002 0-.003 0-.415.002-.749.339-.747.753l.03 6.797c-1.155 2.542-1.339 5.021-.539 7.368.396 1.162 1.239 2.096 2.374 2.63.634.298 1.325.449 2.019.449.568 0 1.138-.102 1.676-.306l5.44-2.07 5.441 2.072c.538.204 1.106.305 1.675.305.692 0 1.385-.15 2.019-.449 1.135-.534 1.978-1.468 2.374-2.63.785-2.303.618-4.731-.478-7.222z"/></svg>