<?xml version="1.0"?>
<svg xmlns="http://www.w3.org/2000/svg" id="Outline" viewBox="0 0 128 128" width="512" height="512"><path d="M69.761,100.7c-7.043,0-13.649-2.71-19.444-8.041a1.5,1.5,0,0,1,2.032-2.208C59.7,97.219,68.5,99.291,77.787,96.445a1.5,1.5,0,1,1,.879,2.868A30.328,30.328,0,0,1,69.761,100.7Z"/><path d="M2.755,70.33a1.558,1.558,0,0,1-.374-.047A1.5,1.5,0,0,1,1.3,68.457c.033-.127,3.316-12.887,8.58-29.778,3.528-11.323,14.905-14.5,24.048-17.059,4.64-1.3,9.023-2.522,10.409-4.485,4.349-6.16,6.082-15.316,6.1-15.408a1.5,1.5,0,1,1,2.95.546c-.075.4-1.873,9.9-6.6,16.592-2,2.835-6.659,4.136-12.053,5.644-8.442,2.36-18.949,5.3-21.992,15.062C7.5,56.39,4.239,69.076,4.207,69.2A1.5,1.5,0,0,1,2.755,70.33Z"/><path d="M125.936,75a1.5,1.5,0,0,1-1.468-1.2c-.615-3-2.361-9.053-4.047-14.91-1.025-3.561-1.994-6.924-2.683-9.505-4.687-17.577-8.914-23.333-26.212-25.1C75.716,22.667,74.486,8.8,73.9,2.132a1.5,1.5,0,1,1,2.988-.264c.774,8.74,2.633,18.172,14.947,19.432,18.783,1.922,23.876,8.827,28.806,27.313.68,2.554,1.645,5.9,2.667,9.448,1.7,5.913,3.464,12.026,4.1,15.137a1.5,1.5,0,0,1-1.471,1.8Z"/><path d="M103.9,83.854a29.192,29.192,0,0,1-1.92-4.389,37.9,37.9,0,0,0-2.231-5.1,1.5,1.5,0,1,0-2.582,1.528,36.488,36.488,0,0,1,2.014,4.654c.294.767.583,1.515.868,2.21-.374.751-.756,1.509-1.159,2.294a15.935,15.935,0,0,1-3.241-2.722c1.683-6.337.21-13.635-1.132-20.266-.548-2.7-1.066-5.259-1.332-7.569a11.037,11.037,0,0,1,.9-6.181l.063-.165a1.5,1.5,0,1,0-2.8-1.074l-.063.163a13.966,13.966,0,0,0-1.079,7.6c.28,2.438.811,5.053,1.371,7.822.241,1.192.485,2.409.715,3.635a21.294,21.294,0,0,0-3.9-3.481,10.667,10.667,0,0,1-3.585-3.995,35.909,35.909,0,0,0-4.488-6.851,1.5,1.5,0,0,0-2.336,1.883,33.083,33.083,0,0,1,4.137,6.3,13.61,13.61,0,0,0,4.566,5.129A19.032,19.032,0,0,1,93.3,73.448c.347,4.773-.169,9.33-2.807,12.909a1.5,1.5,0,0,0,2.416,1.78,16.387,16.387,0,0,0,1.606-2.7,18.234,18.234,0,0,0,3,2.277c-.146.282-.283.547-.432.833-6.063,11.632-13.609,26.108-11.541,37.761a1.5,1.5,0,0,0,1.475,1.238,1.468,1.468,0,0,0,.263-.023,1.5,1.5,0,0,0,1.215-1.739c-1.889-10.648,5.4-24.622,11.248-35.85.725-1.391,1.413-2.72,2.077-4.02a1.493,1.493,0,0,0,2.088-2.062Z"/><path d="M101,16.167a1.5,1.5,0,0,0-1.5,1.5,3.155,3.155,0,0,1-.934,2.417A5.968,5.968,0,0,1,95.414,21.4c.855-6.279-2.45-8.346-3.575-8.852-2.091-.941-4.485-.465-5.572,1.1-1.7,2.454,1.808,6.434,4.878,9.221-6.818,5.419-12.115,19.122-14.208,24.54-.306.792-.623,1.608-.748,1.878-1.333,1.657-3.468,2.8-6.523,3.5-7.877,1.8-12.912,6.7-13.735,10.814-4.463,1.819-7.449,5.5-9.454,9.49a23.69,23.69,0,0,1,4.962-11.451c1.261-1.575,2.349-2.867,3.346-4.051A70.3,70.3,0,0,0,61.632,48.4a1.5,1.5,0,0,0-2.547-1.585,67.817,67.817,0,0,1-6.595,8.844c-.767.912-1.59,1.889-2.5,3a33.488,33.488,0,0,0-1.2-6.307,1.5,1.5,0,1,0-2.887.814A25.541,25.541,0,0,1,47,62.811,26.526,26.526,0,0,0,43.4,73.745a20.332,20.332,0,0,0-4.631-4.752A7.19,7.19,0,0,1,35.6,64.731c-2.323-7.659-5.769-9.839-10.538-12.856l-.6-.378a1.5,1.5,0,1,0-1.608,2.533l.6.381c4.688,2.966,7.271,4.6,9.269,11.191a10.127,10.127,0,0,0,4.2,5.758c1.814,1.412,4.932,3.092,6.667,9.187.281.986.53,1.526,1.267,1.715a1.5,1.5,0,0,0,1.826-1.08c1.452-5.661,4.557-12.87,11.1-15.073a1.5,1.5,0,0,0,1.021-1.392c.044-2.231,3.469-7.163,11.522-9,3.807-.87,6.517-2.4,8.287-4.665a11.77,11.77,0,0,0,1.113-2.559c1.922-4.974,7.708-19.941,14.272-23.976,1.229-.011,4.5-.239,6.618-2.245a6.155,6.155,0,0,0,1.876-4.6A1.5,1.5,0,0,0,101,16.167Zm-8.749,3.6C90.309,17.873,88.514,16,88.81,15.277c.127-.311,1-.359,1.8,0,1.329.6,2,2.156,1.953,4.358A.186.186,0,0,1,92.251,19.765Z"/><path d="M41.3,94.858a1.5,1.5,0,0,0-1.945-.845,21.122,21.122,0,0,1-19.3-2.309A23.266,23.266,0,0,1,9.185,73.553a11.333,11.333,0,0,1,1.394-5.924c4.435-8.277,8.5-12.869,14.915-18.932,3.24-3.063,3.494-4.454,3.692-6.848a19.8,19.8,0,0,1,.771-4.353,1.5,1.5,0,0,0-2.883-.833A22.862,22.862,0,0,0,26.2,41.6c-.149,1.817-.206,2.5-2.761,4.914l-.157.15a182.245,182.245,0,0,1,3.94-19.889c1.8-.829,6.144-3.339,5.3-7.964a1.5,1.5,0,0,0-2.952.539,3.687,3.687,0,0,1-1.658,3.509c.285-5.23-2.6-7.022-3.623-7.484-2.095-.942-4.6-.441-5.691,1.14-1.847,2.667,2.434,6.989,5.667,9.7-2.4,8.832-4.321,22.64-4.564,23.962A65.792,65.792,0,0,0,7.935,66.212a14.349,14.349,0,0,0-1.747,7.5A26.277,26.277,0,0,0,18.431,94.227c.142.092.289.17.433.258-.06,6.664,1.811,12.2,3.646,17.549,1.6,4.682,3.121,9.1,3.272,14.059a1.5,1.5,0,0,0,1.5,1.455h.047A1.5,1.5,0,0,0,28.78,126c-.164-5.408-1.826-10.254-3.432-14.941C23.749,106.4,22.1,101.6,21.869,96.1a24.575,24.575,0,0,0,10.222,2.283,22.75,22.75,0,0,0,8.36-1.583A1.5,1.5,0,0,0,41.3,94.858ZM21.14,18.143c.136-.349,1.1-.395,1.916-.029,1.288.579,1.935,2.106,1.88,4.266a.186.186,0,0,1-.308.131C22.676,20.684,20.858,18.865,21.14,18.143Z"/></svg>
