<svg id="Outline" height="512" viewBox="0 0 128 128" width="512" xmlns="http://www.w3.org/2000/svg"><path d="m41.774 95.091a1.5 1.5 0 0 0 -2.016-1.078 24.465 24.465 0 0 1 -23.388-3.623 19.923 19.923 0 0 1 -8.147-17.7 1.825 1.825 0 0 1 .189-.653 68.9 68.9 0 0 1 14.549-19.937 5.912 5.912 0 0 0 1.649-5.566c-.161-.687-.588-2.89-.828-3.784a1.557 1.557 0 0 0 -1.618-1.183 1.5 1.5 0 0 0 -1.3 1.885c.226.835.648 3.011.814 3.721a2.979 2.979 0 0 1 -.833 2.8 71.994 71.994 0 0 0 -15.391 21.27 1.514 1.514 0 0 0 -.15.5c-.943 8.124 2.423 15.788 9.237 21.028a27.292 27.292 0 0 0 4.491 2.781c-.047 6.6 1.769 11.847 3.55 16.913 1.568 4.462 3.049 8.676 3.2 13.631a1.5 1.5 0 0 0 1.5 1.455h.047a1.5 1.5 0 0 0 1.451-1.551c-.165-5.42-1.793-10.054-3.368-14.534s-3.192-9.108-3.378-14.634a28.14 28.14 0 0 0 9.514 1.693 25.41 25.41 0 0 0 9.249-1.7 1.548 1.548 0 0 0 .977-1.734z"/><circle cx="6.032" cy="74.222" r="3.278"/><path d="m125.936 75a1.5 1.5 0 0 1 -1.468-1.2c-.615-3-2.361-9.053-4.047-14.91-1.025-3.561-1.994-6.924-2.683-9.505-4.687-17.577-8.914-23.333-26.212-25.1-15.81-1.618-17.04-15.485-17.626-22.153a1.5 1.5 0 1 1 2.988-.264c.774 8.74 2.633 18.172 14.947 19.432 18.783 1.922 23.876 8.827 28.806 27.313.68 2.554 1.645 5.9 2.667 9.448 1.7 5.913 3.464 12.026 4.1 15.137a1.5 1.5 0 0 1 -1.471 1.8z"/><path d="m1.937 70.188a1.5 1.5 0 0 1 -1.426-1.964c.041-.125 4.121-12.7 9.37-29.545 3.528-11.323 14.905-14.5 24.048-17.059 4.64-1.3 9.023-2.522 10.409-4.485 4.349-6.16 6.082-15.316 6.1-15.408a1.5 1.5 0 1 1 2.95.546c-.075.4-1.873 9.9-6.6 16.592-2 2.835-6.659 4.136-12.053 5.644-8.442 2.36-18.949 5.3-21.992 15.062-5.253 16.864-9.338 29.454-9.379 29.58a1.5 1.5 0 0 1 -1.427 1.037z"/><path d="m103.9 83.854c-.528-1.087-3.39-8.208-4.151-9.493a1.5 1.5 0 1 0 -2.582 1.528c.416.7 1.8 4.167 2.908 6.772-.918 1.845-1.921 3.78-2.99 5.832-6.068 11.652-13.621 26.152-11.551 37.817a1.5 1.5 0 0 0 1.475 1.238 1.468 1.468 0 0 0 .263-.023 1.5 1.5 0 0 0 1.215-1.739c-1.891-10.66 5.4-24.659 11.259-35.907.716-1.374 1.4-2.688 2.051-3.973a1.468 1.468 0 0 0 1.689.029 1.583 1.583 0 0 0 .414-2.081z"/><circle cx="73.137" cy="77.419" r="3.278"/><path d="m93.243 85.92a1.5 1.5 0 0 1 -1.307-2.233c3.8-6.792.793-15.751-1.864-23.655-.9-2.678-1.75-5.208-2.331-7.592a13.976 13.976 0 0 1 .127-7.676l.042-.168a1.5 1.5 0 0 1 2.912.719l-.042.17a11.026 11.026 0 0 0 -.125 6.245c.551 2.26 1.382 4.73 2.261 7.346 2.855 8.495 6.091 18.124 1.637 26.077a1.5 1.5 0 0 1 -1.31.767z"/><path d="m82.648 96.264a1.5 1.5 0 0 0 -2.066-.991c-9.2 4.131-18.409 3.156-25.93-2.747a23.619 23.619 0 0 1 -6.944-9.353c-2.229-5.91-1.328-13.073 2.41-19.163 1.057-1.722 1.978-3.141 2.82-4.443a70.088 70.088 0 0 0 5.649-9.962 1.5 1.5 0 0 0 -.973-2.077 1.564 1.564 0 0 0 -1.79.9 67.849 67.849 0 0 1 -5.4 9.505c-.143.219-.291.448-.438.676a33.354 33.354 0 0 0 -1.169-6.184 1.556 1.556 0 0 0 -1.627-1.157 1.5 1.5 0 0 0 -1.28 1.9 27.99 27.99 0 0 1 1.171 8.657 7.011 7.011 0 0 1 -.764 2.883 24.712 24.712 0 0 0 -1.417 19.523 26.876 26.876 0 0 0 7.9 10.655 26.57 26.57 0 0 0 16.613 5.924 30.19 30.19 0 0 0 12.325-2.768 1.558 1.558 0 0 0 .91-1.778z"/></svg>