<svg id="Solid" height="512" viewBox="0 0 128 128" width="512" xmlns="http://www.w3.org/2000/svg"><path d="m125.47 71.88c-1.33-4.61-5.12-17.82-6.28-22.88-4.16-18.03-9.19-24.33-27.51-26.21-12.571-1.28-15.18-10.471-16.12-19.022a1.989 1.989 0 0 0 -1.98-1.768h-20.06a1.99 1.99 0 0 0 -1.94 1.54c-.71 2.96-2.56 9.56-6.02 14.46-4.59 6.5-29.04 4.42-34.25 21.12-4.066 13.074-7.41 23.48-8.746 27.617a3.239 3.239 0 0 0 .354 2.483 17.355 17.355 0 0 0 1.763 1.289.94.94 0 0 0 1.373-.363c.409-.834.981-1.958 1.262-2.471a70.28 70.28 0 0 1 13.526-17.7 2.981 2.981 0 0 0 .835-2.8c-.165-.709-.587-2.884-.813-3.719a1.5 1.5 0 0 1 1.29-1.884 1.566 1.566 0 0 1 1.631 1.192c.237.889.663 3.084.823 3.768a5.914 5.914 0 0 1 -1.643 5.568c-6.238 6.093-10.394 11.319-14.235 19.315a10.663 10.663 0 0 0 -.3 8 22.268 22.268 0 0 0 7.94 10.975 24.465 24.465 0 0 0 23.388 3.623 1.5 1.5 0 0 1 2.016 1.075 1.551 1.551 0 0 1 -.979 1.74 25.42 25.42 0 0 1 -9.247 1.7 27.913 27.913 0 0 1 -8.5-1.351 1.019 1.019 0 0 0 -1.315 1.061c.775 9.644 6.04 14.816 6.888 24.013.09 1.02.042 2 1.062 2l53.021.042a2.009 2.009 0 0 0 1.99-2.19c-.627-8.814 6.421-22.486 10.951-30.7a45.768 45.768 0 0 1 5.741-7.747.962.962 0 0 1 1.03.04 2.021 2.021 0 0 0 1.12.34 1.941 1.941 0 0 0 .87-.2l20-9.61a1.992 1.992 0 0 0 1.064-2.346zm-52.74 2.287a3.278 3.278 0 1 1 -2.846 3.659 3.277 3.277 0 0 1 2.846-3.659zm9.008 23.876a30.2 30.2 0 0 1 -12.324 2.767 26.57 26.57 0 0 1 -16.614-5.924 26.876 26.876 0 0 1 -7.9-10.655c-2.411-6.392-1.653-14.007 1.989-20.623a.675.675 0 0 0 .088-.332 32.587 32.587 0 0 0 -1.07-10.106 1.5 1.5 0 0 1 1.275-1.9 1.558 1.558 0 0 1 1.633 1.161 34 34 0 0 1 1.123 5.7.166.166 0 0 0 .307.072c.59-.914 1.992-3.093 2.622-4.149a58.853 58.853 0 0 0 2.954-5.622 1.568 1.568 0 0 1 1.8-.907 1.5 1.5 0 0 1 .968 2.076 70.088 70.088 0 0 1 -5.649 9.962c-.842 1.3-1.763 2.721-2.82 4.443-3.738 6.09-4.639 13.253-2.41 19.163a23.619 23.619 0 0 0 6.944 9.353c7.521 5.9 16.728 6.878 25.93 2.747a1.5 1.5 0 0 1 2.066.991 1.559 1.559 0 0 1 -.912 1.783zm12.815-12.89a1.5 1.5 0 1 1 -2.617-1.466c3.8-6.792.793-15.751-1.864-23.655-.9-2.678-1.75-5.208-2.331-7.592a13.976 13.976 0 0 1 .127-7.676l.042-.168a1.5 1.5 0 0 1 2.912.719l-.042.17a11.026 11.026 0 0 0 -.125 6.245c.551 2.26 1.382 4.73 2.261 7.346 2.855 8.495 6.091 18.124 1.637 26.077z"/><circle cx="5.742" cy="74.143" r="2.654"/></svg>