<svg id="Capa_1" enable-background="new 0 0 512 512" height="512" viewBox="0 0 512 512" width="512" xmlns="http://www.w3.org/2000/svg"><g><path d="m413.193 272.431c.125-6.665-2.429-13.007-7.189-17.859-4.383-4.466-10.303-7.206-16.479-7.68-2.206-19.699-8.893-44.678-25.536-71.762-.187-.363-.403-.712-.65-1.043-11.333-18.199-27.169-37.325-49.17-56.424-44.554-38.675-68.613-78.779-80.952-105.611-3.366-7.321-10.755-12.052-18.825-12.052h-180.207c-11.431 0-20.732 9.3-20.732 20.732v166.22c0 4.142 3.357 7.5 7.5 7.5s7.5-3.358 7.5-7.5v-166.22c0-3.161 2.571-5.732 5.732-5.732h180.207c2.229 0 4.269 1.302 5.195 3.318 12.956 28.174 38.176 70.245 84.749 110.672 18.032 15.653 32.798 32.338 44.122 49.697-12.751 21.487-20.996 45.814-23.914 70.666-2.997 25.534-.39 51.842 7.508 76.25-16.474 18.956-37.298 41.471-40.285 44.694-10.989 8.891-29.264 23.221-62.452 13.211-7.67-2.313-13.42-7.147-17.089-14.369-4.677-9.205-5.343-21.865-1.695-32.253 1.64-4.673 2.906-9.835 3.87-15.782l2.119-13.074c2.488-15.346-4.078-31.024-16.729-39.94l-3.67-2.586c-4-2.819-9.134-3.51-13.728-1.85-4.461 1.611-7.901 5.245-9.288 9.777l-17.643 44.384c-.105.266-.196.538-.271.815-2.046 7.575-6.712 14.191-13.137 18.629-8.676 5.993-15.803 16.219-21.182 30.394-.358.939-1.231 2.86-2.412 5.322-8.532-2.674-15.436-5.373-23.505-10.022-3.589-2.067-8.175-.835-10.242 2.754-2.068 3.589-.835 8.175 2.754 10.243 8.981 5.175 16.854 8.219 24.131 10.584-3.014 5.675-6.047 11.001-7.91 13.428l-75.236 8.808v-185.82c0-4.142-3.357-7.5-7.5-7.5s-7.5 3.358-7.5 7.5v265.105c0 6.623 2.628 12.785 7.399 17.35 4.469 4.275 10.246 6.594 16.37 6.594.359 0 .721-.008 1.081-.024l187.437-8.315c5.417-.004 10.74-.968 15.822-2.866.271-.101.536-.218.794-.35 0 0 96.681-49.247 97.286-49.537 10.578-5.067 18.853-14.657 22.728-26.33l14.212-36.909c1.488-3.865-.438-8.206-4.304-9.694-3.872-1.49-8.206.439-9.694 4.304l-14.278 37.081c-.046.12-.089.241-.129.363-2.58 7.887-8.053 14.323-15.016 17.658-.407.195-97.233 49.504-97.233 49.504-3.322 1.191-6.751 1.806-10.323 1.777-.118.002-.238.002-.357.007l-187.607 8.322c-2.407.106-4.674-.754-6.418-2.423-1.785-1.708-2.769-4.02-2.769-6.51v-64.183l78.749-9.219c4.872-.226 8.476-3.803 17.625-21.032 4.546-8.561 9.171-18.275 10.07-20.647 4.22-11.119 9.643-19.201 15.684-23.374 9.219-6.368 15.943-15.811 18.974-26.628l17.622-44.333c.105-.266.229-.598.304-.875l3.67 2.586c7.993 5.634 12.14 15.556 10.563 25.279l-2.119 13.074c-.821 5.063-1.874 9.386-3.217 13.214-5.014 14.278-4.064 31.144 2.476 44.016 5.518 10.858 14.554 18.444 26.13 21.935 9.496 2.864 18.069 4.04 25.789 4.039 25.785-.002 42-13.125 50.849-20.29.275-.223.535-.465.775-.724 1.876-2.019 46.091-49.651 59.153-67.528l11.333-15.51c1.725-2.361 4.253-3.9 7.117-4.333 2.844-.432 5.693.282 8.015 2.008 3.235 2.405 5.075 4.926 1.268 17.414l-12.698 32.977c-1.488 3.865.438 8.206 4.304 9.694 3.867 1.489 8.206-.44 9.694-4.304l12.793-33.223c.062-.161.119-.325.17-.49 1.956-6.359 5.191-16.907.381-26.139 5.651-4.573 9.124-11.443 9.266-19.03zm-35.439 6.261c-6.849 1.037-12.88 4.7-16.982 10.315l-11.333 15.51c-1.503 2.058-3.475 4.566-5.779 7.388-10.476-39.89-5.638-81.864 13.609-118.264 10.003 18.966 15.994 38.591 17.697 58.447.104 1.201.494 2.36 1.141 3.378 2.524 3.978 6.821 6.352 11.495 6.352 2.857 0 5.663 1.188 7.696 3.26 1.918 1.954 2.946 4.465 2.897 7.071-.07 3.764-2.173 7.092-5.448 8.79-4.626-2.234-9.805-3.03-14.993-2.247z"/><path d="m241.303 242.279c0 4.142 3.357 7.5 7.5 7.5h22.385c4.143 0 7.5-3.358 7.5-7.5v-23.79c0-4.142-3.357-7.5-7.5-7.5s-7.5 3.358-7.5 7.5v4.967l-37.015-37.333c-2.918-2.942-7.667-2.961-10.606-.045-2.941 2.916-2.962 7.665-.046 10.606l37.771 38.095h-4.989c-4.142 0-7.5 3.357-7.5 7.5z"/><path d="m473.684 335.262c-2.687-4.734-7.539-7.561-12.981-7.561-5.443 0-10.296 2.827-12.982 7.561-16.498 29.076-24.863 49.035-24.863 59.322 0 20.868 16.978 37.845 37.845 37.845 20.868 0 37.846-16.977 37.846-37.845-.001-10.287-8.367-30.246-24.865-59.322zm-12.982 82.167c-12.597 0-22.845-10.248-22.845-22.845 0-5.572 6-22.1 22.846-51.804 16.842 29.697 22.845 46.231 22.845 51.804 0 12.597-10.248 22.845-22.846 22.845z"/></g></svg>