<svg height="512" viewBox="0 0 48 48" width="512" xmlns="http://www.w3.org/2000/svg"><g id="Line"><path d="m41.041 26.585c.636-2.973.959-6.022.959-9.06v-2.093c0-3.093-1.986-5.782-4.941-6.69l-7.353-2.262c-.422-.131-.706-.515-.706-.957v-2.523c0-.552-.448-1-1-1h-8c-.552 0-1 .448-1 1v2.523c0 .442-.284.826-.706.956l-7.353 2.262c-2.955.909-4.941 3.598-4.941 6.691v2.093c0 3.039.323 6.087.96 9.061 1.372 6.022 1.41 12.166.064 18.197-.148.6.354 1.235.976 1.217h32c.619.013 1.127-.612.976-1.217-1.346-6.031-1.309-12.176.065-18.198zm-1.041-9.06c.003 3.107-.36 6.22-1.046 9.251-1.225 5.717-1.286 11.505-.183 17.224h-3.123c-.98-2.244-1.248-4.762-.733-7.164l1.854-8.654c2.03-1.78 2.832-5.021 1.739-7.603 0 0-1.58-3.951-1.58-3.951-.498-1.207-2.334-.478-1.857.743.419 1.258 2.036 4.42 1.929 5.759-.139 5.756-8.2 6.696-10.105 1.423-.591-1.168-2.368-.278-1.789.894 0 0 .377.756.377.756 1.554 3.283 5.623 4.569 8.937 3.397 0 0-1.461 6.818-1.461 6.818-.541 2.527-.341 5.166.537 7.583h-18.992c.878-2.417 1.078-5.055.537-7.583l-1.461-6.818c3.787 1.284 7.818-.37 9.314-4.153.581-1.172-1.202-2.06-1.789-.893 0 0-.377.755-.377.755-.9 1.839-2.842 2.834-4.858 2.692-3.373.066-5.83-3.575-4.521-6.678 0 0 1.58-3.951 1.58-3.951.205-.513-.044-1.095-.557-1.3-.515-.204-1.095.044-1.3.557l-1.58 3.951c-1.092 2.582-.292 5.822 1.739 7.602 0 0 1.854 8.654 1.854 8.654.515 2.401.247 4.919-.733 7.164h-3.123c1.103-5.719 1.042-11.507-.183-17.225-.871-3.694-1.122-7.555-1.046-11.343 0-2.209 1.418-4.13 3.529-4.779l7.354-2.262c1.266-.391 2.117-1.543 2.117-2.868v-1.523h6v1.523c0 1.325.851 2.477 2.118 2.867l7.353 2.262c2.111.65 3.529 2.571 3.529 4.78z"/><path d="m24.02 40.419c-1.315-.004-1.313 1.996 0 2 1.308-.006 1.308-1.994 0-2z"/></g></svg>