<svg id="Capa_1" enable-background="new 0 0 512 512" height="512" viewBox="0 0 512 512" width="512" xmlns="http://www.w3.org/2000/svg"><g><g><path d="m266.382 85.88c1.614 0 3.241-.519 4.612-1.59 3.264-2.55 3.843-7.263 1.293-10.527-30.046-38.467-50.687-67.183-52.909-70.287-1.794-2.825-5.334-4.179-8.663-3.088-3.936 1.291-6.075 5.542-4.785 9.478.233.711.571 1.383 1.004 1.994.194.275 21.457 30.073 53.533 71.136 1.479 1.894 3.686 2.884 5.915 2.884z"/><path d="m287.826 476.667c-3.522-17.239-5.804-34.857-6.781-52.366-.229-4.136-3.765-7.301-7.906-7.07-4.136.231-7.301 3.771-7.07 7.906 1.018 18.234 3.394 36.582 7.061 54.535l5.39 26.33c.727 3.551 3.852 5.998 7.34 5.998.498 0 1.005-.05 1.512-.154 4.059-.831 6.675-4.793 5.844-8.852z"/><path d="m293.957 100.914c-2.662-3.176-7.393-3.593-10.565-.934-3.176 2.66-3.594 7.39-.935 10.565 6.432 7.678 13.356 15.544 20.054 23.153 31.717 36.031 64.513 73.288 64.436 110.604-.096 43.275-39.804 69.846-68.23 69.846-.299.011-6.041.116-15.267-1.134-4.755-.637-18.667-3.606-26.045-9.643-3.204-2.622-7.931-2.15-10.554 1.055-2.623 3.206-2.15 7.931 1.056 10.554 7.593 6.213 18.372 9.641 25.663 11.375-4.355 20.672-6.984 41.895-7.807 63.091-.161 4.139 3.064 7.625 7.203 7.785.1.004.197.006.296.006 4.008 0 7.333-3.169 7.489-7.209.796-20.486 3.344-40.998 7.574-60.972l.082-.388c5.891.527 9.682.494 10.388.479 19.03-.024 39.833-8.822 55.667-23.546 17.674-16.435 27.434-38.194 27.485-61.268.088-42.996-34.616-82.421-68.178-120.547-6.637-7.539-13.499-15.336-19.812-22.872z"/><path d="m77.132 305.661c-.006-.036-.012-.072-.018-.108-.111-.629-11.213-63.578-19.548-123.704-.568-4.103-4.361-6.972-8.458-6.399-4.104.568-6.969 4.355-6.399 8.458 7.523 54.274 17.287 110.82 19.272 122.192v198.398c0 4.142 3.357 7.5 7.5 7.5s7.5-3.358 7.5-7.5v-106.192c6.948 42.638 14.435 88.322 17.714 107.459.626 3.654 3.797 6.235 7.384 6.234.42 0 .847-.035 1.275-.109 4.082-.699 6.825-4.576 6.126-8.659-6.844-39.952-32.093-195.998-32.348-197.57z"/><path d="m110.178 0c-45.96 0-76.84 35.529-76.84 88.41 0 13.28 1.633 33.688 4.853 60.659.491 4.113 4.231 7.046 8.336 6.558 4.113-.491 7.05-4.224 6.559-8.336-3.15-26.383-4.747-46.193-4.747-58.881 0-44.595 24.273-73.41 61.84-73.41 39.07 0 65.32 29.501 65.32 73.41 0 53.886-17.125 216.027-17.298 217.658-.091.853-.034 1.714.166 2.547.148.616 14.822 62.261 14.822 124.224v71.66c0 4.142 3.357 7.5 7.5 7.5s7.5-3.358 7.5-7.5v-71.66c0-59.495-12.739-116.984-14.937-126.459 1.736-16.489 17.247-165.231 17.247-217.97-.001-52.055-33.031-88.41-80.321-88.41z"/><path d="m292.781 284.713c19.967 0 36.211-16.244 36.211-36.21 0-27.491-9.514-54.409-26.787-75.795l-8.688-10.756c-6.908-8.552-17.175-13.457-28.169-13.457-19.967 0-36.211 16.244-36.211 36.21v63.799c0 19.966 16.244 36.21 36.211 36.21h27.433zm-48.644-36.211v-63.799c0-11.695 9.516-21.21 21.211-21.21 6.439 0 12.454 2.874 16.5 7.883l8.686 10.755c15.127 18.727 23.457 42.299 23.457 66.37 0 11.695-9.516 21.21-21.211 21.21h-27.433c-11.694.002-21.21-9.513-21.21-21.209z"/><path d="m476.466 250.696-22.224-22.224c-2.93-2.929-7.678-2.929-10.607 0s-2.929 7.678 0 10.606l9.421 9.42h-41.493c-4.143 0-7.5 3.358-7.5 7.5s3.357 7.5 7.5 7.5h41.493l-9.421 9.42c-2.929 2.929-2.929 7.678 0 10.606 1.465 1.464 3.385 2.197 5.304 2.197s3.839-.732 5.304-2.197l22.224-22.224c2.927-2.926 2.927-7.675-.001-10.604z"/><path d="m393.386 192.843c1.272 0 2.562-.324 3.743-1.006l35.059-20.242-3.448 12.868c-1.072 4.001 1.302 8.114 5.303 9.186.65.174 1.304.257 1.946.257 3.312 0 6.342-2.21 7.239-5.561l8.135-30.358c.515-1.921.246-3.969-.749-5.691-.994-1.723-2.633-2.979-4.554-3.495l-30.358-8.134c-4.001-1.068-8.114 1.302-9.186 5.304-1.072 4.001 1.302 8.113 5.303 9.186l12.869 3.448-35.059 20.242c-3.587 2.071-4.816 6.658-2.745 10.245 1.389 2.405 3.91 3.751 6.502 3.751z"/><path d="m443.228 323.653c-1.071-4.001-5.184-6.372-9.186-5.303-4.001 1.072-6.375 5.185-5.303 9.186l3.448 12.868-35.059-20.242c-3.589-2.072-8.175-.842-10.245 2.745-2.071 3.587-.842 8.174 2.745 10.245l35.059 20.242-12.869 3.448c-4.001 1.072-6.375 5.185-5.303 9.186.897 3.351 3.928 5.561 7.239 5.561.643 0 1.296-.083 1.946-.257l30.358-8.134c1.921-.515 3.56-1.772 4.554-3.495.995-1.723 1.264-3.77.749-5.691z"/></g></g></svg>