<svg id="Layer_1" enable-background="new 0 0 256 256" height="512" viewBox="0 0 256 256" width="512" xmlns="http://www.w3.org/2000/svg"><g><path d="m230.141 139.263h-12.16v13.88h-78v-13.88h-12.17l.54-86.825c.02-4.35 3.06-8.09 7.31-9l22.64-4.83-7.56 33.76 11.6-1.78-1.24 29.45 17.88 12.86 17.88-12.86-1.24-29.45 11.6 1.78-7.55-33.72v-.04l22.62 4.83c4.25.91 7.3 4.65 7.32 9z" fill="#878787"/><path d="m212.333 153.148-.32 7-3.89 84.39h-58.28l-.51-10.76-.63-13.39-2.75-60.24-.32-7z" fill="#878787"/><path d="m212.333 153.148-.32 7h-66.06l-.32-7z" fill="#4c4944"/><path d="m149.334 233.782c-1.72.99-4.01 2.21-6.84 3.53-6.37 2.98-15.52 6.44-27.33 8.89v.01c-20.643 4.3-44.032 4.272-64.52 0-17.61-3.67-29.3-9.56-34.68-12.73-1.99-1.18-2.8-3.63-1.91-5.77l43.57-104.21c2.5-5.97 1.72-14.33-.92-19.38-1.26-2.38-2.99-4.51-5.13-6.24-5.08-4.08-3.16-9.65-2.69-11.64 3.28-13.85 4.53-28.11 3.69-42.32v-.16c0-1.53 1.21-2.76 2.76-2.76h8.16c1.62 0 2.94 1.32 2.94 2.94v4.94c0 9.03 7.29 16.47 16.48 16.47 8.58 0 16.48-6.84 16.48-16.47v-4.94c0-1.62 1.31-2.94 2.94-2.94h8c1.61 0 2.91 1.31 2.93 2.92v.01c-.84 14.21.4 28.46 3.68 42.31.46 1.93 2.47 7.49-2.66 11.62-8.35 6.72-8.94 18.78-6.08 25.65l32.6 77.99 7.9 18.89z" fill="#efefef"/><path d="m149.334 233.782c-1.72.99-4.01 2.21-6.84 3.53l-1.69-35.81 7.9 18.89z" fill="#afafaf"/><path d="m207.224 72.373-7.55-33.72v-.01-.031l-6.74-8.33-13.95 11.871-13.96-11.871-6.72 8.33-7.56 33.761 11.6-1.781-1.24 29.45 17.88 12.861 17.88-12.861-1.24-29.45z" fill="#efefef"/><path d="m230.214 150.357c.01 1.53-1.24 2.79-2.77 2.79h-9.46v-13.88h12.16z" fill="#efefef"/><path d="m139.981 139.263v13.88h-9.46c-1.54 0-2.78-1.25-2.78-2.79l.06-11.09z" fill="#efefef"/><path d="m183.134 58.493 3.01-8.77-7.16-7.57-7.13 7.539 2.97 8.801-5.43 30.009 9.59 24.401 9.62-24.45v-.011z" fill="#72c2e9"/><path d="m239.837 198.789c-3.683-1.217-7.487-2.281-9.623-11.48-1.967 8.473-5.118 9.992-9.623 11.48 7.347 2.428 8.455 6.447 9.623 11.48 2.013-8.676 5.343-10.065 9.623-11.48z" fill="#f0c020"/><path d="m227.805 210.882c-1.067-4.599-1.771-7.637-7.989-9.691-2.259-.746-2.254-3.952 0-4.697 3.743-1.237 6.216-2.054 7.989-9.692.589-2.538 4.228-2.545 4.818 0 1.813 7.811 4.522 8.549 7.989 9.691 2.259.746 2.254 3.952 0 4.697-3.609 1.192-6.218 2.054-7.989 9.691-.592 2.551-4.226 2.551-4.818.001zm-1.414-11.983c1.78 1.222 2.996 2.618 3.872 4.094 1.061-1.875 2.29-3.166 3.659-4.128-1.313-.939-2.583-2.269-3.699-4.279-1.103 1.984-2.392 3.325-3.832 4.313z"/><path d="m40.254 124.272c-3.683-1.217-7.487-2.281-9.623-11.48-1.967 8.473-5.118 9.992-9.623 11.48 7.347 2.428 8.455 6.447 9.623 11.481 2.013-8.677 5.343-10.067 9.623-11.481z" fill="#f0c020"/><path d="m28.222 136.364c-1.067-4.599-1.771-7.637-7.989-9.691-2.259-.746-2.254-3.952 0-4.697 3.743-1.237 6.216-2.054 7.989-9.692.589-2.538 4.228-2.545 4.818 0 1.813 7.811 4.522 8.549 7.989 9.691 2.259.746 2.254 3.952 0 4.697-3.609 1.192-6.218 2.054-7.989 9.691-.592 2.551-4.226 2.552-4.818.001zm-1.414-11.983c1.78 1.222 2.996 2.618 3.872 4.094 1.061-1.875 2.29-3.166 3.659-4.128-1.312-.939-2.583-2.269-3.699-4.279-1.103 1.985-2.392 3.325-3.832 4.313z"/><path d="m131.577 20.467c-3.683-1.217-7.487-2.281-9.623-11.481-1.967 8.473-5.118 9.992-9.623 11.481 7.347 2.428 8.455 6.447 9.623 11.481 2.013-8.677 5.343-10.067 9.623-11.481z" fill="#f0c020"/><path d="m119.545 32.559c-1.067-4.599-1.771-7.637-7.989-9.691-2.259-.746-2.254-3.952 0-4.697 3.743-1.237 6.216-2.054 7.989-9.692.589-2.538 4.228-2.545 4.818 0 1.813 7.811 4.522 8.549 7.989 9.691 2.259.746 2.254 3.952 0 4.697-3.609 1.192-6.218 2.054-7.989 9.691-.591 2.551-4.226 2.552-4.818.001zm-1.414-11.983c1.78 1.222 2.996 2.618 3.872 4.094 1.061-1.875 2.29-3.166 3.659-4.128-1.313-.939-2.583-2.269-3.699-4.279-1.103 1.985-2.392 3.325-3.832 4.313z"/><path d="m24.184 229.408c-1.274-.533-1.875-1.997-1.342-3.271l1.157-2.768c.533-1.272 1.999-1.875 3.271-1.342 1.274.533 1.875 1.997 1.342 3.271l-1.157 2.768c-.533 1.273-1.997 1.875-3.271 1.342zm5.015-11.994c-1.274-.533-1.875-1.997-1.342-3.271l36.687-87.747c3.603-8.606 3.587-24.508-7.958-34.104-1.313-1.091-.849-2.48-.598-3.524.701-2.908 2.833-11.756 3.812-23.509.114-1.375 1.323-2.393 2.699-2.283 1.376.114 2.398 1.323 2.284 2.699-.963 11.564-3.006 20.398-3.822 23.801 11.781 10.788 12.693 28.107 8.196 38.85l-36.687 87.746c-.533 1.273-1.998 1.875-3.271 1.342z" fill="#fff"/><g fill="#72c2e9"><path d="m78.2 172.689c-1.37 0-2.5-1.13-2.5-2.5v-.59c0-1.38 1.13-2.5 2.5-2.5 1.38 0 2.5 1.12 2.5 2.5v.59c0 1.371-1.12 2.5-2.5 2.5z"/><path d="m126.54 207.13c-1.38 0-2.5-1.12-2.5-2.5v-.58c0-1.38 1.12-2.5 2.5-2.5s2.5 1.12 2.5 2.5v.58c0 1.38-1.12 2.5-2.5 2.5z"/><path d="m43.21 216.5c-1.38 0-2.5-1.12-2.5-2.5v-.58c0-1.38 1.12-2.5 2.5-2.5s2.5 1.12 2.5 2.5v.58c0 1.38-1.12 2.5-2.5 2.5z"/><path d="m76.67 225.16c-1.38 0-2.5-1.12-2.5-2.5v-.58c0-1.38 1.12-2.5 2.5-2.5 1.37 0 2.5 1.12 2.5 2.5v.58c0 1.38-1.13 2.5-2.5 2.5z"/><path d="m50.65 188.83c-1.38 0-2.5-1.12-2.5-2.5v-.58c0-1.38 1.12-2.5 2.5-2.5s2.5 1.12 2.5 2.5v.58c0 1.38-1.12 2.5-2.5 2.5z"/><path d="m89.62 200.29c-1.37 0-2.49-1.12-2.49-2.5v-.58c0-1.38 1.12-2.5 2.49-2.5 1.38 0 2.51 1.12 2.51 2.5v.58c0 1.38-1.13 2.5-2.51 2.5z"/><path d="m116.94 179.649c-1.38 0-2.5-1.13-2.5-2.5v-.59c0-1.38 1.12-2.5 2.5-2.5 1.37 0 2.49 1.12 2.49 2.5v.59c0 1.371-1.12 2.5-2.49 2.5z"/></g><path d="m99.85 144.78c-.24-1.341-1.55-2.271-2.9-2.03-1.36.24-2.27 1.54-2.03 2.899l2.7 15.301c.21 1.199 1.24 2.069 2.45 2.069 1.557 0 2.75-1.408 2.47-2.93z"/><path d="m101.38 167.91c-1.36.239-2.27 1.529-2.03 2.89.21 1.2 1.25 2.07 2.46 2.07 1.56 0 2.736-1.416 2.46-2.94-.23-1.34-1.54-2.27-2.89-2.02z"/><path d="m188.604 122.273c-1.381 0-2.5 1.119-2.5 2.5v1.85c0 1.381 1.119 2.5 2.5 2.5s2.5-1.119 2.5-2.5v-1.85c0-1.38-1.119-2.5-2.5-2.5z"/><path d="m188.604 135.838c-1.381 0-2.5 1.119-2.5 2.5v1.85c0 1.381 1.119 2.5 2.5 2.5s2.5-1.119 2.5-2.5v-1.85c0-1.381-1.119-2.5-2.5-2.5z"/><path d="m211.01 181.87c-1.37-.061-2.55 1.01-2.61 2.38-.06 1.38 1 2.55 2.381 2.62 1.583 0 2.554-1.147 2.609-2.391.062-1.356-.982-2.548-2.38-2.609z"/><path d="m14.69 235.63c34.055 20.075 92.866 22.494 132.337 2.248l.323 6.782c.061 1.33 1.15 2.38 2.49 2.38h58.28c1.34 0 2.439-1.05 2.5-2.391l2.31-50.18c.07-1.37-1-2.55-2.38-2.61-1.37-.06-2.55 1.011-2.61 2.381l-2.21 47.8h-24.285v-86.393h28.275l-.86 18.612c-.062 1.412 1.05 2.62 2.5 2.62 1.341 0 2.431-1.05 2.49-2.38 0-.01 0-.01 0-.021l.87-18.832h12.725c2.919 0 5.288-2.385 5.27-5.306l-.069-11.029c0-.015.005-.03.005-.045 0-.017-.005-.033-.005-.05l-.53-86.787c-.025-5.477-3.936-10.285-9.298-11.434l-21.756-4.646-6.183-7.642c-.887-1.097-2.501-1.237-3.563-.332l-12.33 10.492-12.34-10.492c-1.037-.885-2.661-.787-3.564.335l-6.163 7.639-21.775 4.646c-5.442 1.165-9.261 5.866-9.287 11.429l-.55 86.793c0 .01-.003.019-.003.03l-.06 11.104c0 2.917 2.369 5.29 5.28 5.29 1.357 0 11.371.005 12.726.005l2.31 50.74-35.05-83.836c-2.528-6.014-1.978-16.868 5.34-22.74 6.421-5.079 3.871-11.94 3.53-14.149-2.57-10.83-3.87-21.971-3.87-33.101 0-2.819.08-5.67.25-8.479v-.19c-.03-2.96-2.47-5.38-5.43-5.39h-8c-2.99 0-5.43 2.439-5.44 5.439v4.94c-.01 7.689-6.28 13.96-13.98 13.97-7.7-.01-13.97-6.28-13.98-13.97v-4.94c0-2.989-2.44-5.43-5.43-5.439h-8.17c-2.89.01-5.25 2.37-5.25 5.26v.31c.243 4.271.29 7.83.22 11.44-.042 1.404 1.104 2.53 2.44 2.55h.06c1.35 0 2.47-1.1 2.49-2.45.085-2.898.046-7.15-.21-11.75v-.09c.01-.189.07-.26.25-.27h8.16c.24 0 .44.21.44.439v4.94c.019 9.491 6.987 17.549 16.48 18.788v7.362h-1.5c-1.37 0-2.5 1.119-2.5 2.5 0 1.38 1.13 2.5 2.5 2.5h1.5v4.22h-1.5c-1.37 0-2.5 1.12-2.5 2.5s1.13 2.5 2.5 2.5h1.5v4.33c0 3.296 5 3.312 5 0v-4.33h1.5c1.38 0 2.5-1.12 2.5-2.5s-1.12-2.5-2.5-2.5h-1.5v-4.22h1.51c1.37 0 2.49-1.12 2.49-2.5 0-1.381-1.12-2.5-2.49-2.5h-1.51v-7.376c9.254-1.276 16.48-8.967 16.48-18.774v-4.94c0-.239.2-.439.44-.439h8c.22 0 .41.189.43.41-.17 2.899-.25 5.81-.25 8.649 0 11.521 1.34 23.04 4 34.26.871 3.483 1.5 6.368-1.79 9.101-9.025 7.269-10.24 20.329-6.82 28.55l40.321 96.459c.41 8.608.292 6.105.539 11.43-9.116 4.998-19.444 8.536-29.583 10.834l-11.167-63.414c-.24-1.341-1.55-2.261-2.9-2.03-1.403.259-2.251 1.574-2.03 2.899l11.197 63.577c-18.812 3.586-39.67 3.63-58.739-.003l17.367-98.58c.24-1.359-.668-2.656-2.028-2.896-1.355-.242-2.656.669-2.896 2.028l-17.341 98.432c-15.844-3.603-26.401-8.931-31.41-11.877-.874-.533-1.299-1.637-.87-2.65l43.57-104.21c2.942-7.079 2.99-20.649-6.78-28.53-2.931-2.423-2.948-5.195-1.83-9.12.85-3.6 1.58-7.289 2.16-10.96.22-1.36-.71-2.65-2.07-2.86-1.36-.22-2.65.72-2.87 2.069-.55 3.521-1.26 7.091-2.09 10.601-1.28 5.582-1.322 10.32 3.56 14.16 7.866 6.377 7.454 17.599 5.31 22.71l-43.57 104.21c-1.413 3.36-.047 7.11 2.94 8.88zm161.754 6.41h-24.224l-3.97-86.393h28.194zm2.541-135.969-7.004-17.823 4.931-27.256h4.137l4.969 27.204c-5.433 13.809-3.915 9.952-7.033 17.875zm-14.64-23.571c1.365 3.472 7.779 19.781 9.207 23.416l-9.893-7.116zm-2.591-36.524 6.652 7.131c.538.577 1.323.896 2.217.755l1.626 4.818-3.75 20.73-3.714-9.441zm31.428 23.995-3.695 9.395-3.777-20.68 1.655-4.821c.898.133 1.668-.19 2.197-.757l6.664-7.145zm1.128 28.829-9.889 7.112c5.952-15.128 8.439-21.459 9.203-23.401zm33.322 51.765c-.037.037-.1.082-.188.082h-6.96v-8.88h7.176c.001.183.101 8.67-.028 8.798zm-27.276-97.421 3.628 16.202-5.574-.854zm6.868 21.728c1.604 0 2.789-1.489 2.439-3.046l-6.707-29.957 18.815 4.017c3.081.66 5.329 3.422 5.344 6.571l.515 84.31h-7.145v-65.174c0-1.381-1.119-2.5-2.5-2.5s-2.5 1.119-2.5 2.5v67.675 11.38h-34v-36.464l16.84-12.112c.684-.491 1.073-1.294 1.038-2.135l-1.112-26.412c.304.046 8.666 1.347 8.973 1.347zm-14.621-41.025 3.757 4.644-8.639 9.261c-2.004-2.119-1.273-1.346-5.109-5.402zm-13.619 11.944 4.305 4.551-1.94 5.65h-4.73l-1.915-5.675zm-13.625-11.942 9.998 8.501c-2.252 2.381-1.158 1.225-5.109 5.402l-8.637-9.259zm-7.742 19.272 1.941 15.37-5.575.854zm-20.136 97.522h-6.96c-.157 0-.28-.127-.28-.276l.047-8.599h7.193zm5.003.004v-11.38-67.674c0-1.381-1.119-2.5-2.5-2.5s-2.5 1.119-2.5 2.5v65.17h-7.164l.533-84.309c.016-3.197 2.208-5.897 5.332-6.566l18.827-4.017-6.708 29.955c-.349 1.556.834 3.046 2.439 3.046.307 0 8.669-1.301 8.974-1.348l-1.111 26.412c-.035.841.355 1.644 1.038 2.135l16.84 12.112v36.464z"/><path d="m52.25 68.04c1.3 0 2.37-.98 2.48-2.271.128-1.431-.942-2.601-2.26-2.72-1.38-.11-2.59.9-2.72 2.27-.126 1.405.966 2.721 2.5 2.721z"/></g></svg>