<svg id="Hand_x2C__shake_x2C__agreement_x2C__business_x2C__commitment_x2C__meeting_x2C__heart" enable-background="new 0 0 128 128" viewBox="0 0 128 128" xmlns="http://www.w3.org/2000/svg"><g><g id="Hand_x2C__shake_x2C__agreement_x2C__business_x2C__commitment_x2C__meeting_2_"><g><path d="m95.726 29.445c-3.389 5.456-9.128 9.036-15.638 9.027-2.168 0-4.251-.398-6.191-1.132-4.042-1.53-8.419-.03-11.152 3.365-.272.338-.563.665-.873.98-5.4 5.496-14.458 5.176-20.23-.698l21.852-22.239c14.299-14.552 37.483-14.552 51.782 0 14.299 14.552 14.299 38.146 0 52.699l-52.561 42.368-40.936-41.646" fill="#ffc20e"/><path d="m62.715 115.815c-.52 0-1.037-.202-1.427-.598l-40.936-41.646 2.853-2.805 39.666 40.354 51.058-41.157c13.438-13.763 13.411-36.084-.08-49.813-6.536-6.652-15.225-10.316-24.464-10.316s-17.928 3.664-24.465 10.316l-20.376 20.737c2.291 1.747 5.063 2.722 7.843 2.722 3.089 0 5.951-1.181 8.058-3.325.263-.268.51-.546.742-.834 3.395-4.218 8.664-5.779 13.417-3.98 1.758.666 3.604 1.003 5.483 1.003h.021c5.573 0 10.774-3.02 13.918-8.082l3.398 2.11c-3.88 6.246-10.351 9.972-17.313 9.972-2.384-.039-4.702-.421-6.923-1.262-3.107-1.176-6.595-.097-8.886 2.749-.316.392-.653.771-1.003 1.127-2.866 2.917-6.741 4.522-10.912 4.522-4.476 0-8.913-1.902-12.172-5.22-.764-.778-.764-2.025 0-2.804l21.852-22.239c7.294-7.423 16.997-11.512 27.318-11.512 10.321 0 20.022 4.088 27.317 11.512 15.036 15.303 15.036 40.201 0 55.502-.055.056-.111.107-.172.155l-52.56 42.368c-.368.298-.812.444-1.255.444z" fill="#333"/></g><g><path d="m64.506 17.179c-14.299-14.552-37.483-14.552-51.782 0-14.299 14.552-14.299 38.146 0 52.699l3.264 3.322 44.733 45.509 50.035-50.902" fill="#f15a24"/><path d="m60.721 120.709c-.537 0-1.05-.216-1.426-.598l-47.997-48.832c-15.036-15.301-15.036-40.2 0-55.502 7.295-7.423 16.996-11.512 27.317-11.512s20.023 4.088 27.318 11.512l-2.853 2.804c-6.537-6.652-15.226-10.316-24.465-10.316-9.24 0-17.928 3.664-24.464 10.316-13.517 13.756-13.517 36.139 0 49.896l46.57 47.379 48.608-49.451 2.854 2.805-50.035 50.902c-.377.381-.89.597-1.427.597z" fill="#333"/></g><g><g><path d="m65.554 92.873 14.572 14.802c3.209 3.265 8.411 3.265 11.619 0l.015-.015c3.209-3.265 3.209-8.56 0-11.825l-11.764-11.97" fill="#f15a24"/><path d="m85.936 112.124c-.001 0-.001 0 0 0-2.736 0-5.306-1.083-7.236-3.048l-14.571-14.8 2.85-2.807 14.572 14.802c1.174 1.195 2.73 1.853 4.384 1.853h.001c1.653 0 3.21-.657 4.383-1.851 2.459-2.503 2.459-6.551.015-9.038l-11.765-11.97 2.854-2.803 11.764 11.971c3.963 4.033 3.963 10.595 0 14.628-1.947 1.981-4.516 3.063-7.251 3.063z" fill="#333"/></g><g><path d="m60.999 111.891 4.661 4.744c3.209 3.265 8.411 3.265 11.619 0l.015-.015c3.209-3.265 3.209-8.56 0-11.825l-7.521-7.654" fill="#f15a24"/><path d="m71.471 121.084c-.001 0-.001 0 0 0-2.736 0-5.306-1.082-7.236-3.047l-4.662-4.744 2.854-2.803 4.662 4.744c1.172 1.192 2.729 1.85 4.382 1.85h.001c1.653 0 3.21-.657 4.383-1.851 2.459-2.502 2.459-6.55.015-9.037l-7.521-7.654 2.854-2.803 7.521 7.654c3.963 4.033 3.963 10.595 0 14.628-1.949 1.981-4.518 3.063-7.253 3.063z" fill="#333"/></g><g><path d="m77.279 81.148 17.302 17.556c3.213 3.27 8.422 3.27 11.634 0 3.213-3.27 3.213-8.571 0-11.84l-12.817-13.044" fill="#f15a24"/><path d="m100.397 103.156c-2.737 0-5.31-1.083-7.243-3.051l-17.3-17.554c-.775-.787-.766-2.054.021-2.829s2.054-.765 2.829.021l17.302 17.557c1.177 1.198 2.735 1.856 4.392 1.856s3.216-.658 4.391-1.854c2.448-2.492 2.448-6.546 0-9.038l-12.818-13.042c-.774-.787-.763-2.054.025-2.828.785-.775 2.053-.764 2.828.025l12.817 13.043c3.968 4.037 3.968 10.606 0 14.644-1.933 1.967-4.505 3.05-7.244 3.05z" fill="#333"/></g><g><path d="m89.041 69.386 13.032 13.264c3.166 3.222 8.299 3.222 11.465 0l.169-.172c3.166-3.222 3.166-8.446 0-11.668l-31.526-32.083" fill="#f15a24"/><path d="m107.806 87.066c-2.707 0-5.25-1.07-7.16-3.015l-13.032-13.264c-.774-.788-.763-2.054.025-2.828.786-.775 2.053-.763 2.828.025l13.031 13.265c1.152 1.172 2.682 1.817 4.307 1.817 1.624 0 3.153-.646 4.306-1.817l.165-.17c2.406-2.447 2.406-6.424.004-8.868l-31.526-32.083c-.774-.788-.763-2.054.025-2.829.786-.774 2.053-.764 2.828.025l31.526 32.083c3.921 3.989 3.921 10.481 0 14.471l-.165.17c-1.913 1.948-4.456 3.018-7.162 3.018z" fill="#333"/></g></g><g><g><path d="m72.28 99.795.015.015c3.208 3.265 3.208 8.556 0 11.821l-7.521 7.654c-3.209 3.266-8.414 3.266-11.624 0l-.015-.015c-3.208-3.265-3.208-8.556 0-11.821l7.521-7.654c3.21-3.266 8.414-3.266 11.624 0z" fill="#ffc20e"/><path d="m58.962 123.735c-2.737 0-5.307-1.083-7.239-3.049-3.977-4.046-3.978-10.606-.015-14.639l7.521-7.654c1.932-1.966 4.502-3.049 7.238-3.049s5.308 1.083 7.238 3.049c3.978 4.047 3.978 10.607.016 14.639l-7.521 7.654c-1.931 1.966-4.501 3.049-7.238 3.049zm7.506-24.39c-1.654 0-3.212.658-4.385 1.852l-7.521 7.654c-2.443 2.486-2.443 6.531 0 9.017 1.188 1.21 2.746 1.868 4.401 1.868 1.654 0 3.212-.658 4.385-1.852l7.521-7.654c2.443-2.486 2.443-6.531 0-9.018-1.189-1.209-2.747-1.867-4.401-1.867z" fill="#333"/></g><g><path d="m63.134 85.436c3.213 3.27 3.213 8.568.001 11.836l-11.404 11.606c-3.213 3.27-8.424 3.27-11.638 0l-.001-.001c-3.212-3.269-3.212-8.567 0-11.835l11.404-11.606c3.214-3.271 8.425-3.271 11.638 0z" fill="#ffc20e"/><path d="m45.912 113.33c-2.739 0-5.312-1.083-7.245-3.05-3.967-4.037-3.967-10.604-.001-14.64l11.404-11.606c1.934-1.968 4.506-3.052 7.246-3.052s5.312 1.084 7.246 3.052c3.965 4.036 3.966 10.604.001 14.639l-11.404 11.606c-1.935 1.968-4.508 3.051-7.247 3.051zm11.403-28.348c-1.657 0-3.217.659-4.392 1.854l-11.404 11.607c-2.447 2.49-2.447 6.542 0 9.032 1.175 1.195 2.736 1.854 4.393 1.854s3.217-.658 4.393-1.854l11.403-11.605c2.447-2.49 2.447-6.542 0-9.032-1.175-1.196-2.735-1.856-4.393-1.856z" fill="#333"/></g><g><path d="m55.688 69.161.169.172c3.165 3.221 3.165 8.443 0 11.664l-17.275 17.58c-3.167 3.223-8.302 3.223-11.469 0l-.169-.172c-3.165-3.221-3.165-8.443 0-11.664l17.275-17.58c3.167-3.222 8.302-3.222 11.469 0z" fill="#ffc20e"/><path d="m32.848 102.995c-2.708 0-5.25-1.071-7.161-3.016l-.169-.171c-3.92-3.99-3.92-10.48 0-14.469l17.274-17.58c1.911-1.945 4.454-3.016 7.162-3.016 2.707 0 5.25 1.07 7.161 3.016l.171.174c3.917 3.986 3.917 10.477-.001 14.466l-17.275 17.58c-1.911 1.945-4.455 3.016-7.162 3.016zm17.106-34.251c-1.626 0-3.156.646-4.309 1.818l-17.274 17.582c-2.401 2.443-2.401 6.418 0 8.861l.168.171c1.153 1.174 2.683 1.819 4.309 1.819s3.155-.646 4.308-1.818l17.275-17.58c2.4-2.443 2.4-6.418 0-8.861l-.171-.174c-1.151-1.172-2.681-1.818-4.306-1.818z" fill="#333"/></g><g><path d="m38.814 62.826c3.213 3.27 3.213 8.568.001 11.836l-10.367 10.55c-3.213 3.27-8.424 3.27-11.638 0l-.001-.001c-3.212-3.269-3.212-8.567 0-11.835l10.367-10.55c3.213-3.27 8.424-3.27 11.638 0z" fill="#ffc20e"/><path d="m22.629 89.665c-2.739 0-5.312-1.084-7.246-3.052-3.966-4.036-3.966-10.604-.001-14.639l10.367-10.551c1.933-1.967 4.507-3.051 7.246-3.051 2.739 0 5.312 1.083 7.246 3.051 3.966 4.037 3.966 10.604.001 14.64l-10.367 10.55c-1.934 1.968-4.507 3.052-7.246 3.052zm10.366-27.292c-1.657 0-3.217.659-4.393 1.854l-10.366 10.55c-2.447 2.49-2.447 6.542 0 9.032 1.176 1.196 2.736 1.855 4.393 1.855s3.217-.659 4.392-1.854l10.367-10.55c2.447-2.49 2.447-6.542 0-9.032-1.176-1.196-2.736-1.855-4.393-1.855z" fill="#333"/></g></g><g><path d="m95.726 29.445c-3.389 5.456-9.128 9.036-15.638 9.027-2.168 0-4.251-.398-6.191-1.132-4.042-1.53-8.419-.03-11.152 3.365-.272.338-.563.665-.873.98-5.4 5.496-14.458 5.176-20.23-.698l21.852-22.239c14.299-14.552 37.483-14.552 51.782 0" fill="#ffc20e"/><path d="m52.387 47.609c-4.476 0-8.913-1.902-12.172-5.22-.764-.778-.764-2.025 0-2.804l21.852-22.239c7.294-7.423 16.997-11.512 27.318-11.512 10.321 0 20.022 4.088 27.317 11.512.774.788.763 2.054-.025 2.829-.787.773-2.055.762-2.828-.025-6.536-6.652-15.225-10.316-24.464-10.316s-17.928 3.664-24.465 10.316l-20.376 20.737c2.291 1.747 5.063 2.722 7.843 2.722 3.089 0 5.951-1.181 8.058-3.325.263-.268.51-.546.742-.834 3.395-4.218 8.664-5.779 13.417-3.98 1.758.666 3.604 1.003 5.483 1.003h.021c5.573 0 10.774-3.02 13.918-8.082.583-.938 1.814-1.227 2.755-.644.938.583 1.227 1.816.644 2.754-3.88 6.246-10.351 9.972-17.313 9.972-2.384-.039-4.703-.421-6.923-1.262-3.107-1.176-6.595-.097-8.886 2.749-.316.392-.653.771-1.003 1.127-2.866 2.916-6.742 4.522-10.913 4.522z" fill="#333"/></g></g></g></svg>