<svg id="Layer_1" enable-background="new 0 0 3873 3873" height="512" viewBox="0 0 3873 3873" width="512" xmlns="http://www.w3.org/2000/svg"><g id="Layer_1_00000093168096624005947570000016926909974522456985_"><g><g><g><path clip-rule="evenodd" d="m3086.2 2715.9h-2295.4c-182.6 0-331.1-137.9-331.1-307.3v-92.9c0-32.2 26.1-58.4 58.4-58.4h2840.9c32.2 0 58.4 26.1 58.4 58.4v92.9c0 169.5-148.5 307.3-331.2 307.3zm-2509.8-341.9v34.6c0 105.1 96.2 190.6 214.4 190.6h2295.4c118.2 0 214.4-85.5 214.4-190.6v-34.6z" fill-rule="evenodd"/></g><g><path clip-rule="evenodd" d="m2085.1 3320.8c-32.2 0-58.4-26.1-58.4-58.4v-604.9c0-32.2 26.1-58.4 58.4-58.4s58.4 26.1 58.4 58.4v604.9c0 32.3-26.2 58.4-58.4 58.4zm-293.2 0c-32.2 0-58.4-26.1-58.4-58.4v-604.9c0-32.2 26.1-58.4 58.4-58.4s58.4 26.1 58.4 58.4v604.9c0 32.3-26.1 58.4-58.4 58.4z" fill-rule="evenodd"/></g><g><path clip-rule="evenodd" d="m3158.9 2374c-32.2 0-58.4-26.1-58.4-58.4v-305.1c0-136.1-136.8-246.7-305.1-246.7h-1713.9c-168.2 0-305 110.7-305 246.7v305.1c0 32.2-26.1 58.4-58.4 58.4s-58.4-26.1-58.4-58.4v-305.1c0-200.4 189.2-363.5 421.8-363.5h1713.9c232.6 0 421.8 163.1 421.8 363.5v305.1c0 32.2-26.1 58.4-58.3 58.4z" fill-rule="evenodd"/></g><g><path clip-rule="evenodd" d="m2834.3 1763.8c-32.2 0-58.4-26.1-58.4-58.4v-305.1c0-136.1-135.5-246.7-302-246.7h-1070.7c-166.5 0-302 110.7-302 246.7v305.1c0 32.2-26.1 58.4-58.4 58.4s-58.4-26.1-58.4-58.4v-305.1c0-200.4 187.8-363.5 418.8-363.5h1070.7c230.9 0 418.8 163.1 418.8 363.5v305.1c0 32.3-26.2 58.4-58.4 58.4z" fill-rule="evenodd"/></g><g><path clip-rule="evenodd" d="m1365.6 950.8c-104 0-188.6-91.4-188.6-203.8 0-94.1 110-233.6 143.8-274.1 23.5-28.2 66.5-28 89.7 0 33.8 40.5 143.8 180 143.8 274.1-.1 112.4-84.7 203.8-188.7 203.8zm0-344.4c-39.5 56.2-71.8 114.8-71.8 140.5 0 48 32.2 87 71.8 87s71.8-39 71.8-87c0-25.7-32.4-84.3-71.8-140.5z" fill-rule="evenodd"/></g><g><path clip-rule="evenodd" d="m1365.6 1155.3c-32.2 0-58.4-26.1-58.4-58.4v-204.5c0-32.2 26.1-58.4 58.4-58.4s58.4 26.1 58.4 58.4v204.6c0 32.1-26.2 58.3-58.4 58.3z" fill-rule="evenodd"/></g><g><path clip-rule="evenodd" d="m1945.3 1153.6c-32.2 0-58.4-26.1-58.4-58.4v-276.3c0-32.2 26.1-58.4 58.4-58.4s58.4 26.1 58.4 58.4v276.4c0 32.1-26 58.3-58.4 58.3z" fill-rule="evenodd"/></g><g><path clip-rule="evenodd" d="m1945.3 877.2c-17.2 0-33.6-7.6-44.7-20.8l-244.7-290.6c-72.5-74.6-71.9-194.3 1.9-268.1 74.4-74.4 195.6-74.4 270.1 0l17.3 17.3c9-6.5 55.9-73.1 152.3-73.1 51.1 0 99.1 19.8 135 55.8 73.8 73.8 74.4 193.5 1.9 268.1l-244.7 290.6c-10.8 13.2-27.1 20.8-44.4 20.8zm-204.7-496.9c-29 29-29 76 0 104.9 3.2 3.2-6.6-8.1 204.8 242.9 215.6-256 201.5-239.6 204.8-242.9 46.3-46.3 13.8-126.5-52.4-126.5-19.9 0-38.5 7.7-52.4 21.6l-58.6 58.6c-11 11-25.8 17.1-41.3 17.1-15.5 0-30.3-6.1-41.3-17.1l-58.6-58.6c-29.1-28.9-76.2-28.9-105 0z" fill-rule="evenodd"/></g><g><path clip-rule="evenodd" d="m2511.5 950.8c-104 0-188.6-91.4-188.6-203.8 0-94.1 110-233.6 143.8-274.1 23.5-28.2 66.5-27.9 89.7 0 33.8 40.5 143.8 180 143.8 274.1-.1 112.4-84.8 203.8-188.7 203.8zm0-344.4c-39.5 56.2-71.8 114.8-71.8 140.5 0 48 32.2 87 71.8 87s71.8-39 71.8-87c0-25.7-32.4-84.3-71.8-140.5z" fill-rule="evenodd"/></g><g><path clip-rule="evenodd" d="m2511.5 1155.3c-32.2 0-58.4-26.1-58.4-58.4v-204.5c0-32.2 26.1-58.4 58.4-58.4s58.4 26.1 58.4 58.4v204.6c-.1 32.1-26.2 58.3-58.4 58.3z" fill-rule="evenodd"/></g><g><path clip-rule="evenodd" d="m2684 1498.8c-47 0-90.4-17.9-128.8-33.7-80.2-33-88.2-33-168.4 0-110.2 45.5-149.4 44.4-257.5 0-80.2-33-88.2-33.1-168.4 0-110.2 45.5-149.4 44.4-257.5 0-31-12.8-60.3-24.8-84.2-24.8-53.8 0-128.2 58.5-213 58.5-84.4 0-159.4-58.5-213-58.5-30.1 0-86.8 27.9-129.4 44.3-30.1 11.5-63.8-3.7-75.3-33.8s3.7-63.8 33.8-75.3c9.7-3.7 20.5-8.2 31.9-13.1 117.9-49.5 152.9-52.6 267.9-5.3 80.2 33 88.2 33.1 168.4 0 38.3-15.8 81.7-33.7 128.8-33.7 84.5 0 159.3 58.5 213 58.5 53.8 0 128.2-58.5 213-58.5 47 0 90.5 17.9 128.8 33.7 80.2 33 88.2 33.1 168.4 0 110.1-45.5 149.2-44.5 257.5 0 31 12.8 60.3 24.8 84.2 24.8 35.8 0 82.5-26.6 131.3-43.2 30.5-10.4 63.7 5.9 74.1 36.4 10.4 30.6-5.9 63.7-36.4 74.1-13.1 4.5-26.6 10-40.9 15.9-38.1 15.9-81.2 33.7-128.3 33.7z" fill-rule="evenodd"/></g><g><path clip-rule="evenodd" d="m3158.9 2099.4c-87.7 0-164.8-61-221.9-61-56.8 0-134.3 61-221.9 61s-164.9-61-221.9-61c-56.8 0-134.3 61-221.9 61s-164.9-61-221.9-61c-56.7 0-134.3 61-221.9 61s-164.9-61-221.9-61c-56.8 0-134.3 61-221.9 61-48.5 0-93.5-18.5-133.2-34.9-84.3-34.9-93.6-34.5-177.4 0-112 46.1-152.2 47.1-266.4 0-32.5-13.5-63.2-26.1-88.7-26.1-32.2 0-58.4-26.1-58.4-58.4s26.1-58.4 58.4-58.4c48.6 0 93.5 18.5 133.2 34.9 84.3 34.9 93.6 34.5 177.4 0 39.7-16.3 84.7-34.9 133.2-34.9 87.7 0 164.9 61 221.9 61 56.5 0 134.6-61 221.9-61 87.7 0 164.9 61 221.9 61 56.5 0 134.6-61 221.9-61 87.7 0 164.9 61 221.9 61 56.7 0 134.3-61 221.9-61 48.5 0 93.5 18.5 133.2 34.9 84.3 34.9 93.6 34.5 177.4 0 39.7-16.3 84.7-34.9 133.2-34.9 87.7 0 164.9 61 221.9 61 32.2 0 58.4 26.1 58.4 58.4-.1 32.3-26.2 58.4-58.4 58.4z" fill-rule="evenodd"/></g><g><path clip-rule="evenodd" d="m2634.6 3642.6h-1392.2c-32.2 0-58.4-26.1-58.4-58.4v-160.9c0-120.9 98.4-219.3 219.3-219.3h1070.4c120.9 0 219.3 98.4 219.3 219.3v160.9c0 32.3-26.1 58.4-58.4 58.4zm-1333.8-116.7h1275.5v-102.5c0-56.6-46-102.5-102.5-102.5h-1070.5c-56.6 0-102.5 46-102.5 102.5z" fill-rule="evenodd"/></g></g></g></g></svg>