<svg height="512" viewBox="0 0 96 96" width="512" xmlns="http://www.w3.org/2000/svg"><g id="Layer_4"><g><path d="m81.282 4.31h-37.858c-5.91 0-10.718 4.807-10.718 10.719v19.034h-17.995c-5.906.001-10.711 4.808-10.711 10.714v23.8c0 5.906 4.805 10.714 10.711 10.714h1.677v7.412c0 2.013 1.146 3.767 2.991 4.57.642.28 1.322.417 1.996.417 1.238 0 2.46-.46 3.411-1.342l11.771-11.057h16.023c5.908 0 10.714-4.807 10.714-10.714v-15.436l7.928 7.427c.942.888 2.166 1.352 3.407 1.352.667 0 1.341-.137 1.978-.412 1.822-.787 3-2.583 3-4.57v-7.391h1.676c5.909.001 10.717-4.807 10.717-10.718v-23.8c0-5.911-4.808-10.719-10.718-10.719zm-28.702 69.571h-17.093c-.688 0-1.351.264-1.852.734l-11.837 11.121v-9.15c0-1.495-1.211-2.705-2.705-2.705h-4.382c-2.923 0-5.301-2.377-5.301-5.304v-23.8c0-2.927 2.378-5.304 5.301-5.304h18.028c.336 5.611 4.993 10.075 10.685 10.075h14.459v19.029c.001 2.927-2.379 5.304-5.303 5.304zm34.01-35.052c0 2.927-2.381 5.309-5.308 5.309h-4.381c-1.494 0-2.705 1.21-2.705 2.705v9.103s-11.72-10.999-11.742-11.02l-.056-.053-.007.008-.014-.013c-.501-.47-1.163-.729-1.85-.729h-17.103c-2.927 0-5.308-2.383-5.308-5.309v-.005h.02l-.02-23.794c0-2.927 2.381-5.309 5.308-5.309h37.858c2.927 0 5.308 2.383 5.308 5.309z"/><path d="m73.172 18.648h-21.638c-1.494 0-2.705 1.21-2.705 2.705s1.211 2.705 2.705 2.705h21.639c1.494 0 2.705-1.21 2.705-2.705s-1.212-2.705-2.706-2.705z"/><path d="m73.172 29.467h-21.638c-1.494 0-2.705 1.21-2.705 2.705s1.211 2.705 2.705 2.705h21.639c1.494 0 2.705-1.21 2.705-2.705s-1.212-2.705-2.706-2.705z"/><path d="m22.852 54.038c-.324.106-.595.322-.865.539-.487.539-.812 1.247-.812 1.949s.324 1.405.812 1.891c.541.539 1.19.814 1.893.814.378 0 .758-.111 1.082-.217.325-.111.595-.328.865-.597.487-.486.812-1.189.812-1.891s-.325-1.411-.812-1.949c-.757-.702-1.947-.972-2.975-.539z"/><path d="m35.781 54.038c-1.028-.433-2.218-.164-2.975.539-.487.539-.757 1.247-.757 1.949s.27 1.405.757 1.891c.27.269.541.486.865.597.379.106.703.217 1.082.217.704 0 1.353-.275 1.894-.814.487-.486.812-1.189.812-1.891s-.325-1.411-.812-1.949c-.271-.216-.541-.433-.866-.539z"/><path d="m46.601 54.038c-.649-.275-1.407-.275-2.11 0-.324.106-.595.322-.865.539-.487.539-.812 1.247-.812 1.949s.324 1.405.812 1.891c.541.539 1.19.814 1.894.814.378 0 .757-.111 1.082-.217.325-.111.595-.328.866-.597.487-.486.757-1.189.757-1.891s-.271-1.411-.757-1.949c-.272-.216-.542-.433-.867-.539z"/><path d="m18.5 26.763h5.41c1.494 0 2.705-1.21 2.705-2.705s-1.211-2.705-2.705-2.705h-5.41c-1.494 0-2.705 1.21-2.705 2.705-.001 1.495 1.21 2.705 2.705 2.705z"/><path d="m78.006 70.04h-5.41c-1.494 0-2.705 1.21-2.705 2.705s1.211 2.705 2.705 2.705h5.41c1.494 0 2.705-1.21 2.705-2.705s-1.211-2.705-2.705-2.705z"/></g></g></svg>