<svg id="Layer_1" enable-background="new 0 0 64 64" viewBox="0 0 64 64" xmlns="http://www.w3.org/2000/svg"><path id="Chinese_Knot" clip-rule="evenodd" d="m32 54c-.6 0-1.1.5-1.2 1.1l-.7 6.9h3.8l-.7-6.9c-.1-.6-.6-1.1-1.2-1.1zm-2-8c0-1.1.9-2 2-2s2 .9 2 2-.9 2-2 2-2-.9-2-2zm-11.3-21.8 2.8 2.8-2.8 2.8c-1.5 1.5-4 1.5-5.6 0-1.5-1.5-1.5-4.1 0-5.6 1.6-1.5 4.1-1.5 5.6 0zm26.6 5.6-2.8-2.8 2.8-2.8c1.5-1.5 4-1.5 5.6 0 1.5 1.5 1.5 4.1 0 5.6-1.6 1.5-4.1 1.5-5.6 0zm-14.7-2.8-3.1 3.1-3.2-3.1 3.1-3.1zm-3.1 6 3.1 3.1-1.2 1.2c-.9.9-2.3.9-3.1 0-.9-.9-.9-2.3 0-3.2zm7.1 4.3-1.2-1.2 3.1-3.1 1.2 1.2c.9.9.9 2.3 0 3.2-.8.8-2.2.8-3.1-.1zm-2.6-8.9 3.1 3.1-3.1 3.2-3.1-3.1zm1.4-1.4 3.1-3.1 3.1 3.1-3.1 3.1zm4.4-7.2-1.3 1.2-3.1-3.1 1.2-1.2c.9-.9 2.3-.9 3.1 0 .9.8.9 2.2.1 3.1zm-8.9 2.6 3.1-3.1 3.1 3.1-3.1 3.2zm-2.7-5.7c.9-.9 2.3-.9 3.1 0l1.2 1.2-3 3.1-1.2-1.2c-.9-.9-.9-2.3-.1-3.1zm3.9-11.9c-.5-1.3.5-2.8 1.9-2.8s2.4 1.5 1.9 2.8l-1.9 4.6zm-1.8.7 2.7 6.7v3.3l-.2-.2c-1.6-1.7-4.3-1.7-6 0-1.6 1.6-1.6 4.3 0 6l1.2 1.2-3.1 3.1-2.8-2.8c-2.3-2.3-6.1-2.3-8.4 0s-2.3 6.1 0 8.4 6.1 2.3 8.4 0l2.8-2.8 3.1 3.1-1.2 1.2c-1.6 1.6-1.6 4.3 0 6s4.3 1.7 6 0l.2-.2v3.6c-1.7.4-3 2-3 3.9s1.3 3.4 3 3.9v2.3c-1.2.4-2.1 1.4-2.2 2.7l-.8 8c0 .3.1.6.3.8s.5.3.7.3h6c.3 0 .6-.1.7-.3.2-.2.3-.5.3-.8l-.8-8c-.1-1.3-1-2.3-2.2-2.7v-2.3c1.7-.4 3-2 3-3.9s-1.3-3.4-3-3.9v-3.6l.2.2c1.6 1.7 4.3 1.7 6 0 1.6-1.6 1.6-4.3 0-6l-1.2-1.2 3.1-3.1 2.8 2.8c2.3 2.3 6.1 2.3 8.4 0s2.3-6.1 0-8.4-6.1-2.3-8.4 0l-2.8 2.8-3.1-3.1 1.2-1.2c1.6-1.6 1.6-4.3 0-6s-4.3-1.7-6 0l-.2.2v-3.3l2.7-6.7c1.1-2.6-.8-5.5-3.7-5.5s-4.8 2.9-3.7 5.5z" fill-rule="evenodd"/></svg>