<?xml version="1.0" encoding="iso-8859-1"?>
<!-- Generator: Adobe Illustrator 16.0.0, SVG Export Plug-In . SVG Version: 6.00 Build 0)  -->
<!DOCTYPE svg PUBLIC "-//W3C//DTD SVG 1.1//EN" "http://www.w3.org/Graphics/SVG/1.1/DTD/svg11.dtd">
<svg version="1.1" id="Capa_1" xmlns="http://www.w3.org/2000/svg" xmlns:xlink="http://www.w3.org/1999/xlink" x="0px" y="0px"
	 width="536.291px" height="536.291px" viewBox="0 0 536.291 536.291" style="enable-background:new 0 0 536.291 536.291;"
	 xml:space="preserve">
<g>
	<g id="Capa_1_10_">
		<g>
			<path d="M528.774,269.64c-0.605,0.073-1.262,0.15-1.963,0.234c-0.703,0.084-1.449,0.173-2.238,0.268
				c-0.793,0.076-1.594,0.326-2.449,0.495c-0.852,0.191-1.742,0.391-2.66,0.598c-0.896,0.295-1.822,0.6-2.773,0.914
				c-0.477,0.158-0.961,0.318-1.451,0.479c-0.482,0.178-0.951,0.411-1.438,0.618c-0.967,0.429-1.955,0.866-2.959,1.312
				c-1.893,1.106-3.961,2.106-5.805,3.518c-1.963,1.255-3.695,2.862-5.508,4.392c-1.635,1.705-3.363,3.349-4.748,5.24
				c-1.363,1.568-2.414,3.319-3.5,4.991c-0.01-0.354-0.035-0.704-0.025-1.062l-0.039,0.052l0.018-0.209
				c0.137-1.569,0.201-2.812,0.207-3.873l0.236-9.276l-1.096-0.028c0,5.015-0.189,10.009-0.533,14.977l-0.264,0.357
				c-0.459,0.62-1.35,1.435-1.561,2.163c-0.027,0.095-0.023,0.192-0.023,0.291c-0.002-0.012-0.006-0.024-0.008-0.036
				c0-0.086,0-0.172,0.025-0.256c0.209-0.728,1.104-1.543,1.562-2.163l0.264-0.357c0.346-4.968,0.535-9.961,0.535-14.977
				l-0.734-0.014l0.08-0.003l-0.086-0.002l0.648-0.015c0-4.595-0.119-9.172-0.408-13.728c0.014-0.027,0.027-0.054,0.041-0.081
				c0.295,4.583,0.459,9.187,0.461,13.809l1.096-0.027l-0.236-9.241c-0.006-1.095-0.072-2.337-0.207-3.892l-0.182-2.325
				c0.541-0.958,1.09-1.92,1.652-2.89c1.854-3.215,3.805-6.486,5.512-10.101c1.672-3.605,3.248-7.615,3.455-12.362l0.025-0.886
				l-0.047-1.027c-0.02-0.325-0.043-0.721-0.072-0.985l-0.094-0.662l-0.049-0.33c0.018,0.099-0.074-0.495-0.107-0.606l-0.209-0.876
				c-0.127-0.592-0.32-1.148-0.512-1.705c-0.777-2.222-1.893-4.183-3.115-5.898c-2.469-3.429-5.303-6.018-8.055-8.349
				c-2.014-1.69-4.031-3.257-5.98-4.771c2.666,1.288,5.299,2.447,7.887,3.344c1.514,0.584,3.045,0.992,4.49,1.473
				c1.477,0.382,2.893,0.79,4.273,1.096c2.758,0.619,5.312,1.042,7.586,1.333c1.139,0.122,2.205,0.236,3.189,0.341
				c0.99,0.056,1.898,0.107,2.719,0.154c1.639,0.125,2.932,0.054,3.811,0.083c0.879,0.005,1.348,0.007,1.348,0.007
				s-0.469-0.021-1.348-0.061c-0.875-0.063-2.168-0.043-3.797-0.233c-0.816-0.079-1.719-0.166-2.701-0.262
				c-0.975-0.144-2.031-0.299-3.158-0.465c-2.248-0.378-4.766-0.899-7.471-1.621c-1.352-0.357-2.736-0.816-4.178-1.251
				c-1.41-0.532-2.9-0.992-4.371-1.628c-2.979-1.168-5.996-2.687-9.045-4.36c-0.943-0.551-1.887-1.131-2.826-1.725
				c-2.814-8.558-6.35-16.697-9.484-23.607c-0.256-0.52-0.52-1.053-0.781-1.581c0.434-3.355,0.998-6.769,1.41-10.208
				c0.043-0.355,0.078-0.715,0.117-1.072c1.031,0.399,2.084,0.741,3.146,1.043c0.604,0.445,1.238,0.843,1.93,1.129
				c1.711,0.716,3.719,1.169,5.57,0.955c0.912-0.106,1.871-0.116,2.795-0.165c0.967-0.051,1.836-0.411,2.748-0.674
				c1.773-0.511,3.336-1.393,4.9-2.318c0.748-0.441,1.41-1.073,2.09-1.618c0.668-0.535,1.166-1.237,1.826-1.773
				c1.318-1.066,2.479-2.767,3.205-4.369c0.131-0.29,0.348-0.507,0.152-0.567c0.02-0.012,0.041-0.022,0.061-0.035
				c-2.814-1.881-5.771-3.205-8.902-4.043c-3.914-1.082-7.863-1.305-11.693-0.863c-0.898,0.104-1.762,0.215-2.652,0.346
				c-0.986,0.145-1.93,0.424-2.896,0.652c-0.668,0.158-1.512,0.337-2.197,0.624c-0.057-0.392-0.1-0.783-0.172-1.175
				c-0.301-1.625-0.75-3.144-1.516-4.816c-0.188-0.393-0.424-0.924-0.578-1.156l-0.598-1.02c-0.488-0.692-0.961-1.394-1.516-2.001
				c-1.072-1.254-2.273-2.32-3.51-3.207c-2.467-1.818-5.043-2.998-7.523-4.019c-4.984-1.96-9.725-3.144-14.094-4.45
				c-0.209-0.062-0.414-0.126-0.623-0.188l-5.039-5.954c-0.916-1.087-1.865-2.211-2.932-3.312l-3.537-3.79
				c-0.328-0.346-0.654-0.699-0.984-1.056c-0.92-0.991-1.869-2.015-2.902-2.979l-6.412-6.242l-0.186-0.165
				c-1.338-5.297-2.385-10.013-3.764-13.807c-1.523-4.331-3.416-7.448-5.053-9.233c-0.4-0.451-0.766-0.839-1.123-1.151
				c-0.344-0.324-0.631-0.582-0.865-0.747c-0.465-0.359-0.701-0.542-0.701-0.542c-0.244-0.187-0.596-0.16-0.807,0.069
				c-0.223,0.244-0.207,0.622,0.035,0.845c0,0,0.221,0.202,0.654,0.6c0.23,0.196,0.465,0.452,0.73,0.757
				c0.279,0.289,0.58,0.669,0.91,1.115c1.346,1.755,2.84,4.754,3.932,8.995c0.721,2.684,1.287,5.837,1.906,9.431l-3.971-3.516
				l-3.801-3.048c-0.605-0.478-1.207-0.966-1.812-1.452c-1.105-0.894-2.217-1.791-3.389-2.68l-8.062-5.849
				c-0.6-0.423-1.213-0.821-1.828-1.219c-0.324-0.209-0.648-0.419-0.98-0.641l-1.693-1.105c0.166,0.51,0.32,1.031,0.467,1.561
				c0.307,1.1,0.562,2.242,0.758,3.429c0.42,0.272,0.844,0.544,1.238,0.825l8.014,5.809c1.072,0.815,2.117,1.661,3.16,2.501
				c0.555,0.775,1.076,1.572,1.549,2.388c1.213,2.177,2.188,4.444,2.852,6.946c0.654,2.314,0.889,4.677,1.018,7.042
				c0.072,1.312,0.072,2.637-0.057,3.942c-0.002,0.025-0.008,0.054-0.01,0.079c-0.498,1.297-1.238,2.558-2,3.752
				c-0.99,1.548-2.301,2.88-3.697,4.056c-0.754,0.636-1.488,1.299-2.293,1.859c-0.793,0.552-1.602,1.054-2.385,1.645
				c-0.117,0.087-0.256,0.156-0.398,0.221c1.16-1.089,2.244-2.245,3.162-3.465c1.055-1.403,2.211-2.681,3.145-4.167
				c0.914-1.457,2.023-2.858,2.502-4.506c0.455-1.569,0.631-3.183,0.484-4.79c-0.076-0.846-0.15-1.682-0.299-2.523
				c-0.09-0.507-0.24-0.761-0.453-1.214c-0.174-0.372-0.207-0.826-0.516-1.114c-0.652,0.512-1.477,1.201-1.889,1.93
				c-0.197,0.348-0.572,0.605-0.82,0.931c-0.264,0.347-0.588,0.639-0.85,0.984c-1.109,1.455-2.178,2.878-3.092,4.459
				c-1.803,3.12-3.287,6.35-4.307,9.693c-0.406,1.328-0.895,2.591-1.152,3.925c-0.254,1.307-0.631,2.648-0.971,3.94
				c3.318-0.305,6.65-1.431,9.695-3.394c3.021-1.942,5.658-4.629,7.287-7.875c0.201-0.4,0.367-0.799,0.518-1.198
				c0.168-0.139,0.318-0.324,0.441-0.607c0.535-1.232,0.664-2.811,0.799-4.125c0.307-3.06-0.068-6.164-0.688-9.165
				c-0.326-1.549-0.811-3.056-1.381-4.544c-0.021-0.055-0.049-0.105-0.07-0.159l6.738,5.963c0.07,0.386,0.135,0.764,0.207,1.158
				c0.619,3.233,1.381,6.761,2.92,10.457c0.779,1.839,1.781,3.728,3.195,5.499l0.264,0.333c0.074,0.083,0.025,0.049,0.197,0.229
				l0.125,0.137l0.51,0.551c0.307,0.354,0.842,0.812,1.268,1.214c0.883,0.763,1.787,1.443,2.748,2.074
				c3.877,2.508,8.211,4.199,12.668,5.758c0.012,0.226,0.025,0.568,0.047,1.035c0.064,0.898,0.041,2.121,0.236,3.856
				c0.082,0.852,0.172,1.796,0.271,2.823c0.146,1.006,0.307,2.095,0.477,3.258c0.389,2.318,0.924,4.915,1.666,7.705
				c0.369,1.395,0.84,2.826,1.289,4.312c0.547,1.456,1.023,2.993,1.678,4.51c1.203,3.076,2.766,6.189,4.492,9.335
				c1.807,3.104,3.84,6.21,6.133,9.191c1.281,1.633,2.639,3.227,4.051,4.779c0.125,2.009,0.447,4.093,1.148,6.233l0.24,0.719
				l0.299,0.722l0.232,0.552c0.07,0.178,0.23,0.477,0.344,0.71c0.512,1.048,1.004,1.833,1.535,2.656
				c1.066,1.62,2.268,3.047,3.506,4.378c3.914,4.151,8.217,7.439,12.244,10.761c-0.023,0.549-0.061,1.097-0.119,1.643
				c-0.139,1.234-0.33,2.449-0.645,3.667c-0.332,1.223-0.725,2.434-1.16,3.631c-0.818,2.252-2.006,4.296-3.281,6.278
				c-0.691,1.096-1.488,2.168-2.41,3.157c-0.018,0.019-0.035,0.037-0.053,0.056c-1.186,0.759-2.512,1.339-3.836,1.855
				c-1.709,0.666-3.553,0.971-5.377,1.1c-0.984,0.07-1.969,0.174-2.949,0.154c-0.967-0.02-1.922-0.088-2.893-0.074
				c-0.143,0.001-0.295-0.024-0.443-0.056c1.572-0.197,3.129-0.493,4.596-0.939c1.688-0.514,3.377-0.867,5.02-1.52
				c1.605-0.641,3.355-1.125,4.699-2.17c1.287-1,2.371-2.197,3.189-3.579c0.432-0.728,0.857-1.445,1.229-2.21
				c0.223-0.461,0.248-0.754,0.34-1.246c0.074-0.401,0.314-0.788,0.23-1.2c-0.83,0.03-1.902,0.104-2.664,0.451
				c-0.363,0.165-0.82,0.152-1.213,0.27c-0.416,0.125-0.85,0.171-1.266,0.297c-1.752,0.524-3.453,1.047-5.117,1.788
				c-3.291,1.459-6.381,3.195-9.162,5.289c-1.105,0.832-2.24,1.562-3.229,2.484c-0.971,0.904-2.049,1.76-3.096,2.602
				c5.467,3.403,13.881,4.177,20.322,0.885c0.396-0.205,0.764-0.427,1.121-0.66c0.217-0.013,0.447-0.074,0.713-0.229
				c1.154-0.679,2.184-1.875,3.061-2.854c2.1-2.299,3.645-5.031,4.867-7.812c0.639-1.441,1.125-2.944,1.529-4.479
				c0.014-0.052,0.023-0.107,0.037-0.16l1.627,7.099c0.543,2.594,0.992,5.166,1.422,7.655c0.24,1.376,0.475,2.73,0.707,3.959
				l0.572,4.496c-0.814,1.41-1.668,2.841-2.537,4.307c-1.908,3.223-3.922,6.597-5.656,10.444c-0.861,1.927-1.65,3.981-2.225,6.234
				c-0.148,0.559-0.279,1.131-0.383,1.726c-0.121,0.581-0.209,1.184-0.273,1.801c-0.086,0.604-0.115,1.235-0.139,1.869l-0.018,0.474
				c-0.012,0.133,0.006,0.64,0.006,0.592l0.023,0.723c0.031,0.965,0.061,1.932,0.092,2.901l0.023,0.727l0.072,0.801l0.154,1.61
				c0.111,1.063,0.191,2.177,0.338,3.204c0.16,1.017,0.324,2.033,0.484,3.053c0.295,2.058,0.773,4.021,1.154,6.046
				c0.443,1.982,0.895,3.976,1.371,5.944c1.617,6.63,3.404,13.179,4.789,19.68l-1.969,8.589l-2.76,9.92
				c-0.387,1.325-0.846,2.68-1.289,3.988c-0.254,0.75-0.508,1.499-0.752,2.255c-1.088,3.367-2.297,6.675-3.555,9.869
				c-2.059,2.797-4.684,5.081-7.717,6.989c-2.004,1.308-4.18,2.227-6.387,3.046c-1.211,0.46-2.551,0.811-3.852,1.06
				c-0.025,0.005-0.051,0.008-0.076,0.013c-1.402-0.106-2.811-0.441-4.178-0.824c-1.764-0.494-3.422-1.363-4.953-2.358
				c-0.83-0.537-1.68-1.048-2.449-1.655c-0.762-0.599-1.484-1.231-2.266-1.804c-0.115-0.086-0.221-0.197-0.322-0.313
				c1.375,0.792,2.795,1.492,4.236,2.02c1.654,0.604,3.215,1.34,4.92,1.807c1.67,0.456,3.338,1.113,5.08,1.106
				c1.641-0.019,3.215-0.328,4.701-0.938c0.781-0.323,1.553-0.639,2.309-1.028c0.455-0.235,0.652-0.454,1.018-0.791
				c0.303-0.276,0.725-0.441,0.904-0.821c-0.682-0.477-1.582-1.065-2.398-1.247c-0.389-0.087-0.744-0.373-1.129-0.515
				c-0.408-0.152-0.781-0.377-1.188-0.527c-1.715-0.639-3.385-1.245-5.16-1.658c-3.502-0.816-7.014-1.292-10.492-1.289
				c-1.383,0-2.727-0.1-4.07,0.044c-1.309,0.143-2.697,0.173-4.07,0.207c2.324,6.046,8.584,11.73,15.705,12.968
				c0.439,0.075,0.867,0.118,1.293,0.146c0.18,0.12,0.402,0.211,0.707,0.245c1.332,0.151,2.869-0.188,4.156-0.445
				c1.506-0.299,3.008-0.747,4.477-1.301c1.422-0.576,2.805-1.26,4.131-2.001c1.4-0.795,2.736-1.729,4.014-2.743
				c-0.994,2.305-1.982,4.523-2.926,6.605c-0.477,0.963-0.98,1.98-1.494,3.016c-4.066,3.736-8.4,7.407-12.725,11.233
				c-1.91,1.727-3.834,3.463-5.727,5.266c-0.047-0.118-0.092-0.228-0.139-0.346c-0.182-0.448-0.365-0.902-0.553-1.362
				c-0.201-0.453-0.453-0.891-0.682-1.343c-0.471-0.897-0.951-1.813-1.439-2.745c-1.176-1.747-2.252-3.637-3.701-5.301
				c-1.305-1.772-2.932-3.311-4.467-4.909c-1.703-1.431-3.332-2.936-5.174-4.109c-1.734-1.319-3.676-2.254-5.453-3.287
				c-0.943-0.416-1.869-0.824-2.777-1.224c-0.455-0.192-0.895-0.41-1.348-0.576c-0.461-0.15-0.914-0.3-1.361-0.447
				c-0.895-0.291-1.762-0.576-2.604-0.851c-0.861-0.192-1.695-0.378-2.494-0.555c-0.803-0.157-1.555-0.389-2.297-0.459
				c-0.738-0.088-1.441-0.17-2.1-0.246c-0.656-0.077-1.271-0.149-1.84-0.216c-0.572-0.011-1.098-0.019-1.572-0.027
				c-1.895-0.029-2.975-0.047-2.975-0.047s1.076,0.093,2.961,0.253c0.471,0.04,0.99,0.086,1.555,0.135
				c0.559,0.105,1.164,0.219,1.809,0.341c0.643,0.121,1.328,0.25,2.051,0.386c0.725,0.118,1.451,0.402,2.229,0.608
				c0.77,0.229,1.57,0.465,2.4,0.71c0.801,0.325,1.629,0.662,2.482,1.008c0.424,0.172,0.854,0.347,1.291,0.523
				c0.428,0.192,0.84,0.435,1.27,0.651c0.85,0.446,1.719,0.902,2.6,1.366c1.65,1.124,3.443,2.138,5.016,3.52
				c1.678,1.235,3.129,2.785,4.645,4.239c1.348,1.621,2.775,3.161,3.881,4.912c1.25,1.643,2.123,3.485,3.105,5.166
				c0.391,0.894,0.775,1.772,1.15,2.633c0.182,0.432,0.389,0.847,0.545,1.277c0.143,0.435,0.281,0.865,0.418,1.289
				c0.219,0.671,0.428,1.313,0.637,1.953c-0.387,0.4-0.781,0.789-1.16,1.2c-0.811,0.809-1.57,1.689-2.328,2.575
				c-0.748,0.897-1.557,1.721-2.248,2.682l-2.127,2.827c-0.117,0.163-0.111,0.137-0.33,0.454l-0.225,0.354l-0.449,0.707l-0.9,1.418
				c-0.299,0.479-0.604,0.931-0.896,1.433l-0.865,1.574c-0.557,1.049-1.186,2.104-1.678,3.148c-1.006,2.089-2.027,4.172-2.906,6.296
				c-1.836,4.227-3.438,8.509-5.039,12.765c-0.564,1.514-1.135,3.024-1.709,4.531l-4.549,4.432l-8.166,7.232l-3.787,3.036
				c-0.613,0.485-1.225,0.979-1.836,1.473c-1.082,0.871-2.166,1.748-3.246,2.568l-8.023,5.82c-0.561,0.395-1.137,0.768-1.711,1.14
				c-0.338,0.219-0.674,0.436-0.996,0.651l-3.385,2.211c-0.906,0.289-1.82,0.54-2.746,0.726c-2.418,0.492-5.004,0.473-7.527,0.379
				c-2.387-0.11-4.68-0.629-6.949-1.264c-1.279-0.39-2.545-0.851-3.752-1.422c-0.023-0.011-0.047-0.024-0.07-0.035
				c-1.072-0.907-2.016-2.004-2.896-3.114c-1.139-1.436-1.973-3.11-2.629-4.816c-0.357-0.922-0.744-1.834-1.014-2.779
				c-0.264-0.931-0.48-1.867-0.779-2.791c-0.043-0.138-0.062-0.29-0.076-0.442c0.65,1.448,1.389,2.849,2.246,4.119
				c0.986,1.461,1.818,2.972,2.924,4.349c1.086,1.35,2.051,2.859,3.465,3.874c1.359,0.982,2.812,1.652,4.371,2.021
				c0.82,0.194,1.629,0.39,2.469,0.515c0.506,0.074,0.791,0.013,1.285-0.048c0.406-0.048,0.844,0.064,1.213-0.139
				c-0.273-0.786-0.658-1.791-1.211-2.417c-0.266-0.299-0.385-0.739-0.613-1.08c-0.242-0.362-0.412-0.763-0.654-1.124
				c-1.014-1.521-2.012-2.994-3.205-4.367c-2.357-2.714-4.918-5.153-7.732-7.187c-1.119-0.81-2.148-1.676-3.318-2.344
				c-1.139-0.642-2.314-1.493-3.432-2.247c-1.652,6.267,0.086,14.549,5.121,19.725c0.312,0.319,0.633,0.605,0.959,0.876
				c0.076,0.202,0.203,0.407,0.43,0.615c0.986,0.9,2.43,1.526,3.623,2.071c2.787,1.282,5.926,2.086,8.912,2.388
				c1.613,0.185,3.24,0.192,4.877,0.112l-6.242,3.645c-1.326,0.681-2.631,1.365-3.916,2.038c-2.316,1.216-4.504,2.363-6.631,3.395
				c-0.287,0.131-0.559,0.258-0.842,0.387c-3.387,0.219-6.783,0.433-10.203,0.728c-4.738,0.373-9.512,0.956-14.268,1.898
				c-1.186,0.263-2.385,0.429-3.561,0.773l-3.541,0.965c-0.086,0.014-0.385,0.112-0.504,0.16l-0.42,0.149l-0.836,0.3l-1.674,0.6
				c-1.107,0.355-2.26,0.922-3.393,1.402c-0.199,0.089-0.391,0.186-0.592,0.275c-0.082-2.588-0.111-5.629-0.004-8.675
				c0.143-3.93,0.506-7.87,1.207-10.727c0.346-1.426,0.787-2.579,1.293-3.264c0.256-0.332,0.52-0.547,0.734-0.63
				c0.211-0.08,0.344-0.083,0.34-0.091c0.002,0.008-0.125-0.009-0.357,0.04c-0.234,0.051-0.547,0.234-0.871,0.545
				c-0.639,0.637-1.275,1.763-1.848,3.165c-1.158,2.812-2.127,6.738-2.875,10.693c-0.732,3.902-1.24,7.839-1.553,10.832
				c-2.855,1.451-5.613,3.007-8.33,4.639c-2.781,1.631-5.521,3.314-8.25,4.984c-0.549,0.099-1.1,0.198-1.664,0.303
				c-1.246,0.255-2.539,0.413-3.908,0.582c-0.586,0.071-1.172,0.144-1.748,0.224l-6.1,0.777c-1.287,0.196-2.604,0.287-3.998,0.383
				c-0.723,0.051-1.449,0.101-2.154,0.165l-6.398,0.487c-2.779,0.131-5.652,0.197-8.433,0.26c-1.573,0.036-3.15,0.073-4.62,0.12
				c-1.576-0.047-3.151-0.083-4.724-0.12c-1.984-0.045-4-0.099-5.994-0.17c-0.884-0.274-1.752-0.591-2.593-1
				c-2.256-1.096-4.365-2.492-6.379-4.031c-1.891-1.469-3.481-3.127-4.965-5.062c-0.825-1.05-1.601-2.15-2.263-3.308
				c-0.013-0.022-0.024-0.045-0.037-0.068c-0.359-1.355-0.502-2.793-0.587-4.208c-0.109-1.828,0.171-3.677,0.613-5.452
				c0.238-0.96,0.444-1.93,0.769-2.858c0.319-0.915,0.683-1.807,0.971-2.734c0.043-0.138,0.115-0.275,0.192-0.408
				c-0.3,1.559-0.5,3.13-0.527,4.662c-0.031,1.761-0.217,3.475-0.103,5.236c0.115,1.727,0.037,3.516,0.615,5.154
				c0.554,1.546,1.351,3.033,2.417,4.219c0.561,0.626,1.114,1.246,1.729,1.826c0.372,0.35,0.643,0.46,1.083,0.692
				c0.36,0.189,0.654,0.532,1.073,0.575c0.231-0.802,0.496-1.846,0.403-2.676c-0.044-0.396,0.111-0.827,0.122-1.235
				c0.011-0.436,0.103-0.862,0.113-1.295c0.048-1.827,0.08-3.604-0.107-5.411c-0.368-3.569-1.064-7.031-2.21-10.301
				c-0.454-1.3-0.806-2.588-1.377-3.857c-0.562-1.23-1.045-2.56-1.529-3.828c-4.996,4.203-8.327,11.992-7.161,19.112
				c0.073,0.439,0.172,0.857,0.284,1.266c-0.054,0.211-0.067,0.449,0,0.748c0.293,1.304,1.12,2.639,1.785,3.767
				c0.777,1.32,1.693,2.584,2.698,3.784c1.004,1.203,2.096,2.353,3.232,3.324c1.217,1.072,2.548,2.005,3.936,2.869l-1.011-0.076
				c-0.728-0.067-1.455-0.117-2.178-0.168c-1.395-0.096-2.712-0.187-4.042-0.39l-6.04-0.771c-0.59-0.08-1.179-0.153-1.762-0.225
				c-0.243-0.03-0.474-0.062-0.711-0.093c-5.904-3.871-11.829-7.956-18.215-11.66c-2.193-1.176-4.349-2.396-6.673-3.427
				l-1.717-0.805c-0.582-0.254-1.191-0.472-1.787-0.71l-1.717-0.663c-0.102-0.336-0.207-0.672-0.3-1.023
				c-0.252-0.86-0.515-1.757-0.787-2.685c-0.36-0.896-0.731-1.824-1.113-2.777c-0.191-0.475-0.385-0.957-0.582-1.444
				c-0.213-0.479-0.479-0.943-0.721-1.423c-0.496-0.951-1.003-1.923-1.518-2.911c-1.242-1.853-2.377-3.856-3.91-5.622
				c-1.379-1.88-3.098-3.514-4.724-5.21c-1.803-1.52-3.525-3.119-5.477-4.366c-1.836-1.402-3.891-2.397-5.774-3.497
				c-1-0.442-1.982-0.877-2.944-1.304c-0.483-0.206-0.948-0.437-1.428-0.614c-0.486-0.161-0.968-0.319-1.443-0.476
				c-0.947-0.312-1.867-0.616-2.759-0.909c-0.914-0.205-1.798-0.403-2.645-0.594c-0.851-0.167-1.647-0.416-2.436-0.492
				c-0.784-0.094-1.528-0.184-2.226-0.267c-0.697-0.084-1.349-0.161-1.952-0.233c-0.607-0.012-1.166-0.022-1.67-0.033
				c-2.009-0.036-3.158-0.057-3.158-0.057s1.144,0.095,3.144,0.262c0.499,0.042,1.051,0.089,1.651,0.141
				c0.593,0.109,1.234,0.229,1.92,0.357c0.684,0.126,1.411,0.262,2.178,0.404c0.77,0.125,1.542,0.424,2.367,0.643
				c0.817,0.24,1.67,0.49,2.552,0.749c0.853,0.345,1.732,0.699,2.638,1.065c0.452,0.182,0.908,0.365,1.372,0.554
				c0.456,0.203,0.896,0.459,1.351,0.688c0.904,0.472,1.827,0.955,2.766,1.444c1.756,1.189,3.663,2.265,5.336,3.729
				c1.788,1.311,3.333,2.954,4.946,4.495c1.437,1.721,2.959,3.354,4.138,5.213c1.334,1.744,2.266,3.702,3.314,5.489
				c0.418,0.95,0.829,1.884,1.231,2.798c0.195,0.459,0.415,0.9,0.582,1.357c0.15,0.462,0.3,0.92,0.447,1.37
				c0.295,0.899,0.582,1.773,0.859,2.619c0.085,0.382,0.163,0.734,0.245,1.104l-0.888-0.268c-1.215-0.315-2.523-0.598-3.783-0.892
				c-1.293-0.32-2.499-0.51-3.723-0.724c-1.222-0.204-2.452-0.45-3.661-0.592c-8.825-1.222-17.442-1.598-25.721-2.443
				c-1.098-0.575-2.2-1.151-3.259-1.692l-8.243-4.81c-1.054-0.603-1.896-1.121-2.675-1.648l-5.489-3.587
				c-0.332-0.222-0.668-0.438-1.003-0.655c-0.576-0.373-1.153-0.747-1.695-1.127l-8.011-5.811c-1.073-0.816-2.118-1.66-3.16-2.501
				c-0.556-0.775-1.077-1.571-1.549-2.389c-1.213-2.177-2.187-4.444-2.851-6.946c-0.655-2.314-0.889-4.678-1.019-7.042
				c-0.072-1.311-0.072-2.637,0.056-3.941c0.002-0.025,0.008-0.054,0.011-0.079c0.498-1.297,1.237-2.559,2-3.752
				c0.99-1.548,2.301-2.881,3.697-4.056c0.754-0.638,1.488-1.3,2.293-1.859c0.792-0.552,1.602-1.054,2.386-1.645
				c0.116-0.087,0.256-0.156,0.397-0.221c-1.16,1.089-2.244,2.244-3.162,3.465c-1.054,1.403-2.211,2.683-3.145,4.167
				c-0.913,1.457-2.022,2.857-2.502,4.505c-0.454,1.569-0.63,3.184-0.484,4.791c0.077,0.847,0.15,1.682,0.299,2.523
				c0.09,0.507,0.24,0.761,0.453,1.214c0.173,0.372,0.207,0.826,0.515,1.114c0.652-0.512,1.476-1.201,1.889-1.931
				c0.197-0.348,0.574-0.604,0.821-0.931c0.264-0.347,0.587-0.639,0.85-0.983c1.109-1.455,2.178-2.879,3.091-4.46
				c1.804-3.12,3.287-6.35,4.307-9.693c0.406-1.327,0.895-2.591,1.153-3.925c0.253-1.307,0.63-2.647,0.969-3.939
				c-3.318,0.305-6.649,1.429-9.695,3.393c-3.022,1.942-5.659,4.63-7.287,7.875c-0.201,0.4-0.367,0.799-0.519,1.196
				c-0.166,0.139-0.318,0.324-0.441,0.607c-0.534,1.232-0.664,2.812-0.798,4.125c-0.308,3.061,0.069,6.164,0.688,9.165
				c0.325,1.549,0.81,3.056,1.38,4.544c0.021,0.056,0.049,0.105,0.07,0.16l-5.381-4.762c-2.742-6.259-5.125-12.9-7.86-19.536
				c-1.741-4.306-3.705-8.638-5.929-12.909c-1.206-2.122-2.35-4.253-3.783-6.305l-1.028-1.549c-0.149-0.21-0.03-0.076-0.399-0.569
				l-0.258-0.332l-0.518-0.663c-0.702-0.891-1.351-1.758-2.093-2.665c-3.395-3.965-6.697-7.164-10.134-10.289
				c-3.415-3.058-6.881-5.968-10.249-8.741c-3.368-2.804-6.663-5.546-9.709-8.364c-0.547-0.492-1.072-0.992-1.601-1.491
				c0.072-0.769,0.151-1.623,0.383-2.574c0.108-0.534,0.221-1.092,0.338-1.668c0.175-0.562,0.354-1.143,0.539-1.74
				c0.31-1.225,0.934-2.398,1.435-3.687c0.675-1.195,1.272-2.508,2.138-3.68c0.763-1.251,1.758-2.354,2.697-3.517
				c1.058-1.045,2.071-2.16,3.251-3.055c1.102-0.998,2.364-1.735,3.528-2.552c1.256-0.643,2.419-1.413,3.649-1.861
				c0.604-0.256,1.192-0.503,1.759-0.743c0.589-0.183,1.16-0.361,1.707-0.531c1.089-0.382,2.126-0.572,3.047-0.753
				c0.46-0.093,0.892-0.18,1.291-0.262c0.404-0.04,0.776-0.077,1.11-0.112c1.348-0.134,2.119-0.209,2.119-0.209
				s-0.775,0.001-2.132,0.005c-0.341,0.001-0.718,0.004-1.129,0.005c-0.409,0.042-0.85,0.087-1.322,0.136
				c-0.946,0.094-2.021,0.185-3.164,0.466c-0.577,0.12-1.178,0.246-1.8,0.375c-0.607,0.19-1.235,0.386-1.88,0.587
				c-1.319,0.346-2.591,1.014-3.977,1.567c-1.292,0.728-2.702,1.385-3.967,2.321c-1.342,0.831-2.534,1.902-3.781,2.925
				c-1.127,1.14-2.319,2.242-3.283,3.515c-1.066,1.194-1.864,2.554-2.735,3.814c-0.695,1.354-1.509,2.614-1.994,3.938
				c-0.209,0.501-0.409,0.981-0.608,1.46c0.797,1.88,1.595,3.699,2.376,5.455c-0.062-0.06-0.122-0.12-0.184-0.182
				c-0.753-1.699-1.477-3.458-2.246-5.273c0,0.001-0.001,0.001-0.001,0.002c0-0.001,0.001-0.001,0.001-0.002
				c-2.074-4.891-4.111-10.158-5.859-15.572c-0.222-0.688-0.442-1.371-0.674-2.057c-0.002-0.023-0.003-0.034-0.007-0.061
				c-0.032-0.293-0.08-0.722-0.141-1.275c-0.031-0.273-0.065-0.575-0.102-0.905c-0.073-0.366-0.152-0.765-0.236-1.189
				c-0.167-0.849-0.353-1.804-0.691-2.751c-0.154-0.482-0.314-0.984-0.481-1.504c-0.215-0.501-0.437-1.019-0.665-1.552
				c-0.026-0.068-0.061-0.135-0.088-0.202c0.025-0.494,0.054-0.989,0.106-1.48c0.14-1.235,0.33-2.449,0.645-3.667
				c0.332-1.224,0.726-2.435,1.162-3.632c0.818-2.252,2.005-4.295,3.28-6.277c0.692-1.097,1.488-2.169,2.41-3.157
				c0.018-0.02,0.037-0.037,0.054-0.056c1.186-0.76,2.513-1.339,3.836-1.855c1.709-0.666,3.554-0.971,5.376-1.1
				c0.985-0.07,1.97-0.175,2.95-0.154c0.966,0.021,1.922,0.087,2.892,0.074c0.144-0.001,0.295,0.023,0.445,0.056
				c-1.573,0.197-3.129,0.493-4.597,0.939c-1.687,0.515-3.375,0.867-5.019,1.52c-1.604,0.641-3.355,1.125-4.699,2.171
				c-1.286,0.999-2.371,2.195-3.189,3.579c-0.431,0.728-0.858,1.444-1.229,2.21c-0.223,0.461-0.249,0.754-0.339,1.245
				c-0.076,0.401-0.314,0.788-0.231,1.2c0.83-0.03,1.903-0.104,2.665-0.45c0.363-0.165,0.82-0.152,1.212-0.271
				c0.417-0.124,0.85-0.171,1.266-0.297c1.752-0.524,3.454-1.047,5.119-1.788c3.29-1.459,6.38-3.194,9.161-5.289
				c1.106-0.832,2.24-1.562,3.229-2.483c0.972-0.904,2.049-1.76,3.096-2.603c-5.467-3.403-13.881-4.177-20.321-0.885
				c-0.397,0.204-0.765,0.427-1.121,0.66c-0.216,0.013-0.448,0.074-0.714,0.23c-1.154,0.679-2.183,1.876-3.06,2.854
				c-2.1,2.299-3.646,5.031-4.868,7.812c-0.638,1.441-1.124,2.944-1.528,4.479c-0.009,0.035-0.016,0.069-0.025,0.104l-0.776-3.328
				c0.387-2.325,0.851-4.664,1.38-7.005c1.713-7.787,3.918-15.644,5.493-23.808c0.838-4.05,1.387-8.25,1.751-12.465
				c0.086-1.056,0.087-2.14,0.13-3.205l0.041-1.602l0.01-0.399c0.006,0.066,0.005-0.54-0.005-0.609l-0.037-0.729
				c-0.006-0.396-0.087-1.176-0.168-1.864c-0.074-0.74-0.197-1.279-0.306-1.889c-0.232-1.187-0.531-2.325-0.872-3.415
				c-1.377-4.364-3.299-8.056-5.188-11.521c-1.891-3.423-3.807-6.618-5.48-9.719l0.244-1.915c0.245-1.325,0.48-2.679,0.721-4.056
				c0.433-2.489,0.88-5.061,1.417-7.623l1.539-6.721c0.062-0.091,0.117-0.186,0.183-0.274c0.728-1.2,1.68-2.258,2.577-3.377
				c1.012-1.002,1.98-2.075,3.11-2.934c1.055-0.959,2.264-1.667,3.379-2.454c1.204-0.619,2.318-1.357,3.498-1.79
				c0.579-0.246,1.143-0.479,1.688-0.711c0.565-0.177,1.111-0.336,1.636-0.5c1.044-0.369,2.039-0.528,2.922-0.704
				c0.442-0.091,0.856-0.126,1.238-0.204c0.389-0.039,0.745,0.024,1.066-0.009c0.026-0.002,0.049-0.004,0.075-0.006
				c-0.031,0-0.057,0-0.088,0c-0.328,0-0.689-0.197-1.084-0.196c-0.392,0.04-0.816-0.116-1.27-0.07
				c-0.91,0.087-1.942,0.173-3.041,0.439c-0.555,0.115-1.132,0.234-1.729,0.357c-0.583,0.181-1.187,0.368-1.807,0.561
				c-1.269,0.33-2.492,0.97-3.824,1.499c-1.243,0.697-2.599,1.327-3.817,2.225c-1.151,0.71-2.188,1.602-3.248,2.48l0.62-2.209
				c0.715-0.619,1.438-1.236,2.168-1.854c2.589-2.178,5.265-4.359,7.881-6.749c2.6-2.407,5.191-4.984,7.362-8.21
				c1.086-1.635,2.018-3.328,2.764-5.382l0.195-0.571c0.059-0.172,0.116-0.337,0.184-0.58c1.688,0.629,3.337,1.224,5.086,1.632
				c3.502,0.816,7.013,1.292,10.491,1.29c1.383,0,2.728,0.099,4.07-0.044c1.31-0.143,2.698-0.173,4.07-0.207
				c-2.323-6.046-8.583-11.73-15.704-12.968c-0.44-0.075-0.868-0.118-1.292-0.147c-0.181-0.12-0.403-0.21-0.709-0.245
				c-1.331-0.151-2.868,0.189-4.155,0.446c-0.235,0.046-0.469,0.12-0.703,0.173c-0.041-1.61-0.153-3.177-0.295-4.699
				c-0.264-2.598-0.614-5.095-0.967-7.514c1.557-1.681,3.287-3.354,5.243-4.904c2.241-1.791,4.662-3.542,7.277-5.097
				c2.61-1.556,5.333-3.05,8.167-4.327c2.82-1.304,5.709-2.479,8.61-3.487c2.888-1.047,5.8-1.884,8.626-2.665
				c2.839-0.739,5.606-1.372,8.251-1.883c2.645-0.51,5.164-0.908,7.497-1.232c1.169-0.146,2.289-0.285,3.354-0.417
				c1.068-0.103,2.083-0.2,3.036-0.292c1.907-0.188,3.577-0.254,4.95-0.36c2.751-0.107,4.323-0.17,4.323-0.17
				s-1.574-0.013-4.331-0.036c-1.377,0.04-3.053,0.027-4.973,0.125c-0.959,0.046-1.982,0.096-3.059,0.147
				c-1.076,0.083-2.207,0.168-3.386,0.259c-2.357,0.214-4.909,0.493-7.599,0.881c-2.689,0.387-5.513,0.894-8.42,1.505
				c-2.896,0.653-5.889,1.361-8.877,2.287c-2.999,0.885-6.004,1.942-8.959,3.143c-2.967,1.171-5.846,2.575-8.629,4.061
				c-2.788,1.484-5.408,3.191-7.862,4.97c-0.535,0.386-1.054,0.784-1.566,1.187c0.396-0.69,0.792-1.383,1.175-2.034l4.804-7.641
				c0.936-1.447,1.861-2.761,2.676-3.919c0.448-0.636,0.868-1.232,1.241-1.78l2.542-3.649c0.569-0.775,0.896-1.184,0.911-1.203
				l-1.341-1.082l1.366,1.051l5.609-7.294l0.916-1.08c5.984-1.997,11.835-4.009,16.816-7.551c0.923-0.691,1.813-1.414,2.625-2.226
				l0.601-0.612l0.149-0.153l0.182-0.209l0.241-0.289l0.481-0.575l0.515-0.693c1.34-1.848,2.253-3.65,3.041-5.472
				c1.544-3.623,2.428-7.088,3.2-10.277c0.043-0.186,0.083-0.361,0.125-0.544l1.177-1.042l3.786-3.036
				c0.612-0.484,1.22-0.975,1.831-1.469c1.083-0.873,2.169-1.751,3.254-2.575l8.023-5.82c0.056-0.039,0.115-0.075,0.171-0.113
				c-0.493-0.248-0.972-0.489-1.414-0.712c-0.333-0.168-0.662-0.354-0.985-0.551c-0.292-0.178-0.58-0.366-0.86-0.564
				c-0.033-0.024-0.064-0.051-0.097-0.076l-6.927,5.026c-1.142,0.868-2.255,1.766-3.364,2.661c-0.601,0.485-1.202,0.97-1.814,1.455
				l-1.493,1.199c0.856-3.725,1.648-6.986,2.59-9.718c1.384-4.154,3.066-7.064,4.524-8.734c0.348-0.434,0.682-0.79,0.985-1.078
				c0.167-0.174,0.319-0.323,0.463-0.454c0.106-0.098,0.211-0.19,0.305-0.264c0.432-0.365,0.65-0.55,0.65-0.55l0.044-0.037
				c0.234-0.2,0.28-0.547,0.098-0.802c-0.192-0.268-0.564-0.329-0.832-0.137c0,0-0.062,0.044-0.182,0.13
				c-0.125,0.09-0.313,0.225-0.566,0.406c-0.256,0.171-0.555,0.408-0.894,0.711c-0.355,0.289-0.746,0.646-1.16,1.084
				c-1.726,1.688-3.775,4.688-5.558,8.914c-1.651,3.803-3.001,8.607-4.644,14.03l-6.483,5.741l-6.327,6.161
				c-1.061,0.992-2.014,2.018-2.934,3.012c-0.329,0.354-0.654,0.704-0.989,1.058l-2.107,2.259c0.683-2.164,1.293-4.374,1.611-6.682
				c0.392-2.673,0.683-5.435,0.623-8.186c0.244-0.711,0.434-1.44,0.505-2.188c0.178-1.854,0.018-3.918-0.728-5.631
				c-0.364-0.84-0.668-1.769-0.971-2.626c-0.321-0.901-0.917-1.626-1.429-2.419c-0.997-1.541-2.297-2.783-3.64-4.014
				c-0.641-0.589-1.445-1.047-2.167-1.542c-0.713-0.492-1.532-0.769-2.233-1.239c-1.401-0.95-3.359-1.559-5.094-1.782
				c-0.313-0.041-0.583-0.183-0.583,0.021c-0.017-0.016-0.033-0.032-0.05-0.049c-0.981,3.24-1.308,6.533-1.274,9.699
				c0.04,3.997,1.049,7.914,2.577,11.444c0.362,0.832,0.723,1.629,1.109,2.444c0.428,0.905,0.972,1.729,1.473,2.588
				c0.419,0.721,0.938,1.696,1.543,2.27c0.662,0.627,1.296,1.311,1.802,2.075c1.039-1.688,2.305-3.188,2.837-5.158
				c0.273-0.977,0.5-1.886,0.694-2.871c0.19-1.045,0.125-2.055,0.006-3.106c-0.429-3.788-2.533-7.025-4.026-10.446
				c-0.532-1.221-1.211-2.4-1.984-3.527c0.692,0.562,1.349,1.164,1.952,1.817c2.425,2.62,4.833,5.404,5.986,8.894
				c0.256,0.771,0.446,1.537,0.594,2.31c0.009,0.112,0.023,0.225,0.031,0.337c0.101,1.389,0.083,2.792,0.008,4.17
				c-0.049,0.755-0.097,1.515-0.149,2.276c-0.055,0.172-0.111,0.343-0.153,0.522c-0.074,0.366-0.411,0.91-0.37,1.25
				c0.113-0.195,0.266-0.346,0.425-0.487c-0.111,1.292-0.266,2.584-0.529,3.86c-0.54,2.604-1.191,5.108-2.124,7.458
				c-0.627,1.709-1.378,3.361-2.326,4.926c-3.658,1.037-7.542,2.044-11.614,3.432c-2.483,0.858-5.043,1.852-7.596,3.275
				c-1.278,0.695-2.546,1.53-3.77,2.5l-0.911,0.753l-0.874,0.833c-0.287,0.257-0.593,0.616-0.889,0.952
				c-0.285,0.329-0.636,0.722-0.8,0.96l-0.614,0.817l-0.257,0.399l-0.166,0.27l-0.33,0.545c-0.422,0.733-0.803,1.497-1.12,2.27
				c-0.669,1.55-1.082,3.151-1.397,4.743c-0.61,3.194-0.666,6.337-0.566,9.421c0.179,4.64,0.771,9.192,1.193,13.671
				c-0.149,0.219-0.308,0.438-0.451,0.655c-1.406,2.07-2.358,4.196-3.161,6.091c-0.324,0.98-0.679,1.884-0.906,2.753
				c-0.03,0.127-0.06,0.238-0.091,0.36c-2.523,5.694-5.175,12.069-7.422,18.728c-1.484,1.182-3.021,2.374-4.594,3.607
				c-2.731,2.16-5.57,4.415-8.333,7.153c-2.719,2.735-5.531,5.963-7.295,10.355c-0.228,0.562-0.443,1.247-0.646,1.873
				c-0.122,0.371-0.134,0.491-0.202,0.737l-0.165,0.654c0.017-0.101-0.116,0.491-0.129,0.609l-0.073,0.456l-0.139,0.913
				c-0.082,0.608-0.1,1.211-0.141,1.819c-0.005,0.125,0.005,0.246,0.002,0.371c-0.256-0.192-0.508-0.394-0.78-0.552
				c-0.792-0.465-1.565-1.035-2.335-1.555c-0.804-0.543-1.715-0.779-2.602-1.119c-1.724-0.661-3.502-0.898-5.307-1.101
				c-0.862-0.098-1.771,0.01-2.641,0.036c-0.854,0.025-1.675,0.288-2.523,0.318c-1.695,0.058-3.642,0.723-5.184,1.569
				c-0.277,0.153-0.581,0.197-0.461,0.363c-0.022-0.002-0.046-0.006-0.069-0.01c1.104,3.208,2.733,6.064,4.656,8.615
				c2.49,3.232,5.52,5.792,8.854,7.743c0.782,0.457,1.541,0.888,2.332,1.318c0.877,0.479,1.801,0.82,2.711,1.219
				c0.763,0.333,1.756,0.814,2.582,0.919c0.905,0.115,1.819,0.291,2.677,0.608c-0.146-1.977,0.002-3.938-0.718-5.843
				c-0.36-0.953-0.673-1.817-1.149-2.735c-0.509-0.964-1.157-1.743-1.862-2.521c-2.562-2.808-6.165-4.184-9.378-6.068
				c-1.145-0.674-2.388-1.228-3.674-1.683c0.892,0.045,1.777,0.145,2.649,0.317c3.503,0.687,7.087,1.518,10.064,3.66
				c0.659,0.473,1.261,0.98,1.833,1.517c0.073,0.086,0.15,0.168,0.222,0.254c0.291,0.346,0.557,0.71,0.83,1.07
				c0.012,0.05,0.021,0.104,0.034,0.154c1.057,4.284,2.78,7.977,4.536,11.478c1.46,2.871,2.98,5.603,4.416,8.29
				c0.176,1.207,0.265,2.432,0.24,3.686l0.037-0.051l-0.016,0.208c-0.136,1.564-0.202,2.807-0.208,3.872l-0.026,1.033
				c-0.23-0.195-0.462-0.388-0.696-0.581c-0.669-0.491-1.351-0.968-2.08-1.356c-0.703-0.43-1.469-0.734-2.196-1.056
				c-0.752-0.273-1.477-0.555-2.209-0.727c-0.717-0.218-1.43-0.337-2.098-0.458c-0.664-0.138-1.312-0.154-1.893-0.229
				c-0.583-0.059-1.126-0.038-1.597-0.059c-0.472-0.023-0.886,0.016-1.224,0.032c-0.683,0.043-1.067,0.065-1.067,0.065
				s0.381,0.053,1.049,0.144c0.333,0.049,0.735,0.088,1.189,0.201c0.453,0.109,0.969,0.189,1.515,0.354
				c0.542,0.181,1.139,0.312,1.737,0.564c0.601,0.235,1.233,0.472,1.849,0.802c0.635,0.285,1.238,0.672,1.854,1.041
				c0.587,0.416,1.201,0.806,1.728,1.295c0.559,0.453,1.046,0.968,1.514,1.474c0.429,0.537,0.876,1.04,1.187,1.599
				c0.361,0.525,0.604,1.081,0.845,1.591c0.17,0.463,0.328,0.892,0.432,1.305l-0.058,2.241l0.521,0.009
				c-0.001,0.025,0.177,0.046,0.177,0.071c0,0.003,0,0.004,0,0.007l-0.339,0.002l0.056,9.242c0.007,1.104-0.017,2.344,0.118,3.891
				l0.665,9.106L35.6,303.2c-0.002,0.011-0.011,0.021-0.013,0.03c-1.083,4.239-2.239,8.581-3.293,13.074
				c-0.421,1.793-0.825,3.624-1.198,5.482c-0.458-0.184-0.913-0.353-1.375-0.467c-0.526-0.158-1.038-0.312-1.533-0.46
				c-0.505-0.1-0.996-0.196-1.464-0.29c-0.929-0.217-1.801-0.281-2.57-0.348c-0.382-0.034-0.741-0.068-1.072-0.099
				c-0.333,0.002-0.639,0.005-0.915,0.006c-1.099,0.01-1.726,0.016-1.726,0.016s0.623,0.067,1.712,0.188
				c0.27,0.03,0.57,0.064,0.896,0.101c0.321,0.069,0.669,0.144,1.04,0.224c0.742,0.154,1.577,0.316,2.452,0.636
				c0.44,0.143,0.896,0.29,1.371,0.443c0.456,0.198,0.926,0.405,1.412,0.617c0.513,0.193,1.011,0.459,1.512,0.741
				c-1.184,6.25-1.923,12.874-1.378,19.934c0.165,1.297,0.349,2.598,0.557,3.894l0.157,0.972c0.052,0.325,0.129,0.53,0.193,0.802
				l0.4,1.536l0.4,1.538l0.101,0.385c0,0.041,0.302,0.972,0.256,0.786l0.333,0.866l1.364,3.462c1.188,2.472,2.54,4.845,4.018,7.103
				c-0.362-0.008-0.712-0.014-1.03-0.02c-1.918-0.031-3.015-0.049-3.015-0.049s1.091,0.092,3.001,0.255
				c0.38,0.032,0.801,0.069,1.244,0.107c1.115,1.682,2.292,3.308,3.561,4.82c3.023,3.622,6.274,6.976,9.649,10
				c3.354,3.087,6.799,5.938,10.194,8.754c-0.541-0.299-1.082-0.597-1.651-0.86c-1.42-0.671-2.922-1.299-4.439-1.86
				c-1.066-0.417-2.159-0.771-3.259-1.084c-0.603-0.445-1.237-0.843-1.931-1.13c-1.709-0.716-3.719-1.169-5.569-0.955
				c-0.912,0.105-1.871,0.116-2.796,0.165c-0.967,0.051-1.836,0.411-2.748,0.674c-1.772,0.511-3.335,1.393-4.899,2.317
				c-0.749,0.441-1.411,1.074-2.089,1.619c-0.668,0.534-1.167,1.237-1.827,1.772c-1.319,1.066-2.479,2.767-3.206,4.369
				c-0.132,0.289-0.347,0.507-0.153,0.566c-0.02,0.012-0.041,0.022-0.061,0.034c2.815,1.882,5.771,3.205,8.902,4.044
				c3.916,1.082,7.864,1.306,11.695,0.863c0.897-0.104,1.762-0.216,2.651-0.346c0.986-0.145,1.93-0.424,2.896-0.652
				c0.809-0.191,1.89-0.403,2.614-0.814c0.792-0.451,1.629-0.859,2.506-1.12c-1.295-1.494-2.345-3.151-4.058-4.243
				c-0.855-0.546-1.622-1.048-2.548-1.498c-0.968-0.472-1.983-0.688-3.03-0.875c-3.728-0.701-7.43,0.369-11.125,0.798
				c-1.318,0.151-2.642,0.458-3.943,0.869c0.74-0.5,1.507-0.954,2.307-1.34c3.211-1.559,6.573-3.055,10.233-3.136
				c0.809-0.019,1.593,0.024,2.37,0.108c0.11,0.025,0.221,0.045,0.331,0.069c1.359,0.308,2.657,0.754,3.988,1.208
				c0.744,0.254,1.478,0.517,2.206,0.786c0.147,0.096,0.292,0.192,0.449,0.278c0.325,0.18,0.742,0.662,1.078,0.723
				c-0.153-0.163-0.249-0.353-0.333-0.547c1.203,0.482,2.279,1.012,3.41,1.638c4.549,2.624,9.445,5.328,11.836,9.604v-0.062
				l-4.601-7.473c-0.04-0.067,0.019-0.138-0.021-0.204c0.04,0.066,0.079,0.137,0.119,0.204l4.699,7.473l0.129,0.206
				c0.974,1.505,1.92,2.849,2.754,4.033c0.437,0.621,0.847,1.203,1.23,1.767l0.44,0.631c0.023,1.402,0.036,2.193,0.036,2.193
				l1.441-0.073l0.673,0.965c0.625,0.853,0.98,1.295,1.002,1.321l5.695,7.396l5.472,6.463c0.919,1.09,1.87,2.216,2.939,3.321
				l0.252,0.271c3.244,7.718,6.271,15.888,10.506,23.99c1.068,2.172,2.399,4.302,3.663,6.438c1.427,2.092,2.795,4.206,4.502,6.179
				l1.225,1.5c0.438,0.501,0.963,1.003,1.445,1.502l1.486,1.485c0.495,0.484,1.017,1.028,1.447,1.34l2.713,2.192
				c0.236,0.181-0.049-0.016,0.615,0.474l0.423,0.27l0.846,0.538l1.699,1.068c4.595,2.689,9.535,4.586,14.455,5.771
				c4.92,1.176,9.833,1.89,14.664,2.336c3.68,0.336,7.327,0.562,10.934,0.771c-0.158,0.027-0.316,0.039-0.475,0.07
				c-1.544,0.293-3.125,0.654-4.69,1.104c-1.114,0.3-2.204,0.65-3.278,1.039c-0.747-0.01-1.493,0.037-2.223,0.212
				c-1.802,0.42-3.695,1.229-5.068,2.485c-0.676,0.619-1.447,1.189-2.167,1.771c-0.753,0.607-1.245,1.409-1.83,2.156
				c-1.137,1.452-1.884,3.084-2.608,4.75c-0.347,0.797-0.513,1.699-0.744,2.538c-0.227,0.826-0.219,1.688-0.44,2.509
				c-0.443,1.639-0.383,3.699-0.033,5.426c0.063,0.311,0.017,0.614,0.209,0.55c-0.009,0.021-0.02,0.043-0.029,0.063
				c3.382-0.117,6.552-0.776,9.59-1.948c3.807-1.42,7.137-3.556,9.979-6.16c0.666-0.61,1.3-1.208,1.943-1.836
				c0.714-0.695,1.314-1.476,1.961-2.228c0.543-0.63,1.293-1.435,1.638-2.193c0.376-0.831,0.815-1.652,1.371-2.378
				c-1.926-0.452-3.75-1.179-5.777-1.058c-1.014,0.06-1.929,0.102-2.943,0.282c-1.064,0.188-2.007,0.599-2.972,1.075
				c-3.439,1.636-5.801,4.656-8.543,7.174c-0.979,0.895-1.871,1.918-2.684,3.015c0.306-0.84,0.661-1.658,1.082-2.44
				c1.686-3.146,3.531-6.329,6.446-8.538c0.645-0.488,1.304-0.914,1.983-1.3c0.104-0.045,0.205-0.095,0.309-0.138
				c1.279-0.545,2.591-0.943,3.943-1.375c0.75-0.229,1.499-0.448,2.247-0.656c0.176-0.008,0.35-0.016,0.528-0.037
				c0.368-0.045,0.99,0.102,1.297-0.046c-0.219-0.044-0.408-0.141-0.59-0.247c1.256-0.315,2.519-0.574,3.801-0.729
				c5.221-0.538,10.353-0.927,15.305,0.756l-0.039-0.051l0.176,0.07c1.171,0.495,2.312,0.881,3.316,1.222l7.615,2.606
				c1.002,0.345,1.539,0.518,1.539,0.518l0.336-1.041l0.199-0.618l-0.179,0.624l-0.301,1.053l8.903,2.553
				c1.449,0.433,2.615,0.737,3.754,0.981l8.86,2.059c0.221,0.045,0.457,0.086,0.679,0.13c5.175,3.068,10.387,6.325,15.825,9.379
				c4.285,2.359,8.729,4.567,13.407,6.394c2.396,0.813,4.76,1.681,7.27,2.221l1.855,0.459c0.646,0.121,1.317,0.208,1.975,0.311
				l1.981,0.288c0.666,0.101,1.328,0.195,1.9,0.19l3.58,0.135c-0.017,0.005,0.521,0.018,0.646-0.001l0.482-0.036l0.965-0.071
				l1.927-0.149c1.294-0.045,2.539-0.346,3.796-0.57c1.258-0.23,2.516-0.453,3.715-0.85c4.92-1.27,9.467-3.363,13.812-5.618
				c6.488-3.371,12.449-7.367,18.365-11.255c1.037-0.186,2.061-0.376,3.061-0.564c-1.834,1.345-3.645,2.716-5.266,4.396
				c-1.887,1.93-3.725,4.105-5.293,6.335c-0.617,0.418-1.201,0.882-1.699,1.443c-1.234,1.373-2.316,3.115-2.719,4.93
				c-0.197,0.895-0.5,1.801-0.754,2.689c-0.266,0.928-0.209,1.867-0.258,2.813c-0.094,1.84,0.229,3.605,0.594,5.388
				c0.174,0.852,0.555,1.687,0.848,2.507c0.287,0.807,0.787,1.511,1.076,2.311c0.576,1.598,1.803,3.256,3.074,4.473
				c0.23,0.219,0.365,0.495,0.484,0.332c0.006,0.022,0.01,0.047,0.012,0.069c2.691-1.995,4.887-4.408,6.701-7.099
				c2.299-3.339,3.801-6.99,4.637-10.751c0.195-0.881,0.373-1.734,0.541-2.615c0.186-0.979,0.23-1.961,0.332-2.947
				c0.084-0.827,0.238-1.916,0.088-2.736c-0.166-0.896-0.277-1.82-0.236-2.733c-1.838,0.729-3.746,1.174-5.338,2.43
				c-0.797,0.628-1.521,1.185-2.248,1.911c-0.764,0.762-1.301,1.637-1.816,2.578c-1.867,3.367-2.074,7.147-2.869,10.791
				c-0.287,1.293-0.428,2.642-0.465,4.004c-0.23-0.863-0.408-1.738-0.512-2.619c-0.426-3.544-0.742-7.208,0.375-10.684
				c0.246-0.774,0.543-1.498,0.879-2.202c0.059-0.093,0.111-0.19,0.17-0.284c0.738-1.151,1.574-2.293,2.436-3.409
				c0.482-0.618,0.971-1.224,1.465-1.821c0.139-0.107,0.279-0.213,0.41-0.332c0.275-0.248,0.869-0.482,1.035-0.778
				c-0.205,0.09-0.414,0.118-0.625,0.135c0.85-0.977,1.732-1.91,2.695-2.77c3.971-3.42,7.957-6.683,12.984-8.129l-0.061-0.021
				l0.188-0.043c1.496-0.32,2.809-0.697,3.764-0.982l8.922-2.559l-0.301-1.052c-4.736,1.484-9.559,2.811-14.449,3.995l-0.414-0.142
				c-0.73-0.251-1.777-0.856-2.537-0.839c-0.568,0.014-1.059,0.539-1.5,0.853c-0.717,0.511-1.439,1.005-2.148,1.544
				c-0.055,0.041-0.111,0.082-0.166,0.122c-0.928,0.195-1.863,0.38-2.797,0.564c0.004-0.003,0.008-0.005,0.012-0.008
				c0.93-0.184,1.861-0.364,2.785-0.559c0.055-0.041,0.111-0.08,0.166-0.121c0.709-0.539,1.432-1.033,2.148-1.544
				c0.441-0.312,0.932-0.838,1.5-0.852c0.76-0.018,1.807,0.588,2.537,0.839l0.414,0.143c4.891-1.185,9.713-2.51,14.449-3.995
				l-0.18-0.624l0.199,0.618l0.334,1.041c0,0,0.539-0.173,1.537-0.516l7.623-2.609c1.002-0.341,2.141-0.728,3.279-1.209l8.449-3.378
				c1.951-0.849,3.986-1.787,6.107-2.766c0.596-0.275,1.197-0.553,1.812-0.835c1.25-0.089,2.496-0.176,3.748-0.273
				c4.703-0.361,9.426-0.789,14.141-1.511c2.359-0.309,4.699-0.848,7.041-1.333c2.318-0.652,4.652-1.222,6.902-2.145l1.699-0.633
				c0.564-0.219,1.121-0.528,1.684-0.79l1.678-0.824c0.551-0.278,1.146-0.538,1.607-0.862l2.943-1.865
				c0.162-0.112,0.154-0.077,0.459-0.311l0.354-0.288l0.711-0.576l1.416-1.155c3.676-3.171,6.891-6.854,9.451-10.862
				c4.809-7.365,8.139-15.324,11.438-23.059c0.49-0.51,0.965-1.019,1.428-1.521c0.328-0.353,0.652-0.703,0.986-1.056l2.107-2.258
				c-0.682,2.163-1.293,4.373-1.611,6.681c-0.393,2.672-0.682,5.435-0.623,8.186c-0.244,0.711-0.434,1.439-0.506,2.188
				c-0.178,1.854-0.018,3.918,0.729,5.631c0.365,0.84,0.668,1.769,0.971,2.626c0.322,0.901,0.916,1.627,1.43,2.419
				c0.996,1.54,2.297,2.783,3.641,4.014c0.641,0.59,1.443,1.048,2.166,1.542c0.713,0.493,1.533,0.769,2.232,1.24
				c1.402,0.95,3.359,1.559,5.096,1.782c0.312,0.04,0.582,0.183,0.582-0.021c0.018,0.016,0.033,0.032,0.051,0.049
				c0.98-3.239,1.309-6.532,1.273-9.699c-0.039-3.997-1.049-7.915-2.576-11.443c-0.363-0.832-0.723-1.628-1.109-2.444
				c-0.428-0.905-0.973-1.729-1.473-2.588c-0.42-0.722-0.938-1.696-1.543-2.271c-0.662-0.627-1.297-1.311-1.803-2.075
				c-1.039,1.688-2.305,3.188-2.836,5.158c-0.273,0.977-0.502,1.886-0.695,2.871c-0.189,1.045-0.125,2.055-0.006,3.106
				c0.43,3.789,2.533,7.025,4.025,10.446c0.533,1.22,1.211,2.399,1.984,3.527c-0.691-0.562-1.35-1.164-1.951-1.817
				c-2.426-2.62-4.832-5.403-5.986-8.895c-0.256-0.771-0.445-1.537-0.594-2.309c-0.008-0.112-0.023-0.225-0.031-0.338
				c-0.102-1.389-0.082-2.792-0.008-4.17c0.049-0.756,0.096-1.515,0.148-2.276c0.055-0.172,0.111-0.343,0.152-0.521
				c0.074-0.366,0.412-0.91,0.371-1.251c-0.113,0.196-0.266,0.346-0.426,0.486c0.111-1.292,0.266-2.584,0.529-3.859
				c0.539-2.604,1.191-5.108,2.123-7.459c0.881-2.397,1.984-4.691,3.572-6.774l-0.066,0.021l2.65-3.132l5.637-7.325
				c0,0,0.363-0.451,1.031-1.363l2.404-3.451l0.1-0.005c0,0-0.004-0.05-0.012-0.123l0.084-0.119
				c0.373-0.548,0.781-1.129,1.217-1.749c0.836-1.186,1.781-2.529,2.768-4.056l4.84-7.699c0.979-1.654,1.973-3.419,2.998-5.242
				c5.312-4.181,10.695-8.385,15.699-13.234c1.65-1.516,3.17-3.236,4.725-4.891c0.758-0.854,1.463-1.774,2.195-2.66l1.086-1.343
				l0.994-1.437c0.654-0.974,1.322-1.9,1.957-2.917l1.785-3.284c0.662-1.156,0.971-2.068,1.395-3.057l0.604-1.463l0.297-0.733
				c0.234-0.68,0.135-0.436,0.217-0.7l0.121-0.432l0.934-3.458c0.277-1.154,0.391-2.32,0.588-3.48l0.262-1.741l0.102-1.727
				c0.053-1.147,0.145-2.305,0.156-3.441c-0.039-4.533-0.451-8.954-1.16-13.188c-0.332-2.129-0.748-4.197-1.174-6.263
				c-0.469-2.025-0.91-4.08-1.406-6.053c-0.6-2.444-1.193-4.857-1.789-7.279c0.098-0.437,0.193-0.868,0.293-1.321
				c0.652,1.895,1.381,3.778,2.348,5.591c1.318,2.397,2.709,4.799,4.359,6.983c0.219,0.719,0.49,1.422,0.869,2.07
				c0.939,1.603,2.275,3.177,3.883,4.122c0.793,0.465,1.566,1.035,2.336,1.556c0.805,0.542,1.715,0.779,2.602,1.118
				c1.725,0.661,3.502,0.897,5.307,1.101c0.863,0.099,1.771-0.009,2.641-0.035c0.855-0.025,1.676-0.287,2.523-0.318
				c1.695-0.059,3.643-0.723,5.184-1.569c0.277-0.153,0.582-0.197,0.463-0.363c0.021,0.002,0.047,0.007,0.068,0.01
				c-1.104-3.208-2.732-6.064-4.656-8.615c-2.488-3.231-5.52-5.792-8.854-7.743c-0.781-0.456-1.539-0.888-2.332-1.318
				c-0.877-0.478-1.801-0.819-2.711-1.218c-0.762-0.333-1.756-0.814-2.582-0.919c-0.904-0.115-1.818-0.291-2.676-0.608
				c0.145,1.977-0.004,3.938,0.717,5.843c0.361,0.952,0.674,1.816,1.15,2.734c0.508,0.965,1.156,1.743,1.861,2.521
				c2.562,2.808,6.166,4.184,9.379,6.068c1.145,0.674,2.389,1.228,3.674,1.683c-0.891-0.045-1.777-0.145-2.648-0.316
				c-3.504-0.688-7.088-1.519-10.064-3.66c-0.658-0.473-1.262-0.98-1.832-1.516c-0.074-0.086-0.15-0.169-0.225-0.255
				c-0.893-1.063-1.697-2.208-2.443-3.364c-0.434-0.649-0.859-1.301-1.279-1.955c-0.061-0.166-0.119-0.332-0.195-0.496
				c-0.152-0.339-0.199-0.978-0.434-1.228c0.025,0.223-0.012,0.432-0.059,0.636c-0.676-1.108-1.305-2.239-1.832-3.421
				c-1.115-2.424-1.965-4.819-2.705-7.275c-0.074-0.25-0.131-0.503-0.199-0.754c0.107-0.24,0.217-0.481,0.32-0.726
				c0.406-0.92,0.818-1.859,1.24-2.814c1.055-1.798,1.992-3.767,3.334-5.52c1.186-1.87,2.719-3.514,4.164-5.243
				c1.623-1.551,3.178-3.203,4.977-4.521c1.682-1.473,3.602-2.552,5.367-3.748c0.943-0.494,1.873-0.979,2.781-1.454
				c0.457-0.231,0.898-0.488,1.357-0.691c0.467-0.188,0.928-0.373,1.381-0.557c0.91-0.366,1.797-0.724,2.652-1.069
				c0.887-0.261,1.744-0.512,2.566-0.753c0.83-0.22,1.607-0.521,2.381-0.645c0.771-0.144,1.502-0.279,2.189-0.406
				c0.689-0.128,1.336-0.249,1.932-0.358c0.605-0.052,1.16-0.099,1.66-0.142c2.012-0.167,3.162-0.262,3.162-0.262
				s-1.154,0.021-3.176,0.058C529.948,269.616,529.386,269.628,528.774,269.64z M489.345,230.132
				c0.781,1.156,1.377,2.317,1.738,3.455c0.088,0.284,0.188,0.566,0.23,0.85l0.094,0.421c0.002,0.019,0.002,0.019,0.008,0.052
				l0.039,0.332l0.086,0.663c0.016,0.179-0.006,0.231,0,0.352c0,0.104,0.004,0.208,0.012,0.313l-0.025,0.456
				c-0.104,2.351-1.059,5.141-2.416,7.991c-0.227-1.227-0.445-2.473-0.666-3.743c-0.438-2.517-0.891-5.121-1.451-7.804l-1.875-8.183
				C486.751,226.854,488.224,228.472,489.345,230.132z M444.831,147.213c0-0.011-0.002-0.023-0.004-0.034l0.998-0.767
				L444.831,147.213z M444.778,144.077c0-0.084,0-0.146,0-0.222c0-0.003-0.004-0.008-0.004-0.012
				c0.004,0.004,0.006,0.008,0.01,0.012c0,0.077,0,0.138,0,0.222c0.008,0.212,0.008,0.458,0.008,0.728c0,0-0.002-0.001-0.004-0.001
				C444.788,144.535,444.778,144.29,444.778,144.077z M443.952,142.75c0.006,0.006,0.01,0.012,0.014,0.018
				c-0.004-0.006-0.01-0.012-0.016-0.018H443.952z M474.86,204.126c-0.178-0.176-0.369-0.348-0.541-0.525
				c-1.012-1.033-1.928-2.081-2.658-3.139c-0.357-0.52-0.723-1.097-0.924-1.481c-0.066-0.125-0.117-0.168-0.201-0.358l-0.244-0.546
				l-0.121-0.272c-0.008-0.008-0.053-0.117-0.074-0.165l-0.121-0.35c-0.816-2.173-1.062-4.871-1-7.657
				c0.002-0.078,0.008-0.158,0.01-0.235c2.029,4.585,4.131,9.603,6.027,14.843C474.962,204.202,474.911,204.164,474.86,204.126z
				 M472.349,164.97c0.855,0.545,1.621,1.048,2.547,1.497c0.969,0.473,1.984,0.688,3.031,0.875c3.729,0.702,7.43-0.368,11.125-0.797
				c1.318-0.152,2.641-0.458,3.943-0.869c-0.74,0.5-1.508,0.954-2.309,1.34c-3.211,1.559-6.572,3.054-10.232,3.136
				c-0.811,0.019-1.596-0.024-2.373-0.109c-0.109-0.025-0.221-0.044-0.33-0.069c-1.357-0.307-2.656-0.753-3.986-1.208
				c-0.744-0.254-1.479-0.516-2.205-0.786c-0.045-0.029-0.092-0.055-0.137-0.084c0.082-1.171,0.121-2.356,0.121-3.55
				C471.806,164.562,472.056,164.785,472.349,164.97z M453.229,148.049c2.123,0.993,4.203,2.106,5.887,3.5
				c0.861,0.681,1.609,1.436,2.23,2.244c0.314,0.371,0.549,0.779,0.807,1.176c0.006,0.014,0.078,0.143,0.078,0.149l0.117,0.225
				l0.232,0.449c0.199,0.348,0.188,0.463,0.287,0.684c0.311,0.823,0.65,1.955,0.793,3.062c0.162,1.132,0.258,2.321,0.234,3.578
				c-0.002,0.324-0.021,0.659-0.033,0.988c-0.039,1.123-0.129,2.275-0.26,3.456c-0.098,0.861-0.217,1.736-0.35,2.622
				c-0.088-0.16-0.186-0.329-0.273-0.488c-0.75-1.334-1.479-2.618-2.203-3.88c0.889,0.601,1.84,1.188,2.752,1.746
				c0.133-1.181-0.035-2.332,0.006-3.456c-2.529-1.566-5.023-3.269-7.119-5.386l-1.49-2.37l-0.129-0.206
				c-0.975-1.506-1.92-2.85-2.756-4.035c-0.436-0.621-0.846-1.202-1.229-1.765l-2.592-3.717c-0.256-0.349-0.453-0.611-0.615-0.824
				C449.501,146.488,451.384,147.218,453.229,148.049z M430.005,133.097c-5.084-2.632-7.404-7.584-8.994-12.465l2.262,2.202
				c0.967,0.903,1.873,1.88,2.75,2.826c0.34,0.366,0.676,0.727,1.002,1.071l3.553,3.806c1.004,1.038,1.912,2.116,2.791,3.157
				l1.33,1.57C433.021,134.618,431.438,133.914,430.005,133.097z M453.04,178.438c-1.531-3.082-2.904-6.109-3.934-9.083
				c-0.566-1.467-0.957-2.95-1.424-4.351c-0.369-1.432-0.764-2.803-1.059-4.139c-0.598-2.673-1.008-5.148-1.287-7.35
				c-0.117-1.104-0.227-2.136-0.328-3.091c-0.049-0.881-0.094-1.688-0.137-2.43c0.137,0.18,0.297,0.393,0.5,0.668l2.557,3.668
				c0.381,0.561,0.801,1.157,1.248,1.792c0.816,1.16,1.742,2.473,2.666,3.904l4.791,7.619c1.07,1.813,2.158,3.748,3.289,5.764
				c0.646,1.149,1.307,2.323,1.955,3.462c0.146,0.28,0.293,0.566,0.439,0.849c-0.777,4.205-1.643,8.653-1.965,13.559
				c-0.01,0.183-0.016,0.37-0.021,0.554c-0.602-0.772-1.188-1.55-1.758-2.335C456.481,184.537,454.651,181.477,453.04,178.438z
				 M485.687,277.251l0.012-0.248c0.01-0.33,0.012-0.66,0.062-1.009c0.029-0.341,0.072-0.689,0.148-1.049
				c0.051-0.353,0.129-0.715,0.227-1.081c0.354-1.464,0.904-2.992,1.576-4.535c0.016-0.035,0.033-0.07,0.049-0.105l0.049,9.062
				v-0.044v0.009v0.035v0.036v0.009v-0.045l-0.053,9.268c-0.004,0.999,0.025,2.15-0.104,3.64l-0.098,1.794
				c-0.268-1.325-0.545-2.648-0.721-3.95l-0.426-2.754c-0.141-0.906-0.201-1.74-0.309-2.611l-0.148-1.293l-0.074-0.647l-0.031-0.727
				c-0.041-0.969-0.082-1.936-0.125-2.9l-0.031-0.723c0-0.069-0.004-0.103-0.004-0.121
				C485.687,277.258,485.687,277.262,485.687,277.251z M454.868,393.739l-3.014,4.791c-0.568,0.879-1.121,1.69-1.66,2.466
				c-0.059-0.329-0.119-0.668-0.184-1.021c-0.1-0.543-0.211-1.134-0.32-1.728C451.368,396.707,453.101,395.211,454.868,393.739z
				 M433.468,420.548c0.936-2.013,1.973-3.937,3.01-5.853c0.514-0.966,1.09-1.812,1.625-2.722l0.814-1.341
				c0.293-0.452,0.639-0.913,0.953-1.37c1.783-2.623,3.812-5.038,6.004-7.318c0.008,0.067,0.018,0.147,0.025,0.215
				c0.01,0.569,0.02,1.093,0.029,1.564c0.029,1.893,0.045,2.974,0.045,2.974l0.25-0.013l-0.828,1.19
				c-0.57,0.777-0.896,1.186-0.912,1.205l1.342,1.079l-1.363-1.049l-5.611,7.292l-5.484,6.478c-0.646,0.768-1.328,1.553-2.043,2.338
				C432.024,423.647,432.726,422.077,433.468,420.548z M203.445,492.054c-0.269-0.076-0.542-0.155-0.833-0.242l-3.873-1.11
				l1.396-0.071c0,0-0.002-0.033-0.007-0.082C201.24,490.997,202.343,491.515,203.445,492.054z M81.716,407.819l0.526,0.656
				l0.193,0.24c0.006,0.013,0.137,0.199,0.145,0.215l0.849,1.251c1.179,1.616,2.185,3.449,3.242,5.233
				c0.321,0.599,0.633,1.211,0.947,1.819l-0.651-0.769l-5.661-7.354l-1.365,1.051l1.341-1.081c-0.015-0.019-0.343-0.427-0.887-1.17
				l-0.302-0.434c-0.038-0.453-0.085-1.007-0.141-1.665c-0.006-0.065-0.012-0.138-0.018-0.204
				C80.522,406.323,81.122,407.086,81.716,407.819z M43.631,348.864l-0.08-0.31l-0.398-1.54l-0.397-1.537
				c-0.056-0.243-0.155-0.54-0.176-0.739l-0.065-0.598c-0.088-0.796-0.201-1.582-0.333-2.37c-0.163-1.771-0.211-3.581-0.171-5.417
				l0.463,1.645c0.007,0.037,0.02,0.073,0.031,0.109l0.911,3.239c0.03,0.302,0.054,0.6,0.076,0.871
				c0.031,0.33,0.06,0.639,0.086,0.923c-0.002,0.33-0.005,0.632-0.007,0.906c-0.01,1.097-0.016,1.724-0.016,1.724l1.24-0.062
				c0.042,0.123,0.083,0.251,0.125,0.374c0.249,0.734,0.498,1.47,0.736,2.204c1.348,4.176,2.878,8.25,4.456,12.144
				c-2.126-2.704-3.829-5.54-5.24-8.426l-0.962-2.482l-0.246-0.617C43.589,348.668,43.608,348.762,43.631,348.864z M53.806,364.716
				c-0.277-0.298-0.548-0.598-0.818-0.897C53.33,364.118,53.649,364.417,53.806,364.716z M57.732,190.539
				c0.001-0.013,0.002-0.025,0.005-0.038c0.064-0.597,0.246-1.294,0.379-2.038c0.145-0.701,0.395-1.439,0.614-2.235
				c-0.024,1.331-0.119,2.625-0.296,3.873C58.201,190.248,57.961,190.383,57.732,190.539z M55.56,197.537
				c-1.058,1.475-2.42,2.916-3.93,4.335c0.303-0.798,0.605-1.594,0.915-2.381c1.339-1.819,2.912-3.427,4.691-4.846
				C56.795,195.691,56.255,196.669,55.56,197.537z M74.752,189.211c1.765,0.495,3.422,1.364,4.955,2.358
				c0.83,0.538,1.678,1.048,2.449,1.656c0.76,0.599,1.483,1.23,2.265,1.804c0.116,0.085,0.221,0.197,0.322,0.313
				c-1.375-0.791-2.795-1.492-4.235-2.019c-1.655-0.605-3.215-1.34-4.92-1.808c-1.671-0.455-3.338-1.113-5.081-1.105
				c-1.08,0.012-2.127,0.163-3.143,0.429c0.05-0.554,0.111-1.112,0.135-1.654c0.977-0.319,1.993-0.593,3.001-0.787
				c0.025-0.005,0.051-0.007,0.076-0.012C71.977,188.492,73.385,188.828,74.752,189.211z M108.765,119.591
				c-0.774,1.553-1.731,3.131-2.794,4.423l-0.396,0.483l-0.514,0.545l-0.258,0.274c-0.017,0.017-0.146,0.156-0.07,0.071l-0.124,0.11
				l-0.492,0.442c-0.662,0.589-1.412,1.124-2.193,1.641c-2.048,1.312-4.437,2.354-7.027,3.279c0.109-0.116,0.207-0.232,0.318-0.348
				l3.521-3.771c0.333-0.354,0.668-0.714,1.004-1.076c0.878-0.946,1.787-1.927,2.784-2.858l6.294-6.132l1.918-1.7
				C110.162,116.518,109.521,118.068,108.765,119.591z M65.046,156.03c0.183-1.175,0.42-2.308,0.812-3.318
				c0.182-0.515,0.402-1,0.642-1.464l0.189-0.342l0.092-0.172c-0.008,0,0.148-0.246,0.003-0.043l0.572-0.847
				c0.21-0.333,0.33-0.431,0.477-0.623c0.146-0.176,0.258-0.349,0.465-0.552l0.553-0.59l0.609-0.557
				c0.832-0.73,1.743-1.414,2.737-2.021c1.964-1.239,4.166-2.242,6.399-3.142c1.035-0.415,2.079-0.806,3.125-1.182l-3.195,4.151l0,0
				c-0.061,0.076-0.403,0.505-1.008,1.332l-2.577,3.699c-0.373,0.547-0.783,1.13-1.221,1.751c-0.834,1.185-1.78,2.528-2.765,4.052
				l-4.841,7.702c-0.331,0.559-0.668,1.151-1.002,1.733c-0.066-0.623-0.127-1.243-0.175-1.857
				C64.733,161.016,64.693,158.393,65.046,156.03z M35.393,234.002l0.056-0.425l0.024-0.214c0.004-0.048-0.009,0.002-0.017,0.042
				c0.005-0.019,0.008-0.035,0.021-0.093l0.149-0.658c0.047-0.188,0.105-0.514,0.143-0.564c0.091-0.222,0.124-0.4,0.226-0.67
				c0.844-2.321,2.598-4.73,4.747-6.996c0.044-0.047,0.093-0.092,0.138-0.14l-0.745,3.252c-0.384,0.567-0.753,1.137-1.136,1.689
				c-0.672,1.301-1.455,2.513-1.923,3.787c-0.263,0.627-0.515,1.237-0.762,1.827c-0.19,0.612-0.367,1.203-0.544,1.77
				c-0.074,0.214-0.136,0.428-0.199,0.641c-0.146-0.825-0.227-1.619-0.221-2.362C35.373,234.593,35.359,234.288,35.393,234.002z
				 M37.176,278.252l-1.337,0.033l1.337,0.035v0.011l-1.448-0.042l0.11-0.003l-0.112-0.002l1.45-0.043V278.252z M35.253,273.497
				c-0.021,0.944-0.041,1.89-0.049,2.835C35.215,275.387,35.23,274.441,35.253,273.497z M34.572,279.39c0,0-0.201-0.011-0.2-0.012
				l0.414-0.041c0-0.001,0-0.002,0-0.003l2.39-0.153l-0.3-0.859l0.301,0.01v-0.045v-0.044l-0.205,0.011l0.412-4.024
				c-0.234-0.438-0.34-0.881-0.623-1.33c-0.448-0.616-1.104-1.258-1.681-1.829c-0.02-0.024-0.293-0.046-0.293-0.067
				c0-0.011,0-0.021,0-0.032c0,0.035,0.34,0.064,0.371,0.1c0.576,0.571,1.176,1.213,1.625,1.829c0.285,0.45,0.612,0.892,0.845,1.33
				l0.166-5.207c0.001-0.141,0.023-0.294,0.025-0.44c0.546,1.309,1.043,2.604,1.402,3.866c0.216,0.758,0.393,1.5,0.514,2.22
				c0.05,0.346,0.136,0.758,0.14,0.987c0.021,0.277,0.074,0.462,0.075,1.041l0.02,0.73c0.008,0.175-0.01-0.188-0.012,0.122
				l-0.018,0.331l-0.069,1.325c-0.051,0.888-0.052,1.766-0.14,2.665c-0.355,3.45-0.841,6.955-1.611,10.545l-0.096-1.234
				c-0.128-1.469-0.19-2.618-0.197-3.659l-0.211-8.339l-2.416,0.157L34.572,279.39z M140.629,470.946
				c-4.166-1.077-7.991-2.687-11.396-4.751l-1.245-0.814l-0.624-0.403l-0.295-0.19c-0.049-0.04-0.091-0.075-0.09-0.073l-2.674-2.24
				c-0.504-0.385-0.752-0.718-1.073-1.06l-0.942-1.01c-0.316-0.344-0.637-0.64-0.955-1.018l-0.946-1.215
				c-1.317-1.555-2.423-3.359-3.581-5.099c-0.548-0.979-1.111-1.94-1.658-2.92l3.439,2.758c0.604,0.478,1.205,0.965,1.809,1.45
				c1.108,0.894,2.221,1.791,3.394,2.683l8.063,5.849c0.599,0.423,1.214,0.821,1.829,1.22c0.324,0.209,0.648,0.42,0.979,0.64
				l5.476,3.577c0.831,0.563,1.747,1.126,2.864,1.766l3.712,2.166C144.646,471.883,142.612,471.45,140.629,470.946z
				 M192.269,488.772l-6.77-2.316c0.644,0.094,1.279,0.192,1.868,0.323c1.056,0.211,2.078,0.379,3.167,0.616l3.441,0.912l0.43,0.113
				c0.288,0.085,0.093,0.011,0.251,0.071l0.665,0.234c0.007,0.381,0.013,0.716,0.018,0.999l-1.609-0.462
				C193.683,489.25,193.186,489.088,192.269,488.772z M285.649,505.61c-4.186,1.976-8.465,3.715-12.852,4.65
				c-1.084,0.317-2.189,0.457-3.289,0.611c-1.1,0.149-2.193,0.38-3.297,0.358l-1.648,0.059l-0.823,0.031l-0.411,0.017
				c-0.173,0.011,0.068,0.014-0.248-0.006l-3.571-0.281c-0.625-0.022-1.139-0.137-1.649-0.247l-1.552-0.31
				c-0.518-0.106-1.029-0.188-1.553-0.308l-1.603-0.476c-2.15-0.549-4.239-1.428-6.335-2.23c-3.797-1.675-7.498-3.68-11.148-5.857
				l1.027,0.131c1.431,0.22,2.883,0.32,4.288,0.417c0.699,0.048,1.401,0.097,2.13,0.162l6.499,0.494
				c0.774,0.037,1.56,0.059,2.343,0.086c0.153,0.033,0.308,0.048,0.461,0.021c0.002,0,0.005-0.003,0.007-0.003
				c1.913,0.064,3.83,0.116,5.708,0.159c1.564,0.036,3.131,0.071,4.804,0.12c1.567-0.049,3.136-0.083,4.699-0.12
				c2.799-0.063,5.696-0.129,8.567-0.267l6.475-0.492c0.703-0.063,1.406-0.112,2.105-0.16c1.404-0.097,2.855-0.197,4.242-0.411
				l5.059-0.645C291.306,502.72,288.507,504.245,285.649,505.61z M314.782,493.842c1.094-0.664,2.189-1.314,3.295-1.943
				c0,0.007-0.002,0.03-0.002,0.03l4.096,0.019c-0.75,0.149-1.615,0.551-2.58,0.758L314.782,493.842z M332.04,489.264l-8.904,2.553
				c-0.088,0.025-0.189,0.019-0.283,0.046c0.002,0.02,0.004,0.015,0.004,0.015h-0.006c-0.01-0.138-0.039-0.572-0.09-1.292
				c-0.02-0.327-0.043-0.725-0.066-1.152c0.674-0.337,1.346-0.681,2.02-0.994c1.043-0.467,2.008-0.99,3.154-1.386l1.662-0.634
				l0.83-0.316l0.414-0.159c0.154-0.062,0.139-0.055,0.342-0.113l3.299-0.972c1.094-0.348,2.244-0.528,3.363-0.803
				c4.494-0.977,9.105-1.54,13.748-1.95l-7.322,2.927c-1.053,0.445-2.08,0.793-3.074,1.13l-7.635,2.613
				C332.591,489.086,332.097,489.246,332.04,489.264z M412.134,455.559c-2.301,3.826-5.141,7.262-8.402,10.21l-1.268,1.055
				l-0.633,0.528l-0.318,0.266c0.09-0.036-0.184,0.125-0.258,0.179l-2.926,1.893c-0.488,0.35-0.973,0.544-1.457,0.791l-1.451,0.72
				c-0.49,0.231-0.949,0.504-1.467,0.709l-1.57,0.599c-2.061,0.875-4.264,1.429-6.434,2.067c-2.229,0.479-4.443,1.018-6.727,1.337
				c-2.258,0.406-4.568,0.642-6.867,0.914c-0.607,0.052-1.215,0.104-1.822,0.157c0.01-0.005,0.02-0.01,0.029-0.016
				c1.275-0.671,2.57-1.35,3.969-2.069l8.215-4.794c1.135-0.648,2.051-1.213,2.855-1.759l5.512-3.603
				c0.322-0.214,0.648-0.425,0.973-0.635c0.613-0.396,1.225-0.795,1.842-1.23l8.076-5.856c1.139-0.866,2.25-1.763,3.355-2.655
				c0.605-0.487,1.209-0.974,1.822-1.462l3.855-3.096l7.291-6.456C416.517,447.574,414.515,451.681,412.134,455.559z
				 M485.515,340.328l-0.039,1.403l-0.182,1.364c-0.137,0.903-0.189,1.839-0.385,2.728l-0.648,2.647l-0.08,0.332
				c0.016-0.01-0.146,0.49,0.018,0.064l-0.279,0.74l-0.549,1.485c-0.369,0.97-0.717,2.079-1.133,2.756l-1.174,2.351
				c-0.459,0.805-1.012,1.625-1.51,2.442l-0.771,1.229l-0.887,1.181c-0.602,0.784-1.162,1.593-1.795,2.367
				c-1.082,1.236-2.127,2.503-3.27,3.721c2.523-5.778,5.131-12.19,7.279-18.85c0.24-0.737,0.49-1.473,0.738-2.208
				c0.457-1.345,0.928-2.734,1.34-4.151l2.678-9.535l0.232-1.015c0.246,2.059,0.41,4.107,0.482,6.146
				C485.591,338.467,485.53,339.393,485.515,340.328z"/>
			<path d="M39.163,279.079c0,0-0.062-0.38-0.171-1.046c-0.028-0.279-0.186-0.873-0.341-1.447c-0.14-0.619-0.405-1.172-0.672-1.802
				c-0.08-0.186-0.188-0.372-0.287-0.557l-0.103,4.059l0.023,0.895L39.163,279.079z"/>
			<path d="M65.1,214.564c1.246,0,1.959,0,1.959,0S66.346,214.446,65.1,214.564z"/>
			<path d="M196.77,30.981c0.301,0.011,0.618,0.014,0.941,0.014c1.941,0,4.112-0.164,4.442-0.244
				c2.628-0.637,4.822-2.175,7.539-2.607c0.887-0.141,1.781-0.217,2.669-0.217c2.049,0,4.06,0.436,5.909,1.385
				c0.207,0.106,0.422,0.19,0.624,0.31c0.366,0.218,0.726,0.447,1.09,0.667c1.989,1.206,3.958,2.447,5.925,3.687
				c0.107,0.067,0.214,0.135,0.322,0.202c0.238,0.149,0.398,0.41,0.839,0.877c-0.495-0.089-0.921-0.147-1.315-0.207
				c-0.494-0.074-0.931-0.152-1.337-0.295c-1.833-0.65-3.618-1.458-5.459-2.069c-0.406-0.135-0.812-0.273-1.224-0.383
				c-0.271-0.072-0.547-0.12-0.825-0.149c-0.282-0.03-0.568-0.042-0.854-0.042c-0.896,0-1.803,0.113-2.679,0.128
				c0.144,0.728,0.575,1.01,1.087,1.542c0.45,0.466,0.849,0.977,1.221,1.506c0.121,0.171,0.25,0.336,0.361,0.513
				c0.398,0.631,0.729,1.302,1.01,1.994c0.364,0.896,0.637,1.829,0.783,2.785c0.181,1.187,0.164,2.396-0.003,3.583
				c-0.087,0.618-0.203,1.231-0.38,1.83c-0.26,0.882-0.642,1.713-1.044,2.534c-0.336,0.685-0.677,1.369-0.993,2.063
				c-0.093,0.206-0.195,0.408-0.281,0.617c-0.299,0.728-0.596,1.456-0.879,2.19c-0.165,0.427-0.312,0.859-0.46,1.292
				c-0.068,0.2-0.149,0.395-0.211,0.595c-0.138,0.44-0.208,0.872-0.252,1.298c-0.013,0.134-0.031,0.268-0.036,0.399
				c-0.023,0.583,0.03,1.155,0.14,1.719c0.071,0.366,0.16,0.728,0.272,1.086c0.023,0.073,0.05,0.144,0.076,0.216
				c0.235,0.709,0.532,1.407,0.852,2.099c0.024,0.053,0.047,0.106,0.072,0.159c0.19,0.404,0.432,0.788,0.664,1.207
				c0.191-0.549,0.368-1.089,0.546-1.625c0.306-0.92,0.624-1.825,1.024-2.718c0.167-0.372,0.338-0.742,0.542-1.111
				c0.026-0.047,0.058-0.091,0.084-0.138c0.169-0.305,0.363-0.596,0.542-0.895c0.074-0.124,0.148-0.247,0.222-0.368
				c0.666-1.084,1.354-2.155,2.054-3.218c0.11-0.167,0.221-0.335,0.33-0.502c0.642-0.986,1.268-2.001,1.828-3.045
				c0.091-0.17,0.177-0.341,0.264-0.512c0.447-0.879,0.834-1.782,1.139-2.708c0.065-0.201,0.131-0.403,0.188-0.607
				c0.001-0.004,0.002-0.011,0.004-0.017c0.137-0.486,0.241-0.981,0.323-1.482c0.014-0.092,0.03-0.183,0.042-0.275
				c0.021-0.149,0.053-0.295,0.068-0.446c0.133-1.303,0.391-2.792,2.006-2.88c0.067,0.214,0.129,0.428,0.192,0.642
				c0.03,0.101,0.062,0.202,0.091,0.302c0.002,0.01,0.006,0.018,0.008,0.028c0.016,0.055,0.031,0.11,0.046,0.165
				c0.282,1.01,0.493,2.03,0.504,3.095c0,0.03,0.006,0.059,0.006,0.09c0.008,0.056,0.012,0.116,0.018,0.172
				c0.006,0.056,0.004,0.11,0.007,0.167c0.025,0.339,0.021,0.671-0.014,0.998c-0.018,0.165-0.044,0.329-0.075,0.491
				c-0.455,2.361-2.288,4.395-3.753,6.326c-0.243,0.319-0.476,0.636-0.688,0.951c-0.583,0.859-1.132,1.741-1.662,2.635
				c-0.05,0.084-0.096,0.173-0.146,0.258c-0.234,0.401-0.463,0.805-0.685,1.213c-0.5,0.919-0.974,1.852-1.403,2.804
				c-0.389,0.864-0.751,1.741-1.075,2.632c-0.171,0.473-0.333,0.95-0.484,1.431c-0.628,1.993-1.074,4.038-1.427,6.096
				c-0.181,1.05-0.337,2.105-0.482,3.162c-0.122,0.886-0.545,2.229-0.355,3.083c0.29-0.056,0.515-0.625,0.633-0.895
				c0.773-1.759,1.427-3.578,2.32-5.273c1.956-3.723,3.94-7.432,5.924-11.14c0.059-0.11,0.117-0.221,0.176-0.331
				c0.451-0.842,0.939-1.654,1.441-2.459c0.121-0.193,0.24-0.388,0.364-0.581c0.15-0.236,0.31-0.464,0.462-0.697
				c0.64-0.972,1.293-1.936,1.96-2.889c0.925-1.322,1.856-2.641,2.749-3.991c2.409-3.642,4.462-7.734,4.525-12.1
				c0.024-1.657-0.31-3.352-0.958-4.893c-0.828-1.971-2.174-3.685-3.952-4.745c-0.009-0.006-0.019-0.012-0.028-0.02
				c-0.171-0.102-0.349-0.192-0.528-0.281c-0.332-0.164-0.671-0.313-1.029-0.432c-0.792-0.26-1.598-0.507-2.411-0.745
				c-0.163-0.048-0.328-0.091-0.49-0.137c-1.007-0.287-2.025-0.557-3.052-0.807c-0.576-0.14-1.155-0.271-1.736-0.399
				c-3.392-0.743-6.845-1.271-10.209-1.506C210.242,23.06,209.024,23,207.771,23c-5.618,0-11.926,1.211-13.233,7.428
				C194.464,30.786,195.467,30.937,196.77,30.981z"/>
			<path d="M187.14,32.623c-0.865,0-1.733,0.043-2.596,0.049c-2.67,0.02-5.136,0.937-6.677,3.087
				c-1.752,2.448-2.391,3.144,0.083,5.389c0.877,0.791,1.88,1.445,2.822,2.162c-0.024,0.062-0.05,0.125-0.078,0.188
				c-1.856-0.413-3.711-0.827-5.654-1.255c-0.432,0.523-0.961,1.171-1.595,1.942c3.741,0.969,7.081,2.45,11.06,3.048
				c-0.428-1.043-0.675-1.752-0.999-2.424c-0.963-2.011-1.273-4.015,0.273-5.854c0.696-0.827,1.535-1.615,2.466-2.138
				c1.912-1.074,3.931-1.96,6.043-2.99c-0.396-0.2-0.744-0.404-1.109-0.556C189.867,32.732,188.508,32.623,187.14,32.623z"/>
			<path d="M152.164,58.664c0.17,0.083,0.36,0.158,0.547,0.175c1.63,0.164,3.268,0.262,4.893,0.479
				c1.469,0.2,2.926,0.498,4.378,0.803c1.014,0.218,2.008,0.527,3.144,0.831c-0.044-0.408-0.032-0.595-0.089-0.759
				c-1.511-4.376-3.339-8.672-4.338-13.207c-0.264-1.201-0.461-2.496,0.051-3.613c0.651-1.42,2.318-2.129,3.88-2.129
				c0.001,0,0.002,0,0.004,0c1.487,0,2.778,1.195,4.221,1.195c0.028,0,0.056,0,0.084,0c1.488,0,2.852-1.347,3.585-2.559
				c0.985-1.628,1.336-3.673,2.155-5.391c1.055-2.215,2.946-3.98,5.161-5.009c1.35-0.626,2.461-0.814,3.57-0.814
				c1.206,0,2.408,0.222,3.904,0.34c0.171,0.013,0.343,0.021,0.515,0.021c0.964,0,1.936-0.224,2.717-0.778
				c3.917-2.787-1.117-4.813-3.335-5.652c-1.819-0.688-3.762-1.005-5.71-1.005c-2.044,0-4.095,0.35-6.015,0.992
				c-5.024,1.678-9.265,5.149-12.882,9.019c-3.617,3.871-6.721,8.19-10.266,12.126c-1.327,1.473-2.733,2.917-3.64,4.678
				C146.795,52.096,148.449,56.811,152.164,58.664z"/>
			<path d="M299.386,50.467c-0.678,0.844-1.229,1.637-0.984,2.73c0.062,0.278,0.162,0.57,0.34,0.894
				c0.379,0.688,0.736,1.389,1.078,2.097c0.096,0.197,0.184,0.398,0.277,0.595c0.098,0.21,0.197,0.422,0.293,0.635
				c0.412,0.9,0.811,1.806,1.195,2.719c0.301,0.717,0.596,1.436,0.891,2.153c0.492,1.198,0.793,1.659,1.428,1.659
				c0.373,0,0.863-0.159,1.574-0.421c1.711-0.627,3.445-1.195,5.191-1.726c1.34-0.406,2.686-0.797,4.039-1.142
				c0.363-0.092,0.73-0.166,1.094-0.252c0.801-0.188,1.602-0.371,2.408-0.538c2.629-0.546,5.275-1.033,7.863-1.732
				c1.426-0.382,2.83-0.854,4.225-1.355c1.109-0.399,2.213-0.815,3.314-1.232c0.438-0.165,0.875-0.332,1.312-0.495
				c4.74-1.771,9.158-4.144,13.102-7.336c0.885-0.715,1.396-1.772,1.996-2.717c-0.234,0.367-1.541,0.465-2.943,0.465
				c-1.533,0-3.182-0.117-3.664-0.129c-2.334-0.054-4.664-0.291-6.963-0.695c-4.605-0.809-9.092-2.297-13.279-4.376
				c-8.754-4.342-14.299-10.633-19.695-18.445c-0.73-1.058-2.135-1.665-3.428-1.665c-0.764,0-1.49,0.213-2.012,0.672
				c-1.426,1.255-2.469,2.815-2.771,4.735c-0.404,2.555-0.734,5.117-1.102,7.672c-0.482,3.327-0.984,6.654-1.455,9.983
				c-0.041,0.291-0.047,0.662,0.1,0.895c1.24,1.964,2.52,3.907,3.908,6.04c4.76-5.665,4.562-12.099,3.865-18.704
				c1.227,2.079,2.293,4.146,3.189,6.286c1.232,2.943,0.963,5.851-0.844,8.477C301.888,47.729,300.536,49.025,299.386,50.467z
				 M301.843,25.588c0.727,0.828,1.6,1.571,2.145,2.504c2.898,4.953,6.24,9.483,10.561,13.353c3.885,3.482,8.303,5.883,13.074,7.726
				c1.992,0.77,4.119,1.191,6.479,1.853c-1.811,1.549-3.785,1.985-5.654,1.985c-0.52,0-1.031-0.033-1.529-0.086
				c-3.127-0.326-6.475-0.92-9.172-2.412c-4.576-2.528-8.381-6.023-10.246-11.327C305.894,34.612,303.688,30.25,301.843,25.588z"/>
			<path d="M274.685,41.372c3.188,2.663,6.24,5.512,8.92,8.691c0.848,1.005,1.639,2.06,2.398,3.134
				c0.309,0.435,0.609,0.876,0.9,1.322c0.135,0.207,0.285,0.402,0.416,0.61c0.125,0.2,0.221,0.403,0.332,0.605
				c0.191,0.347,0.377,0.696,0.539,1.048c0.238,0.519,0.455,1.046,0.658,1.578c0.281,0.734,0.551,1.478,0.85,2.234
				c0.143,0.357,0.549,0.969,0.004,0.969c-0.004,0-0.006,0-0.008,0c-0.311,0-2.105-2.596-2.379-2.919
				c-0.148-0.176-0.309-0.347-0.459-0.522c-0.389-0.451-0.785-0.894-1.184-1.34c-0.32-0.36-0.631-0.73-0.953-1.082
				c-0.082-0.088-0.168-0.173-0.252-0.261c-0.373-0.404-0.764-0.796-1.146-1.193c-0.336-0.349-0.664-0.705-1.008-1.05
				c-1.021-1.029-2.061-2.042-3.115-3.026c-3.656-3.416-7.656-6.402-11.704-9.32c-0.729-0.526-3.061-1.328-3.449-2.19
				c-0.074,0.233-0.953,0.361-0.953,0.474c0,0.018,0,0.036,0,0.054c0,4.687,1.566,9.421,2.551,14.008
				c0.003,0.011,0.005,0.021,0.007,0.031c0.057,0.27,0.12,0.542,0.174,0.811c0.03,0.153,0.068,0.305,0.101,0.458
				c0.16,0.764,0.34,1.525,0.535,2.287c0.005,0.017,0.009,0.035,0.014,0.051c0.978,3.793,2.331,7.548,3.497,11.253
				c1.48,4.707,3.35,9.332,5.342,13.845c1.008,2.281,2.143,4.533,3.275,6.752c1.082,2.118,2.377,3.99,3.596,5.999
				c2.541,4.183,5.781,7.832,9.408,11.109c4.979,4.509,12.988,7.5,20.57,7.5c4.504,0,8.857-1.055,12.338-3.474
				c2.07-1.438,6.117-6.652,4.543-9.592c-0.188-0.354-0.459-0.675-0.824-0.953c-14.195-10.787-23.291-24.865-31.795-39.948
				c-0.477-0.845-0.953-1.691-1.426-2.542c-0.033-0.057-0.064-0.114-0.096-0.172c-0.217-0.392-0.436-0.784-0.652-1.177
				c-0.412-0.744-0.826-1.49-1.236-2.237c-0.457-0.829-0.914-1.66-1.371-2.493c-1.291-2.017-2.656-3.983-4.117-5.883
				c-3.102-4.031-6.697-7.721-10.867-10.65c-3.961-2.783-8.304-5.033-13.157-5.721c-0.649-0.092-1.223-0.148-1.768-0.148
				c-0.924,0-1.769,0.162-2.774,0.591c2.222,2.34,5.207,4.233,7.767,6.199C269.404,37.149,272.091,39.205,274.685,41.372z
				 M259.423,29.273c-0.015-0.021-0.026-0.04-0.042-0.062c0.096,0.077,0.202,0.144,0.308,0.198
				C259.601,29.365,259.512,29.318,259.423,29.273z"/>
			<path d="M136.276,86.775c0.004,0.002,0.006,0.002,0.01,0.006c0.214,0.154,0.438,0.292,0.666,0.408
				c0.905,0.459,1.817,0.907,2.728,1.358c0.331,0.164,0.66,0.332,0.991,0.494c0.043,0.021,0.086,0.043,0.128,0.064
				c0.05,0.024,0.099,0.05,0.149,0.074c0.006,0.002,0.008,0.002,0.012,0.006c0.102,0.038,0.202,0.08,0.303,0.118
				c0.764,0.299,1.522,0.613,2.282,0.924c0.929,0.379,1.845,0.782,2.759,1.191c0.663,0.298,1.333,0.583,1.984,0.903
				c0.026,0.012,0.054,0.023,0.08,0.036c0.728,0.334,1.457,0.667,2.176,1.017c1.796,0.875,3.521,1.873,4.929,3.394
				c0.196,0.211,0.39,0.419,0.586,0.63c0.003,0.002,0.006,0.008,0.012,0.012c3.054,2.728,5.61,5.958,8.446,8.967
				c1.935,2.05,4.208,3.083,6.671,3.283c0.296,0.024,0.594,0.042,0.896,0.042c0.951,0,1.928-0.118,2.92-0.346
				c3.332-0.761,6.543-2.049,9.809-3.102c-0.009-0.107-0.018-0.212-0.026-0.318c-2.406-0.984-4.878-1.841-7.203-2.992
				c-3.596-1.78-7.022-3.84-10.234-6.202c-0.969-0.714-1.918-1.456-2.846-2.226c-1.079-0.896-2.132-1.826-3.151-2.803
				c-0.046-0.045-0.096-0.087-0.142-0.131c-0.207-0.2-0.395-0.418-0.599-0.622c-1.936-1.921-3.763-3.952-5.427-6.112
				c-0.234-0.305-0.451-0.621-0.675-0.93c-0.479-0.662-0.946-1.331-1.395-2.012c-0.199-0.299-0.4-0.596-0.595-0.896
				c-0.802-1.237-1.586-2.485-2.416-3.711c-0.387-0.574-0.791-1.252-1.54-1.252c-0.148,0-0.308,0.026-0.486,0.085
				c-3.108,1.026-6.192,2.108-8.904,4.007c-1.499,1.047-2.992,2.061-3.846,3.779c-0.002,0.002-0.002,0.006-0.002,0.009
				c-0.167,0.556-0.176,1.145,0.042,1.681C135.557,86.069,135.894,86.45,136.276,86.775z"/>
			<path d="M389.427,40.08c1.307,1.817,1.723,3.926,1.619,6.108c0.008-0.05,0.012-0.098,0.021-0.148
				c0.084-2.142-0.32-4.245-1.605-6.03c-0.477-0.663-1.029-1.251-1.596-1.86c-0.15-0.118-0.305-0.236-0.465-0.352
				c-0.055-0.037-0.105-0.076-0.16-0.112C388.046,38.415,388.794,39.2,389.427,40.08z"/>
			<path d="M312.819,23.698c-0.84,0.363-1.877,0.815-3.113,1.351c3.898,3.471,6.998,7.31,11.412,10.48
				c0.129-1.518,0.27-2.521,0.293-3.528c0.08-3.01,0.945-5.608,3.936-6.865c1.346-0.564,2.84-0.995,4.281-1.05
				c0.672-0.025,1.346-0.036,2.023-0.036c2.299,0,4.629,0.118,7.08,0.168c-0.352-0.483-0.645-0.944-0.988-1.352
				c-2.037-2.384-4.92-3.458-7.607-4.813c-1.811-0.912-3.719-1.442-5.607-1.442c-1.469,0-2.928,0.321-4.318,1.037
				c-3.613,1.861-4.811,2.304-3.221,6.526c0.566,1.492,1.367,2.896,2.059,4.338c-0.066,0.06-0.137,0.119-0.209,0.177
				C316.864,27.05,314.89,25.41,312.819,23.698z"/>
			<path d="M345.868,23.558c2.488,1.384,6.09,2.917,6.607,3.042c3.551,0.853,7.135,0.359,10.664,1.514
				c4.113,1.346,7.811,3.732,10.145,7.447c2.068,3.291,4.025,6.656,6.008,9.998c0.193,0.325,0.227,0.739,0.469,1.571
				c-1.217-0.93-2.16-1.478-2.879-2.239c-2.199-2.332-4.152-4.923-6.521-7.064c-1.459-1.318-3.459-1.908-5.195-2.762
				c-0.277,0.963,0.066,1.569,0.357,2.523c0.334,1.106,0.553,2.25,0.656,3.402c0.205,2.304-0.057,4.652-0.793,6.848
				c-0.781,2.336-2.098,4.486-3.797,6.267c-1.781,1.87-4.043,3.164-6,4.836c-1.494,1.278-3.004,2.543-4.377,3.943
				c-1.738,1.767-2.422,3.905-2.723,6.167c-0.018,0.138-0.043,0.271-0.059,0.41c-0.039,0.356-0.068,0.715-0.094,1.076
				c0.793,0.313,1.576,0.64,2.363,0.961c0.279-0.268,0.566-0.529,0.852-0.79c0.443-0.404,0.902-0.797,1.379-1.177
				c0.412-0.33,0.83-0.657,1.285-0.963c2.178-1.467,4.492-2.711,6.771-4.009c0.088-0.05,0.178-0.1,0.268-0.15
				c3.896-2.23,7.797-4.78,10.238-8.548c0.771-1.19,1.717-2.477,3.092-2.477c0.336,0,0.699,0.078,1.094,0.253
				c-0.342,1.973-0.721,3.916-1.645,5.715c-0.023,0.073-0.057,0.147-0.084,0.219c-0.877,2.269-2.723,3.749-4.824,4.932
				c-2.014,1.134-4.26,1.996-6.115,3.012c-0.967,0.528-1.918,1.088-2.859,1.663c-1.605,0.983-3.156,2.05-4.666,3.176
				c-0.086,0.064-0.172,0.129-0.258,0.193c-0.238,0.181-0.482,0.355-0.719,0.541c-0.715,0.558-1.406,1.145-2.09,1.739
				c-0.418,0.366-0.854,0.713-1.262,1.092c-0.496,0.462-0.986,0.936-1.463,1.42c-1.982,2.008-3.779,4.189-5.473,6.445
				c-0.863,1.151-1.701,2.322-2.525,3.502c-0.693,0.99-2.029,2.343-2.328,3.485c0.035,0.01,0.07,0.015,0.109,0.015
				c0.383,0,0.924-0.471,1.205-0.701c2.012-1.635,3.92-3.418,6.037-4.907c3.742-2.634,7.506-5.238,11.268-7.844
				c0.783-0.542,1.562-1.09,2.346-1.633c0.262-0.182,0.523-0.365,0.787-0.547c0.068-0.048,0.141-0.092,0.211-0.14
				c2.625-1.798,5.389-3.325,8.182-4.81c0.26-0.139,0.521-0.278,0.781-0.416c1.922-1.016,3.852-2.021,5.752-3.091
				c0.08-0.044,0.156-0.093,0.234-0.138c2.164-1.23,4.287-2.604,6.232-4.169c2.596-2.087,4.873-4.513,6.43-7.443
				c2.768-5.207,2.73-12.269-1.416-16.462c-5.678-5.744-12.381-11.171-19.291-15.348c-4.441-2.686-10.385-5.819-15.832-5.819
				c-3.287,0-6.391,1.14-8.877,4.208C343.22,21.903,344.331,22.703,345.868,23.558z"/>
			<path d="M352.706,35.22c0.355-0.546,0.646-1.1,0.453-1.446c-0.004-0.007-0.008-0.013-0.014-0.017
				c-1.32-0.678-2.752-1.114-4.105-1.786c-1.594-0.79-3.115-1.719-4.736-2.454c-3.287-1.492-7.43-2.468-11.334-2.468
				c-1.465,0-2.896,0.137-4.238,0.436c-1.338,0.299-2.646,0.934-3.504,2.003c-1.117,1.393-1.32,3.383-0.766,5.08
				c1.164,3.567,5.016,5.598,8.352,6.686c0.617,0.202,1.281,0.367,1.926,0.367c0.41,0,0.811-0.067,1.189-0.233
				c1.1-0.484,1.725-1.791,1.533-2.977c-0.191-1.186-1.111-2.191-2.238-2.609c-0.463-0.172-0.906-0.246-1.338-0.246
				c-1.279,0-2.438,0.65-3.617,1.281c0.053-0.709,0.484-1.35,1.047-1.783c0.564-0.433,1.246-0.682,1.934-0.859
				c0.957-0.249,1.943-0.373,2.932-0.373c0.887,0,1.773,0.101,2.637,0.301c1.26,0.293,2.549,0.859,3.24,1.952
				c0.52,0.819,0.635,1.883,0.301,2.795c-0.416,1.139-1.668,1.93-2.594,2.61c-0.008,0.005-0.01,0.01-0.012,0.012
				c-0.273,0.496,0.057,0.779,0.574,0.94c0.004,0.002,0.012,0.002,0.025,0.005c0,0.002,0.002,0.003,0.002,0.003
				c0.004,0,0.006,0,0.008,0s0.002,0,0.002,0c2.303,0,4.627,0.265,6.938,0.375c0.645,0.03,1.627,0.209,2.531,0.209
				c1.246,0,2.34-0.343,2.191-1.895c-0.049-0.507-0.227-0.99-0.338-1.486c-0.23-1.024-0.15-2.108,0.195-3.098
				C351.997,36.215,352.38,35.721,352.706,35.22z"/>
			<path d="M175.237,64.421c-0.202,0.985-0.318,1.853,0.8,2.605c0.887,0.599,1.741,1.25,2.579,1.922
				c0.314,0.253,0.625,0.51,0.936,0.77c0.576,0.479,1.147,0.963,1.717,1.449c0.153,0.13,0.286,0.238,0.41,0.331
				c0.316,0.239,0.554,0.362,0.775,0.362c0.35,0,0.666-0.297,1.213-0.893c0.104-0.112,0.216-0.219,0.32-0.331
				c1.298-1.39,2.661-2.725,4.069-4.005c0.244-0.221,0.476-0.454,0.722-0.672c0.436-0.383,0.884-0.754,1.333-1.124
				c1.771-1.457,3.608-2.839,5.303-4.378c1.261-1.143,2.419-2.405,3.567-3.673c0.407-0.45,0.815-0.902,1.224-1.349
				c0.66-0.725,1.289-1.47,1.889-2.237c1.695-2.16,3.143-4.488,4.265-7.024c0.34-0.77,0.321-1.64,0.396-2.465
				c-0.061,0.672-3.624,2.157-4.24,2.455c-1.556,0.753-3.17,1.385-4.822,1.896c-3.309,1.023-6.767,1.559-10.229,1.605
				c-0.15,0.002-0.299,0.004-0.448,0.004c-7.027,0-12.695-2.246-18.763-5.5c-0.387-0.208-0.838-0.304-1.293-0.304
				c-1.115,0-2.265,0.574-2.626,1.488c-0.514,1.309-0.675,2.688-0.226,4.057c0.598,1.82,1.247,3.619,1.868,5.428
				c0.806,2.356,1.601,4.717,2.415,7.069c0.072,0.206,0.194,0.452,0.37,0.556c1.481,0.874,2.98,1.722,4.616,2.658
				c1.223-5.342-1.083-9.515-3.773-13.63c1.511,0.955,2.912,1.957,4.227,3.063c1.805,1.523,2.612,3.53,2.308,5.872
				C175.96,61.771,175.509,63.083,175.237,64.421z M168.448,47.198c0.758,0.3,1.585,0.493,2.26,0.925
				c3.584,2.284,7.317,4.141,11.472,5.229c2.406,0.632,4.806,0.894,7.216,0.894c0.657,0,1.316-0.021,1.976-0.058
				c0.677-0.038,1.353-0.093,2.032-0.165c1.373-0.146,2.732-0.498,4.236-0.826c0.22-0.048,0.433-0.097,0.66-0.144
				c-0.021,0.052-0.048,0.093-0.069,0.144c-0.873,1.984-2.473,2.938-4.022,3.536c-0.045,0.018-0.093,0.032-0.139,0.05
				c-2.038,0.783-4.271,1.465-6.412,1.465c-0.103,0-0.206-0.001-0.307-0.004c-3.869-0.119-7.557-1.136-10.579-4.001
				C174.167,51.775,171.24,49.646,168.448,47.198z"/>
			<path d="M155.888,66.775c2.999,0.678,5.973,1.521,8.813,2.709c1.431,0.599,2.826,1.286,4.158,2.079
				c0.445,0.264,0.843,0.562,1.23,0.872c0.309,0.248,0.61,0.502,0.904,0.767c0.419,0.377,0.837,0.763,1.276,1.148
				c0.214,0.188,0.652,0.381,0.321,0.622c-0.01,0.007-0.024,0.01-0.044,0.01c-0.349,0-2.217-1.002-2.494-1.117
				c-0.097-0.041-0.197-0.075-0.294-0.116c-0.459-0.188-0.924-0.365-1.386-0.542c-0.336-0.129-0.667-0.269-1.004-0.394
				c-1.804-0.667-3.632-1.265-5.481-1.791c-3.564-1.015-7.16-1.656-10.812-2.21c-0.658-0.099-2.031-0.063-2.579-0.5
				c0.03,0.178,0.036,0.282,0.066,0.36c0.006,0.012,0.012,0.024,0.018,0.036c1.649,3.293,4.015,6.266,6.286,9.134
				c0.364,0.46,0.758,0.898,1.13,1.352c0.224,0.271,0.451,0.539,0.678,0.809c0.543,0.647,1.065,1.309,1.625,1.941
				c1.19,1.347,2.418,2.662,3.681,3.941c2.566,2.601,5.277,5.06,8.116,7.359c1.434,1.162,2.901,2.284,4.397,3.364
				c1.428,1.03,2.893,1.836,4.376,2.748c3.087,1.898,6.445,3.212,9.942,4.146c1.554,0.416,3.263,0.622,5.034,0.622
				c6.953,0,14.848-3.163,18.006-9.088c0.877-1.647,1.776-6.446-0.254-7.854c-0.245-0.169-0.532-0.289-0.866-0.349
				c-12.078-2.147-22.214-7.655-32.174-14.09c-0.841-0.544-1.682-1.093-2.522-1.648c-0.351-0.232-0.702-0.461-1.052-0.695
				c-1.585-1.057-3.171-2.128-4.766-3.207c-1.531-0.892-3.096-1.726-4.702-2.485c-3.406-1.608-7.021-2.823-10.759-3.344
				c-1.409-0.196-2.831-0.318-4.247-0.318c-2.15,0-4.288,0.279-6.355,0.995c-1.236,0.428-2.021,0.838-2.844,1.827
				c2.255,0.79,4.861,1.028,7.212,1.458C150.982,65.778,153.445,66.224,155.888,66.775z M141.744,63.963
				c-0.017-0.009-0.031-0.017-0.048-0.026c0.089,0.018,0.182,0.026,0.27,0.026C141.893,63.963,141.817,63.963,141.744,63.963z"/>
			<path d="M205.026,35.26c-0.006-0.002-0.009,0.007-0.015,0.007h-0.006c-1.096,0-2.185,0.183-3.303,0.198
				c-0.112,0.001-0.225-0.011-0.336-0.011c-0.874,0-1.748-0.041-2.621-0.041c-0.331,0-0.661,0.006-0.992,0.021
				c-3.672,0.176-8.081,1.542-10.947,3.924c-0.78,0.649-1.428,1.51-1.631,2.504c-0.266,1.295,0.273,2.675,1.212,3.606
				c1.37,1.359,3.343,1.792,5.28,1.792c0.852,0,1.698-0.084,2.482-0.209c0.778-0.124,1.601-0.354,2.098-0.964
				c0.561-0.691,0.532-1.763,0.005-2.48c-0.465-0.633-1.26-0.981-2.049-0.981c-0.103,0-0.207,0.006-0.308,0.018
				c-1.444,0.17-2.16,1.268-2.916,2.357c-0.205-0.484-0.136-1.053,0.088-1.528c0.225-0.476,0.591-0.871,0.984-1.221
				c1.036-0.924,2.298-1.592,3.646-1.93c0.422-0.106,0.867-0.178,1.303-0.178c0.526,0,1.04,0.098,1.49,0.363
				c0.619,0.365,1.054,1.02,1.143,1.732c0.11,0.892-0.447,1.822-0.827,2.583c-0.004,0.006-0.004-0.019-0.004-0.017
				c-0.009,0.333,0.184,0.391,0.461,0.391c0.073,0,0.152-0.121,0.234-0.135c0.003,0,0.01-0.232,0.018-0.232h0.001
				c0.002,0,0.005,0.224,0.007,0.224c1.604-0.61,3.138-1.161,4.697-1.871c1.037-0.471,3.616-1.028,2.542-2.705
				c-0.203-0.317-0.484-0.575-0.726-0.864c-0.497-0.598-0.812-1.337-0.918-2.106c-0.036-0.255,0.049-0.707,0.095-1.147
				C205.266,35.879,205.271,35.424,205.026,35.26z"/>
			<path d="M275.759,29.875c1.857,1.201,3.768,2.329,5.584,3.591c1.643,1.145,3.211,2.4,4.766,3.664
				c1.084,0.886,2.088,1.87,3.266,2.935c0.197-0.518,0.328-0.739,0.361-0.97c0.883-6.189,1.338-12.482,2.932-18.547
				c0.422-1.606,0.99-3.294,2.295-4.321c0.836-0.657,1.873-0.945,2.936-0.945c1.049,0,2.121,0.28,3.055,0.758
				c1.82,0.936,2.754,3,4.555,3.861c0.613,0.293,1.291,0.419,1.98,0.419c1.352,0,2.756-0.484,3.832-1.148
				c2.188-1.35,3.801-3.454,5.842-5.013c2.477-1.892,5.598-2.85,8.703-2.85c0.195,0,0.391,0.003,0.588,0.012
				c4.189,0.164,5.961,1.993,9.271,4.038c1.088,0.673,2.352,1.133,3.623,1.133c0.242,0,0.484-0.017,0.727-0.051
				c6.426-0.936,1.625-6.473-0.523-8.846c-3.613-3.993-8.803-6.437-14.08-7.244C323.903,0.11,322.331,0,320.759,0
				c-5.539,0-11.086,1.361-16.328,3.246c-6.73,2.421-13.123,5.7-19.809,8.243c-2.502,0.953-5.08,1.82-7.258,3.378
				c-4.561,3.262-5.477,9.946-2.154,14.461C275.362,29.532,275.546,29.739,275.759,29.875z"/>
			<path d="M306.956,68.365c0.059,0,0.105-0.007,0.137-0.013c0.039-0.007,0.08-0.026,0.121-0.035
				c0.889-0.199,1.752-0.792,2.584-1.149c3.154-1.356,6.543-2.595,9.955-3.079c0.162-0.022,0.328-0.042,0.492-0.064
				c0.693-0.096,1.395-0.186,2.104-0.186c2.219,0,4.492,0.117,6.688,0.117c0.072,0,0.145,0,0.217,0c0.055,0,0.113,0,0.168,0
				c1.111,0,2.229-0.03,3.344-0.076c5.389-0.227,10.77-1.113,15.486-3.841c4.172-2.411,7.539-5.826,10.502-9.622
				c1.535-1.965,3.021-4.1,3.418-6.562c0.334-2.082-1.609-7.555-4.42-7.555c-0.316,0-0.643,0.069-0.979,0.221
				c-2.133,0.961-1.631,5.359-2.398,7.181c-1.516,3.599-4.172,6.695-7.309,8.989c-4.967,3.629-11.004,5.458-16.996,6.84
				c-2.316,0.534-4.65,1.012-6.973,1.528c-0.791,0.176-1.578,0.362-2.365,0.551c-1.402,0.336-2.801,0.691-4.186,1.103
				c-0.281,0.084-0.576,0.167-0.867,0.251c-3.672,1.055-7.941,2.17-10.164,5.459c0.049-0.069,0.244-0.091,0.482-0.091
				C306.319,68.331,306.726,68.365,306.956,68.365z"/>
			<path d="M186.363,73.607c0.024-0.018,0.048-0.037,0.07-0.057c0.519-0.431,0.896-1.1,1.322-1.616
				c1.109-1.342,2.325-2.661,3.646-3.838c0.607-0.542,1.23-1.062,1.888-1.526c0.018-0.012,0.038-0.021,0.056-0.033
				c0.041-0.029,0.087-0.05,0.128-0.078c1.806-1.221,4.015-1.951,5.975-2.944c0.538-0.272,1.073-0.555,1.605-0.847
				c1.152-0.634,2.278-1.321,3.361-2.069c1.606-1.11,3.097-2.37,4.401-3.813c0.234-0.259,0.469-0.519,0.69-0.792
				c0.433-0.532,0.845-1.083,1.22-1.666c0.238-0.368,0.461-0.746,0.672-1.128c0.243-0.44,0.464-0.891,0.674-1.346
				c0.794-1.726,1.365-3.558,1.809-5.419c0.167-0.7,0.32-1.403,0.456-2.108c0.302-1.578,0.536-3.226,0.215-4.785
				c-0.048-0.233-0.106-0.465-0.182-0.693c-0.418-1.286-2.822-3.668-4.66-3.668c-0.525,0-1.003,0.194-1.376,0.661
				c-1.081,1.354,0.737,4.083,0.848,5.542c0.217,2.883-0.485,5.821-1.778,8.392c-0.609,1.213-1.346,2.345-2.157,3.424
				c-0.954,1.27-2.018,2.46-3.154,3.586c-1.143,1.132-2.35,2.207-3.574,3.241c-1.34,1.131-2.71,2.229-4.059,3.349
				c-0.522,0.433-1.04,0.873-1.553,1.316c-0.004,0.002-0.007,0.006-0.011,0.008c-0.212,0.182-0.418,0.367-0.627,0.552
				c-0.535,0.472-1.068,0.948-1.584,1.441c-0.838,0.801-1.774,1.641-2.63,2.552c-1.337,1.421-2.475,3.02-2.708,4.939
				C185.365,74.013,186.212,73.722,186.363,73.607z"/>
			<path d="M331.665,110.502c0.783,0.073,1.561,0.106,2.334,0.106c5.393,0,10.541-1.622,15.758-2.819
				c3.18-0.73,6.373-1.431,9.592-1.923c2.66-0.405,5.322-0.592,7.98-0.592c3.855,0,7.703,0.391,11.543,1.072
				c0.354,0.063,0.68,0.095,0.975,0.095c1.641,0,2.381-0.978,2.227-2.985c-0.137-1.844-0.514-3.672-0.756-5.512
				c-0.479-3.648-1.93-6.954-3.426-10.253c-0.133-0.294-0.266-0.588-0.4-0.881c-0.387-0.85-0.898-1.93-1.518-3.063
				c-0.336-0.618-0.707-1.249-1.104-1.871c-1.713-2.679-3.965-5.142-6.545-5.142c-0.113,0-0.225,0.004-0.34,0.014
				c-0.701,0.059-1.373,0.238-2.025,0.484c-0.424,0.16-0.84,0.348-1.246,0.561c-0.848,0.442-1.662,0.972-2.457,1.501
				c-0.029,0.019-0.057,0.037-0.084,0.055c-2.402,1.604-26.172,18.543-28.924,18.543c-0.109,0-0.186-0.026-0.227-0.082
				c3.406,4.6,1.719,8.69-2.006,12.467C331.39,110.411,331.526,110.49,331.665,110.502z"/>
			<path d="M318.577,87.212c1.244,1.549,2.746,3.023,4.438,4.066c1.506,0.93,3.16,1.519,4.912,1.519
				c0.137,0,0.271-0.003,0.408-0.011c2.648-0.139,5.037-1.633,7.055-3.352c3.209-2.733,5.799-6.179,7.596-9.99
				c0.791-1.681,2.113-4.608,2.688-7.318c0.186-0.877,0.293-1.731,0.277-2.514c-0.008-0.397-0.053-0.77-0.131-1.123
				c-0.006-0.027-0.008-0.056-0.014-0.083c-0.004-0.017-0.008-0.035-0.01-0.05c-0.059-0.235-0.131-0.461-0.227-0.67
				c-0.289-0.635-0.605-0.827-1.016-0.827c-0.459,0-1.031,0.238-1.812,0.366c-0.023,0.003-0.049,0.006-0.072,0.009
				c-0.799,0.129-1.598,0.219-2.4,0.287c-1.232,0.105-2.467,0.155-3.705,0.155c-1.244,0-2.488-0.048-3.732-0.109
				c-2.275-0.11-4.551-0.277-6.814-0.372c-0.072-0.003-0.162-0.005-0.268-0.005c-3.24,0-21.131,1.467-18.129,5.709
				C311.079,77.816,314.813,82.52,318.577,87.212z"/>
			<path d="M188.246,76.421c3.939,2.067,7.988,3.904,12.056,5.725c1.342,0.601,2.831,1.063,4.297,1.18
				c0.235,0.019,0.47,0.029,0.704,0.029c1.163,0,2.295-0.243,3.311-0.833c1.698-0.986,2.766-2.778,3.516-4.592
				c1.192-2.887,1.733-6.03,1.628-9.149c-0.053-1.549-0.195-4.365-0.926-6.456c-0.178-0.51-0.393-0.975-0.649-1.37
				c-0.205-0.314-0.434-0.587-0.696-0.795c-0.036-0.029-0.064-0.038-0.099-0.062c-0.205-0.144-0.383-0.221-0.538-0.221
				c-0.304,0-0.557,0.237-0.895,0.536c-0.144,0.126-0.299,0.262-0.488,0.4c-0.292,0.215-0.593,0.415-0.894,0.615
				c-2.287,1.529-4.808,2.664-7.33,3.771c-0.939,0.412-1.878,0.822-2.804,1.249C196.876,67.167,184.723,74.583,188.246,76.421z"/>
			<path d="M216.794,93.068c4.315-1.731,7.537-4.985,11.004-7.902c1.847-1.555,3.715-3.096,5.668-4.509
				c3.961-2.858,8.364-4.848,13.027-6.281c1.668-0.512,2.052-1.487,1.133-2.986c-0.713-1.169-1.579-2.246-2.362-3.375
				c-1.687-2.442-3.995-4.227-6.284-6.043c-1.187-0.942-3.142-2.391-5.125-3.231c-0.932-0.394-1.869-0.667-2.738-0.667
				c-0.649,0-1.26,0.144-1.8,0.479c-0.404,0.251-0.75,0.568-1.072,0.911c-0.756,0.802-1.336,1.794-1.879,2.769
				c-1.066,1.915-11.478,22.027-12.909,22.027c-0.021,0-0.039-0.004-0.055-0.012c3.797,1.88,4.069,5.146,2.89,8.893
				C216.583,93.101,216.699,93.106,216.794,93.068z"/>
			<path d="M238.794,53.313c0.001,0.006,0.005,0.007,0.007,0.012c0.163,0.318,0.345,0.619,0.55,0.9
				c0.054,0.074,0.11,0.148,0.164,0.223c0.263,0.361,0.532,0.718,0.796,1.079c0.306,0.419,0.617,0.837,0.924,1.255
				c0.262,0.355,0.521,0.711,0.784,1.065c0.305,0.41,0.601,0.825,0.908,1.232c0.005,0.007,0.008,0.009,0.011,0.014
				c0.098,0.109,0.194,0.221,0.292,0.33c2.28,2.577,4.529,5.198,6.581,7.957c0.025,0.031,0.05,0.062,0.074,0.092
				c2.337,2.978,4.762,5.905,5.819,9.679c0.105,0.374,0.209,0.744,0.316,1.119c0.001,0.006,0.001,0.015,0.007,0.021
				c1.989,5.16,3.068,10.616,4.623,15.98c1.592,5.484,5.5,8.708,10.765,10.044c4.471,1.138,9.125,1.571,13.697,2.318
				c0.055-0.134,0.109-0.266,0.164-0.399c-2.285-2.666-4.727-5.219-6.811-8.035c-5.381-7.268-9.744-15.176-12.672-23.746
				c-1.315-3.853-2.351-7.801-3.09-11.804c-0.359-1.949-0.591-3.903-0.795-5.859c0-0.004-0.001-0.007-0.001-0.011
				c-0.08-0.77-0.157-1.54-0.23-2.31c-0.041-0.42-0.085-0.841-0.127-1.262c0-0.005-0.001-0.01-0.001-0.014
				c-0.092-0.916-0.186-1.832-0.297-2.747c-0.134-1.112-0.206-2.416-1.715-2.649c-3.096-0.484-6.194-0.926-9.313-0.926
				c-1.281,0-2.566,0.074-3.856,0.252c-2.447,0.333-4.865,0.632-6.951,2.172c-0.005,0.001-0.007,0.006-0.01,0.008
				c-0.542,0.565-0.917,1.268-0.986,2.045c-0.053,0.63,0.098,1.254,0.332,1.846C238.766,53.235,238.778,53.275,238.794,53.313z"/>
			<path d="M348.187,70.535c-0.033,0.472-0.229,0.947-0.229,1.424c0,0.003,0,0.008,0,0.012c0,0.112,0.148,0.216,0.311,0.31
				c0.002,0.295,0.004,0.591,0.018,0.895c0.012,0.212,0.021,0.424,0.029,0.645c0.158-0.15,0.305-0.299,0.459-0.449
				c0.244-0.235,0.486-0.471,0.725-0.705c-0.023-0.001-0.045-0.007-0.068-0.008c0.396-0.393,0.758-0.776,1.156-1.159
				C349.8,71.175,348.978,70.85,348.187,70.535z"/>
			<path d="M230.609,26.954c0.077,0.034,0.154,0.063,0.229,0.099c0.07,0.034,0.145,0.058,0.214,0.093
				c1.475,0.755,2.462,2.005,3.132,3.478c-0.012-0.036-0.025-0.069-0.037-0.104c-0.668-1.44-1.645-2.688-3.095-3.43
				c-0.07-0.036-0.144-0.062-0.215-0.096c-0.086-0.041-0.175-0.079-0.262-0.117c-0.067-0.029-0.133-0.062-0.201-0.09
				c-0.329-0.135-0.662-0.26-1.003-0.385c-0.14-0.027-0.281-0.052-0.425-0.074c-0.048-0.006-0.096-0.014-0.142-0.02
				c0.533,0.144,1.05,0.329,1.559,0.539C230.445,26.881,230.528,26.917,230.609,26.954z"/>
		</g>
	</g>
</g>
<g>
</g>
<g>
</g>
<g>
</g>
<g>
</g>
<g>
</g>
<g>
</g>
<g>
</g>
<g>
</g>
<g>
</g>
<g>
</g>
<g>
</g>
<g>
</g>
<g>
</g>
<g>
</g>
<g>
</g>
</svg>
