<?xml version="1.0"?>
<svg xmlns="http://www.w3.org/2000/svg" viewBox="0 0 32 32"><g id="Layer_17" data-name="Layer 17"><path d="M13,28H6V4H16V8a2,2,0,0,0,2,2h4v5a1,1,0,0,0,2,0V9a1,1,0,0,0-.29-.71l-6-6A1,1,0,0,0,17,2H6A2,2,0,0,0,4,4V28a2,2,0,0,0,2,2h7a1,1,0,0,0,0-2ZM18,5.41,20.59,8H18Z"/><path d="M24.88,18a3.09,3.09,0,0,0-2.21.91l-5.38,5.38a1,1,0,0,0-.26.47l-1,4a1,1,0,0,0,.26.95A1,1,0,0,0,17,30a1,1,0,0,0,.24,0l4-1a1,1,0,0,0,.47-.26l5.38-5.38A3.09,3.09,0,0,0,28,21.12,3.12,3.12,0,0,0,24.88,18Zm-4.39,9.1-2.12.53.53-2.12,3.6-3.6,1.59,1.59Zm5.18-5.19-.17.18L23.91,20.5l.18-.17a1.12,1.12,0,1,1,1.58,1.58Z"/><path d="M19,13H9a1,1,0,0,0,0,2H19a1,1,0,0,0,0-2Z"/><path d="M15,21H9a1,1,0,0,0,0,2h6a1,1,0,0,0,0-2Z"/><path d="M9,11h4a1,1,0,0,0,0-2H9a1,1,0,0,0,0,2Z"/><path d="M19,17H9a1,1,0,0,0,0,2H19a1,1,0,0,0,0-2Z"/></g></svg>
