<svg viewBox="0 0 32 32" xmlns="http://www.w3.org/2000/svg"><g id="Layer_17" data-name="Layer 17"><path d="m17 26-1 4 4-1 4.79-4.79-3-3z"/><path d="m25.88 18a2.12 2.12 0 0 0 -1.5.62l-1.17 1.17 3 3 1.17-1.17a2.12 2.12 0 0 0 -1.5-3.62z"/><path d="m19 8h5l-6-6v5a1 1 0 0 0 1 1z"/><path d="m23 17.21a4.39 4.39 0 0 1 1-.74v-6.47h-5a3 3 0 0 1 -3-3v-5h-10a2 2 0 0 0 -2 2v24a2 2 0 0 0 2 2h7.94l1.25-5zm-14-8.21h4a1 1 0 0 1 0 2h-4a1 1 0 0 1 0-2zm5 14h-5a1 1 0 0 1 0-2h5a1 1 0 0 1 0 2zm4-4h-9a1 1 0 0 1 0-2h9a1 1 0 0 1 0 2zm1-4h-10a1 1 0 0 1 0-2h10a1 1 0 0 1 0 2z"/></g></svg>