<svg id="Layer_1" enable-background="new 0 0 512 512" viewBox="0 0 512 512" xmlns="http://www.w3.org/2000/svg"><path d="m229.093 448.097c0 11.939 9.714 21.653 21.653 21.653h36.496c11.939 0 21.653-9.714 21.653-21.653s-9.714-21.653-21.653-21.653h-36.496c-11.939-.001-21.653 9.713-21.653 21.653zm63.803 0c0 3.117-2.536 5.653-5.653 5.653h-36.496c-3.117 0-5.653-2.536-5.653-5.653s2.536-5.653 5.653-5.653h36.496c3.116-.001 5.653 2.535 5.653 5.653zm-175.863-147.491c5.977-6.224 9.662-14.663 9.662-23.953 0-19.087-15.528-34.615-34.615-34.615s-34.615 15.528-34.615 34.615c0 9.289 3.685 17.729 9.661 23.952-19.075 8.582-32.979 26.746-35.337 48.788-.242 2.257.486 4.511 2.004 6.199s3.681 2.652 5.95 2.652l104.674-.001c2.27 0 4.433-.965 5.95-2.652 1.518-1.688 2.246-3.942 2.004-6.199-2.36-22.041-16.264-40.204-35.338-48.786zm-24.954-42.568c10.265 0 18.615 8.351 18.615 18.615s-8.351 18.615-18.615 18.615-18.615-8.351-18.615-18.615 8.35-18.615 18.615-18.615zm-42.524 84.207c5.785-18.16 22.735-30.977 42.523-30.977s36.738 12.816 42.523 30.976zm187.275-42.103c0 4.418-3.582 8-8 8h-55.953c-4.418 0-8-3.582-8-8s3.582-8 8-8h55.953c4.418 0 8 3.582 8 8zm0 35.585c0 4.418-3.582 8-8 8h-55.953c-4.418 0-8-3.582-8-8s3.582-8 8-8h55.953c4.418 0 8 3.582 8 8zm0-71.17c0 4.418-3.582 8-8 8h-55.953c-4.418 0-8-3.582-8-8s3.582-8 8-8h55.953c4.418 0 8 3.582 8 8zm249.451-175.045h-78.061v-52.728c0-15.871-12.912-28.784-28.784-28.784h-220.883c-15.872 0-28.784 12.913-28.784 28.784v166.901h-103.454c-9.319 0-16.901 7.582-16.901 16.901v159.111c0 9.319 7.582 16.901 16.901 16.901h103.453v78.617c0 15.872 12.912 28.784 28.784 28.784h220.883c15.872 0 28.784-12.912 28.784-28.784v-168.908c3.81 1.116 7.65 2.141 11.521 3.065 3.256.777 6.514 1.155 9.722 1.155 13.643-.001 26.36-6.834 34.027-18.834l16.729-26.183c3.453-5.404 4.277-11.974 2.261-18.024s-6.615-10.812-12.619-13.064l-50.02-18.767c-3.859-1.449-7.822-1.755-11.62-.964v-20.354h78.062c8.99 0 16.305-7.314 16.305-16.305v-72.217c-.001-8.989-7.316-16.303-16.306-16.303zm-57.6 55.393-44.721-39.393h89.441zm-25.362-1.018-32.545 25.871v-54.539zm12.198 10.744 7.876 6.938c1.512 1.332 3.399 1.997 5.288 1.997s3.776-.666 5.288-1.997l7.875-6.938 29.822 23.707h-85.973zm38.524-10.744 32.545-28.668v54.539zm-122.135-119.887-4.837 14.887h-116.149l-4.837-14.887zm-306.492 355.697v-159.111c0-.48.421-.901.901-.901h222.906c.479 0 .9.421.9.901v159.111c0 .48-.421.901-.9.901h-222.906c-.48.001-.901-.42-.901-.901zm388.805-149.062 50.02 18.768c2.003.751 2.777 2.291 3.062 3.142.283.852.587 2.549-.564 4.352l-16.729 26.182c-5.836 9.134-16.012 13.245-26.553 10.731-40.315-9.621-77.329-30.58-107.102-60.672-30.031-29.711-50.99-66.725-60.611-107.04-2.516-10.542 1.597-20.717 10.731-26.553l26.183-16.728c.987-.631 1.943-.825 2.746-.825.662 0 1.22.132 1.604.261.852.284 2.392 1.058 3.143 3.062l18.768 50.019c.614 1.636.458 3.082-.492 4.549l-10.91 16.846c-4.523 6.985-4.571 15.694-.123 22.728 7.932 12.542 17.314 24.252 27.888 34.808 10.561 10.579 22.275 19.965 34.819 27.898 7.034 4.448 15.743 4.401 22.728-.124l16.844-10.909c1.466-.954 2.91-1.111 4.548-.495zm-21.999-7.268-8.092 5.241c-1.759 1.14-3.705 1.151-5.479.03-11.541-7.299-22.323-15.938-32.046-25.679-.004-.003-.007-.007-.011-.01-9.738-9.721-18.378-20.503-25.678-32.046-1.121-1.773-1.111-3.719.029-5.479l10.91-16.846c3.725-5.752 4.45-12.452 2.043-18.867l-18.768-50.018c-2.253-6.004-7.015-10.604-13.064-12.62-6.053-2.017-12.621-1.192-18.024 2.261l-26.183 16.728c-14.821 9.47-21.761 26.643-17.679 43.75 10.314 43.224 32.765 82.887 64.86 114.64 24.929 25.197 54.677 44.432 87.181 56.541v174.224c0 7.049-5.735 12.784-12.784 12.784h-220.882c-7.049 0-12.784-5.735-12.784-12.784v-78.617h103.453c9.319 0 16.9-7.582 16.9-16.901v-159.113c0-9.319-7.581-16.901-16.9-16.901h-103.453v-166.901c0-7.049 5.735-12.784 12.784-12.784h30.707l8.24 25.359c1.071 3.296 4.143 5.528 7.608 5.528h127.773c3.466 0 6.537-2.231 7.608-5.528l8.24-25.359h30.707c7.049 0 12.784 5.735 12.784 12.784v52.728h-21.141c-8.99 0-16.305 7.314-16.305 16.305v72.217c0 8.99 7.314 16.305 16.305 16.305h21.141z"/></svg>