<svg id="svg31911" height="512" viewBox="0 0 16.933333 16.933334" width="512" xmlns="http://www.w3.org/2000/svg" xmlns:svg="http://www.w3.org/2000/svg"><g id="layer1" transform="translate(0 -280.067)"><path id="path12772" d="m1.3224004 280.59479c-.43515596 0-.79271656.36014-.79271656.7953v14.28698c0 .43516.3575545.79272.79271656.79272h10.0546836c.435157 0 .793234-.35756.793234-.79272v-1.3224c0-.35312-.529685-.35312-.529685 0v1.3224c0 .15116-.112406.26355-.263549.26355h-10.0546836c-.151157 0-.2635509-.11239-.2635499-.26355v-14.28698c0-.15116.1123868-.26562.2635499-.26562h8.2031166v1.32395c0 .43516.358071.79324.793234.79324h1.321882v5.29063c0 .35312.529685.35312.529685 0v-5.55418c.000265-.0702-.02712-.13768-.07648-.18759l-2.117183-2.11718c-.04965-.0499-.117162-.078-.187584-.078zm8.7328016.90537 1.211294 1.21233h-.947745c-.15116 0-.263549-.1129-.263549-.26407zm-5.822384 1.21233c-.360476-.008-.360476.53695 0 .52917h3.96875c.360476.008.360476-.53695 0-.52917zm-1.851568 2.11667h5.820318c.360476.008.360476-.53695 0-.52917h-5.832978c-.357449.024-.332851.53814.01265.52917zm6.878651 0h1.05885c.360476.008.360476-.53695 0-.52917h-1.071513c-.357454.024-.332853.53814.01267.52917zm-6.878651 1.58801h7.937501c.360476.008.360476-.53695 0-.52916h-7.950161c-.357449.0241-.332851.53814.01265.52916zm12.824024.52969c-.307557 0-.614063.1159-.847495.34933l-5.285465 5.2834c-.03149.0322-.05426.0718-.06615.11524l-.529166 1.85156c-.05552.19863.127452.3816.326078.32608l1.853633-.52917c.04273-.0124.08165-.0353.113173-.0667l5.284949-5.2834c.466858-.46686.46686-1.23019 0-1.69705-.233428-.23342-.542004-.34933-.849561-.34933zm0 .52296c.170797 0 .341889.0665.474906.19948.266041.26603.266039.68325 0 .94929l-.202054.20206-.949296-.9493.202054-.20205c.133019-.13303.303594-.19948.47439-.19948zm-12.836684.006c-.33724.0403-.314293.51806.01265.5271h1.058334c.362804.0318.393546-.5194.01474-.52761zm2.129843.5271h5.820318c.363381.0321.393655-.52035.02894-.52813-.0097-.00018-.01932.00016-.02894.001h-5.83401c-.339079.0409-.314177.52017.01368.5271zm9.65626.24237.287838.28783-4.520139 4.52066-.287319-.28681zm.661974.66197.287322.28784-4.519621 4.52065-.287837-.28783zm-12.435417.15451c-.360476-.008-.360476.53695 0 .52917h7.937501c.360476.008.360476-.53695 0-.52917zm0 1.58803c-.360476-.008-.360476.53695 0 .52917h4.761466c.360476.008.360476-.53695 0-.52917zm5.820318 0c-.360476-.008-.360476.53695 0 .52917h1.058333c.360477.008.360477-.53695 0-.52917zm-5.820318 2.11667h5.290633c.360476.008.360476-.53695 0-.52917h-5.303293c-.357449.024-.332851.53814.01265.52917zm7.009393.50539.688329.6873-.9617.2744zm-7.009393 1.08262h1.058334c.360476.008.360476-.53695 0-.52916h-1.070994c-.357449.0241-.332851.53814.01265.52916zm2.117183 0h2.644283c.360476.008.360476-.53695 0-.52916h-2.657975c-.358635.0252-.33201.53966.01368.52916z" font-variant-ligatures="normal" font-variant-position="normal" font-variant-caps="normal" font-variant-numeric="normal" font-variant-alternates="normal" font-feature-settings="normal" text-indent="0" text-align="start" text-decoration-line="none" text-decoration-style="solid" text-decoration-color="rgb(0,0,0)" text-transform="none" text-orientation="mixed" white-space="normal" shape-padding="0" isolation="auto" mix-blend-mode="normal" solid-color="rgb(0,0,0)" solid-opacity="1" vector-effect="none"/></g></svg>