<svg id="Capa_1" enable-background="new 0 0 512 512" height="512" viewBox="0 0 512 512" width="512" xmlns="http://www.w3.org/2000/svg"><g><path d="m183.563 210.956c15.925 0 31.679-5.316 44.984-15.352 8.864 3.545 18.063 5.947 27.453 5.947s18.589-2.402 27.453-5.947c13.304 10.036 29.059 15.352 44.984 15.352 19.204 0 38.408-7.31 53.027-21.929 25.605-25.605 28.781-65.273 9.536-94.374v-94.653h-30v81.387c-39.65 14.897-71.323 46.298-86.614 85.772-11.73 5.391-25.042 5.391-36.771 0-15.291-39.474-46.965-70.875-86.614-85.772v-81.387h-30v94.655c-19.241 29.101-16.069 68.767 9.536 94.373 14.618 14.618 33.822 21.928 53.026 21.928z"/><path d="m240.999 229.699c-2.963-.463-6.002-.414-8.919-1.1-14.843 7.78-31.245 12.358-48.517 12.358-18.237 0-35.541-5.041-51.008-13.702 1.289 5.729 2.529 11.596 3.84 17.188 7.515 32.036 14.604 63.3 14.604 102.558 0 13.74-6.094 24.888-13.154 37.808-7.896 14.429-16.846 30.791-16.846 52.192v10.151l45.044 18.018c42.876 17.15 65.7 44.291 68.745 46.831h6.211z"/><path d="m390.999 437c0-21.401-8.95-37.764-16.846-52.192-7.061-12.92-13.154-24.067-13.154-37.808 0-39.258 7.09-70.521 14.604-102.558 1.311-5.592 2.551-11.461 3.84-17.188-15.469 8.659-32.772 13.702-51.008 13.702-17.267 0-33.666-4.576-48.508-12.358-2.921.688-5.964.639-8.928 1.102v282.3h6.211c3.272-2.73 25.28-29.445 68.745-46.831l45.044-18.018z"/></g></svg>