<svg id="Layer_1" enable-background="new 0 0 512 512" viewBox="0 0 512 512" xmlns="http://www.w3.org/2000/svg"><path clip-rule="evenodd" d="m408.426 31.738v59.543h-42.152v-59.543h-23.361c-4.345 0-7.869-3.523-7.869-7.869 0-4.345 3.523-7.869 7.869-7.869h88.874c2.932 0 5.488 1.603 6.842 3.981l23.298 35.209c2.393 3.616 1.403 8.488-2.213 10.881-3.616 2.394-8.488 1.403-10.881-2.213l-21.254-32.12zm-359.185 374.336c-4.506-.688-8.031-4.413-8.349-9.096l-19.285-284.506c-.583-8.613 6.152-15.821 14.784-15.821h123.68c8.62 0 15.352 7.188 14.786 15.79l-18.683 284.516c-.308 4.692-3.837 8.428-8.35 9.117-32.86 0-65.721 0-98.583 0zm3.167-271.916h91.645c4.346 0 7.869-3.523 7.869-7.869s-3.523-7.869-7.869-7.869h-91.645c-4.346 0-7.869 3.523-7.869 7.869.001 4.346 3.524 7.869 7.869 7.869zm45.823 37.916c-16.044 0-29.05 35.525-29.05 79.346 0 43.822 13.006 79.346 29.05 79.346s29.05-35.525 29.05-79.346-13.006-79.346-29.05-79.346zm104.417 100.064h77.193c7.78 0 14.147 6.366 14.147 14.147v18.439c0 7.781-6.366 14.147-14.147 14.147h-77.193c-7.781 0-14.147-6.366-14.147-14.147v-18.439c0-7.781 6.366-14.147 14.147-14.147zm38.099-79.733c11.97 0 21.741 8.468 21.741 20.746v43.249h-42.488v-43.249c0-11.426 9.32-20.746 20.747-20.746zm43.747 141.837c11.227 8.139 19.364 17.051 19.364 34.055v102.694c0 13.755-11.254 25.009-25.008 25.009h-75.211c-13.755 0-25.008-11.254-25.008-25.009v-102.694c0-17.004 8.137-25.916 19.364-34.055 1.517.24 3.071.366 4.653.366h77.192c1.582 0 3.137-.126 4.654-.366zm19.536-139.986c-9.712 0-17.825 6.715-19.458 15.506h170.959c4.488 0 8.127 3.523 8.127 7.869s-3.639 7.869-8.127 7.869h-171.259v31.233c14.354 2.158 25.452 14.621 25.452 29.553v18.439c0 8.596-3.679 16.374-9.54 21.839 12.858 11.071 19.411 24.19 19.411 41.734v58.806h170.833v-214.082c0-10.336-8.876-18.766-19.758-18.766zm186.398 248.584v7.395c0 6.201-5.325 11.26-11.855 11.26h-158.977v-18.655zm-99.477-169.063c3.889 5.972 8.764 15.086 13.521 24.167 6.936 13.241 18.178 31.336 17.368 46.82-1.144 21.845-17.508 38.471-36.549 37.134-19.042-1.336-33.551-20.129-32.408-41.975.793-15.146 12.426-29.63 20.381-41.358 6.205-9.149 12.744-18.851 17.687-24.788zm-69.401-121.36h131.6c2.709 0 4.918 2.209 4.918 4.918v21.183h-141.436v-21.183c0-2.709 2.209-4.918 4.918-4.918zm16.467-45.398h98.667c3.25 0 5.901 2.651 5.901 5.902v23.76h-110.47v-23.76c0-3.251 2.651-5.902 5.902-5.902zm-201.585 314.793v14.241c0 3.128-2.559 5.687-5.686 5.687h-65.03c-3.128 0-5.687-2.559-5.687-5.687v-14.241z" fill-rule="evenodd"/></svg>