<svg id="Layer_1" height="512" viewBox="0 0 64 64" width="512" xmlns="http://www.w3.org/2000/svg"><g><path d="m28.3 49.3-1.2 6.2c-.4 1.9-2 3.3-3.9 3.3h-6.7c-1.2 0-2.4-.2-3.5-.5l-4.7-1.2v-12c3.8-1.8 6.2-6.1 7.9-11.3 2.2 0 4 2 3.6 4.2l-1 6.8 5.5-.2c2.5-.1 4.5 2.2 4 4.7z" fill="#fecb4d"/><path d="m6.6 59.6h-4c-.9 0-1.6-.7-1.6-1.6v-14.4c0-.9.7-1.6 1.6-1.6h4c.9 0 1.6.7 1.6 1.6v14.4c.1.9-.7 1.6-1.6 1.6z" fill="#e3ecff"/><path d="m6.6 59.6h-4c-.9 0-1.6-.7-1.6-1.6v-14.4c0-.9.7-1.6 1.6-1.6h4c.9 0 1.6.7 1.6 1.6v14.4c.1.9-.7 1.6-1.6 1.6z" style="fill:none;stroke:#2a3c65;stroke-linecap:round;stroke-linejoin:round;stroke-miterlimit:10;stroke-width:1.5"/><path d="m35.7 49.3 1.2 6.2c.4 1.9 2 3.3 3.9 3.3h6.7c1.2 0 2.4-.2 3.5-.5l4.7-1.2v-12c-3.8-1.8-6.2-6.1-7.9-11.3-2.2 0-4 2-3.6 4.2l1 6.8-5.5-.2c-2.5-.1-4.5 2.2-4 4.7z" fill="#ff5892"/><g stroke="#2a3c65" stroke-linecap="round" stroke-linejoin="round" stroke-miterlimit="10"><path d="m11.2 42.9c2.2-2.2 3.7-5.4 5-9.2 2 0 3.7 1.7 3.7 3.7v.6l-1 6.8 5.5-.2c2.6-.1 4.5 2.2 4.1 4.8l-1.2 6.2c-.4 1.9-2 3.3-3.9 3.3h-6.7c-1.2 0-2.4-.1-3.5-.4l-1.7-.4" fill="none" stroke-width="1.5"/><path d="m52.7 57.9-1.7.5c-1.2.3-2.3.4-3.5.4h-6.7c-1.9 0-3.6-1.4-4-3.3l-1.2-6.2c-.5-2.5 1.5-4.8 4.1-4.8l5.5.2-1-6.8c0-.2 0-.4 0-.6 0-2 1.6-3.7 3.7-3.7 1.2 3.8 2.8 7 5 9.2" fill="none" stroke-width="1.5"/><path d="m57.4 59.6h4c.9 0 1.6-.7 1.6-1.6v-14.4c0-.9-.7-1.6-1.6-1.6h-4c-.9 0-1.6.7-1.6 1.6v14.4c-.1.9.7 1.6 1.6 1.6z" fill="#e3ecff"/><path d="m57.4 59.6h4c.9 0 1.6-.7 1.6-1.6v-14.4c0-.9-.7-1.6-1.6-1.6h-4c-.9 0-1.6.7-1.6 1.6v14.4c-.1.9.7 1.6 1.6 1.6z" fill="none" stroke-width="1.5"/></g><g><circle cx="32" cy="23.2" fill="#06d506" r="11.9"/></g><g><circle cx="32" cy="23.2" r="11.9" style="fill:none;stroke:#2a3c65;stroke-linecap:round;stroke-linejoin:round;stroke-miterlimit:10;stroke-width:1.5"/></g><g><path d="m29.5 28.8c-.5 0-1-.2-1.4-.6l-2.4-2.4c-.8-.8-.8-2 0-2.8s2-.8 2.8 0l1 1 5.9-5.9c.8-.8 2-.8 2.8 0s.8 2 0 2.8l-7.3 7.3c-.3.4-.9.6-1.4.6z" fill="#fff"/></g><g><path d="m29.5 28.8c-.5 0-1-.2-1.4-.6l-2.4-2.4c-.8-.8-.8-2 0-2.8s2-.8 2.8 0l1 1 5.9-5.9c.8-.8 2-.8 2.8 0s.8 2 0 2.8l-7.3 7.3c-.3.4-.9.6-1.4.6z" fill="none" stroke="#2a3c65" stroke-linecap="round" stroke-linejoin="round" stroke-miterlimit="10"/></g><g><g><path d="m32 7.1v-2.7" style="fill:none;stroke:#2a3c65;stroke-linecap:round;stroke-linejoin:round;stroke-miterlimit:10;stroke-width:1.5"/></g><g style="fill:none;stroke:#2a3c65;stroke-linecap:round;stroke-linejoin:round;stroke-miterlimit:10;stroke-width:1.5"><path d="m48.1 23.2h2.7"/><path d="m13.2 23.2h2.7"/></g></g><g><g><path d="m43.4 11.8 1.9-1.9" style="fill:none;stroke:#2a3c65;stroke-linecap:round;stroke-linejoin:round;stroke-miterlimit:10;stroke-width:1.5"/></g><g><path d="m18.7 9.9 1.9 1.9" style="fill:none;stroke:#2a3c65;stroke-linecap:round;stroke-linejoin:round;stroke-miterlimit:10;stroke-width:1.5"/></g></g></g></svg>