<svg id="Layer_1" enable-background="new 0 0 491.5 491.5" height="512" viewBox="0 0 491.5 491.5" width="512" xmlns="http://www.w3.org/2000/svg" xmlns:xlink="http://www.w3.org/1999/xlink"><linearGradient id="Layer_x0020_1_1_" gradientUnits="userSpaceOnUse" x1="245.755" x2="245.755" y1="28.8" y2="462.72"><stop offset="0" stop-color="#f704fe"/><stop offset="1" stop-color="#24bce3"/></linearGradient><path id="Layer_x0020_1" d="m188.5 207.4c-1.4 0-2.8-.6-3.7-1.8-23.7-29.8-34.8-54.6-34.8-78.1 0-27.7 22.5-50.2 50.2-50.2 22.9 0 35.2 10.8 45.5 28.8 10.3-18 22.6-28.8 45.5-28.8 27.7 0 50.2 22.5 50.2 50.2 0 20.6-8.8 42.7-26.9 67.6-1.5 2.1-4.5 2.6-6.6 1.1s-2.6-4.5-1.1-6.6c16.9-23.2 25-43.6 25-62.1 0-22.5-18.3-40.8-40.8-40.8-19.1 0-29.5 7.9-41.3 31.5-.8 1.6-2.4 2.6-4.2 2.6s-3.4-1-4.2-2.6c-11.8-23.6-22.2-31.5-41.3-31.5-22.5 0-40.8 18.3-40.8 40.8 0 21.2 10.4 44.2 32.7 72.2 1.6 2 1.3 5-.7 6.6-.6.8-1.6 1.1-2.7 1.1zm56.6 28.8h-65.8c-2.6 0-4.7-2.1-4.7-4.7v-19.9c0-7.5 6.1-13.6 13.6-13.6h56.6c2.6 0 4.7 2.1 4.7 4.7s-2.1 4.7-4.7 4.7h-56.6c-2.3 0-4.1 1.9-4.1 4.2v15.1h61.1c2.6 0 4.7 2.1 4.7 4.7 0 2.7-2.2 4.8-4.8 4.8zm95.6 226.5c-9.3 0-17.9-5.4-26.2-10.6-7.5-4.7-14.7-9.1-21.2-9.1s-13.7 4.4-21.2 9.1c-8.3 5.2-17 10.6-26.2 10.6s-17.9-5.4-26.2-10.6c-7.5-4.7-14.7-9.1-21.2-9.1-6.6 0-13.7 4.4-21.2 9.1-8.4 5.2-17 10.6-26.2 10.6s-17.9-5.4-26.2-10.6c-7.6-4.7-14.7-9.1-21.2-9.1-2 0-3.8-1.3-4.5-3.2s0-4 1.6-5.3c18.7-14.7 39-107.1 45.2-141.5 11.3-62.2 33-66.1 35.4-66.3l.9 9.4h.2c-.2 0-17.2 3.9-27.2 58.6-.1.3-5.8 31.9-14.5 65.4-9.7 37.7-18.9 62.4-28 75 5.9 2 11.5 5.5 17 9 7.5 4.7 14.7 9.1 21.2 9.1 6.6 0 13.7-4.4 21.2-9.1 8.3-5.2 17-10.6 26.2-10.6 9.3 0 17.9 5.4 26.2 10.6 7.6 4.7 14.7 9.1 21.2 9.1 6.6 0 13.7-4.4 21.2-9.1 8.4-5.2 17-10.6 26.2-10.6s17.9 5.4 26.2 10.6c7.5 4.7 14.7 9.1 21.2 9.1s13.7-4.4 21.2-9.1c5.5-3.5 11.2-7 17-9-9-12.6-18.2-37.3-28-75-8.6-33.5-14.4-65.1-14.5-65.4-2.1-11.4-4.6-21.5-7.6-30-.9-2.5.4-5.2 2.9-6s5.2.4 6 2.9c3.1 9 5.8 19.5 8 31.4 6.2 34.4 26.5 126.8 45.2 141.5 1.6 1.2 2.2 3.4 1.5 5.3s-2.5 3.2-4.5 3.2c-6.5 0-13.7 4.4-21.2 9.1-8 5.2-16.7 10.6-25.9 10.6zm-156.7-372.9c-2.6 0-4.7-2.1-4.7-4.7v-45.7c0-5.8 4.7-10.6 10.6-10.6h16.3c5.8 0 10.6 4.7 10.6 10.6v43.9c0 2.6-2.1 4.7-4.7 4.7s-4.7-2.1-4.7-4.7v-43.9c0-.6-.5-1.1-1.1-1.1h-16.3c-.6 0-1.1.5-1.1 1.1v45.7c-.1 2.6-2.2 4.7-4.9 4.7zm123.5 0c-2.6 0-4.7-2.1-4.7-4.7v-45.7c0-.6-.5-1.1-1.1-1.1h-16.3c-.6 0-1.1.5-1.1 1.1v43.9c0 2.6-2.1 4.7-4.7 4.7s-4.7-2.1-4.7-4.7v-43.9c0-5.8 4.7-10.6 10.6-10.6h16.3c5.8 0 10.6 4.7 10.6 10.6v45.7c-.2 2.6-2.3 4.7-4.9 4.7zm-49.1 156c-10.3 0-18.7-8.4-18.7-18.7 0-5.6 1.9-10 5.8-13.5.2-.2.2-.3.2-.5s0-.3-.2-.5c-3.9-3.5-5.8-7.9-5.8-13.5 0-10.3 8.4-18.7 18.7-18.7 7.9 0 15.9 3.5 25.4 10.9 2 1.6 2.4 4.6.8 6.6-1.6 2.1-4.6 2.4-6.6.8-7.6-6-14-8.9-19.6-8.9-5.1 0-9.2 4.1-9.2 9.2 0 3.4 1.1 5 2.6 6.4 2.2 1.9 3.4 4.6 3.4 7.6 0 2.9-1.2 5.6-3.4 7.6-1.6 1.4-2.6 3-2.6 6.4 0 5.1 4.1 9.2 9.2 9.2 5.5 0 11.9-2.9 19.6-8.9 2.1-1.6 5-1.2 6.6.8 1.6 2.1 1.2 5-.8 6.6-9.5 7.6-17.6 11.1-25.4 11.1zm89.9 0c-7.9 0-15.9-3.5-25.4-10.9-2.1-1.6-2.4-4.6-.8-6.6 1.6-2.1 4.6-2.4 6.6-.8 7.6 6 14 8.9 19.6 8.9 5.1 0 9.2-4.1 9.2-9.2 0-3.4-1.1-5-2.6-6.4-2.2-1.9-3.4-4.6-3.4-7.6 0-2.9 1.2-5.6 3.4-7.6 1.6-1.4 2.6-3 2.6-6.4 0-5.1-4.1-9.2-9.2-9.2-5.5 0-11.9 2.9-19.6 8.9-2.1 1.6-5 1.2-6.6-.8-1.6-2.1-1.3-5 .8-6.6 9.5-7.4 17.6-10.9 25.4-10.9 10.3 0 18.7 8.4 18.7 18.7 0 5.6-1.9 10-5.8 13.5-.2.2-.2.2-.2.5 0 .2 0 .4.2.5 3.9 3.5 5.8 7.9 5.8 13.5 0 10.1-8.4 18.5-18.7 18.5zm-62.7-16.8h35.5v-31.9h-35.5zm37.2 9.5h-38.8c-4.3 0-7.8-3.5-7.8-7.8v-35.2c0-4.3 3.5-7.8 7.8-7.8h38.8c4.3 0 7.8 3.5 7.8 7.8v35.2c0 4.3-3.5 7.8-7.8 7.8zm1.5 49h-.1c-2 0-3.8-1.3-4.4-3.2-.4-1.1-9.4-28.3-6.1-51.2.4-2.6 2.8-4.4 5.4-4s4.4 2.8 4 5.4c-1.6 11 .1 23.5 2 32.8l2.4-6.3c.9-2.4 3.5-3.6 5.9-2.8l5.9 2c-2.6-6.1-4.1-13.1-4.5-20.6-.1-2.6 1.9-4.8 4.5-4.9s4.8 1.9 4.9 4.5c.4 10.8 3.6 19.7 9.4 26.5 1.4 1.6 1.5 4 .3 5.7-1.2 1.8-3.4 2.5-5.4 1.9l-13.9-4.7-6.1 15.8c-.5 1.9-2.2 3.1-4.2 3.1zm-42 0c-2 0-3.7-1.2-4.4-3l-6.1-15.8-13.9 4.7c-2 .7-4.2-.1-5.4-1.8-1.2-1.8-1.1-4.1.3-5.7 5.8-6.8 8.9-15.7 9.4-26.5.1-2.6 2.3-4.6 4.9-4.5s4.6 2.3 4.5 4.9c-.3 7.5-1.8 14.4-4.5 20.6l5.9-2c2.4-.8 5 .4 5.9 2.8l2.4 6.3c2-9.3 3.6-21.9 2-32.8-.4-2.6 1.4-5 4-5.4s5 1.4 5.4 4c3.3 22.8-5.7 50-6.1 51.2-.6 1.9-2.4 3.2-4.4 3.2.2-.2.2-.2.1-.2zm-84 155.5c-2 0-3.9-1.3-4.5-3.4-10.4-34.7-5.9-103.1 13.8-209 .5-2.6 2.9-4.3 5.5-3.8s4.3 2.9 3.8 5.5c-19.1 103-23.8 171.8-14 204.6.8 2.5-.7 5.1-3.2 5.9-.5.1-.9.2-1.4.2zm94.9 0c-.5 0-.9-.1-1.4-.2-2.5-.8-3.9-3.4-3.2-5.9 8.5-28.6 6-84.8-7.4-167-.4-2.6 1.3-5 3.9-5.5 2.6-.4 5 1.3 5.5 3.9 13.9 84.8 16.2 140.8 7.2 171.3-.7 2.1-2.5 3.4-4.6 3.4z" fill="url(#Layer_x0020_1_1_)"/></svg>