<svg id="Capa_1" enable-background="new 0 0 512.002 512.002" height="512" viewBox="0 0 512.002 512.002" width="512" xmlns="http://www.w3.org/2000/svg"><g><path d="m124.058 174.184c10.467 10.466 16.8 24.333 17.837 39.056l4.018 75.957c.002.047.005.095.009.143.388 5.376-1.341 10.563-4.865 14.606-3.505 4.021-8.372 6.433-13.713 6.796-.736.044-1.792-.419-1.97-1.647l-5.125-87.562c-.242-4.134-3.768-7.291-7.926-7.049-4.135.242-7.291 3.79-7.049 7.926l5.13 87.641c.177 3.555 1.608 7.197 4.614 10.545l30.77 30.77c1.465 1.464 3.385 2.196 5.304 2.196s3.839-.732 5.304-2.196c2.929-2.93 2.929-7.678 0-10.607l-17.445-17.445c5.11-2.027 9.699-5.248 13.413-9.508 6.154-7.059 9.18-16.1 8.525-25.465l-4.018-75.954c-.117-1.692-.344-3.968-.902-7.547 29.406-44.112 61.359-71.046 100.203-84.465 38.296 11.451 69.28 37.593 99.898 84.276-.432 2.512-.752 5.05-.93 7.612-.002.041-.005.082-.007.123l-1.23 23.22c-.22 4.136 2.956 7.667 7.093 7.886.135.008.27.011.403.011 3.96 0 7.271-3.103 7.482-7.104l1.228-23.156c1.037-14.723 7.37-28.591 17.837-39.057l121.86-121.86c2.929-2.93 2.929-7.678 0-10.607-2.93-2.928-7.678-2.928-10.607 0l-77.933 77.933c-1.316-1.949-2.729-3.833-4.229-5.645 9.92-30.409-2.075-64.349-29.157-81.621-4.425-2.847-8.958-5.633-13.471-8.281-3.571-2.095-8.168-.9-10.265 2.673-2.096 3.572-.899 8.168 2.673 10.265 4.338 2.545 8.694 5.224 12.955 7.964 19.302 12.385 28.851 34.849 24.781 57.14l-40.486-30.624c-3.302-2.498-8.007-1.846-10.506 1.457-2.499 3.304-1.847 8.007 1.457 10.506l40.989 31.005c5.768 4.364 10.66 9.851 14.386 16.035l-33.055 33.055c-6.598 6.598-11.869 14.287-15.639 22.648-28.97-41.289-59.004-65.966-95.268-78.328 14.562-33.389 6.018-47.152-.955-58.357-5.064-8.136-8.814-14.177-3.778-28.936 17.37-4.606 34.389-5.608 45.843-5.608 7.817 0 17.566 2.312 28.976 6.874.913.365 1.855.538 2.782.538 2.977 0 5.793-1.785 6.966-4.718 1.538-3.846-.334-8.211-4.18-9.748-13.189-5.272-24.811-7.946-34.544-7.946-12.821 0-32.143 1.175-51.815 6.685-7.281-1.893-24.978-6.685-51.265-6.685-19.832 0-46.858 10.894-80.329 32.378-26.733 16.979-39.151 50.809-29.166 81.617-1.499 1.811-2.919 3.688-4.236 5.646l-22.225-22.225c-2.93-2.928-7.678-2.928-10.607 0-2.929 2.93-2.929 7.678 0 10.607zm-8.062-59.698 40.989-31.005c3.304-2.499 3.956-7.202 1.457-10.506-2.498-3.304-7.203-3.955-10.506-1.457l-40.484 30.622c-4.072-22.286 5.477-44.749 24.782-57.14 30.578-19.626 55.553-30 72.227-30 18.756 0 33.393 2.805 41.803 4.781-5.218 18.896.954 28.812 6.477 37.685 6.462 10.383 12.068 19.395-2.104 48.936-38.733 13.53-70.917 39.202-100.222 80.081-3.777-8.461-9.084-16.241-15.749-22.906l-33.075-33.075c3.73-6.22 8.565-11.598 14.405-16.016z"/><path d="m33.117 83.243c1.465 1.465 3.384 2.197 5.304 2.197 1.919 0 3.839-.732 5.303-2.196 2.93-2.93 2.93-7.678.001-10.606l-30.92-30.921c-2.929-2.929-7.678-2.93-10.606-.001-2.93 2.93-2.93 7.678-.001 10.606z"/><path d="m499.197 171.972-45.396 45.396c-5.5 5.501-9.081 12.77-10.084 20.468l-8.683 66.727c-.822 6.497-3.834 12.634-8.48 17.279l-72.097 72.097c-4.268 4.271-11.198 4.285-15.445.036-4.249-4.248-4.232-11.178.036-15.445l57.937-57.937c2.038-2.352 4.266-6.229 4.613-10.543l5.13-87.641c.242-4.136-2.914-7.684-7.049-7.926-4.149-.251-7.685 2.914-7.926 7.049l-5.125 87.562c-.034.574-.53 1.663-1.973 1.647-5.34-.364-10.206-2.776-13.71-6.796-2.64-3.016-5.1-8.647-4.856-14.75l.94-17.8c.219-4.136-2.957-7.667-7.094-7.885-4.126-.248-7.667 2.957-7.885 7.094l-.938 17.731c-.655 9.366 2.371 18.407 8.525 25.467 3.714 4.26 8.302 7.48 13.412 9.508-1.245 1.164-43.974 44.128-45.335 45.256-29.814 26.877-55.283 41.679-71.716 41.679-16.044.651-47.221-18.226-74.836-44.729-2.93-2.928-7.678-2.928-10.607 0-2.929 2.93-2.929 7.678 0 10.607l2.396 2.396c4.268 4.273 4.283 11.208.033 15.457-2.053 2.053-4.782 3.184-7.687 3.184-2.923 0-5.678-1.145-7.756-3.224l-72.101-72.101c-4.646-4.646-7.654-10.779-8.476-17.304l-8.682-66.709c-1.012-7.7-4.592-14.965-10.082-20.457l-45.4-45.4c-2.93-2.928-7.678-2.928-10.607 0-2.929 2.93-2.929 7.678 0 10.607l45.4 45.399c3.167 3.168 5.233 7.36 5.815 11.795l8.677 66.669c1.23 9.781 5.758 19.017 12.747 26.007l72.101 72.101c4.912 4.911 11.434 7.616 18.363 7.616 6.911 0 13.407-2.69 18.294-7.576 3.24-3.24 5.433-7.136 6.591-11.267 3.75 3.013 7.415 5.821 10.99 8.41v28.92c0 10.119-7.251 18.631-17.241 20.24l-68.386 11.011c-22.752 3.663-41.806 18.475-50.97 39.619-1.646 3.801.099 8.217 3.899 9.864.972.421 1.983.62 2.979.62 2.898 0 5.659-1.69 6.886-4.52 7.118-16.425 21.918-27.93 39.591-30.775l68.386-11.011c17.3-2.786 29.856-17.526 29.856-35.049v-19.002c15.204 9.036 28.523 13.6 39.825 13.6s24.621-4.563 39.825-13.6v19.002c0 17.522 12.557 32.263 29.856 35.049l68.386 11.011c17.673 2.846 32.473 14.351 39.591 30.775 1.227 2.829 3.987 4.52 6.886 4.52.995 0 2.007-.199 2.979-.62 3.801-1.647 5.546-6.063 3.899-9.864-9.164-21.145-28.218-35.956-50.97-39.619l-68.386-11.011c-9.99-1.609-17.241-10.121-17.241-20.24v-28.92c3.575-2.589 7.24-5.396 10.989-8.409 1.158 4.128 3.351 8.023 6.591 11.263 5.042 5.042 11.666 7.562 18.296 7.562 6.646-.001 13.299-2.534 18.363-7.598l72.097-72.097c6.986-6.987 11.516-16.222 12.751-25.978l8.68-66.699c.577-4.435 2.643-8.624 5.816-11.797l45.396-45.396c2.929-2.93 2.929-7.678 0-10.607-2.925-2.926-7.673-2.926-10.603.002z"/><path d="m229.932 306.885c-1.444 3.883.532 8.2 4.414 9.645 6.675 2.482 13.395 3.724 20.115 3.724s13.441-1.241 20.115-3.724c3.882-1.444 5.858-5.762 4.414-9.645-1.445-3.883-5.761-5.859-9.645-4.414-10.016 3.727-19.754 3.727-29.77 0-3.882-1.443-8.2.532-9.643 4.414z"/><path d="m344.094 220.73c1.232-3.954-.975-8.159-4.93-9.391-16.243-5.06-36.455-11.354-60.503.425-3.72 1.823-5.258 6.315-3.436 10.035 1.823 3.72 6.316 5.257 10.035 3.436 17.386-8.519 30.864-5.362 49.442.425.742.231 1.494.342 2.232.342 3.198 0 6.16-2.06 7.16-5.272z"/><path d="m233.341 211.765c-24.047-11.782-44.261-5.486-60.503-.425-3.955 1.231-6.162 5.437-4.93 9.391 1 3.213 3.962 5.271 7.158 5.271.738 0 1.49-.11 2.232-.342 18.58-5.787 32.058-8.944 49.442-.425 3.719 1.823 8.212.284 10.035-3.436 1.824-3.719.286-8.211-3.434-10.034z"/><path d="m219.48 356.672c9.88 4.897 20.836 5.16 32.568.782 1.232-.461 2.591-.461 3.827 0 5.535 2.065 10.896 3.098 16.055 3.098 5.774 0 11.294-1.294 16.512-3.88 3.712-1.839 5.229-6.338 3.39-10.05s-6.339-5.23-10.05-3.39c-6.188 3.067-12.755 3.121-20.661.169-4.619-1.725-9.703-1.725-14.318 0-7.909 2.95-14.474 2.896-20.662-.169-3.712-1.843-8.211-.321-10.05 3.39-1.84 3.712-.322 8.211 3.389 10.05z"/><path d="m175.831 267.842c7.679 2.903 15.412 4.355 23.145 4.355s15.467-1.452 23.146-4.355c3.875-1.466 5.828-5.794 4.363-9.668-1.465-3.875-5.796-5.827-9.668-4.363-12.005 4.538-23.674 4.54-35.681 0-3.871-1.465-8.202.488-9.668 4.363-1.465 3.874.488 8.202 4.363 9.668z"/><path d="m336.171 267.842c3.875-1.466 5.828-5.794 4.363-9.668-1.465-3.875-5.797-5.827-9.668-4.363-12.007 4.54-23.676 4.538-35.681 0-3.87-1.465-8.203.488-9.668 4.363-1.465 3.874.488 8.202 4.363 9.668 7.679 2.903 15.412 4.355 23.146 4.355 7.733 0 15.466-1.452 23.145-4.355z"/></g></svg>