<svg height="511pt" viewBox="0 0 511 511.99926" width="511pt" xmlns="http://www.w3.org/2000/svg"><path d="m246.886719 118.820312c-1.550781 12.042969-7.296875 34.816407-28.566407 42.085938-7.890624 2.699219-7.90625 13.296875.003907 16 26.449219 9.042969 28.894531 42.074219 29.117187 48.601562.367188 10.898438 17.761719 10.898438 18.136719.003907.085937-2.585938.652344-11.789063 4.21875-21.78125 2.867187-8.015625-7.707031-13.953125-13.058594-7.332031-3.859375-9.902344-10.234375-20.234376-20.765625-27.492188 10.324219-7.117188 16.65625-17.1875 20.539063-26.914062 3.882812 9.734374 10.222656 19.8125 20.566406 26.933593-.714844.496094-1.414063 1.007813-2.101563 1.542969-3.316406 2.5625-3.929687 7.335938-1.363281 10.652344 2.566407 3.320312 7.335938 3.933594 10.65625 1.367187 3.097657-2.398437 6.605469-4.273437 10.425781-5.578125 7.894532-2.699218 7.910157-13.300781 0-16.003906-21.269531-7.269531-27.011718-30.046875-28.5625-42.085938 29.207032-2.507812 54.636719-14.671874 69.242188-33.460937 11.167969-14.367187 15.113281-31.460937 11.105469-48.128906-6.265625-26.046875-32.550781-42.136719-58.597657-35.878907-21.648437 5.199219-35.027343 27.050782-29.828124 48.714844 4.363281 18.132813 22.664062 29.335938 40.800781 24.980469 24.707031-5.945313 29.707031-39.339844 8.726562-50.367187-6.125-3.210938-13.691406-3.335938-17.550781-1.960938-8.347656 2.648438-10.070312 14.710938-2.035156 19.628906 4.871094 2.984375 11.15625 1.695313 14.492187-2.8125 6.019531 5.578125 3.058594 18.277344-7.1875 20.742188-9.988281 2.402344-20.070312-3.773438-22.472656-13.761719-3.246094-13.515625 5.101563-27.148437 18.605469-30.390625 31.761718-7.644531 55.402344 29.742188 31.945312 59.914062-15.417968 19.835938-41.472656 27.046876-66.910156 28.0625-48.421875-.707031-83.039062-30.527343-75.160156-63.316406 4.308594-17.902344 22.378906-28.96875 40.28125-24.660156 13.503906 3.242188 21.851562 16.875 18.605468 30.386719-2.402343 9.992187-12.484374 16.167969-22.472656 13.765625-10.316406-2.484375-13.15625-15.203125-7.203125-20.730469 3.332031 4.523437 9.628907 5.824219 14.507813 2.832031 8.878906-5.433594 5.820312-19.054687-4.523438-20.195312-5.136718-.800782-10.410156.058594-15.042968 2.484375-20.96875 10.96875-16.054688 44.421875 8.707031 50.378906 18.132812 4.359375 36.4375-6.847656 40.800781-24.984375 5.203125-21.660156-8.179688-43.511719-29.828125-48.710938-26.042969-6.261718-52.332031 9.832032-58.597656 35.882813-4.007813 16.664063-.0625 33.757813 11.105469 48.125 14.601562 18.789063 40.035156 30.953125 69.238281 33.460937zm0 0"/><path d="m266.132812 393.0625c1.550782-12.046875 7.296876-34.816406 28.5625-42.085938 7.894532-2.703124 7.910157-13.300781 0-16.003906-26.449218-9.039062-28.894531-42.074218-29.117187-48.601562-.367187-10.898438-17.761719-10.894532-18.136719 0-.078125 2.339844-.578125 10.703125-3.632812 20.054687-2.371094 7.257813 6.300781 13.085938 12.128906 8.15625 3.820312 10.175781 10.261719 20.914063 21.109375 28.394531-10.324219 7.117188-16.65625 17.1875-20.539063 26.914063-3.882812-9.738281-10.222656-19.816406-20.566406-26.9375 1.363282-.945313 2.679688-1.957031 3.945313-3.035156 3.199219-2.71875 3.585937-7.511719.867187-10.707031-2.71875-3.195313-7.511718-3.582032-10.707031-.867188-3.421875 2.910156-7.367187 5.140625-11.722656 6.632812-7.894531 2.695313-7.910157 13.296876 0 16 21.265625 7.269532 27.011719 30.046876 28.5625 42.085938-29.207031 2.507812-54.636719 14.671875-69.242188 33.460938-32.089843 41.28125 1.480469 95.070312 47.492188 84.007812 21.648437-5.199219 35.027343-27.050781 29.828125-48.710938-4.367188-18.136718-22.667969-29.351562-40.800782-24.984374-15.324218 3.6875-24.792968 19.152343-21.109374 34.472656 2.875 11.949218 14.242187 20 26.652343 18.488281 10.894531-.402344 14.425781-14.6875 5.316407-20.261719-4.871094-2.984375-11.15625-1.695312-14.492188 2.8125-6.019531-5.578125-3.058594-18.277344 7.1875-20.742187 9.988281-2.402344 20.070312 3.773437 22.472656 13.761719 3.246094 13.515624-5.101562 27.148437-18.605468 30.390624-31.710938 7.640626-55.425782-29.707031-31.945313-59.914062 28.792969-37.039062 104.601563-37.480469 133.738281 0 23.523438 30.261719-.367187 67.519531-31.945312 59.914062-13.507813-3.242187-21.855469-16.875-18.609375-30.386718 2.402343-9.992188 12.488281-16.171875 22.476562-13.765625 10.3125 2.480469 13.152344 15.199219 7.203125 20.730469-3.335937-4.523438-9.628906-5.824219-14.511718-2.835938-8.351563 5.117188-6.050782 17.828125 2.78125 19.863281 11.332031 3.15625 25.832031-4.066406 29.1875-18.050781 3.6875-15.324219-5.78125-30.789062-21.109376-34.476562-18.132812-4.359376-36.433593 6.847656-40.796874 24.984374-5.203126 21.660157 8.179687 43.511719 29.824218 48.710938 26.160156 6.289062 52.363282-9.945312 58.601563-35.878906 4.007812-16.667969.0625-33.761719-11.109375-48.128906-14.601563-18.789063-40.03125-30.957032-69.238282-33.460938zm0 0"/><path d="m511.101562 287.3125c-8.132812-33.863281-53.027343-41.742188-69.652343-14.597656-4.71875 7.707031-6.15625 16.785156-4.042969 25.570312 5.96875 24.816406 39.367188 29.644532 50.367188 8.726563 2.308593-4.402344 3.1875-9.378907 2.59375-14.265625-.394532-10.667969-14.554688-14.644532-20.265626-5.320313-2.980468 4.871094-1.691406 11.15625 2.8125 14.492188-5.6875 6.140625-18.300781 2.945312-20.738281-7.1875-4.058593-16.878907 15.261719-30.207031 32.816407-19.464844 14.003906 8.578125 15.433593 27.632813 7.347656 40.84375-11.796875 19.261719-37.671875 20.890625-55.925782 6.699219-36.960937-28.730469-37.558593-104.542969 0-133.738282 18.378907-14.285156 44.246094-12.371093 55.925782 6.699219 14.210937 23.207031-3.503906 49.351563-26.398438 43.855469-10.007812-2.410156-16.171875-12.464844-13.765625-22.476562 2.46875-10.25 15.160157-13.195313 20.730469-7.203126-4.523438 3.335938-5.824219 9.628907-2.835938 14.507813 5.148438 8.40625 17.839844 5.984375 19.863282-2.78125 3.1875-11.453125-4.164063-25.851563-18.054688-29.1875-25.90625-6.230469-45.074218 22.765625-30.429687 46.683594 16.605469 27.109375 61.503906 19.324219 69.652343-14.601563 6.277344-26.101562-9.769531-52.320312-35.882812-58.597656-16.664062-4.007812-33.757812-.0625-48.128906 11.105469-18.789063 14.605469-30.953125 40.035156-33.457032 69.242187-12.042968-1.550781-34.816406-7.292968-42.085937-28.5625-2.699219-7.894531-13.296875-7.914062-16.003906 0-9.039063 26.449219-42.074219 28.894532-48.605469 29.117188-10.898438.375-10.886719 17.769531 0 18.136718 6.53125.222657 39.566406 2.671876 48.605469 29.121094 2.699219 7.886719 13.296875 7.910156 16.003906-.003906 7.269531-21.265625 30.042969-27.011719 42.085937-28.5625 7.386719 86.035156 85.058594 101.929688 111.664063 58.480469 6.777344-11.070313 8.835937-24.113281 5.804687-36.730469zm-167.558593-10.835938c-7.117188-10.324218-17.1875-16.652343-26.917969-20.535156 9.730469-3.878906 19.800781-10.210937 26.917969-20.535156 7.121093 10.324219 17.191406 16.65625 26.917969 20.535156-9.726563 3.878906-19.796876 10.210938-26.917969 20.535156zm0 0"/><path d="m177.476562 294.125c9.042969-26.449219 42.074219-28.894531 48.609376-29.117188 10.914062-.375 10.859374-17.78125-.003907-18.136718-2.585937-.085938-11.796875-.652344-21.78125-4.21875-8.03125-2.871094-13.941406 7.714844-7.332031 13.058594-9.90625 3.859374-20.230469 10.234374-27.492188 20.765624-7.121093-10.324218-17.191406-16.65625-26.917968-20.535156 9.738281-3.886718 19.816406-10.226562 26.9375-20.570312.496094.714844 1.007812 1.417968 1.539062 2.105468 2.566406 3.316407 7.335938 3.929688 10.65625 1.363282 3.320313-2.566406 3.929688-7.335938 1.363282-10.65625-2.394532-3.101563-4.273438-6.609375-5.578126-10.429688-2.699218-7.890625-13.296874-7.910156-16 0-7.273437 21.269532-30.050781 27.011719-42.089843 28.5625-2.507813-29.203125-14.667969-54.636718-33.457031-69.238281-14.367188-11.167969-31.460938-15.117187-48.128907-11.109375-40.789062 9.808594-50.140625 63.742188-17.703125 83.601562 28.464844 17.425782 62.917969-5.195312 55.515625-35.976562-5.964843-24.792969-39.359375-29.660156-50.367187-8.726562-3.207032 6.125-3.335938 13.691406-1.960938 17.550781 2.546875 8.027343 14.558594 10.324219 19.632813 2.035156 2.984375-4.871094 1.691406-11.15625-2.8125-14.492187 5.695312-6.152344 18.304687-2.933594 20.738281 7.1875 1.164062 4.835937.371094 9.839843-2.230469 14.082031-9.550781 15.601562-36.921875 10.59375-41.921875-10.214844-4.316406-17.941406 6.714844-35.960937 24.660156-40.277344 33.246094-7.988281 62.652344 27.378907 63.316407 75.238281v.003907c-.65625 45.179687-28.476563 83.539062-63.316407 75.160156-27.5625-6.632813-34.265624-43.054687-13.324218-55.875 17.394531-10.640625 36.90625 2.464844 32.816406 19.464844-2.464844 10.246093-15.160156 13.195312-20.730469 7.203125 4.523438-3.335938 5.824219-9.628906 2.835938-14.511719-5.414063-8.835937-19.058594-5.851563-20.199219 4.53125-1.941406 12.542969 6.046875 24.476563 18.390625 27.4375 25.898437 6.222656 45.082031-22.75 30.429687-46.679687-10.957031-17.886719-34.589843-20.738282-51.472656-10.398438-36.410156 22.289062-19.710937 85.125 30.480469 85.125 39.226563 0 65.183594-39.628906 68.8125-81.875 12.039063 1.550781 34.816406 7.292969 42.085937 28.566406 2.699219 7.894532 13.300782 7.90625 16-.003906zm0 0"/></svg>