<?xml version="1.0" encoding="UTF-8"?>
<svg xmlns="http://www.w3.org/2000/svg" xmlns:xlink="http://www.w3.org/1999/xlink" id="Layer_1" data-name="Layer 1" viewBox="0 0 512 512" width="512" height="512"><defs><linearGradient id="linear-gradient" x1="433.004" y1="78.976" x2="78.996" y2="432.984" gradientUnits="userSpaceOnUse"><stop offset="0" stop-color="#faac1e"/><stop offset="1" stop-color="#eb1b45"/></linearGradient></defs><path d="M506.321,255.98a3,3,0,0,0-.93-2.172,181.686,181.686,0,0,0-72.61-42.424,156.727,156.727,0,0,0,21.533-35.2,3,3,0,0,0-1.662-4.014,156.8,156.8,0,0,0-40.115-9.662A181.667,181.667,0,0,0,433.882,81.17,3,3,0,0,0,430.81,78.1a181.666,181.666,0,0,0-81.341,21.344,156.765,156.765,0,0,0-9.662-40.115,3,3,0,0,0-4.014-1.662A156.822,156.822,0,0,0,300.6,79.2,181.664,181.664,0,0,0,258.172,6.59a3.091,3.091,0,0,0-4.344,0A181.676,181.676,0,0,0,211.4,79.2a156.772,156.772,0,0,0-35.2-21.533,3,3,0,0,0-4.014,1.662,156.765,156.765,0,0,0-9.662,40.115A181.666,181.666,0,0,0,81.19,78.1a3,3,0,0,0-3.072,3.071,181.664,181.664,0,0,0,21.345,81.341,156.8,156.8,0,0,0-40.115,9.662,3,3,0,0,0-1.662,4.014,156.778,156.778,0,0,0,21.533,35.2,181.686,181.686,0,0,0-72.61,42.424,3,3,0,0,0,0,4.345,181.7,181.7,0,0,0,72.61,42.424,156.8,156.8,0,0,0-21.533,35.2,3,3,0,0,0,1.662,4.013,156.765,156.765,0,0,0,40.115,9.662A181.667,181.667,0,0,0,78.118,430.79a3,3,0,0,0,3,3.073h.073a181.679,181.679,0,0,0,81.341-21.344,156.758,156.758,0,0,0,9.662,40.114,3,3,0,0,0,4.014,1.663,156.775,156.775,0,0,0,35.2-21.534,181.668,181.668,0,0,0,42.424,72.61,3,3,0,0,0,4.344,0,181.668,181.668,0,0,0,42.424-72.61,156.79,156.79,0,0,0,35.2,21.534,3,3,0,0,0,4.014-1.663,156.748,156.748,0,0,0,9.662-40.114,181.679,181.679,0,0,0,81.341,21.344h.073a3,3,0,0,0,3-3.073,181.671,181.671,0,0,0-21.339-81.33,156.791,156.791,0,0,0,40.109-9.673,3,3,0,0,0,1.662-4.013,156.727,156.727,0,0,0-21.533-35.2,181.7,181.7,0,0,0,72.61-42.424A3,3,0,0,0,506.321,255.98Zm-58.813-79.325a150.712,150.712,0,0,1-21.026,32.933,182.821,182.821,0,0,0-43.913-6.035,182.794,182.794,0,0,0,26.784-35.317A150.679,150.679,0,0,1,447.508,176.655Zm-71.214,24.737c-.751.752-1.513,1.487-2.275,2.222A181.69,181.69,0,0,0,321.508,213a79,79,0,0,0-22.529-22.528,181.65,181.65,0,0,0,9.387-52.511c.735-.762,1.47-1.524,2.222-2.276A175.505,175.505,0,0,1,427.778,84.2,175.505,175.505,0,0,1,376.294,201.392ZM256,328.369a72.389,72.389,0,1,1,72.388-72.389A72.471,72.471,0,0,1,256,328.369Zm79.325-263.9a150.6,150.6,0,0,1,8.419,38.156,182.749,182.749,0,0,0-35.317,26.783A182.812,182.812,0,0,0,302.393,85.5,150.662,150.662,0,0,1,335.325,64.472ZM256,13.05a176.593,176.593,0,0,1,37.722,174.241,78.2,78.2,0,0,0-75.444,0A176.593,176.593,0,0,1,256,13.05ZM176.675,64.472A150.712,150.712,0,0,1,209.608,85.5a182.771,182.771,0,0,0-6.035,43.913,182.749,182.749,0,0,0-35.317-26.783A150.61,150.61,0,0,1,176.675,64.472Zm24.737,71.214c.752.752,1.487,1.514,2.222,2.276a181.65,181.65,0,0,0,9.387,52.511A78.986,78.986,0,0,0,190.492,213a181.678,181.678,0,0,0-52.511-9.387c-.762-.735-1.524-1.47-2.275-2.222A175.505,175.505,0,0,1,84.222,84.2,175.505,175.505,0,0,1,201.412,135.686ZM64.492,176.655a150.689,150.689,0,0,1,38.155-8.419,182.794,182.794,0,0,0,26.784,35.317,182.821,182.821,0,0,0-43.913,6.035A150.678,150.678,0,0,1,64.492,176.655Zm67.847,32.864a176.005,176.005,0,0,1,54.971,8.739,78.214,78.214,0,0,0,0,75.445A176.591,176.591,0,0,1,13.069,255.98,175.506,175.506,0,0,1,132.339,209.519ZM64.492,335.306a150.632,150.632,0,0,1,21.027-32.933,182.8,182.8,0,0,0,43.912,6.034,182.825,182.825,0,0,0-26.784,35.317A150.653,150.653,0,0,1,64.492,335.306Zm71.214-24.738q1.125-1.123,2.268-2.222a181.624,181.624,0,0,0,52.518-9.387,79,79,0,0,0,22.529,22.529A181.657,181.657,0,0,0,203.634,374c-.735.761-1.47,1.523-2.222,2.275a175.51,175.51,0,0,1-117.19,51.484A175.508,175.508,0,0,1,135.706,310.568Zm40.969,136.921a150.62,150.62,0,0,1-8.419-38.156,182.754,182.754,0,0,0,35.317-26.784,182.764,182.764,0,0,0,6.035,43.913A150.7,150.7,0,0,1,176.675,447.489ZM256,498.911A176.593,176.593,0,0,1,218.278,324.67a78.207,78.207,0,0,0,75.445,0A176.6,176.6,0,0,1,256,498.911Zm79.325-51.422a150.7,150.7,0,0,1-32.932-21.027,182.82,182.82,0,0,0,6.034-43.913,182.754,182.754,0,0,0,35.317,26.784A150.62,150.62,0,0,1,335.325,447.489Zm-24.737-71.214c-.752-.752-1.487-1.514-2.222-2.275a181.645,181.645,0,0,0-9.387-52.512,79,79,0,0,0,22.529-22.529,181.644,181.644,0,0,0,52.5,9.387c.766.74,1.539,1.475,2.286,2.222a175.508,175.508,0,0,1,51.484,117.191A175.51,175.51,0,0,1,310.588,376.275Zm136.92-40.969a150.6,150.6,0,0,1-38.156,8.416,182.807,182.807,0,0,0-26.783-35.315,182.82,182.82,0,0,0,43.913-6.034A150.665,150.665,0,0,1,447.508,335.306Zm-67.847-32.864A176.014,176.014,0,0,1,324.69,293.7a78.214,78.214,0,0,0,0-75.445A176.593,176.593,0,0,1,498.931,255.98,175.5,175.5,0,0,1,379.661,302.442ZM256,205.973a50.008,50.008,0,1,0,50.008,50.007A50.064,50.064,0,0,0,256,205.973Zm0,94.015a44.008,44.008,0,1,1,44.008-44.008A44.058,44.058,0,0,1,256,299.988Z" style="fill:url(#linear-gradient)"/></svg>
