<svg id="Layer_1" enable-background="new 0 0 65 65" height="65" viewBox="0 0 65 65" width="65" xmlns="http://www.w3.org/2000/svg"><path d="m47.753 60.42c-7.328 0-10.842-2.938-12.499-5.402-2.417-3.596-2.708-8.748-.861-14.349-1.257-.086-2.532-.086-3.787 0 1.846 5.602 1.555 10.754-.863 14.35-1.657 2.464-5.17 5.401-12.496 5.401-.536 0-1.031-.286-1.299-.75-3.663-6.345-2.876-10.856-1.57-13.523 1.904-3.891 6.221-6.72 11.995-7.922-.555-1.131-1.192-2.234-1.894-3.28-3.689 4.124-8.025 6.453-12.113 6.453-3.178 0-7.783-1.413-11.671-8.147-.268-.464-.268-1.036 0-1.5 3.888-6.734 8.493-8.148 11.671-8.148 4.087 0 8.424 2.33 12.112 6.454.702-1.046 1.339-2.149 1.895-3.28-5.774-1.202-10.091-4.03-11.996-7.921-1.306-2.667-2.093-7.179 1.571-13.525.268-.464.763-.75 1.299-.75 7.328 0 10.841 2.938 12.499 5.403 2.417 3.595 2.708 8.748.862 14.349 1.256.084 2.534.084 3.787 0-1.846-5.602-1.554-10.755.863-14.35 1.657-2.464 5.171-5.401 12.496-5.401.536 0 1.031.286 1.299.75 3.663 6.345 2.876 10.856 1.57 13.524-1.904 3.891-6.221 6.72-11.994 7.922.555 1.13 1.192 2.234 1.894 3.28 3.689-4.124 8.025-6.453 12.112-6.453 3.179 0 7.784 1.414 11.672 8.148.269.464.269 1.036 0 1.5-3.888 6.734-8.493 8.147-11.671 8.147-4.088 0-8.425-2.329-12.113-6.454-.702 1.046-1.339 2.149-1.895 3.281 5.774 1.201 10.091 4.029 11.995 7.92 1.307 2.668 2.094 7.18-1.57 13.525-.269.462-.764.748-1.3.748zm-10.318-19.372c-1.729 4.877-1.63 9.412.309 12.295 1.707 2.539 4.778 3.903 9.135 4.062 2.041-3.853 2.395-7.193 1.05-9.94-1.529-3.122-5.407-5.476-10.494-6.417zm-9.871.001c-5.087.941-8.964 3.296-10.492 6.417-1.344 2.746-.991 6.087 1.05 9.938 4.355-.158 7.425-1.522 9.132-4.061 1.938-2.882 2.038-7.417.31-12.294zm14.805-8.549c3.202 3.763 6.897 5.898 10.266 5.898 3.271 0 6.169-1.983 8.622-5.897-2.453-3.915-5.352-5.898-8.623-5.898-3.367-.001-7.062 2.134-10.265 5.897zm-38.626 0c2.454 3.914 5.351 5.897 8.622 5.897 3.368 0 7.063-2.135 10.265-5.897-3.202-3.763-6.896-5.898-10.265-5.898-3.271 0-6.168 1.983-8.622 5.898zm22.691 0c1.172 1.636 2.203 3.421 3.033 5.253 2-.196 4.063-.197 6.066 0 .831-1.833 1.862-3.619 3.033-5.255-1.171-1.636-2.202-3.421-3.032-5.252-1.999.198-4.063.198-6.066 0-.832 1.833-1.863 3.619-3.034 5.254zm-8.312-24.905c-2.041 3.853-2.395 7.194-1.05 9.941 1.527 3.121 5.405 5.474 10.493 6.416 1.729-4.877 1.63-9.412-.309-12.295-1.707-2.539-4.777-3.903-9.134-4.062zm28.756 0c-4.355.159-7.425 1.522-9.132 4.06-1.938 2.884-2.039 7.418-.311 12.296 5.088-.942 8.965-3.296 10.492-6.417 1.345-2.746.992-6.087-1.049-9.939z"/></svg>