<svg id="Layer_1" height="512" viewBox="0 0 64 64" width="512" xmlns="http://www.w3.org/2000/svg" data-name="Layer 1"><path d="m51 47h6v12h-6z" fill="#ef6dcd"/><path d="m43.24 45.99a17.994 17.994 0 0 0 -4.92.53 6.779 6.779 0 0 1 -3.71.14l-7.86-1.94a2.672 2.672 0 0 0 -3.13 1.59l-.03.06a2.088 2.088 0 0 0 -.16.63h-6.13a5.583 5.583 0 0 1 -3.29-.92l-2.16-1.52a3.073 3.073 0 0 0 -4.67 1.5 3.476 3.476 0 0 0 .86 3.58l7.3 7.189a8 8 0 0 0 5.191 2.29l14.469 2.8a14.948 14.948 0 0 0 3 0l13-2.96v-12.149c-1.5-.74-4.79-.82-7.76-.82z" fill="#fbf2d2"/><path d="m16 17h31v25h-31z" fill="#3fc3c9"/><path d="m16 17h31v7h-31z" fill="#837ccd"/><g fill="#fcbd56"><path d="m28 17h7v25h-7z"/><path d="m45.736 11.41-2.431-4.15a2.139 2.139 0 0 0 -3.272-.439l-6.033 5.717 1.781 3.212 8.525-1.467a1.934 1.934 0 0 0 1.43-2.873z"/><path d="m20.908 6.973-2.4 4a1.859 1.859 0 0 0 1.411 2.769l7.512 1.258 2.319-3.249-5.615-5.2a2.139 2.139 0 0 0 -3.227.422z"/></g><path d="m34.44 12.75a4.023 4.023 0 0 0 -.57-.45 4.274 4.274 0 0 0 -2.35-.7 4.355 4.355 0 0 0 -1.77.38 3.91 3.91 0 0 0 -2.35 3.38.86.86 0 0 0 -.01.16v1.48h8.26v-1.48a3.8 3.8 0 0 0 -1.21-2.77z" fill="#ef4d39"/><path d="m57 45h-6a.988.988 0 0 0 -.944.733 28.953 28.953 0 0 0 -6.816-.743 18.743 18.743 0 0 0 -5.227.579 5.786 5.786 0 0 1 -3.166.119l-7.86-1.937a3.621 3.621 0 0 0 -4.257 2.109c-.01.018-.048.1-.057.115l-.008.025h-5.365a4.566 4.566 0 0 1 -2.719-.738l-2.16-1.522a4.069 4.069 0 0 0 -6.187 2 4.471 4.471 0 0 0 1.11 4.624l7.3 7.179a8.975 8.975 0 0 0 5.766 2.571l14.403 2.786a1.041 1.041 0 0 0 .138.017l.437.026c.4.025.847.054 1.337.054a10.242 10.242 0 0 0 1.495-.1l11.823-2.689a.989.989 0 0 0 .957.792h6a1.006 1.006 0 0 0 1-1.012v-13.979a1.006 1.006 0 0 0 -1-1.009zm-7 3.952v9.2l-12.141 2.756a11.25 11.25 0 0 1 -2.345.019l-.389-.023-14.407-2.785a.952.952 0 0 0 -.132-.016 7 7 0 0 1 -4.548-2l-7.3-7.18a2.446 2.446 0 0 1 -.611-2.523 2.081 2.081 0 0 1 3.153-1l2.158 1.517a6.552 6.552 0 0 0 3.863 1.1h5.176a3.585 3.585 0 0 0 2.679 2.788l9.1 2.227.471-1.966-9.1-2.228a1.57 1.57 0 0 1 -1.2-1.735 1.169 1.169 0 0 1 .056-.268c.013-.025.055-.111.065-.137a1.665 1.665 0 0 1 1.967-.987l7.862 1.938a7.761 7.761 0 0 0 4.252-.16 17.185 17.185 0 0 1 4.612-.481 24.466 24.466 0 0 1 6.76.8zm6 10.032h-4v-11.964h4z"/><path d="m15.032 17v6h-.032v2h.032v17a1 1 0 0 0 1 1h30.968a1 1 0 0 0 1-1v-25a1 1 0 0 0 -1-1h-8.253l5.593-.965a3.046 3.046 0 0 0 2.256-1.7 2.836 2.836 0 0 0 -.133-2.665l-2.431-4.164a3.064 3.064 0 0 0 -2.232-1.473 3.1 3.1 0 0 0 -2.591.816l-5.509 5.233a5.34 5.34 0 0 0 -3.712-.25l-5.24-4.984a3.1 3.1 0 0 0 -2.59-.815 3.064 3.064 0 0 0 -2.231 1.475l-2.427 4.157a2.837 2.837 0 0 0 -.135 2.668 3.046 3.046 0 0 0 2.256 1.705l5.6.965h-9.189a1 1 0 0 0 -1 .997zm18.968 24h-5v-16h5zm0-18h-5v-5h5zm12 18h-10v-16h10zm0-23v5h-10v-5zm-5.412-10.7a1.121 1.121 0 0 1 .934-.286 1.075 1.075 0 0 1 .785.5l2.432 4.163a.856.856 0 0 1 .042.812 1.031 1.031 0 0 1 -.781.574l-7.509 1.3a4.779 4.779 0 0 0 -1.145-2.083zm-12.188 8.1a2.9 2.9 0 0 1 1.756-2.5 3.32 3.32 0 0 1 3.169.243 3.114 3.114 0 0 1 .427.339 2.8 2.8 0 0 1 .9 2.043v.475h-6.268v-.448a.956.956 0 0 0 .016-.152zm-8.44-2.333a1.029 1.029 0 0 1 -.781-.574.857.857 0 0 1 .044-.815l2.429-4.158a1.073 1.073 0 0 1 .786-.507 1.121 1.121 0 0 1 .933.285l4.766 4.531a4.849 4.849 0 0 0 -1.546 2.38zm-2.928 4.933h9.968v5h-9.968zm0 7h9.968v16h-9.968z"/></svg>