<svg id="Capa_1" enable-background="new 0 0 512 512" height="512" viewBox="0 0 512 512" width="512" xmlns="http://www.w3.org/2000/svg"><g><g><path d="m255.697 287.398c-2.929 2.929-2.929 7.678 0 10.606l34.256 34.255c1.464 1.464 3.384 2.197 5.303 2.197s3.839-.732 5.303-2.197c2.929-2.929 2.929-7.678 0-10.606l-34.256-34.255c-2.928-2.928-7.678-2.928-10.606 0z"/><path d="m512 162.093c0-34.827-13.562-67.569-38.189-92.196s-57.369-38.189-92.196-38.189c-24.644 0-48.689 6.947-69.536 20.09-3.504 2.209-4.554 6.84-2.345 10.344 2.208 3.503 6.84 4.555 10.344 2.345 18.449-11.63 39.729-17.778 61.537-17.778 30.82 0 59.796 12.002 81.589 33.795s33.796 50.768 33.796 81.589-12.002 59.796-33.795 81.589l-33.42 33.42-63.358-63.358c-5.325-5.07-20.635-20.769-26.005-25.17-25.087-20.557-64.865-17.917-88.703 5.921l-17.316 17.316c-8.027 8.027-18.7 12.448-30.052 12.448s-22.025-4.42-30.052-12.448c-1.538-1.538-1.538-4.041 0-5.579l120.306-120.308c2.929-2.929 2.929-7.678 0-10.606-2.929-2.929-7.678-2.929-10.606 0l-27.999 27.999-33.42-33.42c-24.626-24.626-57.368-38.189-92.195-38.189-7.269 0-14.585.614-21.746 1.826-4.084.691-6.835 4.562-6.144 8.646s4.559 6.833 8.646 6.144c6.337-1.072 12.811-1.616 19.244-1.616 30.82 0 59.796 12.002 81.589 33.795l33.42 33.42-81.703 81.703c-7.387 7.386-7.387 19.405 0 26.792 10.86 10.86 25.3 16.841 40.659 16.841s29.798-5.981 40.659-16.841l17.316-17.316c18.509-18.509 48.092-20.516 68.87-4.696 2.007 1.528 22.333 21.775 24.625 23.945l77.239 77.237c.035.036.07.072.105.107 4.386 4.386 6.802 10.218 6.802 16.421s-2.416 12.035-6.802 16.421c-9.054 9.054-23.786 9.055-32.841 0l-90.58-90.58c-2.929-2.929-7.678-2.929-10.606 0-2.929 2.929-2.929 7.678 0 10.606l101.688 101.687c9.054 9.054 9.054 23.787 0 32.841-4.386 4.386-10.218 6.802-16.421 6.802s-12.034-2.416-16.416-6.797l-42.706-42.719c-2.929-2.929-7.678-2.929-10.606 0-2.929 2.929-2.929 7.678 0 10.606l34.532 34.532.004.004c9.054 9.055 9.054 23.787 0 32.842-9.055 9.054-23.787 9.054-32.842 0l-33.343-33.344c-7.401-7.402-17.108-11.123-26.83-11.173 4.83-13.492 1.857-29.175-8.931-39.963-6.42-6.42-14.576-10.067-22.972-10.956 9.78-14.829 8.15-35.025-4.89-48.065-13.697-13.697-35.282-14.795-50.256-3.315-1.012-8.462-4.79-16.294-10.91-22.414-14.902-14.903-39.152-14.903-54.055 0l-21.969 21.969-33.42-33.42c-21.792-21.791-33.794-50.767-33.794-81.587s12.002-59.796 33.795-81.589c9.091-9.091 19.562-16.551 31.12-22.172 3.725-1.812 5.276-6.3 3.464-10.025s-6.301-5.276-10.025-3.464c-13.062 6.353-24.893 14.782-35.166 25.055-24.626 24.625-38.188 57.368-38.188 92.195s13.562 67.569 38.189 92.195l33.64 33.64c-11.636 14.982-10.587 36.693 3.167 50.448 6.775 6.775 15.482 10.459 24.364 11.074-7.368 14.372-5.049 32.468 6.97 44.487 7.452 7.452 17.238 11.177 27.027 11.177 1.883 0 3.765-.141 5.632-.417-.273 1.856-.413 3.744-.413 5.654 0 10.209 3.976 19.808 11.195 27.027s16.818 11.195 27.027 11.195c6.476 0 12.704-1.605 18.237-4.617.709 9.063 4.568 17.491 11.066 23.989 7.219 7.219 16.818 11.195 27.027 11.195 8.288 0 16.173-2.621 22.71-7.469 6.809 5.584 15.264 8.622 24.186 8.622 10.209 0 19.808-3.976 27.027-11.195 7.148-7.148 10.858-16.447 11.149-25.833 4.661 1.918 9.625 2.881 14.591 2.881 9.788 0 19.576-3.726 27.027-11.177 7.317-7.317 11.032-16.886 11.164-26.497 4.236 1.586 8.763 2.422 13.421 2.422 10.209 0 19.808-3.976 27.027-11.195 11.731-11.731 14.221-29.25 7.484-43.446 9.052-.51 17.956-4.209 24.856-11.11 7.219-7.219 11.195-16.818 11.195-27.027 0-10.184-3.955-19.758-11.139-26.971l-3.368-3.505 33.351-33.351c24.629-24.627 38.191-57.369 38.191-92.196zm-426.397 165.676c-9.054-9.055-9.054-23.787 0-32.842l29.188-29.188c9.055-9.055 23.787-9.055 32.842 0 9.054 9.054 9.054 23.785.001 32.84l-29.194 29.194c-9.055 9.05-23.784 9.049-32.837-.004zm64.08 55.648c-9.062 8.961-23.722 8.937-32.746-.086-9.054-9.055-9.054-23.787 0-32.842l59.021-59.021c9.055-9.054 23.787-9.054 32.841 0 9.054 9.055 9.054 23.787 0 32.842l-59.027 59.014c-.031.03-.059.062-.089.093zm43.536 43.354c-4.386 4.386-10.218 6.802-16.421 6.802s-12.034-2.416-16.42-6.802-6.802-10.218-6.802-16.42c0-6.159 2.386-11.949 6.714-16.324.031-.031.064-.059.095-.09l43.581-43.581c4.51-4.434 10.389-6.658 16.274-6.658 5.946 0 11.894 2.264 16.42 6.791 9.054 9.055 9.054 23.787 0 32.842zm56.33 30.567c-4.386 4.386-10.218 6.802-16.421 6.802s-12.034-2.416-16.42-6.802-6.802-10.218-6.802-16.42c0-6.203 2.416-12.035 6.802-16.421l22.872-22.872c4.527-4.527 10.474-6.791 16.421-6.791s11.894 2.264 16.421 6.791c9.054 9.054 9.054 23.787 0 32.841zm46.896 1.152c-8.028 8.028-20.511 8.922-29.551 2.715l16.133-16.133c6.173-6.173 9.781-13.95 10.84-22.001l2.578 2.578c9.055 9.055 9.055 23.787 0 32.841z"/></g></g></svg>