<svg id="Capa_1" enable-background="new 0 0 512 512" height="512" viewBox="0 0 512 512" width="512" xmlns="http://www.w3.org/2000/svg"><g><g><g><path d="m385.014 147.183s-43.569 44.803-36.154 115.546c5.187 49.481 25.198 81.317 38.803 97.725 4.872 5.875 1.855 14.789-5.591 16.484-32.382 7.371-84.539 36.063-103.619 111.816-2.196 8.72-8.465 15.746-17.467 15.746h-10.093c-8.938 0-15.138-6.979-17.353-15.628-19.088-74.538-71.524-104.195-103.831-111.801-7.395-1.741-10.359-10.624-5.503-16.462 13.608-16.362 33.729-48.243 38.933-97.881 7.415-70.742-36.154-115.546-36.154-115.546l129.015 13.027z" fill="#ff82d1"/><g><path d="m387.664 360.453c-13.605-16.408-33.616-48.244-38.803-97.725-7.415-70.742 36.154-115.546 36.154-115.546l-43.829 4.425c-10.463 12.918-38.378 53.375-32.325 111.12 5.187 49.481 25.198 81.317 38.803 97.725 4.872 5.875 1.855 14.789-5.591 16.484-32.382 7.371-84.539 36.063-103.619 111.816-.564 2.238-1.4 4.361-2.478 6.286 3.102 5.569 8.246 9.46 14.918 9.46h10.093c9.002 0 15.271-7.026 17.467-15.746 19.08-75.754 71.237-104.445 103.619-111.816 7.446-1.694 10.462-10.608 5.591-16.483z" fill="#fa6bc5"/></g><g><path d="m207.858 431.292c9.092 15.464 19.392 31.173 25.717 57.48 2.096 8.718 8.386 15.728 17.363 15.728h10.086c9.005 0 14.773-7.19 17.373-15.801 6.854-22.699 16.319-42.277 25.138-57.76-24.619-14.131-71.158-14.013-95.677.353z" fill="#fcb3e1"/></g><path d="m271.649 421.36c-14.286 20.313-26.399 44.64-33.253 67.339-.649 2.151-1.497 4.213-2.542 6.097 3.066 5.708 8.308 9.705 15.084 9.705h10.086c9.005 0 14.773-7.19 17.373-15.801 6.854-22.699 16.319-42.277 25.138-57.76-8.584-4.928-19.835-8.117-31.886-9.58z" fill="#ffa3de"/></g><g><path d="m256 160.209s78.914-30.681 107.533-105.917c.665-1.747 2.794-2.418 4.341-1.368.02.013.039.027.059.04 53.696 36.559 29.107 120.796-35.827 123.002-22.384.761-48.697-2.77-76.106-15.757z" fill="#fcb3e1"/><path d="m367.933 52.965c-.02-.013-.04-.027-.059-.04-1.546-1.05-3.676-.379-4.341 1.368-3.472 9.128-7.69 17.595-12.412 25.437 17.462 37.094-3.221 85.849-47.007 94.825 9.819 1.334 19.211 1.712 27.992 1.413 64.934-2.207 89.522-86.444 35.827-123.003z" fill="#ffa3de"/><path d="m256 160.209s-84.14-34.933-107.688-105.863c-.579-1.743-2.667-2.454-4.186-1.422-.02.013-.039.027-.059.04-53.696 36.559-29.107 120.796 35.827 123.002 22.384.761 48.697-2.77 76.106-15.757z" fill="#fcb3e1"/></g><path d="m221.727 152.82c0-10.157 8.163-18.391 18.232-18.391 6.93 0 12.957 3.9 16.041 9.643 3.084-5.743 9.111-9.643 16.041-9.643 10.069 0 18.232 8.234 18.232 18.391 0 25.519-34.273 39.692-34.273 39.692s-34.273-14.743-34.273-39.692z" fill="#ff475e"/></g><g><path d="m401.744 129.314c9.165-31.645-2.431-64.028-29.542-82.515v-39.299c0-4.142-3.358-7.5-7.5-7.5s-7.5 3.358-7.5 7.5v38.358c-49.702 20.204-78.732 55.772-94.566 82.858-2.392.944-4.629 2.244-6.637 3.854-2.007-1.61-4.245-2.91-6.636-3.854-16.009-27.405-45.02-62.703-94.503-82.833v-38.383c0-4.142-3.358-7.5-7.5-7.5s-7.5 3.358-7.5 7.5v39.256c-.005.003-.009.006-.014.01-27.146 18.482-38.761 50.885-29.591 82.549 3.635 12.551 10.083 23.459 18.586 32.135 11.448 15.935 31.926 51.966 26.839 100.498-4.866 46.424-22.938 76.669-37.24 93.867-8.336 10.024-2.958 25.612 9.551 28.557 55.744 13.124 87.32 63.548 98.284 106.361 2.958 11.55 12.126 21.268 24.618 21.268h10.129c13.411 0 21.921-10.68 25.031-22.697 7.647-24.711 18.272-49.386 36.078-68.494 2.824-3.031 2.657-7.776-.374-10.6-3.03-2.823-7.776-2.656-10.6.374-3.283 3.523-6.401 7.21-9.354 11.058-25.887-11.786-66.339-11.661-92.136.265-22.887-29.498-52.431-46.059-78.239-52.135-2.117-.909-2.602-2.364-1.456-4.365 15.63-18.795 35.367-51.729 40.625-101.895 3.655-34.864-4.368-63.599-13.999-84.368 21.334 7.562 46.705 4.973 68.308-.108 11.13 12.912 27.103 19.925 28.129 20.367 1.94.8 3.884.814 5.83.041 1.035-.428 17.252-7.282 28.419-20.363 21.571 5.047 46.822 7.611 68.115.063-9.631 20.769-17.653 49.504-13.999 84.368 5.247 50.051 24.914 82.947 40.489 101.731 1.154 2.021.66 3.482-1.483 4.383-9.058 2.063-23.125 6.513-38.7 16.001-8.008 4.878-.592 17.928 7.804 12.81 13.849-8.437 26.256-12.371 34.226-14.185 12.585-2.864 18.059-18.503 9.7-28.583-14.253-17.189-32.262-47.401-37.118-93.72-5.087-48.533 15.392-84.563 26.84-100.498 8.503-8.678 14.951-19.586 18.586-32.137zm-108.647 304.908c-9.36 15.026-16.549 32.079-21.476 50.984-1.56 5.068-4.304 11.794-10.634 11.794h-10.049c-5.514 0-8.913-5.165-10.071-9.982-3.196-13.294-7.403-24.068-11.91-33.379-3.195-6.846-6.713-13.244-10.495-19.209 21.007-8.587 53.565-8.684 74.635-.208zm57.404-368.89c-15.758 31.493-40.602 53.712-61.486 68.045-2.472-2.188-5.362-3.906-8.534-5.017 13.833-21.233 35.987-46.064 70.02-63.028zm-170.352 103.139c-25.993-.884-48.28-18.452-55.486-43.33-5.451-18.823-3.065-44.425 18.733-62.321 3.225 8.299 7.354 16.45 12.332 24.33 5.013 7.935 17.922.286 12.682-8.011-2.948-4.667-5.56-9.432-7.823-14.262 34.457 16.916 56.881 41.885 70.936 63.48-3.114 1.09-5.957 2.766-8.399 4.896-11.488-7.764-21.887-16.187-30.977-25.097-6.702-6.57-17.508 3.843-10.5 10.712 9.846 9.651 21.092 18.747 33.496 27.096-1.702 6.232-.823 13.564 1.457 19.531-11.897 2.395-24.118 3.395-36.451 2.976zm75.918 15.722c-11.515-6.031-26.84-16.717-26.84-31.374 0-6.005 4.814-10.891 10.732-10.891 3.889 0 7.576 2.233 9.434 5.692 2.78 5.175 10.435 5.175 13.215 0 1.885-3.511 5.5-5.692 9.434-5.692 5.917 0 10.732 4.886 10.732 10.891-.001 14.782-14.941 25.435-26.707 31.374zm111.841-29.047c-9.944 8.253-22.412 12.861-36.057 13.325-12.307.418-24.505-.577-36.38-2.962 2.199-5.91 3.071-13.193 1.437-19.358 24.619-16.79 54.587-43.913 71.384-83.586 22.088 17.907 24.522 43.663 19.045 62.576-3.277 11.312-10.317 22.441-19.429 30.005z"/><path d="m184.528 339.811c3.59 1.405 8.298-.623 9.718-4.25 1.127-2.879 2.208-5.824 3.211-8.754 1.342-3.918-.747-8.183-4.666-9.525-3.918-1.34-8.183.748-9.525 4.666-.933 2.726-1.938 5.466-2.987 8.145-1.511 3.856.391 8.207 4.249 9.718z"/><path d="m209.338 256.715c.03-3.099-.001-6.198-.093-9.296-.123-4.14-3.576-7.402-7.719-7.274-4.14.123-7.397 3.579-7.274 7.719.086 2.9.115 5.801.087 8.702-.042 4.142 3.283 7.533 7.425 7.574h.076c4.107 0 7.457-3.309 7.498-7.425z"/><path d="m178.056 353.363c-3.592-2.061-8.176-.819-10.237 2.774-1.443 2.515-2.949 5.005-4.477 7.401-2.227 3.492-1.201 8.129 2.291 10.356 3.352 2.137 8.23 1.044 10.356-2.292 1.653-2.592 3.282-5.285 4.841-8.003 2.061-3.592.819-8.175-2.774-10.236z"/><path d="m198.965 225.291c.382 0 .77-.029 1.16-.09 4.093-.635 6.896-4.468 6.261-8.562-.47-3.029-1.002-6.1-1.582-9.127-.779-4.068-4.71-6.738-8.777-5.956-4.068.779-6.734 4.708-5.956 8.777.547 2.855 1.049 5.751 1.492 8.607.575 3.704 3.767 6.351 7.402 6.351z"/><path d="m205.398 296.799c.578-3.04 1.098-6.13 1.546-9.185.602-4.098-2.232-7.908-6.331-8.51-4.097-.604-7.908 2.233-8.51 6.331-.418 2.848-.903 5.729-1.442 8.563-.773 4.069 1.899 7.995 5.968 8.768 3.712.706 8.062-2.245 8.769-5.967z"/><path d="m313.252 223.918c3.617 0 6.803-2.624 7.396-6.31.458-2.845.975-5.739 1.539-8.602.8-4.064-1.847-8.007-5.911-8.807-4.059-.796-8.007 1.846-8.807 5.911-.597 3.033-1.146 6.1-1.63 9.116-.658 4.089 2.124 7.938 6.214 8.596.403.065.803.096 1.199.096z"/><path d="m331.237 328.844c-1.029-2.682-2.016-5.429-2.934-8.167-1.316-3.927-5.567-6.045-9.495-4.727-3.927 1.317-6.043 5.568-4.727 9.495.986 2.94 2.046 5.892 3.152 8.772 1.394 3.633 6.093 5.696 9.689 4.315 3.868-1.483 5.8-5.821 4.315-9.688z"/><path d="m302.802 245.985c-.11 3.095-.154 6.194-.149 9.292.015 4.133 3.37 7.474 7.5 7.474h.027c4.142-.015 7.488-3.384 7.474-7.526-.005-2.902.036-5.805.139-8.706.147-4.14-3.089-7.615-7.229-7.762-4.124-.148-7.615 3.089-7.762 7.228z"/><path d="m306.338 295.386c.682 3.721 5.015 6.707 8.729 6.024 4.074-.747 6.771-4.655 6.024-8.729-.519-2.832-.985-5.716-1.386-8.572-.575-4.102-4.367-6.96-8.469-6.386-4.102.575-6.961 4.367-6.386 8.469.431 3.063.931 6.157 1.488 9.194z"/><path d="m345.575 372.747c3.509-2.201 4.569-6.83 2.368-10.339-1.425-2.271-2.828-4.622-4.172-6.991l-.247-.437c-2.031-3.61-6.606-4.888-10.214-2.857-3.61 2.032-4.889 6.605-2.857 10.214l.275.487c1.451 2.556 2.967 5.097 4.508 7.554 2.101 3.35 6.976 4.478 10.339 2.369z"/></g></g></svg>