<svg id="Capa_1" enable-background="new 0 0 512 512" height="512" viewBox="0 0 512 512" width="512" xmlns="http://www.w3.org/2000/svg"><g><path d="m429.182 287.725c-1.439-4.885-6.323-7.914-11.335-7.019l-111.282 19.705c-33.593 5.441-67.659 5.441-101.252 0l-111.28-19.705c-5.032-.9-9.926 2.154-11.348 7.063-2.357 8.132-9.425 35.697-1.397 49.026.021.034.041.067.062.101 6.998 11.548 17.945 20.185 30.828 24.323 45.527 14.626 91.624 68.232 109.886 111.607l13.916 33.054c1.562 3.709 5.193 6.12 9.217 6.12h21.488c4.023 0 7.655-2.411 9.217-6.12l13.916-33.054c18.261-43.375 64.356-96.98 109.886-111.607 12.892-4.142 23.845-12.788 30.804-24.284l.015-.025c.023-.037.055-.089.08-.132.012-.019.023-.037.034-.057l.196-.329c.024-.039.048-.079.071-.12 7.783-13.227.651-40.502-1.722-48.547zm-15.506 38.387-.207.348c-.015.023-.028.047-.043.07-4.5 7.426-11.546 12.982-19.84 15.647-30.328 9.743-56.345 32.405-72.829 49.701-21.128 22.168-39.124 48.844-49.373 73.188l-11.339 26.934h-8.209l-11.339-26.935c-10.25-24.343-28.245-51.018-49.373-73.186-16.484-17.296-42.501-39.958-72.829-49.701-8.301-2.667-15.351-8.229-19.83-15.629-.019-.03-.039-.064-.062-.101-1.653-2.804-.941-13.437 1.347-24.419l102.147 18.088c.047.009.095.017.142.024 35.766 5.802 72.036 5.802 107.802 0 .047-.008.095-.016.143-.024l102.19-18.096c2.305 10.805 3.079 21.273 1.502 24.091z"/><path d="m156.632 248.553c8.403 2.238 16.941 3.345 25.429 3.345 16.591 0 32.993-4.23 47.824-12.515.055-.03.11-.06.165-.091 3.592-2.02 7.053-4.255 10.269-6.634 4.635-3.412 10.011-5.216 15.549-5.216h.266c5.538 0 10.914 1.804 15.531 5.203 3.233 2.392 6.694 4.627 10.286 6.647.053.03.107.059.161.088 14.833 8.286 31.235 12.517 47.828 12.517 8.487 0 17.025-1.108 25.427-3.344 25.375-6.752 46.599-22.977 59.763-45.688 13.163-22.709 16.691-49.186 9.94-74.538l-.285-1.04c-.01-.037-.02-.075-.03-.112l-23.137-83.45v-33.725c0-5.523-4.478-10-10-10-5.523 0-10 4.477-10 10v32.139c-25.442 39.816-59.974 74.068-100.063 99.152-.003.002-.006.003-.009.005-8.224 5.147-16.797 9.981-25.544 14.404-8.747-4.423-17.32-9.257-25.544-14.404-.003-.002-.006-.004-.009-.006-40.076-25.076-74.624-59.303-100.065-99.105v-32.185c0-5.523-4.477-10-10-10-5.522 0-10 4.477-10 10v33.734l-23.134 83.441c-.01.037-.021.075-.03.112l-.282 1.026c-6.756 25.366-3.228 51.843 9.936 74.552 13.161 22.712 34.385 38.937 59.758 45.688zm138.936-92.467c35.794-23.004 67.303-52.909 92.212-87.405l17.699 63.839.259.941c5.38 20.203 2.57 41.29-7.913 59.376-10.484 18.088-27.39 31.011-47.604 36.39-18.466 4.916-37.752 2.981-54.768-5.419l-8.499-33.634zm-43.945 19.77c2.764 1.346 5.99 1.346 8.754 0 3.688-1.795 7.352-3.661 10.98-5.591l-4.412 17.458c-.406 1.608-.406 3.292 0 4.9l4.406 17.435c-4.869-1.727-9.994-2.616-15.219-2.616h-.266c-5.225 0-10.348.889-15.219 2.617l4.406-17.436c.406-1.608.406-3.292 0-4.9l-4.412-17.458c3.63 1.93 7.294 3.796 10.982 5.591zm-145.358-42.409 17.955-64.767c24.91 34.496 56.418 64.403 92.21 87.405l8.614 34.088-8.499 33.635c-17.014 8.4-36.3 10.336-54.769 5.417-20.212-5.378-37.117-18.301-47.602-36.389-10.483-18.085-13.292-39.172-7.909-59.389z"/></g></svg>