<svg enable-background="new 0 0 512 512" height="512" viewBox="0 0 512 512" width="512" xmlns="http://www.w3.org/2000/svg"><g id="_x36_1_Loyalty"><g><g><path d="m494.276 244.659c-18.479-15.215-45.765-14.543-63.467 1.593l-60.12 54.782c-8.559-11.745-22.118-18.901-37.13-18.901h-63.643c-8.021 0-15.785-1.375-23.072-4.077-17.972-6.662-53.431-15.652-89.163-.898-6.803 2.812-13.59 7.014-20.178 12.512l-62.237 51.991c-9.674-5.698-22.324-4.484-30.616 3.814l-28.441 28.437c-9.86 9.852-9.867 25.826 0 35.685l94.946 94.95c9.824 9.832 25.839 9.831 35.685 0l28.437-28.445c9.841-9.841 9.841-25.844 0-35.685l-1.005-1.005 6.96-6.962c12.946-12.942 30.371-19.76 47.909-18.573 44.453 2.902 133.677.231 165.165-31.28l101.714-101.714c10.209-10.2 9.412-27.024-1.744-36.224zm-330.307 220.135-28.434 28.437c-3.608 3.601-9.474 3.593-13.075.008l-94.943-94.95s0 0-.004-.008c-3.59-3.574-3.623-9.424.004-13.059l28.441-28.437c3.616-3.608 9.454-3.604 13.067 0 2.926 2.926 96.511 96.511 94.943 94.943 3.61 3.616 3.613 9.445.001 13.066zm320.743-195.22-101.714 101.714c-27.404 27.404-114.72 29.108-152.817 26.625-22.088-1.382-44.058 7.029-60.257 23.228l-6.961 6.961c-103.279-104.017-67.658-68.141-75.364-75.902l60.155-50.252c5.334-4.452 10.728-7.818 16.031-10.005 30.675-12.661 61.717-4.741 77.49 1.109 9.076 3.366 18.714 5.077 28.641 5.077h63.643c16.774 0 29.967 13.654 29.836 29.992-.035 5.014-4.221 9.099-9.329 9.099h-143.044c-4.417 0-7.998 3.577-7.998 7.998s3.581 7.998 7.998 7.998h143.042c13.867 0 25.227-11.208 25.325-24.977.031-4.132-.484-8.185-1.531-12.098l63.721-58.062c11.852-10.817 30.128-11.27 42.527-1.054 3.896 3.201 4.141 9.007.606 12.549z"/><path d="m256.764 162.627c2.765 2.687 4.022 6.561 3.37 10.364l-4.229 24.657c-3.865 22.534 19.806 39.922 40.219 29.179l22.076-11.637c3.425-1.796 7.506-1.796 10.923 0l21.998 11.622c20.307 10.739 44.085-6.512 40.247-29.117l-4.194-24.72c-.64-3.796.617-7.654 3.37-10.341l17.811-17.37c16.422-16.017 7.354-43.931-15.343-47.237l-24.696-3.601c-3.811-.562-7.104-2.952-8.806-6.412l-11.036-22.377c-10.159-20.607-39.508-20.574-49.666-.039l-11.108 22.44c-1.707 3.444-4.995 5.827-8.798 6.381l-24.657 3.601c-22.708 3.307-31.769 31.259-15.312 47.26zm-.207-48.783 24.649-3.601c9.001-1.304 16.788-6.951 20.826-15.113l11.106-22.439c4.299-8.681 16.688-8.691 20.986.023l11.036 22.377c4.026 8.177 11.821 13.84 20.846 15.16l24.696 3.601c9.607 1.416 13.444 13.176 6.483 19.963l-17.808 17.37c-6.514 6.35-9.497 15.496-7.974 24.462l4.194 24.72c1.626 9.591-8.393 16.823-17.003 12.309l-22.002-11.622c-8.088-4.28-17.757-4.288-25.852-.016l-22.076 11.637c-8.618 4.543-18.639-2.753-16.991-12.325l4.229-24.657c1.543-9.005-1.445-18.175-7.99-24.532l-17.827-17.347c-6.975-6.792-3.142-18.555 6.472-19.97z"/><path d="m323.628 27.594c4.417 0 7.998-3.577 7.998-7.998v-11.52c0-4.421-3.581-7.998-7.998-7.998s-7.998 3.577-7.998 7.998v11.52c0 4.421 3.581 7.998 7.998 7.998z"/><path d="m256.44 39.739c2.226 3.864 7.143 5.112 10.923 2.929 3.827-2.21 5.135-7.1 2.925-10.927l-5.76-9.974c-2.206-3.835-7.107-5.147-10.923-2.929-3.827 2.21-5.135 7.1-2.925 10.927z"/><path d="m205.27 81.033 9.974 5.756c3.833 2.206 8.722.888 10.927-2.929 2.206-3.827.894-8.716-2.929-10.927l-9.974-5.756c-3.839-2.218-8.724-.89-10.927 2.929-2.206 3.827-.894 8.716 2.929 10.927z"/><path d="m191.579 148.123h11.516c4.417 0 7.998-3.577 7.998-7.998s-3.581-7.998-7.998-7.998h-11.516c-4.417 0-7.998 3.577-7.998 7.998s3.581 7.998 7.998 7.998z"/><path d="m436.167 140.126c0 4.421 3.581 7.998 7.998 7.998h11.516c4.417 0 7.998-3.577 7.998-7.998s-3.581-7.998-7.998-7.998h-11.516c-4.417 0-7.998 3.577-7.998 7.998z"/><path d="m432.016 86.789 9.974-5.756c3.823-2.21 5.135-7.1 2.929-10.927-2.214-3.819-7.1-5.147-10.927-2.929l-9.974 5.756c-3.823 2.21-5.135 7.1-2.929 10.927 2.215 3.823 7.099 5.133 10.927 2.929z"/><path d="m379.898 42.668c3.786 2.187 8.7.929 10.923-2.929l5.76-9.974c2.21-3.827.902-8.716-2.925-10.927-3.827-2.218-8.72-.906-10.923 2.929l-5.76 9.974c-2.211 3.828-.902 8.717 2.925 10.927z"/></g></g></g></svg>