<?xml version="1.0" encoding="UTF-8"?>
<svg xmlns="http://www.w3.org/2000/svg" id="Layer_1" data-name="Layer 1" viewBox="0 0 64 64" width="512" height="512"><path d="M26.013,27.862A14.99,14.99,0,0,1,24,28a.87.87,0,0,1-.113-.023c-.3.007-.582.023-.887.023a.981.981,0,0,1-.223-.045A7.01,7.01,0,0,1,22,28a1,1,0,0,1,0-2c6.011,0,6.994-10.973,7-11.083A.986.986,0,0,1,30.083,14,1,1,0,0,1,31,15.083c-.032.379-.62,6.888-3.857,10.518,7.98-2.128,8.828-12.2,8.864-12.673A1,1,0,0,1,38,13.071c-.007.1-.526,6.451-4.457,10.837A14.91,14.91,0,0,0,42,11a8.7,8.7,0,0,0-9-9,9.01,9.01,0,0,0-9,9c0,1.382-.123,13.593-4.4,16.8a1,1,0,0,1-1.2-1.6C21.354,23.985,22,14.477,22,11A11.013,11.013,0,0,1,33,0,10.639,10.639,0,0,1,44,11C44,11.161,43.77,26.312,26.013,27.862Z"/><path d="M56,24a1,1,0,0,1-1-1V22a1,1,0,0,1,2,0v1A1,1,0,0,1,56,24Zm-1,1a1,1,0,0,0-1-1H53a1,1,0,0,0,0,2h1A1,1,0,0,0,55,25Zm2,3V27a1,1,0,0,0-2,0v1a1,1,0,0,0,2,0Zm3-3a1,1,0,0,0-1-1H58a1,1,0,0,0,0,2h1A1,1,0,0,0,60,25ZM9,30V29a1,1,0,0,0-2,0v1a1,1,0,0,0,2,0ZM7,32a1,1,0,0,0-1-1H5a1,1,0,0,0,0,2H6A1,1,0,0,0,7,32Zm2,3V34a1,1,0,0,0-2,0v1a1,1,0,0,0,2,0Zm3-3a1,1,0,0,0-1-1H10a1,1,0,0,0,0,2h1A1,1,0,0,0,12,32Zm3-14V16a1,1,0,0,0-2,0v2a1,1,0,0,0,2,0Zm-2,2a1,1,0,0,0-1-1H10a1,1,0,0,0,0,2h2A1,1,0,0,0,13,20Zm2,4V22a1,1,0,0,0-2,0v2a1,1,0,0,0,2,0Zm4-4a1,1,0,0,0-1-1H16a1,1,0,0,0,0,2h2A1,1,0,0,0,19,20Z"/><path d="M47.814,41.581a34.079,34.079,0,0,0-1.885,3.1.974.974,0,0,1,.067.227c.01.111,1,11.126,1,18.091a1,1,0,0,1-2,0c0-4.588-.439-10.976-.734-14.753A16.38,16.38,0,0,0,43,54a31.108,31.108,0,0,0,.949,8.686,1,1,0,0,1-1.9.63A32.128,32.128,0,0,1,41,54c0-6.249,4.975-13.285,5.187-13.581a1,1,0,0,1,1.627,1.162Zm-28-1.162a1,1,0,0,0-1.627,1.162,34.079,34.079,0,0,1,1.885,3.1.974.974,0,0,0-.067.227c-.01.111-1,11.126-1,18.091a1,1,0,0,0,2,0c0-4.588.439-10.976.734-14.753A16.38,16.38,0,0,1,23,54a31.144,31.144,0,0,1-.948,8.684,1,1,0,1,0,1.9.632A32.128,32.128,0,0,0,25,54C25,47.751,20.025,40.715,19.813,40.419Zm33.5,23.529a1,1,0,0,0,.632-1.264C53.516,61.386,53,55.355,53,34c0-7.388-4.73-8-10-8a7.94,7.94,0,0,1-4.084-.846,1,1,0,1,0-1.066,1.692A9.7,9.7,0,0,0,43,28c5.9,0,8,.906,8,6,0,17.849.334,27.164,1.052,29.316a1,1,0,0,0,1.264.632Zm-39.368-.632C14.666,61.164,15,51.849,15,34c0-5.094,2.1-6,8-6a1,1,0,0,0,0-2c-5.27,0-10,.612-10,8,0,21.355-.516,27.386-.948,28.684a1,1,0,1,0,1.9.632Z"/></svg>
