<?xml version="1.0" encoding="iso-8859-1"?>
<!-- Generator: Adobe Illustrator 19.0.0, SVG Export Plug-In . SVG Version: 6.00 Build 0)  -->
<svg version="1.1" id="Capa_1" xmlns="http://www.w3.org/2000/svg" xmlns:xlink="http://www.w3.org/1999/xlink" x="0px" y="0px"
	 viewBox="0 0 512.001 512.001" style="enable-background:new 0 0 512.001 512.001;" xml:space="preserve">
<g>
	<g>
		<path d="M404.464,504.028l-2.383-37.723c-0.918-14.497-6.124-28.202-15.055-39.636c-2.551-3.265-7.263-3.846-10.528-1.293
			c-3.264,2.55-3.843,7.263-1.293,10.527c7.063,9.041,11.179,19.882,11.906,31.347L388.988,497H123.013l1.877-29.746
			c0.964-15.203,7.803-29.101,19.256-39.134c6.791-5.946,15.013-10.23,23.78-12.393l40.505-10.011
			c5.386-1.333,9.148-6.133,9.148-11.671v-28.902c12.991,5.212,26.306,8.031,38.422,8.031c11.953,0,25.108-2.754,37.962-7.848
			v28.599c0,5.546,3.758,10.349,9.142,11.682l40.981,10.122c3.479,0.855,6.909,2.058,10.195,3.575
			c1.018,0.471,2.087,0.693,3.14,0.693c2.834,0,5.547-1.615,6.814-4.357c1.736-3.761,0.096-8.217-3.665-9.953
			c-4.154-1.919-8.496-3.441-12.896-4.522l-38.71-9.562v-33.383c22.201-12.322,40.546-30.886,51.958-52.701
			c1.92-3.67,0.501-8.202-3.169-10.122c-3.672-1.923-8.202-0.502-10.122,3.169c-10.676,20.409-28.282,37.626-49.574,48.478
			c-14.076,7.178-29.011,11.131-42.055,11.131c-13.204,0-28.29-4.032-42.491-11.358c-20.614-10.604-37.822-27.284-48.454-46.968
			c-1.968-3.645-6.517-5.003-10.163-3.034c-3.645,1.969-5.003,6.519-3.034,10.163c11.346,21.006,29.254,38.967,50.721,50.986v33.748
			l-38.248,9.452c-11.081,2.732-21.479,8.15-30.067,15.672c-14.48,12.684-23.125,30.252-24.344,49.471l-2.38,37.722
			c-0.131,2.067,0.6,4.097,2.017,5.606s3.396,2.366,5.468,2.366h281.952c2.071,0,4.05-0.856,5.468-2.366
			C403.865,508.124,404.595,506.095,404.464,504.028z"/>
	</g>
</g>
<g>
	<g>
		<path d="M476.765,117.484c-4.142,0-7.5,3.357-7.5,7.5v153.827c0,52.609-55.661,79.299-88.841,90.526
			c-17.64,5.971-26.648,2.801-28.398-0.788c-1.042-2.135,0.297-4.986,3.257-6.933c12.776-8.4,64.39-47.692,64.39-72.422
			c0-11.17-1.064-21.889-1.957-28.913c-0.509-4.005-2.917-7.57-6.443-9.537c-3.531-1.972-7.835-2.146-11.516-0.474l-40.048,18.199
			c-2.875,1.307-6.213,0.593-8.301-1.776c-1.305-1.48-1.928-3.378-1.755-5.342c0.173-1.965,1.118-3.724,2.662-4.954
			c7.144-5.692,13.133-10.193,18.157-13.77c0.058-0.043,0.12-0.082,0.176-0.126c11.899-8.456,18.291-11.638,21.413-12.83
			c0.148-0.051,0.295-0.102,0.439-0.162c1.436-0.514,2.051-0.553,2.135-0.556h24.56c4.142,0,7.5-3.357,7.5-7.5v-92.204
			c0-4.143-3.358-7.5-7.5-7.5c-4.142,0-7.5,3.357-7.5,7.5v84.703h-11.953c2.057-8.797,3.863-20.076,3.344-31.34
			c-0.734-15.947-6.102-28.05-15.594-35.312c-0.809-26.493-7.739-47.999-20.626-63.972c-9.187-11.387-21.125-19.706-35.515-24.796
			c-4.654-24.05-23.764-45.442-48.925-54.18C260.745-3.176,216.11-7.42,160.754,48.758c-2.907,2.95-2.872,7.698,0.078,10.605
			c2.95,2.908,7.699,2.873,10.606-0.078c49.567-50.302,87.729-47.129,106.064-40.763c5.227,1.815,9.933,4.218,14.131,7.025
			c-4.808-0.153-9.693,0.26-14.494,1.268c-15.373,3.234-30.235,11.771-45.438,26.101c-3.014,2.841-3.155,7.588-0.314,10.603
			c1.476,1.565,3.465,2.355,5.459,2.355c1.845,0,3.694-0.677,5.143-2.042c13.137-12.382,25.645-19.689,38.236-22.338
			c10.821-2.272,22.055-0.591,30.447,4.477c3.678,6.461,5.849,13.116,6.506,19.09c0.245,2.17,0.308,4.297,0.186,6.33
			c-0.163,2.781-0.663,5.602-1.499,8.459c-2.63,8.988-8.589,18.345-17.815,28.006c-7.443,7.795-16.164,14.922-24.861,21.221
			c-0.002,0.002-0.004,0.004-0.007,0.006c-17.749,12.87-40.51,25.85-67.653,38.581c-26.159,12.281-48.913,34.887-60.286,59.267
			c-10.468-7.1-17.015-10.314-21.243-11.771c-3.997-37.083-1.666-88.587,28.829-133.283c2.334-3.421,1.453-8.087-1.968-10.422
			c-3.422-2.335-8.088-1.453-10.422,1.969c-32.27,47.296-35.49,101.095-31.644,140.527h-8.488v-84.703c0-4.143-3.358-7.5-7.5-7.5
			c-4.142,0-7.5,3.357-7.5,7.5v92.204c0,4.143,3.358,7.5,7.5,7.5h24.553c0.274,0.007,5.904,0.371,26.737,15.522
			c0.079,0.06,0.159,0.118,0.24,0.175c4.414,3.216,9.49,7.076,15.352,11.747c1.543,1.229,2.489,2.988,2.662,4.953
			c0.173,1.964-0.45,3.861-1.755,5.342c-2.088,2.369-5.426,3.083-8.301,1.776l-40.048-18.199c-3.682-1.672-7.986-1.496-11.517,0.474
			c-3.526,1.967-5.935,5.532-6.443,9.537c-0.893,7.024-1.957,17.743-1.957,28.913c0,24.73,51.613,64.022,64.39,72.422
			c2.96,1.946,4.299,4.798,3.257,6.933c-1.751,3.587-10.759,6.757-28.399,0.788c-33.179-11.227-88.84-37.917-88.84-90.526V124.986
			c0-4.143-3.358-7.5-7.5-7.5c-4.142,0-7.5,3.357-7.5,7.5v153.826c0,26.975,11.861,50.702,35.256,70.522
			c20.52,17.386,46.008,28.201,63.776,34.214c8.543,2.891,15.869,4.112,22.047,4.112c13.308-0.001,21.293-5.669,24.641-12.53
			c4.379-8.975,0.807-19.929-8.496-26.046c-9.033-5.939-23.828-17.547-36.52-30.086c-15.565-15.381-21.111-25.48-21.111-29.802
			c0-8.91,0.735-17.567,1.473-24.012l37.286,16.943c8.923,4.053,19.277,1.84,25.76-5.515c4.048-4.592,5.981-10.479,5.445-16.576
			c-0.537-6.097-3.469-11.555-8.257-15.37c-4.111-3.276-7.872-6.182-11.352-8.796c9.373-22.013,30.527-43.5,54.218-54.622
			c26.388-12.376,48.85-25.048,66.843-37.703c50.825,18.747,69.071,57.051,78.633,90.046c-4.293,3.161-9.065,6.813-14.415,11.075
			c-4.788,3.815-7.721,9.273-8.257,15.371c-0.537,6.097,1.397,11.983,5.445,16.576c6.481,7.354,16.834,9.567,25.76,5.515
			l37.284-16.943c0.738,6.444,1.473,15.103,1.473,24.012c0,4.322-5.546,14.422-21.111,29.802
			c-12.691,12.54-27.486,24.147-36.52,30.086c-9.303,6.117-12.875,17.071-8.496,26.046c3.349,6.862,11.331,12.531,24.641,12.531
			c6.178,0,13.506-1.222,22.047-4.112c17.769-6.013,43.257-16.829,63.777-34.214c23.395-19.819,35.256-43.547,35.256-70.522V124.987
			C484.265,120.842,480.907,117.484,476.765,117.484z M292.728,132.994c18.074-14.745,36.746-34.863,39.38-58.02
			c26.932,12.211,36.773,37.497,39.545,61.273l-2.908-2.048c-3.387-2.385-8.066-1.573-10.451,1.813
			c-2.385,3.387-1.574,8.065,1.812,10.451l15.642,11.019c0.085,0.06,0.177,0.1,0.263,0.156c0.103,0.066,0.197,0.142,0.304,0.203
			c15.357,8.867,13.594,36.688,7.131,59.202c-3.335,1.57-7.614,3.95-13.119,7.523C360.466,193.026,341.092,154.25,292.728,132.994z"
			/>
	</g>
</g>
<g>
</g>
<g>
</g>
<g>
</g>
<g>
</g>
<g>
</g>
<g>
</g>
<g>
</g>
<g>
</g>
<g>
</g>
<g>
</g>
<g>
</g>
<g>
</g>
<g>
</g>
<g>
</g>
<g>
</g>
</svg>
