<svg enable-background="new 0 0 512 512" height="512" viewBox="0 0 512 512" width="512" xmlns="http://www.w3.org/2000/svg"><g id="_x31_5_Newspaper"><g><path d="m69.11 488.399c.097.292.202.563.34.833.204.398.451.749.733 1.087.182.218.346.432.556.623.354.321.753.562 1.173.79.219.119.408.267.642.359.683.267 1.408.439 2.172.439h.003.001 415.206c10.956 0 19.871-8.915 19.871-19.871v-367.825c0-10.956-8.915-19.871-19.871-19.871h-15.244l-4.135-47.346c-1.113-12.753-13.807-21.132-25.992-17.147l-196.616 64.493h-159.344c-10.956 0-19.871 8.915-19.871 19.871v38.899l-52.85 17.335c-9.719 3.185-15.402 13.123-13.228 23.115l66.214 303.628c.047.214.172.385.24.588zm379.193-456.536c4.835-1.59 9.867 1.752 10.308 6.799l4.044 46.3h-176.238zm-359.698 65.09h401.33c4.344 0 7.881 3.536 7.881 7.881v367.825c0 4.344-3.536 7.881-7.881 7.881h-409.211c0-405.34-3.39-383.587 7.881-383.587zm-68.99 75.512h.004l49.114-16.113v274.553l-54.36-249.275c-.863-3.962 1.39-7.904 5.242-9.165z"/><path d="m216.99 208.613h31.214c3.31 0 5.995-2.685 5.995-5.995s-2.685-5.995-5.995-5.995h-25.219v-19.223h25.219c3.31 0 5.995-2.685 5.995-5.995s-2.685-5.995-5.995-5.995h-25.219v-19.219h25.219c3.31 0 5.995-2.685 5.995-5.995s-2.685-5.995-5.995-5.995h-31.214c-3.31 0-5.995 2.685-5.995 5.995v62.424c-.001 3.308 2.685 5.993 5.995 5.993z"/><path d="m287.377 204.737c.882 2.334 3.115 3.876 5.609 3.876s4.727-1.542 5.609-3.876l17.99-47.588 17.993 47.588c.882 2.334 3.115 3.876 5.609 3.876s4.727-1.542 5.609-3.876l23.599-62.424c1.171-3.095-.39-6.557-3.489-7.728-3.091-1.144-6.55.39-7.728 3.489l-17.99 47.592-17.994-47.592c-3.364-5.449-8.776-3.946-11.218 0l-17.99 47.588-17.99-47.588c-1.179-3.103-4.641-4.645-7.728-3.489-3.099 1.171-4.66 4.633-3.489 7.728z"/><path d="m145.287 208.582c3.31 0 5.995-2.685 5.995-5.995v-44.864l37.6 48.537c3.468 4.487 10.734 2.053 10.734-3.673v-62.393c0-3.31-2.685-5.995-5.995-5.995s-5.995 2.685-5.995 5.995v44.864l-37.6-48.537c-3.476-4.507-10.734-2.031-10.734 3.673v62.393c0 3.309 2.686 5.995 5.995 5.995z"/><path d="m413.49 196.622h-30.156c-3.31 0-5.995 2.685-5.995 5.995s2.685 5.995 5.995 5.995h30.156c11.909 0 21.6-9.692 21.6-21.6 0-11.913-9.692-21.604-21.6-21.604h-14.551c-5.301 0-9.61-4.309-9.61-9.61s4.309-9.61 9.61-9.61h30.156c3.31 0 5.995-2.685 5.995-5.995s-2.685-5.995-5.995-5.995h-30.156c-11.909 0-21.6 9.692-21.6 21.6 0 11.909 9.692 21.6 21.6 21.6h14.551c5.301 0 9.61 4.313 9.61 9.614s-4.309 9.61-9.61 9.61z"/><path d="m145.287 366.495h108.186c3.31 0 5.995-2.685 5.995-5.995v-108.186c0-3.31-2.685-5.995-5.995-5.995h-108.186c-3.31 0-5.995 2.685-5.995 5.995v108.186c0 3.309 2.686 5.995 5.995 5.995zm5.996-108.186h96.195v96.195h-96.195z"/><path d="m298.029 246.318c-3.31 0-5.995 2.685-5.995 5.995s2.685 5.995 5.995 5.995h136.461c3.31 0 5.995-2.685 5.995-5.995s-2.685-5.995-5.995-5.995z"/><path d="m434.49 283.317h-136.461c-3.31 0-5.995 2.685-5.995 5.995s2.685 5.995 5.995 5.995h136.461c3.31 0 5.995-2.685 5.995-5.995s-2.686-5.995-5.995-5.995z"/><path d="m434.49 320.316h-136.461c-3.31 0-5.995 2.685-5.995 5.995s2.685 5.995 5.995 5.995h136.461c3.31 0 5.995-2.685 5.995-5.995s-2.686-5.995-5.995-5.995z"/><path d="m434.49 357.311h-136.461c-3.31 0-5.995 2.685-5.995 5.995s2.685 5.995 5.995 5.995h136.461c3.31 0 5.995-2.685 5.995-5.995s-2.686-5.995-5.995-5.995z"/><path d="m434.49 394.309h-278.07c-3.31 0-5.995 2.685-5.995 5.995s2.685 5.995 5.995 5.995h278.07c3.31 0 5.995-2.685 5.995-5.995s-2.686-5.995-5.995-5.995z"/><path d="m434.49 431.304h-278.07c-3.31 0-5.995 2.685-5.995 5.995s2.685 5.995 5.995 5.995h278.07c3.31 0 5.995-2.685 5.995-5.995s-2.686-5.995-5.995-5.995z"/></g></g></svg>