<svg viewBox="0 0 48 48" xmlns="http://www.w3.org/2000/svg"><g id="Ijab_Qobul" data-name="Ijab Qobul"><path d="m33 36c2 2-1.08 4.92-3 3 2 2-1 5-3 3a2.09 2.09 0 1 1 -3 2.91l-1-1.11c1.3-1.2 2.09-1.68 2.09-2.86a2.12 2.12 0 0 0 -3.56-1.56 2.12 2.12 0 0 0 -3-3 2.12 2.12 0 0 0 -3-3 2.12 2.12 0 0 0 -3-3l-2.87 2.62h-4.66v-16h13.18a3 3 0 0 0 2.82 4h3l12 12c2 2-1 5-3 3z" fill="#ffdec7"/><path d="m11.83 31-2.17 2h-4.66v-16h2v9.17a4.83 4.83 0 0 0 4.83 4.83z" fill="#f6ccaf"/><path d="m41 17v16h-5l-12-12h-3a3 3 0 0 1 0-6c8 0 8.69-.31 10 1s2 1 10 1z" fill="#f6ccaf"/><path d="m34.17 28.17-7-7a7.24 7.24 0 0 0 -5.17-2.17 3 3 0 0 1 -3-3c0-.22.09-.33-.12-.12a3 3 0 0 0 2.28 5.12h2.84l12 12h5v-2a9.66 9.66 0 0 1 -6.83-2.83z" fill="#edb996"/><path d="m41 14h6v22h-6z" fill="#374f68"/><path d="m47 14c0 20.82-.1 20 0 20a4 4 0 0 1 -4-4v-16z" fill="#425b72"/><path d="m1 14h4v22h-4z" fill="#dad7e5"/><path d="m5 14c0 20.82-.1 20 0 20a2 2 0 0 1 -2-2v-18z" fill="#edebf2"/><path d="m29 4.23c0 1.66-.83 2.07-5 6.24-4.2-4.2-5-4.6-5-6.24a3 3 0 0 1 3-3 3.12 3.12 0 0 1 2 .77 3 3 0 0 1 5 2.23z" fill="#db5669"/><path d="m29 4.23c0 1.56-.76 2-3.5 4.74-3.5-3.55-4.5-4.09-4.5-5.74a3 3 0 0 1 .76-2 1 1 0 0 1 .24 0 3.12 3.12 0 0 1 2 .77 3 3 0 0 1 5 2.23z" fill="#f26674"/><path d="m16.06 31.94c0 1.21-.56 1.44-3.94 4.56a2.12 2.12 0 0 1 -3.61-2c.18-.77.22-.69 4-4.17a2.12 2.12 0 0 1 3.55 1.61z" fill="#edb996"/><path d="m16 31.44c-.17.81-.4.86-3.87 4.06a2.13 2.13 0 0 1 -3.06.06c-1.3-1.3-.3-1.73 3.44-5.18a2.12 2.12 0 0 1 3.49 1.06z" fill="#f6ccaf"/><path d="m19.06 34.94c0 1.21-.56 1.44-3.94 4.56a2.12 2.12 0 1 1 -3-3l3.38-3.12a2.12 2.12 0 0 1 3.56 1.56z" fill="#edb996"/><path d="m19 34.44c-.17.81-.4.86-3.87 4.06a2.13 2.13 0 0 1 -3.06.06c-1.34-1.34-.14-1.88 3.44-5.18a2.12 2.12 0 0 1 3.49 1.06z" fill="#f6ccaf"/><path d="m22.06 37.94c0 1.21-.56 1.44-3.94 4.56a2.12 2.12 0 1 1 -3-3l3.38-3.12a2.12 2.12 0 0 1 3.56 1.56z" fill="#edb996"/><path d="m22 37.44c-.17.81-.4.86-3.87 4.06a2.13 2.13 0 0 1 -3.06.06c-1.34-1.34-.14-1.88 3.44-5.18a2.12 2.12 0 0 1 3.49 1.06z" fill="#f6ccaf"/><path d="m25.06 40.94c0 1.24-.61 1.49-4.06 4.68a2.12 2.12 0 0 1 -3.49-2.06c.18-.86.58-1 4-4.18a2.12 2.12 0 0 1 3.55 1.56z" fill="#edb996"/><path d="m25 40.46c-.18.79-.32.77-4 4.16a2.12 2.12 0 0 1 -3.49-1.06c.18-.87.62-1.07 4-4.18a2.11 2.11 0 0 1 3.49 1.08z" fill="#f6ccaf"/><path d="m47 14h1v20h-1z" fill="#425b72"/><path d="m47 34h1v2h-1z" fill="#374f68"/><path d="m0 14h1v22h-1z" fill="#dad7e5"/><path d="m47 35h-5v-20h5a1 1 0 0 0 0-2h-6a1 1 0 0 0 -1 1v2c-7 0-7.35.23-8.29-.71-1.71-1.75-3.35-1.29-10.71-1.29a4 4 0 0 0 -3.44 2h-11.56v-2a1 1 0 0 0 -1-1h-4a1 1 0 0 0 0 2h3v20h-3a1 1 0 0 0 0 2h4a1 1 0 0 0 1-1v-2h1.64a3.09 3.09 0 0 0 2.81 4.17 3.08 3.08 0 0 0 3 3 3.08 3.08 0 0 0 3 3 3.11 3.11 0 0 0 5.22 2.18l1.25-1.14a3.29 3.29 0 0 0 2.63 1.38 3.07 3.07 0 0 0 3.07-3 3.11 3.11 0 0 0 3-3 3.1 3.1 0 0 0 3-3 3.12 3.12 0 0 0 3-3.62h2.38v2a1 1 0 0 0 1 1h6a1 1 0 0 0 0-1.97zm-37.56 0c0-.64.1-.56 3.74-3.92a1.12 1.12 0 0 1 1.52 1.64l-3.38 3.12a1.12 1.12 0 0 1 -1.88-.84zm3 3c0-.64.1-.56 3.74-3.92a1.12 1.12 0 0 1 1.52 1.64l-3.38 3.12a1.12 1.12 0 0 1 -1.88-.84zm3 3c0-.64.1-.56 3.74-3.92a1.12 1.12 0 0 1 1.52 1.64l-3.38 3.12a1.12 1.12 0 0 1 -1.88-.84zm4.88 3.84a1.12 1.12 0 0 1 -1.88-.84c0-.64.1-.56 3.74-3.92a1.12 1.12 0 0 1 1.52 1.64zm4.44-.64-.37-.39.67-.62c1.07-1 .36-1.4 1.26-.5a1.09 1.09 0 1 1 -1.56 1.55zm9-8.93-3-3a1 1 0 0 0 -1.42 1.42l3 3a1.13 1.13 0 0 1 -1.59 1.59l-3-3a1 1 0 0 0 -1.42 1.42c3.2 3.19 3.34 3.15 3.34 3.79a1.13 1.13 0 0 1 -1.9.82c-3.21-3.16-3.19-3.31-3.77-3.31a3 3 0 0 0 -.92-.19 3.1 3.1 0 0 0 -3-3 3.11 3.11 0 0 0 -3-3 3.11 3.11 0 0 0 -5.22-2.17c-3.13 2.86-2.48 2.36-2.86 2.36h-3v-14h11a4 4 0 0 0 4 4h2.59l11.7 11.71a1.12 1.12 0 0 1 -1.56 1.6zm6.24-3.27h-3.59l-10-10h1.59a1 1 0 0 0 0-2h-7a2 2 0 0 1 0-4c8.19 0 8.36-.22 9.29.71 1.71 1.67 3 1.29 9.71 1.29 0 14.74.1 14 0 14z"/><path d="m19.17 7.06c4.53 4.52 4.27 4.41 4.83 4.41s.35.06 4.83-4.41c3.26-3.27-.83-8.64-4.83-6.29-4-2.35-8.09 3.02-4.83 6.29zm4.15-4.32a1.06 1.06 0 0 0 1.36 0 2 2 0 0 1 3.32 1.49c0 1.1-.46 1.29-4 4.83-3.38-3.36-4-3.69-4-4.83a2 2 0 0 1 3.32-1.49z"/><path d="m34.29 12.71a1 1 0 0 0 1.42 0l1-1a1 1 0 0 0 -1.42-1.42l-.29.3-.29-.3a1 1 0 0 0 -1.42 1.42z"/><path d="m11.29 3.71a1 1 0 0 0 1.42 0l1-1a1 1 0 0 0 -1.42-1.42l-.29.3-.29-.3a1 1 0 0 0 -1.42 1.42z"/></g></svg>