<svg id="Filled_Expand" height="512" viewBox="0 0 64 64" width="512" xmlns="http://www.w3.org/2000/svg" data-name="Filled Expand"><path d="m2 1h60v62h-60z" fill="#fafcff"/><path d="m4 3h58v60h-58z" fill="#f0f6ff"/><path d="m44.1 38 13.458-11.742a4.21 4.21 0 0 0 1.442-3.172 4.21 4.21 0 0 0 -2.943-4.015l-16.057-5.071v3.5l14 5.5-9 6" fill="#ffd0bb"/><path d="m40 14v3.5l3 1.179v-3.732z" fill="#f9bca5"/><path d="m19 29-9-6 14-5.5v-3.5l-16.057 5.071a4.21 4.21 0 0 0 -2.943 4.015 4.21 4.21 0 0 0 1.442 3.172l13.458 11.742" fill="#ffe3d6"/><path d="m24 15.145-14.985 5.2a3 3 0 0 0 -.989 5.089l11.633 10.155-.659-6.589-9-6 14-5.5z" fill="#ffd0bb"/><path d="m51 25-6 4h-10l1-3a5 5 0 0 0 5-5v-7a9 9 0 0 0 -9-9l-4 3v21h-9l-6-4-2.269 5 9.169 8 2.1 21h20l2.1-21 9.169-8z" fill="#ffe3d6"/><path d="m51 25-6 4h-10l1-3a5 5 0 0 0 5-5v-7a9 9 0 0 0 -9-9l-4 3v21h-9l-6-4-1.553 3.421 9.883 8.652 2.263 21.927h18.407l2.1-21 9.169-8z" fill="#ffd0bb"/><circle cx="22" cy="8" fill="#c88d7d" r="4"/><path d="m19.5 9.5a3.945 3.945 0 0 0 .536 1.964 3.945 3.945 0 0 0 1.964.536 4 4 0 0 0 4-4 3.945 3.945 0 0 0 -.536-1.964 3.945 3.945 0 0 0 -1.964-.536 4 4 0 0 0 -4 4z" fill="#bc7969"/><path d="m23 14a9 9 0 0 0 9 9 2 2 0 0 0 2-2v-.05a4.707 4.707 0 0 0 -1.379-3.329 2.12 2.12 0 0 1 -.621-1.5 2.122 2.122 0 0 1 2.121-2.121h6.879a9 9 0 0 0 -9-9 9 9 0 0 0 -9 9z" fill="#d3a497"/><path d="m38.348 7.621a9 9 0 0 0 -10.7 14.258 8.954 8.954 0 0 0 4.352 1.121 2 2 0 0 0 2-2v-.05a4.707 4.707 0 0 0 -1.379-3.329 2.121 2.121 0 0 1 1.5-3.621h6.879a8.971 8.971 0 0 0 -2.652-6.379z" fill="#c88d7d"/><path d="m51 63h-38v-6.764a3.236 3.236 0 0 1 3.236-3.236 3.231 3.231 0 0 1 1.447.342l1.317.658h26l1.317-.658a3.231 3.231 0 0 1 1.447-.342 3.236 3.236 0 0 1 3.236 3.236z" fill="#f788a7"/><path d="m49.236 55.351a3.247 3.247 0 0 0 -2.919-.009l-1.317.658h-25l-1.317-.658a3.231 3.231 0 0 0 -1.447-.342h-.026a2.318 2.318 0 0 0 -2.21 2.363v5.637h36v-4.618a3.363 3.363 0 0 0 -1.764-3.031z" fill="#f3698c"/><ellipse cx="27" cy="36" fill="#82788c" rx="3" ry="2"/><path d="m25 37a1.384 1.384 0 0 0 .131.553 3.979 3.979 0 0 0 1.869.447c1.657 0 3-.9 3-2a1.384 1.384 0 0 0 -.131-.553 3.979 3.979 0 0 0 -1.869-.447c-1.657 0-3 .9-3 2z" fill="#6e5f78"/><ellipse cx="37" cy="36" fill="#82788c" rx="3" ry="2"/><path d="m35 37a1.384 1.384 0 0 0 .131.553 3.979 3.979 0 0 0 1.869.447c1.657 0 3-.9 3-2a1.384 1.384 0 0 0 -.131-.553 3.979 3.979 0 0 0 -1.869-.447c-1.657 0-3 .9-3 2z" fill="#6e5f78"/><ellipse cx="27" cy="44" fill="#82788c" rx="3" ry="2"/><path d="m25 45a1.384 1.384 0 0 0 .131.553 3.979 3.979 0 0 0 1.869.447c1.657 0 3-.9 3-2a1.384 1.384 0 0 0 -.131-.553 3.979 3.979 0 0 0 -1.869-.447c-1.657 0-3 .9-3 2z" fill="#6e5f78"/><ellipse cx="37" cy="44" fill="#82788c" rx="3" ry="2"/><path d="m35 45a1.384 1.384 0 0 0 .131.553 3.979 3.979 0 0 0 1.869.447c1.657 0 3-.9 3-2a1.384 1.384 0 0 0 -.131-.553 3.979 3.979 0 0 0 -1.869-.447c-1.657 0-3 .9-3 2z" fill="#6e5f78"/><ellipse cx="27" cy="52" fill="#82788c" rx="3" ry="2"/><path d="m25 53a1.384 1.384 0 0 0 .131.553 3.979 3.979 0 0 0 1.869.447c1.657 0 3-.9 3-2a1.384 1.384 0 0 0 -.131-.553 3.979 3.979 0 0 0 -1.869-.447c-1.657 0-3 .9-3 2z" fill="#6e5f78"/><ellipse cx="37" cy="52" fill="#82788c" rx="3" ry="2"/><path d="m35 53a1.384 1.384 0 0 0 .131.553 3.979 3.979 0 0 0 1.869.447c1.657 0 3-.9 3-2a1.384 1.384 0 0 0 -.131-.553 3.979 3.979 0 0 0 -1.869-.447c-1.657 0-3 .9-3 2z" fill="#6e5f78"/><path d="m37 38.75c2.1 0 3.75-1.208 3.75-2.75s-1.65-2.75-3.75-2.75-3.75 1.208-3.75 2.75 1.65 2.75 3.75 2.75zm0-4c1.326 0 2.25.659 2.25 1.25s-.924 1.25-2.25 1.25-2.25-.659-2.25-1.25.924-1.25 2.25-1.25z"/><path d="m27 38.75c2.1 0 3.75-1.208 3.75-2.75s-1.65-2.75-3.75-2.75-3.75 1.208-3.75 2.75 1.65 2.75 3.75 2.75zm0-4c1.326 0 2.25.659 2.25 1.25s-.924 1.25-2.25 1.25-2.25-.659-2.25-1.25.924-1.25 2.25-1.25z"/><path d="m37 46.75c2.1 0 3.75-1.208 3.75-2.75s-1.65-2.75-3.75-2.75-3.75 1.208-3.75 2.75 1.65 2.75 3.75 2.75zm0-4c1.326 0 2.25.659 2.25 1.25s-.924 1.25-2.25 1.25-2.25-.659-2.25-1.25.924-1.25 2.25-1.25z"/><path d="m27 46.75c2.1 0 3.75-1.208 3.75-2.75s-1.65-2.75-3.75-2.75-3.75 1.208-3.75 2.75 1.65 2.75 3.75 2.75zm0-4c1.326 0 2.25.659 2.25 1.25s-.924 1.25-2.25 1.25-2.25-.659-2.25-1.25.924-1.25 2.25-1.25z"/><path d="m62 .25h-60a.75.75 0 0 0 -.75.75v62a.75.75 0 0 0 .75.75h60a.75.75 0 0 0 .75-.75v-62a.75.75 0 0 0 -.75-.75zm-11.75 62h-36.5v-6.014a2.486 2.486 0 0 1 3.6-2.223l1.316.658a.75.75 0 0 0 .334.079h26a.75.75 0 0 0 .335-.079l1.316-.658a2.486 2.486 0 0 1 3.6 2.223zm-18.159-44.1a3.967 3.967 0 0 1 1.159 2.85 1.252 1.252 0 0 1 -1.25 1.25 8.25 8.25 0 1 1 8.216-9h-6.095a2.871 2.871 0 0 0 -2.03 4.9zm-4.841 4.357v5.743h-8.022l-7.617-5.077 11.772-4.624a9.815 9.815 0 0 0 3.867 3.958zm-4.562-11.339a3.3 3.3 0 0 1 -.688.082 3.25 3.25 0 1 1 3.115-4.134 9.747 9.747 0 0 0 -2.427 4.052zm.1 6-13.062 5.132a.75.75 0 0 0 -.142 1.322l9 6a.756.756 0 0 0 .416.128h9a.75.75 0 0 0 .75-.75v-5.819a9.674 9.674 0 0 0 3.25.569 2.763 2.763 0 0 0 2.75-2.8 5.417 5.417 0 0 0 -1.6-3.859 1.372 1.372 0 0 1 .97-2.341h6.13v6.25a4.25 4.25 0 0 1 -4.25 4.25.751.751 0 0 0 -.712.513l-1 3a.75.75 0 0 0 .712.987h10a.756.756 0 0 0 .417-.126l9-6a.75.75 0 0 0 -.142-1.322l-12.525-4.92v-2.043l14.082 4.447a3.46 3.46 0 0 1 1.232 5.907l-13.458 11.742a.747.747 0 0 0 -.252.49l-1.533 15.325h-1.485a2.2 2.2 0 0 0 .414-1.25c0-1.542-1.647-2.75-3.75-2.75s-3.75 1.208-3.75 2.75a2.2 2.2 0 0 0 .414 1.25h-3.328a2.2 2.2 0 0 0 .414-1.25c0-1.542-1.647-2.75-3.75-2.75s-3.75 1.208-3.75 2.75a2.2 2.2 0 0 0 .414 1.25h-1.485l-1.533-15.325a.747.747 0 0 0 -.252-.49l-13.458-11.742a3.46 3.46 0 0 1 1.232-5.907l14.181-4.478a9.942 9.942 0 0 0 .44 1.862zm18.962 3.832v-2.006l10.639 4.179-7.617 5.077h-8.731l.508-1.526a5.758 5.758 0 0 0 5.201-5.724zm-2.5 31c0 .591-.924 1.25-2.25 1.25s-2.25-.659-2.25-1.25.924-1.25 2.25-1.25 2.25.659 2.25 1.25zm-10 0c0 .591-.924 1.25-2.25 1.25s-2.25-.659-2.25-1.25.924-1.25 2.25-1.25 2.25.659 2.25 1.25zm32 10.25h-9.5v-6.014a3.986 3.986 0 0 0 -5.769-3.565l-1.158.579h-1.494l1.487-14.88 13.235-11.547a4.961 4.961 0 0 0 -1.768-8.468l-14.545-4.593a9.721 9.721 0 0 0 -15.41-7.672 4.742 4.742 0 1 0 -4.328 6.66c.116 0 .23-.017.346-.027a9.9 9.9 0 0 0 -.084 1.039l-14.545 4.593a4.961 4.961 0 0 0 -1.768 8.468l13.235 11.547 1.487 14.88h-1.494l-1.158-.579a3.986 3.986 0 0 0 -5.769 3.565v6.014h-9.5v-60.5h58.5z"/></svg>