<svg id="Capa_1" enable-background="new 0 0 511.96 511.96" height="512" viewBox="0 0 511.96 511.96" width="512" xmlns="http://www.w3.org/2000/svg"><g><g><path d="m278.57 323.593-107.83 107.75c-7.74 7.739-17.69 12.75-28.37 14.43-2.62.41-5.28.62-7.97.62-6.82 0-13.5 1.35-19.68 3.91-6.17 2.56-11.85 6.33-16.67 11.149l-.96.96c-5.86 5.86-15.36 5.86-21.22 0l-63.97-63.97c-5.86-5.86-5.86-15.36 0-21.22 8.68-8.67 13.48-20.4 13.48-32.521 0-1.97-.13-3.96-.39-5.95l-14.56-111.568c-1.83-13.97 6.98-27.13 20.58-30.78 2.44-.65 4.89-.97 7.3-.97 12.41 0 23.76 8.29 27.13 20.85 2.26 8.45 4.74 17.72 6.96 26.03 2.99 11.15 16.93 14.89 25.1 6.72l20.92-20.92 10.23 9.69 74.62 70.73 42.94-16.54z" fill="#ffd4bd"/><path d="m142.37 445.773c-2.62.41-5.28.62-7.97.62-6.82 0-13.5 1.35-19.68 3.91-6.17 2.56-11.85 6.33-16.67 11.149l-.96.96c-5.86 5.86-15.36 5.86-21.22 0l-63.97-63.97c-5.86-5.86-5.86-15.36 0-21.22 8.68-8.67 13.48-20.4 13.48-32.521 0-1.97-.13-3.96-.39-5.95l-14.56-111.568c-1.83-13.97 6.98-27.13 20.58-30.78 2.44-.65 4.89-.97 7.3-.97 12.41 0 23.76 8.29 27.13 20.85 2.26 8.45 4.74 17.72 6.96 26.03 2.99 11.15 16.93 14.89 25.1 6.72l20.92-20.92 10.23 9.69c-33.457 36.457-66.393 119.374 13.72 207.97z" fill="#ffbf9d"/><path d="m130.942 307.622c-8.821-8.821-8.821-23.123 0-31.945l11.153-20.153 20.791-11.791c8.821-8.821 23.123-8.821 31.945 0 8.821 8.821 8.821 23.123 0 31.945l-7.664 24.664-24.281 7.281c-8.82 8.82-23.123 8.82-31.944-.001z" fill="#ffbf9d"/><path d="m169.5 227.763c0 5.779-2.2 11.56-6.61 15.97l-31.95 31.94c-6.64 6.649-16.38 8.29-24.56 4.92-2.68-1.101-5.2-2.74-7.38-4.92-8.82-8.82-8.82-23.12 0-31.94l31.94-31.94c6.6-6.609 16.28-8.27 24.43-4.979 2.74 1.1 5.3 2.76 7.52 4.979 4.41 4.41 6.61 10.19 6.61 15.97z" fill="#f8a77b"/><path d="m162.887 339.567c-8.821-8.821-8.821-23.123 0-31.945l31.945-31.945c8.821-8.821 23.123-8.821 31.945 0 8.821 8.821 8.821 23.123 0 31.945l-31.945 31.945c-8.822 8.821-23.124 8.821-31.945 0z" fill="#f8a77b"/><path d="m302.98 284.273-2.512 28.48-25.02 25.021-38.948-41.55 27.92-27.92c8.82-8.82 23.13-8.82 31.95 0 4.41 4.41 6.61 10.189 6.61 15.969z" fill="#ffd4bd"/><path d="m500.06 398.283-63.97 63.98c-5.86 5.85-15.36 5.85-21.22 0l-.96-.96c-4.82-4.82-10.5-8.58-16.67-11.141-.96-.399-1.94-.77-2.93-1.1-5.34-1.85-10.99-2.82-16.75-2.82-13.63 0-26.7-5.42-36.34-15.06l-115.36-113.139c-4.41-4.409-6.62-10.189-6.62-15.97s2.21-11.56 6.62-15.97c8.82-8.82 23.12-8.82 31.94 0l39.9 37.689 95.84-95.829 20.92 20.92c8.17 8.159 22.11 4.43 25.1-6.73 2.22-8.3 4.7-17.57 6.96-26.02 3.37-12.561 14.72-20.851 27.13-20.851 2.41 0 4.86.32 7.3.97 13.6 3.65 22.41 16.811 20.58 30.771l-14.56 111.58c-.26 1.99-.39 3.979-.39 5.95 0 12.12 4.8 23.84 13.48 32.52 5.86 5.86 5.86 15.36 0 21.21z" fill="#ffddcf"/><path d="m394.31 449.063c-5.34-1.85-10.99-2.82-16.75-2.82-13.63 0-26.7-5.42-36.34-15.06l-115.36-113.14c-4.41-4.409-6.62-10.189-6.62-15.97s2.21-11.56 6.62-15.97c8.82-8.82 23.12-8.82 31.94 0l39.9 37.689 95.84-95.829 10.05 10.05c-26.376 37.664-100.39 102.24-9.28 211.05z" fill="#ffcbbe"/><path d="m388.21 318.623c-8.82 8.82-23.12 8.82-31.94 0l-4.19-1.439-21.57-7.431-6.19-23.079c-4.41-4.41-6.62-10.19-6.62-15.971 0-5.779 2.21-11.56 6.62-15.97 8.83-8.82 23.13-8.82 31.95 0l21.05 8.21.68 1.49 10.21 22.24c8.82 8.82 8.82 23.12 0 31.95z" fill="#ffcbbe"/><path d="m420.16 286.674c-8.82 8.819-23.13 8.819-31.95 0l-31.94-31.94c-4.41-4.41-6.61-10.19-6.61-15.97 0-5.79 2.2-11.57 6.61-15.98 8.82-8.819 23.12-8.819 31.94 0l15.3 15.3 16.65 16.65c8.82 8.819 8.82 23.119 0 31.94z" fill="#ffbbae"/><path d="m356.27 350.563c-1.96 1.96-4.18 3.479-6.56 4.56-8.34 3.83-18.52 2.301-25.39-4.56l-31.94-31.94c-4.41-4.42-6.62-10.199-6.62-15.979s2.21-11.561 6.62-15.97c8.82-8.82 23.12-8.82 31.94 0l28.29 28.29 3.66 3.659c8.82 8.82 8.82 23.12 0 31.94z" fill="#ffbbae"/><path d="m341.04 143.773-63.85 63.85c-4.38 4.38-9.78 7.12-15.42 8.23-9.48 1.85-19.67-.89-27.01-8.23l-63.83-63.84c-23.6-23.59-23.6-61.85 0-85.439 8.79-8.79 20.3-13.181 31.82-13.181 11.51 0 23.03 4.391 31.82 13.181l16.11 16.109c2.93 2.931 7.68 2.931 10.61 0l16.11-16.109c17.58-17.58 46.07-17.58 63.64 0 23.59 23.589 23.59 61.839 0 85.429z" fill="#ffbed8"/><path d="m261.77 215.853c-9.48 1.85-19.67-.89-27.01-8.23l-63.83-63.84c-23.6-23.59-23.6-61.85 0-85.439 8.79-8.79 20.3-13.181 31.82-13.181 11.51 0 23.03 4.391 31.82 13.181l12.04 12.04c-15.94 28.369-32.52 82.119 15.16 145.469z" fill="#ff97c1"/></g><g><path d="m505.363 371.769c-8.058-8.057-12.451-19.196-10.923-32.184l14.526-111.588c2.795-21.323-13.879-40.215-35.316-40.215-16.067 0-30.202 10.859-34.375 26.412l-6.96 26.021c-1.494 5.584-8.468 7.45-12.552 3.364l-26.247-26.098c-11.759-11.758-30.791-11.76-42.551 0-6.098 6.098-9.297 14.399-8.745 23.199-18.324-1.15-33.07 13.989-31.929 31.945-1.101-.069-1.618-.069-2.177-.062-8.028-19.001-33.426-25.137-48.997-9.564l-9.899 9.898c-4.73-1.188-9.871-1.246-14.848.02-6.134-7.778-15.633-11.887-25.49-11.295 1.125-18.061-13.7-33.074-31.96-31.938 1.097-17.258-12.516-32.014-30.006-32.014-8.037 0-15.592 3.13-21.275 8.813l-31.944 31.944c-2.206 2.206-4.022 4.695-5.424 7.383-3.581.65-7.53-1.357-8.624-5.437l-6.962-26.036c-5.081-18.938-24.638-30.232-43.618-25.18-17.172 4.608-28.38 21.374-26.072 38.994l8.51 65.17c.494 3.778 3.717 6.53 7.428 6.53 4.521 0 8.034-3.968 7.446-8.472l-8.51-65.174c-1.336-10.195 5.15-19.895 15.073-22.559 10.985-2.928 22.315 3.613 25.254 14.57l6.962 26.037c2.588 9.64 10.737 15.768 19.754 16.581.614 16.598 14.708 29.963 31.999 28.887-.53 8.333 2.375 16.846 8.729 23.199v.001c6.013 6.013 14.283 9.312 23.219 8.743-.529 8.333 2.375 16.844 8.729 23.197 11.757 11.758 30.787 11.76 42.545.001l20.981-20.975 23.489 23.039-79.166 79.108c-8.289 8.289-19.311 12.854-31.037 12.854-7.787 0-15.374 1.508-22.554 4.482-9.525 3.952-15.485 9.16-20.06 13.734-2.934 2.933-7.679 2.933-10.613-.001l-63.97-63.969c-2.934-2.934-2.932-7.682-.003-10.61 9.965-9.953 15.68-23.74 15.68-37.827 0-4.506-.461-6.982-1.972-18.598-.535-4.107-4.291-7.013-8.405-6.47-4.107.534-7.004 4.298-6.47 8.405 1.5 11.519 1.847 13.284 1.847 16.662 0 10.135-4.111 20.054-11.283 27.217-8.795 8.796-8.797 23.028 0 31.827l63.97 63.969c8.797 8.797 23.029 8.797 31.827.001 5.074-5.073 9.478-8.111 15.198-10.484 5.347-2.216 11.002-3.339 16.809-3.339 15.732 0 30.521-6.125 41.641-17.244l79.271-79.214 53.936 52.902c1.46 1.432 3.356 2.146 5.251 2.146 6.681 0 10.039-8.16 5.252-12.854l-88.589-86.89c-9.425-9.422-2.82-25.751 10.667-25.751 4.029 0 7.817 1.569 10.667 4.418.159.161 66.524 64.462 66.524 64.462 11.76 11.759 30.791 11.759 42.551 0v-.001c6.354-6.354 9.259-14.867 8.729-23.2 18.219 1.134 33.092-13.833 31.96-31.943 8.858.556 17.138-2.685 23.199-8.745v-.001c8.73-8.729 10.958-21.533 6.694-32.349 7.231-2.38 12.662-8.102 14.65-15.537l6.958-26.015c2.416-9.005 10.594-15.294 19.886-15.294 12.364 0 22.065 10.897 20.443 23.27l-14.526 111.663c-2.082 17.618 3.808 33.283 15.191 44.665 2.925 2.925 2.943 7.666 0 10.604l-63.965 63.976c-2.928 2.924-7.693 2.924-10.618.004-6.471-6.47-12.47-10.575-20.063-13.726-7.194-2.98-14.781-4.491-22.55-4.491-11.719 0-22.742-4.568-31.083-12.909l-1.72-1.69c-2.955-2.901-7.703-2.861-10.606.093s-2.862 7.703.093 10.606l1.674 1.645c11.128 11.128 25.917 17.256 41.643 17.256 5.789 0 11.444 1.127 16.805 3.348 5.736 2.38 10.141 5.415 15.206 10.48 8.771 8.756 23.044 8.759 31.822-.005l63.965-63.976c8.801-8.785 8.801-23.022.004-31.821zm-401.062-101.395c-5.85-5.848-5.94-15.397 0-21.338l31.944-31.944c5.882-5.883 15.453-5.884 21.338-.001 5.883 5.884 5.883 15.456 0 21.339l-31.945 31.944c-5.882 5.883-15.454 5.883-21.337 0zm31.944 31.944c-5.882-5.883-5.882-15.454 0-21.337l31.945-31.944c5.883-5.883 15.455-5.883 21.338 0 5.87 5.868 5.913 15.388.03 21.304l-31.974 31.978c-5.884 5.882-15.456 5.882-21.339-.001zm53.282 31.941c-5.896 5.896-15.437 5.897-21.333 0-5.882-5.882-5.882-15.451.001-21.334l31.973-31.979c5.972-5.94 15.154-5.589 20.768-.507-8.507 8.209-11.032 20.017-7.919 30.339zm73.284-53.74 6.912-6.912c7.326-7.328 18.963-4.985 23.656 2.936-7.091 4.084-12.422 10.972-14.339 19.307zm88.154 64.741c-5.883 5.885-15.455 5.882-21.338.001l-31.944-31.946c-5.883-5.883-5.883-15.454 0-21.337s15.455-5.883 21.338 0l31.945 31.944c5.574 5.247 6.18 15.158-.001 21.338zm31.945-31.945c-5.883 5.883-15.455 5.883-21.338 0l-31.945-31.944c-5.883-5.882-5.882-15.454 0-21.337 5.885-5.885 15.455-5.883 21.338 0l31.944 31.944c5.923 5.921 5.872 15.468.001 21.337zm31.945-31.944c-5.882 5.883-15.455 5.884-21.338 0l-31.944-31.944c-5.938-5.937-5.852-15.487 0-21.337 5.883-5.883 15.455-5.883 21.338 0l31.945 31.943c5.881 5.884 5.881 15.455-.001 21.338z"/><path d="m229.457 212.925c14.658 14.66 38.375 14.664 53.037.001l16.63-16.63c2.929-2.93 2.929-7.678 0-10.607-2.929-2.928-7.678-2.928-10.606 0l-16.63 16.631c-8.797 8.798-23.025 8.799-31.823 0l-63.831-63.842c-20.683-20.673-20.689-54.151.001-74.832 14.685-14.685 38.408-14.625 53.033.001l16.109 16.108c5.864 5.865 15.353 5.865 21.217.001l16.11-16.109c14.657-14.657 38.375-14.668 53.034 0 20.629 20.628 20.629 54.194 0 74.822l-22.47 22.47c-2.929 2.93-2.929 7.678 0 10.607 2.929 2.928 7.678 2.928 10.606 0l22.47-22.47c26.478-26.478 26.478-69.56.001-96.035-20.512-20.524-53.722-20.528-74.248-.002l-16.113 16.109-16.11-16.109c-20.517-20.516-53.73-20.516-74.245-.001-26.548 26.538-26.554 69.506-.001 96.047z"/></g></g></svg>