<svg id="&#x421;&#x43B;&#x43E;&#x439;_1" enable-background="new 0 0 16 16" viewBox="0 0 16 16" xmlns="http://www.w3.org/2000/svg"><g fill="rgb(0,0,0)"><path d="m8 .125c-.2070313 0-.375.1679688-.375.375s.1679688.375.375.375c3.9287109 0 7.125 3.1962891 7.125 7.125 0 .2070313.1679688.375.375.375s.375-.1679687.375-.375c0-4.3422852-3.5322266-7.875-7.875-7.875z"/><path d="m8 15.125c-3.9287109 0-7.125-3.1962891-7.125-7.125 0-.2070313-.1679688-.375-.375-.375s-.375.1679688-.375.375c0 4.3422852 3.5322266 7.875 7.875 7.875.2070313 0 .375-.1679688.375-.375s-.1679687-.375-.375-.375z"/><path d="m8 2.125c-3.2392578 0-5.875 2.6357422-5.875 5.875s2.6357422 5.875 5.875 5.875 5.875-2.6357422 5.875-5.875-2.6357422-5.875-5.875-5.875zm0 11c-2.8261719 0-5.125-2.2988281-5.125-5.125s2.2988281-5.125 5.125-5.125 5.125 2.2988281 5.125 5.125-2.2988281 5.125-5.125 5.125z"/><path d="m11.2080078 6.6708984-1.984375-.2885742-.8876953-1.7983398c-.125-.2558594-.546875-.2558594-.671875 0l-.8876953 1.7983398-1.984375.2885742c-.1416016.0205079-.2587891.1196289-.3027344.2553711s-.0078125.284668.0947266.3842773l1.4355469 1.3994141-.3378906 1.9765625c-.0244141.140625.0332031.2832031.1484375.3666992.1152344.0839844.2695313.0952148.3955078.0288086l1.774414-.9331054 1.7744141.9331055c.0546875.0288085.1152343.0429687.1748047.0429687.078125 0 .1552734-.0239258.2207031-.0717773.1152344-.0834961.1728516-.2260742.1484375-.3666992l-.3378906-1.9765626 1.4355469-1.3994141c.1025391-.0996094.1386719-.2485352.0947266-.3842773s-.1611329-.2348632-.3027345-.2553711zm-1.8925781 1.6396485c-.0888672.0859375-.1289063.2104492-.1074219.3320312l.2431641 1.421875-1.2763672-.6713867c-.0546875-.0288086-.1152344-.0429687-.1748047-.0429687s-.1201172.0141601-.1748047.0429687l-1.2763672.6713867.2431641-1.421875c.0214844-.121582-.0185547-.2460938-.1074219-.3320313l-1.0332031-1.0068359 1.4277344-.2075195c.1220703-.0175781.2275391-.0942383.2822266-.2050781l.6386718-1.293457.6386719 1.293457c.0546875.1108398.1601563.1875.2822266.2050781l1.4277344.2075195z"/></g></svg>