<svg id="Capa_1" enable-background="new 0 0 512 512" viewBox="0 0 512 512" xmlns="http://www.w3.org/2000/svg"><g><g><path d="m478.311 148.082c7.298 0 13.236-5.938 13.236-13.236v-21.63c0-7.298-5.938-13.235-13.236-13.235h-146.145c5.487-19.389 3.256-40.188-6.835-58.754-14.031-25.815-39.949-41.227-69.331-41.227-22.456 0-43.075 9.026-58.058 25.416-2.794 3.057-2.582 7.801.475 10.596 3.057 2.794 7.801 2.583 10.596-.475 12.107-13.244 28.794-20.537 46.987-20.537 23.797 0 44.789 12.482 56.152 33.391 11.364 20.908 10.421 45.312-2.521 65.281l-51.533 79.506c-.643.992-1.591 1.14-2.098 1.14s-1.455-.148-2.098-1.14l-51.533-79.506c-9.882-15.248-12.844-33.196-8.338-50.54 1.042-4.009-1.364-8.103-5.374-9.145-4.007-1.044-8.104 1.364-9.145 5.373-3.532 13.598-3.351 27.483.349 40.621h-146.172c-7.298 0-13.236 5.938-13.236 13.235v21.63c0 7.298 5.938 13.236 13.236 13.236h.023v22.883c-7.746 3.016-13.259 10.535-13.259 19.334v30.123c0 11.794 5.123 22.413 13.259 29.753v91.825c0 4.142 3.358 7.5 7.5 7.5s7.5-3.358 7.5-7.5v-83.281c3.738 1.156 7.707 1.781 11.819 1.781 13.413 0 25.299-6.63 32.578-16.778 7.279 10.148 19.165 16.778 32.578 16.778s25.299-6.63 32.578-16.778c7.279 10.148 19.165 16.778 32.578 16.778s25.299-6.63 32.578-16.778c7.28 10.148 19.166 16.778 32.579 16.778s25.299-6.63 32.578-16.778c7.279 10.148 19.165 16.778 32.578 16.778s25.299-6.63 32.578-16.778c7.279 10.148 19.165 16.778 32.578 16.778s25.299-6.63 32.578-16.778c7.279 10.148 19.165 16.778 32.578 16.778 4.112 0 8.081-.625 11.819-1.781v205.179h-49.287c-4.142 0-7.5 3.358-7.5 7.5s3.358 7.5 7.5 7.5h62.546v18.102h-115.312v-18.101h17.766c4.142 0 7.5-3.358 7.5-7.5s-3.358-7.5-7.5-7.5h-17.766v-26.725h51.921c7.298 0 13.235-5.938 13.235-13.235v-124.598c0-7.298-5.938-13.235-13.235-13.235h-314.309c-7.298 0-13.236 5.938-13.236 13.235v124.598c0 7.298 5.938 13.235 13.236 13.235h51.92v26.725h-102.054v-86.899c0-4.142-3.358-7.5-7.5-7.5s-7.5 3.358-7.5 7.5v86.899h-.023c-7.298 0-13.236 5.938-13.236 13.235v21.63c0 7.298 5.938 13.236 13.236 13.236h444.621c7.298 0 13.236-5.938 13.236-13.236v-21.63c0-7.298-5.938-13.235-13.236-13.235h-.023v-213.724c8.135-7.34 13.259-17.959 13.259-29.753v-30.123c0-8.8-5.513-16.319-13.259-19.334v-22.883zm-117.077 153.023h50.156v121.068h-50.156zm-260.624 121.069v-121.069h50.156v121.068h-50.156zm-65.156 56.725h115.312v18.101h-115.312zm130.312-177.794h82.734v195.895h-82.734zm180.468 195.895h-82.734v-195.895h82.734zm130.312-382.019v18.101h-161.622l7.293-11.252c1.452-2.24 2.778-4.526 3.984-6.849zm-441.092 0h150.352c1.207 2.325 2.527 4.612 3.977 6.849l7.293 11.252h-161.622zm171.344 33.101 13.909 21.459h-171.995v-21.459zm-146.266 97.418c-13.828 0-25.078-11.25-25.078-25.078v-30.123c0-3.175 2.583-5.758 5.759-5.758h44.397v35.881c0 13.828-11.25 25.078-25.078 25.078zm65.156 0c-13.828 0-25.078-11.25-25.078-25.078v-35.881h50.156v35.881c0 13.828-11.25 25.078-25.078 25.078zm65.156 0c-13.828 0-25.078-11.25-25.078-25.078v-35.881h50.156v35.881c0 13.828-11.25 25.078-25.078 25.078zm65.156 0c-13.828 0-25.078-11.25-25.078-25.078v-35.121l10.393 16.035c3.239 4.998 8.729 7.982 14.685 7.982s11.446-2.984 14.685-7.982l10.393-16.035v35.121c0 13.828-11.25 25.078-25.078 25.078zm65.156 0c-13.828 0-25.078-11.25-25.078-25.078v-35.881h50.156v35.881c0 13.828-11.25 25.078-25.078 25.078zm65.156 0c-13.828 0-25.078-11.25-25.078-25.078v-35.881h50.156v35.881c0 13.828-11.25 25.078-25.078 25.078zm40.078-25.078v-35.881h44.397c3.175 0 5.759 2.583 5.759 5.758v30.123c0 13.828-11.25 25.078-25.078 25.078s-25.078-11.25-25.078-25.078zm36.898-50.881h-171.995l13.909-21.459h158.086z"/><path d="m225.028 372.848c-4.142 0-7.5 3.358-7.5 7.5v19.501c0 4.142 3.358 7.5 7.5 7.5s7.5-3.358 7.5-7.5v-19.501c0-4.142-3.358-7.5-7.5-7.5z"/><path d="m286.972 407.349c4.142 0 7.5-3.358 7.5-7.5v-19.501c0-4.142-3.358-7.5-7.5-7.5s-7.5 3.358-7.5 7.5v19.501c0 4.142 3.358 7.5 7.5 7.5z"/><path d="m296.181 81.383c0-22.155-18.025-40.18-40.181-40.18s-40.181 18.025-40.181 40.18c0 22.156 18.025 40.181 40.181 40.181s40.181-18.025 40.181-40.181zm-65.362 0c0-13.884 11.296-25.18 25.181-25.18s25.181 11.296 25.181 25.18c0 13.885-11.296 25.181-25.181 25.181s-25.181-11.296-25.181-25.181z"/></g></g><g/><g/><g/><g/><g/><g/><g/><g/><g/><g/><g/><g/><g/><g/><g/></svg>