<svg id="Layer_1" enable-background="new 0 0 66 66" height="512" viewBox="0 0 66 66" width="512" xmlns="http://www.w3.org/2000/svg"><g><g><path d="m12.9 6.8c-.6 0-1-.4-1-1v-.6c0-1.9 1.4-3.3 3.3-3.3h37.6c.6 0 1 .4 1 1s-.4 1-1 1h-37.6c-.8 0-1.3.5-1.3 1.3v.6c0 .6-.4 1-1 1z"/></g><g><path d="m50.5 64.1h-35.3c-1.9 0-3.3-1.4-3.3-3.3v-33.2c0-.6.4-1 1-1s1 .4 1 1v33.2c0 .8.5 1.3 1.3 1.3h35.3c.7 0 1.2-.6 1.2-1.3v-55c0-.6.4-1 1-1s1 .4 1 1v55c0 1.8-1.4 3.3-3.2 3.3z"/></g><g><path d="m52.8 59c-.6 0-1-.4-1-1v-52.1c0-2.2 1.7-3.9 3.8-3.9 1 0 2 .4 2.7 1.1s1.1 1.7 1.1 2.7v49.2c0 .6-.4 1-1 1s-1-.4-1-1v-49.2c0-.5-.2-1-.5-1.3s-.8-.5-1.3-.5c-1 0-1.8.8-1.8 1.9v52.1c0 .6-.4 1-1 1z"/></g><g><path d="m61.3 58.9h-.2c-2 0-3.7-1.7-3.7-3.7v-7.7c0-.6.4-1 1-1h5.6c.6 0 1 .4 1 1v7.7c0 2-1.7 3.7-3.7 3.7zm-1.9-10.4v6.7c0 1 .7 1.7 1.7 1.7h.2c.9 0 1.7-.8 1.7-1.7v-6.7z"/></g><g><path d="m55.5 3.9h-8.9c-.6 0-1-.4-1-1s.4-1 1-1h8.9c.6 0 1 .4 1 1s-.4 1-1 1z"/></g><g><path d="m61.2 58.9h-8.5c-.6 0-1-.4-1-1s.4-1 1-1h8.5c.6 0 1 .4 1 1s-.4 1-1 1z"/></g><g><path d="m28.1 41.8h-9c-.6 0-1-.4-1-1v-9.6c0-.6.4-1 1-1h9c.6 0 1 .4 1 1v9.6c0 .6-.4 1-1 1zm-8-2h7v-7.6h-7z"/></g><g><path d="m46.5 32.2h-13.7c-.6 0-1-.4-1-1s.4-1 1-1h13.7c.6 0 1 .4 1 1s-.4 1-1 1z"/></g><g><path d="m46.5 37.4h-13.7c-.6 0-1-.4-1-1s.4-1 1-1h13.7c.6 0 1 .4 1 1s-.4 1-1 1z"/></g><g><path d="m46.5 42.5h-13.7c-.6 0-1-.4-1-1s.4-1 1-1h13.7c.6 0 1 .4 1 1s-.4 1-1 1z"/></g><g><path d="m46.5 47.6h-27.4c-.6 0-1-.4-1-1s.4-1 1-1h27.4c.6 0 1 .4 1 1s-.4 1-1 1z"/></g><g><path d="m46.5 52.7h-27.4c-.6 0-1-.4-1-1s.4-1 1-1h27.4c.6 0 1 .4 1 1s-.4 1-1 1z"/></g><g><path d="m19.1 58.1c-.5 0-1-.4-1-1s.4-1 1-1l27.4-.2c.6 0 1 .4 1 1s-.4 1-1 1z"/></g><g><g><path d="m12.9 28.6c-6.6 0-11.9-5.3-11.9-11.9s5.3-11.9 11.9-11.9 11.9 5.3 11.9 11.9-5.3 11.9-11.9 11.9zm0-21.8c-5.5 0-9.9 4.4-9.9 9.9s4.4 9.9 9.9 9.9 9.9-4.4 9.9-9.9-4.4-9.9-9.9-9.9z"/></g><g><path d="m12.9 28.6c-3.2 0-4.9-6-4.9-11.9s1.7-11.9 4.9-11.9 4.9 6 4.9 11.9-1.7 11.9-4.9 11.9zm0-21.8c-1 0-2.9 3.5-2.9 9.9s1.9 9.9 2.9 9.9 2.9-3.5 2.9-9.9-1.9-9.9-2.9-9.9z"/></g><g><path d="m23.8 17.7h-21.8c-.6 0-1-.4-1-1s.4-1 1-1h21.8c.6 0 1 .4 1 1s-.4 1-1 1z"/></g><g><path d="m21.9 11.6h-18c-.6 0-1-.4-1-1s.4-1 1-1h18c.6 0 1 .4 1 1s-.4 1-1 1z"/></g><g><path d="m21.9 23.6h-18c-.6 0-1-.4-1-1s.4-1 1-1h18c.6 0 1 .4 1 1s-.4 1-1 1z"/></g></g><g><path d="m46.5 17.2h-17.8c-.6 0-1-.4-1-1v-6.8c0-.6.4-1 1-1h17.8c.6 0 1 .4 1 1v6.8c0 .6-.4 1-1 1zm-16.8-2h15.8v-4.8h-15.8z"/></g><g><path d="m34.5 27.4h-5.8c-.6 0-1-.4-1-1v-5.2c0-.6.4-1 1-1h5.8c.6 0 1 .4 1 1v5.2c0 .6-.4 1-1 1zm-4.8-2h3.8v-3.2h-3.8z"/></g><g><path d="m46.5 22.2h-7.4c-.6 0-1-.4-1-1s.4-1 1-1h7.4c.6 0 1 .4 1 1s-.4 1-1 1z"/></g><g><path d="m46.5 27.2h-7.4c-.6 0-1-.4-1-1s.4-1 1-1h7.4c.6 0 1 .4 1 1s-.4 1-1 1z"/></g></g></svg>