<svg id="Layer_1" enable-background="new 0 0 512 512" viewBox="0 0 512 512" xmlns="http://www.w3.org/2000/svg"><path d="m439.745 64.58c-41.323-41.323-96.269-64.08-154.719-64.08-58.44 0-113.387 22.757-154.719 64.08-41.323 41.332-64.08 96.279-64.08 154.719 0 44.377 13.045 86.667 37.839 123.009l-56.454 8.913c-2.595.409-4.741 2.236-5.55 4.731-.808 2.495-.15 5.23 1.697 7.087l31.291 31.281-64.838 64.818c-1.308 1.308-2.046 3.084-2.046 4.931s.739 3.623 2.046 4.931l40.454 40.464c1.367 1.358 3.144 2.036 4.931 2.036s3.573-.679 4.931-2.036l64.838-64.818 31.261 31.261c1.857 1.856 4.591 2.505 7.087 1.697 2.495-.809 4.322-2.954 4.731-5.54l9.772-61.784c32.549 18.236 69.25 27.828 106.809 27.828 58.45 0 113.397-22.757 154.719-64.08 41.332-41.332 64.09-96.279 64.09-154.729-.001-58.44-22.758-113.387-64.09-154.719zm-282.939 391.784-26.5-26.51c-2.725-2.725-7.147-2.725-9.872 0l-64.838 64.808-30.592-30.592 64.838-64.808c1.308-1.308 2.046-3.084 2.046-4.931 0-1.856-.739-3.623-2.046-4.931l-26.53-26.54 111.051-17.527zm109.834-80.898c-7.126 0-12.916-5.789-12.916-12.916 0-7.137 5.789-12.946 12.916-12.946 7.117 0 12.916 5.809 12.916 12.946 0 7.127-5.799 12.916-12.916 12.916zm19.893-104.345c-3.853 0-6.977 3.124-6.977 6.977v27.029h-25.832v-32.24c0-8.025 2.805-14.592 8.574-20.092 5.829-5.52 12.526-8.005 20.472-7.596h.19c1.188.03 2.376.06 3.573.06 41.093 0 74.53-33.437 74.53-74.54 0-41.093-33.437-74.54-74.53-74.54-30.124 0-57.133 18.116-68.711 45.555h-27.438c12.616-41.832 51.753-71.386 96.149-71.386 55.336 0 100.371 45.036 100.371 100.371 0 55.367-45.035 100.402-100.371 100.402z"/></svg>