<svg height="512pt" viewBox="0 -35 512 511" width="512pt" xmlns="http://www.w3.org/2000/svg"><path d="m492.304688.5h-24.6875c-4.183594 0-7.578126 3.394531-7.578126 7.574219 0 4.183593 3.394532 7.578125 7.578126 7.578125h24.6875c2.464843 0 4.542968 2.078125 4.542968 4.542968v152.527344c0 2.464844-2.078125 4.546875-4.542968 4.546875h-223.738282v-6.660156c0-17.300781-13.253906-31.898437-30.171875-33.230469-19.082031-1.503906-35.394531 13.679688-35.394531 32.675782v7.214843h-183.304688c-2.464843 0-4.542968-2.082031-4.542968-4.546875v-33.617187c0-4.179688-3.382813-7.574219-7.578125-7.574219-4.179688 0-7.574219 3.394531-7.574219 7.574219v33.617187c0 10.859375 8.839844 19.695313 19.695312 19.695313h183.304688v85.878906c0 3.25-3.683594 5.089844-6.273438 3.152344-28.277343-21.023438-75.925781 9.519531-42.878906 53.980469 0 0 36.613282 45.917968 36.707032 46.039062 15.53125 19.410156 14.203124 3.640625 14.203124 37.324219 0 12.636719 10.28125 22.917969 22.917969 22.917969h98.667969c12.644531 0 22.917969-10.28125 22.917969-22.917969v-21.960938c0-2.90625 1.191406-5.714843 3.34375-7.898437 10.871093-11.039063 16.859375-25.59375 16.859375-40.988282v-29.667968c0-32.242188-26.234375-58.472656-58.476563-58.472656h-42.421875v-67.386719h223.738282c10.855468 0 19.695312-8.835938 19.695312-19.695313v-152.527344c0-10.855468-8.839844-19.695312-19.695312-19.695312zm-181.316407 274.453125c23.890625 0 43.324219 19.4375 43.324219 43.324219v29.667968c0 11.394532-4.433594 22.171876-12.503906 30.351563-4.960938 5.03125-7.699219 11.617187-7.699219 18.535156v21.960938c0 4.28125-3.484375 7.769531-7.765625 7.769531h-98.667969c-4.28125 0-7.765625-3.488281-7.765625-7.769531v-18.816407c0-7.730468-3.527344-15.042968-9.6875-20.050781-5.738281-4.671875-4.523437-3.78125-44.292968-53.636719-4.082032-5.515624-12.585938-19.121093-5.476563-28.679687 6.40625-8.613281 18.617187-10.402344 27.234375-4 12.542969 9.34375 30.464844.398437 30.464844-15.3125 0-11.539063 0-98.210937 0-108.242187 0-9.902344 8.46875-18.398438 19.050781-17.574219 9.089844.714843 16.210937 8.675781 16.210937 18.128906v91.71875c0 6.960937 5.667969 12.625 12.625 12.625zm0 0"/><path d="m7.574219 116.378906c4.195312 0 7.578125-3.394531 7.578125-7.574218v-88.609376c0-2.464843 2.078125-4.542968 4.542968-4.542968h417.617188c4.183594 0 7.578125-3.394532 7.578125-7.578125 0-4.179688-3.394531-7.574219-7.578125-7.574219h-417.617188c-10.855468 0-19.695312 8.839844-19.695312 19.695312v88.609376c0 4.179687 3.394531 7.574218 7.574219 7.574218zm0 0"/><path d="m96.804688 73.375c0-18.554688-12.410157-24.359375-28.003907-24.359375h-23.566406c-3.300781 0-5.464844 2.503906-5.464844 5.351563v72.402343c0 7.285157 17.757813 7.285157 17.757813 0v-27.4375h7.515625l15.59375 30.28125c4.585937 8.757813 20.347656-1.851562 16.28125-7.96875l-13.886719-25.160156c7.96875-3.070313 13.773438-10.355469 13.773438-23.109375zm-39.273438 12.296875v-21.175781c12.621094 0 21.515625-2.011719 21.515625 10.585937 0 12.605469-8.890625 10.589844-21.515625 10.589844zm0 0"/><path d="m154.519531 64.496094c3.414063 0 5.351563-3.640625 5.351563-7.855469 0-3.640625-1.59375-7.625-5.351563-7.625h-40.527343c-3.871094 0-7.742188 1.820313-7.742188 5.464844v72.289062c0 3.640625 3.871094 5.460938 7.742188 5.460938h40.527343c7.261719 0 7.035157-15.480469 0-15.480469h-30.507812v-19.351562h17.074219c3.757812 0 5.351562-3.644532 5.351562-6.71875 0-3.640626-1.9375-6.941407-5.351562-6.941407h-17.074219v-19.242187zm0 0"/><path d="m190.71875 117.433594c-10.585938 0-14.003906-8.425782-19.355469-8.425782-4.324219 0-7.738281 5.691407-7.738281 9.5625 0 7.515626 12.519531 14.800782 27.433594 14.800782 16.507812 0 28.460937-8.878906 28.460937-25.273438 0-28.6875-36.089843-26.523437-36.089843-37.90625 0-3.53125 3.304687-6.832031 11.386718-6.832031 9.335938 0 11.496094 4.324219 15.597656 4.324219 5.007813 0 7.054688-6.261719 7.054688-9.335938 0-8.875-16.621094-10.015625-22.652344-10.015625-14.230468 0-29.144531 6.488281-29.144531 23.566407 0 26.636718 36.085937 24.246093 36.085937 38.019531.003907 5.464843-5.804687 7.515625-11.039062 7.515625zm0 0"/><path d="m276.550781 64.496094c7.039063 0 7.253907-15.480469 0-15.480469h-40.527343c-3.871094 0-7.742188 1.820313-7.742188 5.464844v72.289062c0 3.640625 3.871094 5.460938 7.742188 5.460938h40.527343c7.261719 0 7.03125-15.480469 0-15.480469h-30.511719v-19.351562h17.078126c7.234374 0 7.019531-13.660157 0-13.660157h-17.078126v-19.242187zm0 0"/><path d="m346.671875 73.375c0-18.554688-12.410156-24.359375-28.003906-24.359375h-23.566407c-3.300781 0-5.464843 2.503906-5.464843 5.351563v72.402343c0 7.285157 17.761719 7.285157 17.761719 0v-27.4375h7.511718l15.597656 30.28125c4.585938 8.761719 20.320313-1.902343 16.277344-7.96875l-13.890625-25.15625c7.972657-3.074219 13.777344-10.359375 13.777344-23.113281zm-39.273437 12.296875v-21.175781c12.621093 0 21.515624-2.011719 21.515624 10.585937 0 12.605469-8.890624 10.589844-21.515624 10.589844zm0 0"/><path d="m399.375 52.316406-15.820312 58.398438-15.9375-58.398438c-1.925782-6.746094-18.828126-2.230468-16.964844 5.238282l21.289062 69.441406c2.484375 7.902344 20.738282 7.914062 23.222656 0 22.285157-73.085938 21.402344-69.90625 21.402344-70.695313 0-6.386719-15.320312-10.519531-17.191406-3.984375zm0 0"/><path d="m471.433594 64.496094c7.039062 0 7.257812-15.480469 0-15.480469h-40.527344c-3.867188 0-7.738281 1.820313-7.738281 5.464844v72.289062c0 3.640625 3.871093 5.460938 7.738281 5.460938h40.527344c7.265625 0 7.035156-15.480469 0-15.480469h-30.507813v-19.351562h17.074219c7.238281 0 7.023438-13.660157 0-13.660157h-17.074219v-19.242187zm0 0"/></svg>