<svg fill="none" height="32" viewBox="0 0 32 32" width="32" xmlns="http://www.w3.org/2000/svg"><path clip-rule="evenodd" d="m11 2c.5523 0 1 .44772 1 1v1h5c.5523 0 1 .44772 1 1s-.4477 1-1 1h-5v1c0 .55228-.4477 1-1 1s-1-.44772-1-1v-1h-2c-2.20914 0-4 1.79086-4 4v14c0 2.2091 1.79086 4 4 4h6c.5523 0 1 .4477 1 1s-.4477 1-1 1h-6c-3.31371 0-6-2.6863-6-6v-14c0-3.31371 2.68629-6 6-6h2v-1c0-.55228.4477-1 1-1zm10 0c.5523 0 1 .44772 1 1v1h2c3.3137 0 6 2.68629 6 6v4c0 .5523-.4477 1-1 1s-1-.4477-1-1v-4c0-2.20914-1.7909-4-4-4h-2v1c0 .55228-.4477 1-1 1s-1-.44772-1-1v-4c0-.55228.4477-1 1-1zm-13 9c-.55228 0-1 .4477-1 1s.44772 1 1 1h16c.5523 0 1-.4477 1-1s-.4477-1-1-1zm17.7071 11.7071-2.5 2.5c-.3905.3905-1.0237.3905-1.4142 0l-1.5-1.5c-.3905-.3905-.3905-1.0237 0-1.4142s1.0237-.3905 1.4142 0l.7929.7929 1.7929-1.7929c.3905-.3905 1.0237-.3905 1.4142 0s.3905 1.0237 0 1.4142zm-15.7071-5.2071c0 .8284-.67157 1.5-1.5 1.5s-1.5-.6716-1.5-1.5.67157-1.5 1.5-1.5 1.5.6716 1.5 1.5zm-1.5 7.5c.82843 0 1.5-.6716 1.5-1.5s-.67157-1.5-1.5-1.5-1.5.6716-1.5 1.5.67157 1.5 1.5 1.5zm9.5-2c0-2.7614 2.2386-5 5-5s5 2.2386 5 5-2.2386 5-5 5-5-2.2386-5-5zm5-7c-3.866 0-7 3.134-7 7s3.134 7 7 7 7-3.134 7-7-3.134-7-7-7z" fill="rgb(0,0,0)" fill-rule="evenodd"/></svg>