<svg id="Layer_1" enable-background="new 0 0 50 50" viewBox="0 0 50 50" xmlns="http://www.w3.org/2000/svg"><g><path d="m20.8 31-1.9-.7c.1-.4.3-.8.4-1.2 1.6-.4 2.1-3.2 2.3-4.9 1.2 1.3-.2 5.1-.8 6.8z" fill="rgb(0,0,0)"/><g><path d="m47.9 15.6c-.4-.5-5.4-1.7-8-1.8-.9 0-2.5-.2-4.1-.3-.1 1.3-.7 3.3-1.7 4.4 2.7.5 6.3 1.2 7.3 1.7 0 0-2.6 3-2.9 4.3 0 0-4.7 2.9-5.4 4.8-.4 0-3.5 2.6-4.5-3.3-.1 0-.2 0-.2 0-2.1.3-4-.6-5.6-2.1-2.3-2.1-7-7.7-7.4-10.7-.4 1.1.2 2-.4 3.2-1.1 1.9-2.3 2.4-1.4 3.1 0 0 .6.2.8.4.2.1-.1.7-.4 1.2 0 0-.2.3.1.6 0 0-.4.6-.1.8s.7.3.7.6-.8 1.9.8 2.4c1.6.4 3.5-.2 3.5-.2s1.8-.4 2.1.7c.2.5-.2 2.4-.3 2.5-1.2 2.7-3.7.9-3.8.9-.7-2-5.4-4.8-5.4-4.8-.3-1.3-2.8-4.3-2.8-4.3.6-.3 2-.6 3.6-1-.3-1.7 2.4-2.5 2-4.9v-.1c-1.6.2-3.2.3-4.2.3-2.6.1-7.6 1.2-8 1.8-.4.5-.6 2.5 0 5.1s4.8 7.7 4.8 7.7 3.3 3.1 4.7 7.4.2 3 1.3 7.9c.2.9.5 1.5.8 3 0 1.1 1.2 2.1 2.5 2.1h17.4c1.3 0 2.5-1 2.7-2.3.2-1.5.7-2.2.8-3 .7-4.3-.2-3.5 1.3-7.8 1.4-4.3 4.7-7.4 4.7-7.4s4.1-5.1 4.8-7.7c.6-2.7.3-4.7-.1-5.2z"/><path d="m23.5 22.5c2.8 2.6 5.2 1.7 5.2 1.7 1.6-1.1 3.1-5.9 3.1-5.9s1.4-.7 2-1.7 1.2-3.2.9-4.1c-.4-.9-1.2-3.6-1.9-5.3-.6-1.7-1.8-2.7-2.6-4s-3.4-2.4-4-2.3c-4.3.5-5.4-1-7.5 2.6-.6 1-.9 3.5-.9 3.5-1.3 2.6-1.5 3.4-1.4 5.1.1 2.4 4.2 7.8 7.1 10.4z"/></g></g></svg>