<svg id="Layer_1" enable-background="new 0 0 222.84 205.46" viewBox="0 0 222.84 205.46" xmlns="http://www.w3.org/2000/svg"><g><g><g><g><g><g><g><path d="m123.64 14.3-.23-.07c-1.28-.32-2.64-.39-4-.32-2.22.1-4.44.54-6.74.8-2.29.25-4.72.32-7.05-.4-2.05-.61-3.69-1.9-5.29-2.91-.81-.51-1.62-.96-2.48-1.27-.87-.31-1.78-.5-2.71-.6-1.8-.19-3.49 0-5.16.27-1.67.28-3.34.69-5.19 1.11-2.39.55-5.28 1.27-7.66 1.73-.11.02-.24.04-.33.03-.18-.02-.15-.17 0-.27s.38-.18.6-.23l.06-.01c.01-.04.02-.07.05-.11.08-.09.21-.14.33-.17 1.79-.44 3.71-.91 5.65-1.39s3.89-.99 5.79-1.34c1.73-.3 3.46-.55 5.21-.49-1.98-.11-3.8.15-5.58.49-1.79.34-3.55.78-5.49 1.21-2.62.6-5.77 1.37-8.37 1.87-.13.02-.26.05-.36.04-.2-.02-.16-.17.01-.27.17-.11.42-.19.65-.24 3.4-.8 7.03-1.65 10.69-2.51 1.84-.43 3.72-.84 5.65-1.03 1.92-.19 3.9-.13 5.77.38 3.24.86 5.45 3.3 8.07 4.2 2.66.95 5.65.68 8.64.3 3-.37 6.17-.9 9.36-.16 1.58.38 3.09 1.09 4.34 2.17.32.26.89.82 1.31 1.44.43.61.7 1.25.74 1.42.07.25.09.45.02.51-.08.06-.36-.26-.47-.44-.33-.51-.66-1.12-1.07-1.61-.59-.71-1.32-1.31-2.11-1.77-1.17-.7-2.49-1.13-3.83-1.32.58.14 1.15.32 1.69.56.34.11.67.23.99.38.32.13.92.43 1.43.77.52.33.93.72 1.03.83.14.16.22.31.18.39-.05.1-.38-.04-.54-.12-.44-.26-.89-.62-1.35-.89l-.24-.14c-.04.02-.08.04-.11.04-.17.03-.27-.08-.39-.15-.17-.1-.34-.18-.52-.28-.31-.18-.64-.31-.99-.43zm-16.91-.42c.04.02.06.04.09.06 1.95.38 3.96.29 5.94.08.9-.09 1.79-.21 2.68-.33-.21.01-.42.03-.65.04-.3.02-.63.05-.95.08-2.38.31-4.82.51-7.18-.02-1.25-.27-2.42-.8-3.5-1.49.62.4 1.26.76 1.94 1.04.37.17 1.46.49 1.63.54z"/></g></g></g><g><g><g><path d="m78.38 7.01.23-.2c1.2-1.09 2.51-2.07 3.9-2.92 4.51-2.79 9.88-4.06 15.14-3.88 4.54.14 8.99 1.23 13.14 2.99 3.99 1.73 7.1 3.58 10.55 6.19 2.25 1.69 4.83 3.91 6.73 5.91.09.1.19.2.24.3.09.18-.05.23-.23.14s-.39-.26-.58-.44l-.05-.05c-.04.01-.08.02-.12.01-.13-.03-.26-.12-.36-.22-3.02-2.9-6.79-5.82-10.52-8.08-1.69-1.03-3.43-1.92-5.23-2.68 4.01 1.83 7.2 3.83 10.69 6.62 2.37 1.88 5.09 4.35 7.09 6.57.1.11.2.22.25.32.1.2-.05.23-.24.13s-.41-.3-.61-.5c-2.73-2.81-5.86-5.6-9.3-8.03-3.43-2.43-7.2-4.45-11.02-5.81-6.39-2.25-13.31-2.7-19.72-.66-3.2 1.02-6.2 2.69-8.73 4.9-1.26 1.11-2.41 2.35-3.38 3.71-.51.67-1.67 2.73-1.8 3.06-.13.22-.26.38-.36.38-.11 0-.07-.44 0-.67.16-.65.6-1.31.94-1.91.55-.87 1.14-1.71 1.8-2.5.96-1.17 2.05-2.23 3.22-3.19-.56.37-1.09.78-1.62 1.2-.29.3-.56.6-.85.88s-.76.87-1.21 1.4c-.42.56-.81 1.07-.91 1.21-.15.19-.29.33-.39.31-.11-.02-.01-.44.07-.64.27-.57.73-1.15 1.17-1.65l.22-.26c-.01-.05-.01-.1-.01-.13.04-.2.19-.3.31-.42l.54-.5c.33-.3.66-.6 1.01-.89zm18.18-6.3c-.04-.01-.08-.02-.11-.04-2.24.04-4.48.32-6.68.87-.99.23-1.96.55-2.92.91.23-.07.46-.14.7-.21.32-.1.68-.19 1.04-.29 2.6-.81 5.33-1.18 8.05-1.17 1.45 0 2.9.1 4.33.31-.82-.13-1.65-.22-2.48-.29-.45-.02-1.73-.08-1.93-.09z"/></g></g></g><g><g><g><path d="m128.55 16.52c-.01.06.15.31.2.4l.3.56c.09.18.24.43.19.38-.03.14-.1.27-.21.38-.48.45-1.27.71-2.11.84-1 .16-2.05.45-3 .63-.03.01-.06.04-.08.11-.01.07.01.2.04.26.02.03.04.03.06.03.38.03.81-.1 1.18-.16.57-.08 1.02-.21 1.59-.29.58-.1 1.17-.13 1.79-.34.35-.12.71-.29 1-.61.14-.16.26-.36.32-.58.03-.1.04-.22.05-.41-.02-.07-.09-.15-.12-.2l-.07-.11c-.12-.2-.24-.39-.36-.58l-.19-.33c-.04-.08-.05-.18-.19-.19-.05 0-.2.03-.29.08-.07.04-.1.09-.1.13z"/></g></g></g><g><g><g><path d="m121.19 13.83c.1.1.87.58 1.11.78.5.38.94.83 1.24 1.35.62 1.05.37 2.34.2 3.63-.09.65-.11 1.35-.01 2.01.09.66.26 1.29.41 1.91s.31 1.23.36 1.84c.04.79.04.83-.06.69-.56-.5-1.14-1-1.71-1.51-.6-.52-1.21-1.05-1.82-1.57-1.21-1.05-2.4-2.08-3.52-3.06-.08-.07-.18-.12-.28-.13-.1 0-.21.08-.19.18.01.05.05.1.09.14.78.82 1.84 1.7 2.69 2.46 1.32 1.17 2.39 2.12 3.72 3.29.36.32.56.52 1.27 1.13l.22.19c.05.06.05 0 .06-.05l.02-.14c.03-.19.06-.39.08-.57.01-.16.05-.42.04-.51v-.36c-.03-.95-.27-1.86-.45-2.74-.23-1.03-.36-2-.23-3.03.09-1.02.31-2.14-.02-3.27-.22-.75-.71-1.38-1.25-1.87-.3-.27-.62-.51-.95-.74-.22-.15-.45-.35-.73-.39-.1-.01-.31.03-.35.13-.06.06-.01.14.06.21z"/></g></g></g><g><g><g><path d="m124.95 26.34c-.1-.06-.76.1-.95.23-.42.2-.77.49-1.08.79-.63.61-1.13 1.3-1.7 1.86-1.16 1.12-2.54 1.98-4.05 2.71-.9.43-1.83.88-2.79 1.14s-1.97.29-2.77-.09c-.06-.03-.12-.03-.2 0-.07.04-.16.14-.14.22.01.04.04.06.07.08.63.45 1.63.52 2.37.41 1.18-.13 2.06-.55 3.11-1.01 1.08-.5 2.15-.99 3.18-1.63.6-.37 1.16-.81 1.66-1.32.5-.52.9-1.08 1.33-1.59.29-.34.59-.65.94-.89.19-.13.39-.24.6-.3.14-.05.3-.04.43-.15.04-.04.14-.2.13-.3s-.07-.14-.14-.16z"/></g></g></g><g><g><g><path d="m97.06 18.91c.02.18.72.96 1.04 1.15.58.45 1.23.77 1.89 1.04 1.32.53 2.69.85 3.93 1.4 2.47 1.07 4.39 3.13 5.55 5.6 1.39 2.97 1.88 6.58 2.11 9.74.01.11.04.23.11.31s.21.1.26.01c.03-.05.03-.11.03-.17.01-1.21-.17-2.69-.33-3.91-.25-1.88-.62-3.42-1.28-5.22-.7-1.85-1.75-3.6-3.19-5.01-.84-.82-1.83-1.49-2.92-1.95-1.08-.46-2.2-.73-3.27-1.07-.71-.23-1.41-.48-2.03-.85-.34-.2-.66-.43-.94-.71-.19-.19-.34-.43-.57-.58-.08-.05-.3-.11-.38-.05-.06.07-.05.16-.01.27z"/></g></g></g><g><g><g><path d="m97.17 18.57-.08-.09c-.5-.45-1-.9-1.54-1.29-1.72-1.31-3.69-2.28-5.79-2.44-.9-.07-1.86-.01-2.87-.08-.99-.07-1.95-.24-2.89-.38-1.81-.3-3.25-.27-5.02.11-1.14.24-2.48.74-3.61 1.09-.05.02-.11.03-.16.02-.1-.02-.11-.13-.05-.21s.16-.14.26-.18l.03-.01c0-.03 0-.06.01-.08.03-.07.08-.11.14-.13 1.68-.64 3.65-1.36 5.57-1.42.87-.03 1.72.01 2.56.1-1.9-.31-3.59-.19-5.49.28-1.29.32-2.78.91-4.01 1.3-.06.02-.12.04-.18.03-.1-.02-.11-.13-.04-.21s.18-.15.29-.19c1.6-.61 3.34-1.29 5.24-1.62.94-.16 1.93-.23 2.89-.17s1.87.22 2.74.35c.73.11 1.45.2 2.16.22s1.45-.02 2.22 0c1.57.05 3.12.52 4.49 1.28s2.58 1.74 3.68 2.79c.55.53 1.09 1.06 1.6 1.62.26.27.98 1.05 1.07 1.19.06.1.1.19.06.25-.05.07-.26.01-.35-.04-.26-.15-.46-.42-.67-.65l-.92-.97c-.46-.47-.94-.93-1.43-1.36.19.23.37.45.55.69l.37.36c.24.24.92.93 1 1.05.06.09.09.17.05.23-.05.07-.25.03-.34-.02-.25-.13-.43-.37-.63-.57l-.1-.1c-.03.01-.06.02-.08.02-.11.01-.13-.08-.17-.13l-.19-.24zm-6.91-4.33c.02.01.03.02.04.04.96.11 1.9.38 2.79.8.4.18.78.4 1.16.62-.08-.06-.17-.12-.26-.19-.12-.09-.25-.18-.39-.26-1.06-.54-2.2-.92-3.38-1.08-.63-.1-1.26-.1-1.89-.1.36.01.72.02 1.09.05.2 0 .76.07.84.12z"/></g></g></g><g><g><g><path d="m83.33 45.74.17.18c.98.94 2.02 1.82 3.12 2.6 1.78 1.27 3.77 2.24 5.87 2.74 2.11.5 4.32.54 6.54.48 3.81-.11 7.68-.46 11.39-1.14.86-.2 1.66-.5 2.22-.99s.8-1.13.74-1.88-.28-1.62-.43-2.46c-.16-.85-.33-1.73-.5-2.64-.45-2.37-1.04-5.24-1.42-7.59-.02-.11-.04-.24-.03-.33.02-.18.13-.14.22.02.08.16.15.38.19.6l.01.06c.03.01.06.03.09.06.07.09.12.21.14.34.7 3.57 1.58 7.6 2.28 11.35.15.84.1 1.82-.47 2.53-.55.71-1.37 1.12-2.18 1.39.92-.29 1.83-.76 2.36-1.58.55-.83.46-1.86.29-2.72-.33-1.75-.67-3.51-1.03-5.43-.49-2.59-1.12-5.73-1.54-8.3-.02-.12-.04-.26-.03-.36.02-.19.13-.15.22.03.09.17.15.42.2.66.65 3.37 1.35 6.97 2.06 10.61l.53 2.74c.09.47.16.98.13 1.53s-.23 1.12-.55 1.58c-.67.94-1.67 1.38-2.58 1.67-.94.29-1.86.4-2.75.54-3 .43-5.97.72-8.95.85-2.96.12-6.09.12-9.05-.99-2.95-1.07-5.47-2.96-7.66-5.08-1.1-1.06-2.12-2.18-3.11-3.33-.5-.57-1.86-2.2-2.04-2.47-.13-.19-.22-.35-.18-.42.04-.08.37.13.52.27.43.39.84.93 1.24 1.4.58.69 1.16 1.37 1.77 2.03.89.98 1.82 1.93 2.81 2.81-.4-.42-.8-.86-1.18-1.3-.25-.24-.49-.5-.73-.75-.48-.49-1.77-1.94-1.94-2.18-.12-.17-.2-.32-.17-.39.04-.08.35.1.49.22.41.33.79.82 1.17 1.23l.19.21c.04 0 .08 0 .1.01.16.05.23.19.32.3l.4.47c.23.28.48.55.74.82zm14.79 6.58c-.04-.01-.07-.02-.1-.03-1.94.04-3.91-.06-5.82-.55-.43-.11-.85-.26-1.27-.38-.41-.16-.83-.31-1.23-.49.18.1.38.18.57.28.27.12.56.26.87.36 2.27.77 4.68.9 7.05.88 1.27-.01 2.53-.06 3.79-.14l-2.18.07c-.38.01-1.51.03-1.68 0z"/></g></g></g><g><g><g><path d="m91.08 53.75.08.05 1.44.68c1.57.72 3.16 1.39 4.74 2.08 1.37.59 2.7 1.22 4.07 1.39.33.04.64.04.94.02.12-.01.35-.05.38-.06.02-.01.06-.01.06-.03 0-.55 0-1.09 0-1.69 0-.93-.04-2.06.03-2.99 0-.04.01-.09.04-.13.05-.07.16-.04.21.02.05.07.07.16.07.24v.02c.03.01.05.01.07.03.05.04.07.09.07.14.02 1.42.12 2.97.11 4.5v.29c0 .09-.16.07-.23.11-.18.06-.38.09-.53.12-.33.06-.67.08-1.01.07.38.03.75.01 1.11-.04.17-.03.42-.09.61-.14.15.01.1-.14.11-.24v-.32c0-.69.01-1.39.01-2.15.01-1.02-.03-2.26.05-3.26 0-.05.01-.1.04-.14.05-.07.16-.05.21.03.05.07.07.17.07.26.01 1.33.02 2.74.03 4.18l.01 1.13v.52.26c-.03.07-.15.06-.22.09l-.5.14-.39.08c-.8.12-1.59.04-2.31-.14-1.21-.29-2.29-.76-3.35-1.18-1.07-.43-2.13-.88-3.18-1.38s-2.1-1.02-3.14-1.55l-1.55-.81c-.26-.14-.99-.52-1.09-.6-.07-.06-.11-.12-.09-.19.03-.08.21-.12.29-.11.24.03.45.18.66.29l.92.48 1.38.68-.55-.42-.36-.19c-.24-.12-.91-.46-1-.53-.06-.05-.1-.12-.08-.18.03-.08.2-.12.27-.12.22.01.42.15.61.25l.1.05c.02-.02.05-.04.06-.05.09-.05.12.02.16.05l.2.14c.13.1.25.17.37.25zm5.71 3.19c-.01-.01-.02-.03-.02-.04-.7-.28-1.39-.58-2.08-.9l-.93-.43c.07.04.13.09.21.14.1.06.21.12.31.19l2.52 1.12 1.34.59-.76-.36c-.15-.08-.54-.26-.59-.31z"/></g></g></g><g><g><g><path d="m113.65 49.38c-.11-.03-.81-.03-1.06-.03-.5-.04-.99-.05-1.49-.1-.99-.09-1.97-.24-2.94-.44-1.94-.39-3.83-.84-5.65-1.64-2.17-.94-4.44-2.2-6.21-3.62-.06-.05-.15-.08-.23-.07-.09.01-.19.1-.18.19 0 .05.04.08.07.11.62.62 1.52 1.22 2.26 1.7 1.14.76 2.15 1.27 3.38 1.87 1.28.62 2.6 1.13 3.96 1.55 1.58.48 3.23.75 4.87.89.55.04 1.1.08 1.65.1.3.02.6.03.91.03.21 0 .44.04.63-.07.07-.04.19-.19.17-.29 0-.11-.06-.16-.14-.18z"/></g></g></g><g><g><g><path d="m85.83 51.61-.19-.14c-1.05-.71-2.07-1.47-3.07-2.25-3.22-2.57-6.21-5.54-8.33-9.16-1.8-3.1-3.06-6.5-3.66-10.03-.55-3.4-.57-6.37.31-9.72.55-2.18 1.53-4.71 2.5-6.66.05-.09.1-.19.15-.26.11-.12.19-.03.17.14-.02.16-.09.36-.17.55l-.02.05c.02.02.04.05.04.09.01.1-.02.22-.06.33-1.33 3.03-2.54 6.65-2.67 10.11-.08 1.56.05 3.11.3 4.63-.48-3.45-.35-6.47.71-9.85.68-2.29 1.84-4.97 2.91-7.08.05-.1.11-.21.17-.28.12-.13.19-.03.16.14-.02.18-.1.39-.2.59-1.31 2.83-2.64 5.88-3.26 9.12-.62 3.23-.35 6.62.4 9.73.63 2.61 1.64 5.1 2.96 7.39 1.29 2.31 3 4.35 4.89 6.28 1.9 1.91 4 3.64 6.22 5.19 1.11.78 2.25 1.51 3.42 2.21.59.34 2.24 1.3 2.5 1.45.17.12.3.23.29.3-.01.09-.36.03-.54-.03-.51-.17-1.03-.51-1.51-.78-.71-.41-1.41-.83-2.1-1.26-1.02-.64-2.03-1.3-3.01-1.99.41.34.81.68 1.23 1.01l.8.53c.53.33 2.02 1.27 2.26 1.42.15.11.27.22.25.3-.01.09-.34.03-.51-.03-.47-.17-.93-.5-1.37-.77l-.22-.14c-.04.01-.08.02-.1.02-.16 0-.25-.12-.36-.19l-.46-.34zm-10.67-11.12c.01.03.02.06.02.09.96 1.49 2.09 2.87 3.31 4.19.55.59 1.12 1.17 1.7 1.73-.13-.14-.25-.28-.39-.43-.18-.2-.38-.41-.58-.63-1.51-1.54-2.92-3.2-4.04-5.05-.62-.97-1.14-2-1.63-3.03.28.6.55 1.2.87 1.78.16.33.68 1.21.74 1.35z"/></g></g></g><g><g><g><path d="m79.83 36.14-.08-.08c-.49-.41-.96-.83-1.43-1.27-1.5-1.41-2.92-3.01-3.91-4.88-.86-1.59-1.49-3.29-1.9-5.04-.39-1.69-.61-3.11-.62-4.85-.01-1.12.05-2.5.31-3.58.01-.05.03-.11.06-.14.06-.07.16-.02.2.06.04.09.04.19.03.29v.03c.03.01.05.03.07.04.04.05.06.11.05.17-.23 1.64-.16 3.53.03 5.23.09.78.24 1.53.44 2.27-.36-1.7-.55-3.17-.51-4.93.02-1.19.15-2.63.48-3.76.02-.05.03-.11.07-.15.07-.07.17-.02.2.07s.03.2.01.31c-.64 2.98-.41 6.51.47 9.56.73 2.57 2.03 4.86 3.75 6.86.86 1.02 1.81 1.97 2.82 2.85.5.44 1.03.87 1.56 1.28.26.21 1.04.76 1.14.86.07.07.12.15.09.22-.03.08-.24.08-.33.05-.27-.08-.5-.28-.72-.45l-.97-.74c-.47-.37-.94-.75-1.39-1.14l.52.62.37.31c.24.2.94.74 1.04.84.07.07.11.15.07.21-.04.07-.23.08-.32.05-.25-.08-.46-.27-.66-.44l-.1-.08c-.03.02-.06.03-.07.03-.1.02-.13-.06-.18-.1l-.2-.21zm-4.72-6.14v.05c.46.76.97 1.49 1.53 2.18.25.32.51.62.78.92-.05-.08-.11-.16-.16-.24-.08-.11-.17-.23-.25-.35-.7-.81-1.33-1.69-1.86-2.63-.28-.5-.53-1.01-.77-1.53.13.3.25.61.4.9.07.17.31.62.33.7z"/></g></g></g><g><g><g><path d="m114.42 45.02.05-.07.71-1.24c.4-.68.85-1.37 1.47-1.97.31-.29.66-.56 1.04-.77.37-.2.73-.35 1.04-.52.55-.28.88-.59 1.06-1.11.18-.51.19-1.13.17-1.77-.09-1.28-.16-2.33-.25-3.6-.05-.83-.16-1.83-.14-2.65 0-.04 0-.08.03-.11.05-.06.15-.05.21.01.06.05.08.13.09.21v.02c.03 0 .06.01.07.02.05.03.08.07.08.12.1 1.25.29 2.66.38 3.96.04.59.11 1.17.17 1.76-.08-1.32-.16-2.44-.24-3.78-.05-.91-.16-2-.14-2.9 0-.04 0-.09.03-.12.05-.07.16-.05.21.01.06.06.08.15.09.23.14 2.38.43 4.98.51 7.54-.02.56-.08 1.15-.34 1.73-.24.59-.76 1.08-1.25 1.36-.49.29-.97.48-1.35.71-.37.23-.71.53-1.03.87-.64.69-1.13 1.58-1.68 2.47-.27.45-.57.9-.9 1.33-.15.22-.68.81-.8.87-.07.05-.15.07-.2.02-.06-.05-.05-.23-.02-.3.09-.2.27-.35.41-.51.2-.24.39-.49.56-.75.26-.38.49-.77.71-1.17l-.42.45-.19.3c-.12.2-.5.75-.59.81-.06.05-.12.07-.18.03-.07-.04-.1-.2-.08-.27.04-.19.18-.34.28-.49l.05-.08c-.02-.03-.04-.05-.04-.06-.04-.09.02-.1.05-.14l.14-.15c.07-.1.15-.2.23-.3zm4.29-3.92c-.01 0-.03-.01-.04-.01-.6.29-1.2.61-1.69 1.09-.22.21-.43.43-.62.67.05-.05.1-.1.17-.15.08-.07.16-.14.24-.22.54-.61 1.24-1.02 2-1.34.39-.18.79-.39 1.11-.72-.19.18-.4.32-.63.44-.12.08-.47.24-.54.24z"/></g></g></g></g><g><g><g><path d="m82.62 25.42-.04-.04c-.24-.17-.5-.33-.74-.51-.79-.57-1.55-1.2-2.19-1.94-.55-.64-1.04-1.32-1.48-2.03-.43-.69-.78-1.26-1.1-2-.21-.48-.5-1.05-.57-1.58 0-.03-.01-.05.02-.08.05-.06.18-.09.25-.07.07.01.11.05.13.1v.01c.03-.01.07-.01.09-.02.07 0 .1.02.11.04.27.71.72 1.45 1.08 2.15.17.31.37.6.59.88-.4-.68-.75-1.26-1.04-2.01-.21-.5-.47-1.11-.54-1.65 0-.03-.01-.05.02-.08.05-.05.18-.08.25-.06s.11.06.13.1c.39 1.31 1.14 2.69 1.92 3.89.66 1.01 1.52 1.81 2.39 2.63.43.41.89.8 1.37 1.16.24.18.49.34.74.52.13.08.5.29.54.35.03.04.04.1 0 .18-.04.09-.18.19-.23.2-.16.04-.26-.07-.37-.14-.16-.09-.32-.19-.47-.3-.23-.15-.46-.29-.69-.45l.21.33.18.12c.12.08.47.3.5.35.03.04.03.1-.01.18-.05.09-.18.18-.24.2-.16.04-.25-.07-.35-.14l-.05-.03c-.03.03-.05.05-.06.06-.08.07-.08 0-.1-.02l-.09-.11c-.05-.07-.11-.13-.16-.19zm-2.32-2.82c0 .01-.01.03-.01.04.29.28.59.56.88.85.13.13.27.25.41.38-.02-.04-.05-.08-.07-.12-.03-.06-.08-.11-.12-.16-.37-.33-.72-.67-1.05-1.05-.17-.2-.33-.41-.5-.61l.26.38c.05.06.2.25.2.29z"/></g></g></g></g><g><g><g><path d="m1.97 70.52.08.9c.51 4.83 1.55 9.61 3.04 14.24 1.24 3.76 2.75 7.43 4.47 10.99 1.77 3.54 3.67 7.03 5.83 10.36 4.23 6.72 9.02 13.09 14.06 19.25 8.67 10.59 18.12 20.55 28.02 30.01 4.79 4.57 9.28 8.61 13.86 12.54 4.59 3.95 9.14 7.94 14.12 12.3 6.47 5.66 14.4 12.4 20.99 17.7.32.26.66.53.88.75.43.42.18.4-.33.07-.51-.32-1.18-.82-1.8-1.3l-.16-.13c-.06-.01-.15-.03-.26-.09-.31-.17-.7-.45-1.05-.73-10.11-8.09-21.14-17.82-31.35-26.68-4.65-4.01-9.2-8-13.64-12.12 4.98 4.71 9.75 8.88 14.56 13.01 4.78 4.18 9.58 8.37 14.81 12.94 7.08 6.18 15.83 13.48 23.19 19.1.36.27.73.57.99.8.49.45.22.41-.35.06s-1.31-.87-2-1.39c-9.75-7.42-19.63-15.99-29.56-24.67-4.95-4.36-9.99-8.64-14.93-13.01-4.92-4.38-9.68-8.86-14.22-13.36-7.6-7.55-14.84-15.28-21.62-23.39-3.41-4.05-6.65-8.23-9.77-12.53-3.11-4.3-6.08-8.75-8.69-13.47-5.25-9.38-9.11-19.7-10.3-30.46-.61-5.37-.58-10.8.04-16.16.2-1.33.48-3.9.99-6.23.41-2.35 1.04-4.45 1.17-5.01.22-.78.42-1.4.54-1.49.13-.1-.05 1.23-.19 1.94-.18 1.02-.48 2.09-.69 3.21-.22 1.11-.44 2.24-.65 3.31-.28 1.57-.45 3.17-.68 4.75-.15 1.6-.29 3.2-.37 4.8-.21 4.71.11 9.44.87 14.09-.34-2.05-.42-4.13-.59-6.19l-.16-3.73c-.03-.61.02-1.5.03-2.51.02-1.01.02-2.13.13-3.21.09-1.08.17-2.11.23-2.94.1-.83.2-1.45.24-1.7.12-.74.25-1.32.35-1.41.12-.1.1 1.11.05 1.77-.09.93-.16 1.94-.23 2.97-.06 1.03-.2 2.06-.21 3.05l-.01 1.01c.04.1.07.2.08.28.09.52.03 1.05.01 1.55-.05.73-.02 1.46 0 2.18.04 1.33.02 2.66.18 3.98zm24.86 53.61c-.08-.11-.13-.2-.19-.3-4.31-5.41-8.43-11.01-12.14-16.96-.86-1.32-1.63-2.69-2.41-4.06-.81-1.35-1.51-2.76-2.24-4.16.32.66.65 1.33 1 2.03.45.95 1.05 1.93 1.6 2.94 1.02 1.85 2.2 3.61 3.31 5.41 1.18 1.75 2.33 3.53 3.56 5.24 2.42 3.46 4.99 6.82 7.61 10.14 2.81 3.52 5.69 6.97 8.67 10.34-1.72-1.93-3.36-3.93-5.03-5.91-.88-1.11-3.42-4.2-3.74-4.71z"/></g></g></g><g><g><g><path d="m26.77 18.79-.28.16c-.74.45-1.46.92-2.16 1.43-.72.48-1.4 1-2.09 1.53-4.43 3.44-8.37 7.52-11.6 12.1-2.76 3.94-4.95 8.29-6.52 12.85-.78 2.2-1.31 4.26-1.74 6.35-.45 2.08-.72 4.19-.93 6.51-.25 3.01-.12 6.68.2 9.63.01.14.03.3.01.41-.04.22-.18.16-.27-.04s-.15-.49-.19-.77l-.01-.07c-.04-.01-.07-.04-.1-.08-.08-.11-.13-.28-.15-.44-.25-2.29-.37-4.75-.29-7.24.09-2.49.38-4.99.84-7.36.4-2.15.94-4.24 1.56-6.32-1.5 4.66-2.24 8.77-2.55 13.72-.18 3.36.13 7.43.67 10.7.02.16.05.33.04.46-.02.24-.17.19-.27-.03s-.19-.54-.24-.85c-.4-2.17-.63-4.45-.69-6.77-.08-2.32.02-4.7.3-7.06.52-4.73 1.75-9.42 3.46-13.69 1.42-3.58 3.2-6.97 5.31-10.14s4.61-6.07 7.39-8.74c2.79-2.66 5.85-5.03 9.13-7.06 1.63-1.03 3.34-1.93 5.07-2.77.44-.2 1.28-.57 2.06-.92.79-.32 1.53-.58 1.73-.64.28-.08.51-.12.58-.05.08.08-.32.39-.54.52-.65.37-1.47.62-2.18.95-1.05.44-2.07.95-3.08 1.47-.75.38-1.47.82-2.2 1.23l-2.13 1.34 1.96-1.04 1.16-.66c.74-.46 2.94-1.55 3.29-1.67.25-.09.46-.13.53-.06.08.08-.25.38-.44.51-.55.38-1.25.71-1.88 1.02l-.32.17c-.01.05-.03.1-.04.13-.11.18-.3.22-.46.3l-.7.34c-.41.18-.83.4-1.24.64zm-16 13.87c.03-.03.07-.05.1-.08 1.46-1.98 3.03-3.89 4.79-5.67.79-.79 1.59-1.58 2.43-2.33-.2.17-.42.32-.63.51-.28.25-.58.52-.89.8-2.15 2.11-4.13 4.38-5.92 6.8-.48.64-.95 1.29-1.39 1.96-.46.66-.88 1.34-1.29 2.03.47-.79.99-1.56 1.52-2.31.27-.42 1.13-1.56 1.28-1.71z"/></g></g></g><g><g><g><path d="m55.99 12.26-.18-.02c-.96-.05-1.93-.13-2.89-.11-3.14-.01-6.27.29-9.36.81-2.66.45-5.28 1.14-7.84 1.99-2.48.82-4.42 1.77-6.75 2.93-1.5.79-3.24 1.87-4.66 2.75-.07.04-.14.09-.21.09-.13.01-.18-.12-.11-.24.06-.12.18-.24.31-.33l.03-.02c-.01-.03-.02-.07-.01-.11.02-.09.08-.17.16-.22 2.14-1.43 4.66-2.96 7.14-4.05 1.13-.47 2.23-.99 3.36-1.41-2.59.9-4.7 1.88-7.15 3.19-1.67.87-3.55 2.16-5.12 3.15-.08.05-.16.1-.24.11-.15.02-.19-.11-.12-.24s.21-.25.35-.35c4.01-2.89 9.05-5.51 14-7 4.13-1.24 8.27-2.19 12.6-2.37 1.08-.04 2.16-.09 3.24-.05 1.08 0 2.16.08 3.24.16 1.07.08 2.14.26 3.22.38.53.09 2.04.35 2.26.42.16.05.28.12.28.21.01.1-.29.2-.43.22-.43.04-.89-.08-1.32-.16-.63-.12-1.26-.2-1.9-.27-.93-.12-1.87-.21-2.81-.24l1.23.24.74.08c.48.06 1.85.2 2.05.27.14.05.25.11.26.2.01.1-.25.21-.38.23-.38.05-.81-.03-1.2-.07l-.2-.02c-.02.04-.05.07-.06.08-.11.09-.21.02-.31 0l-.43-.1c-.27-.06-.53-.11-.79-.13zm-11.91-.12c.03 0 .05.02.07.03l2.05-.32c.69-.07 1.38-.13 2.08-.2.62-.07 1.25-.06 1.88-.09-.15-.01-.29-.02-.45-.03-.21-.01-.44-.01-.67-.02-1.68.12-3.36.31-5.03.56-.89.13-1.77.32-2.65.48l1.53-.25c.27-.05 1.06-.18 1.19-.16z"/></g></g></g><g><g><g><path d="m57.96 11.12.08.02 1.31.15c1.42.16 2.84.34 4.24.63 1.2.25 2.4.53 3.59.84 1.15.3 2.11.51 3.24.85.74.22 1.65.44 2.34.76.03.02.07.03.09.07.03.08-.03.2-.1.24s-.15.05-.22.03l-.02-.01c-.01.03-.03.06-.05.08-.05.05-.1.07-.14.05-1.1-.33-2.39-.58-3.54-.9-.53-.14-1.05-.24-1.58-.34 1.17.31 2.17.55 3.35.92.8.24 1.77.51 2.52.86.04.02.07.04.09.08.04.08-.03.2-.1.24-.08.04-.16.04-.23.02-2.04-.68-4.42-1.27-6.6-1.81-1.83-.46-3.65-.69-5.5-1.02-.93-.17-1.86-.32-2.79-.45l-1.4-.19c-.23-.03-.9-.09-.99-.14-.07-.03-.12-.08-.12-.17 0-.1.13-.24.2-.27.19-.09.4-.03.59-.01l.84.1 1.24.14-.53-.23-.33-.04c-.22-.03-.83-.09-.92-.13-.06-.03-.11-.08-.11-.17 0-.1.12-.24.19-.27.18-.09.37-.03.55-.01l.09.01c.01-.04.03-.07.03-.08.06-.09.1-.04.14-.02l.19.07c.13.03.25.07.36.1zm5.21 1.43c-.01-.01-.02-.03-.02-.04-.61-.1-1.22-.2-1.83-.3l-.83-.14c.06.02.12.05.19.08.09.04.19.06.29.09.74.11 1.48.24 2.21.39l1.17.26-.67-.18c-.12-.03-.47-.11-.51-.16z"/></g></g></g><g><g><g><path d="m24.16 23.31.22-.13c1.14-.78 2.25-1.59 3.46-2.25 3.84-2.29 8-4.04 12.32-5.21 3.71-1 7.54-1.54 11.37-1.74.93-.03 1.81-.06 2.68-.08.87.03 1.71.06 2.56.09.85.01 1.69.09 2.55.2s1.75.16 2.66.35c2.37.41 5.24 1.03 7.44 1.95.11.04.22.09.29.15.14.12.03.22-.15.23-.18 0-.4-.05-.61-.13l-.05-.02c-.03.03-.06.05-.1.06-.11.03-.24.01-.36-.04-3.42-1.09-7.44-1.72-11.16-1.97-.85-.03-1.69-.05-2.52-.08-.84-.03-1.67.06-2.5.09 1.89-.1 3.63.01 5.37.07 1.73.19 3.49.3 5.36.73.63.13 1.31.23 1.98.4.67.19 1.36.38 2.04.56.34.1.68.19 1.02.29.33.11.66.25.98.37.64.26 1.26.5 1.86.74.11.05.23.1.31.16.14.12.03.22-.16.22s-.43-.06-.65-.15c-6.17-2.49-13.87-3.36-20.8-2.72-5.81.53-11.38 2.01-16.69 4.4-1.31.63-2.66 1.2-3.9 1.96-.63.36-1.28.7-1.89 1.09l-1.81 1.22-.91.61-.85.68-1.71 1.36c-.54.49-2 1.92-2.25 2.11-.18.14-.34.23-.42.19-.1-.05.06-.4.17-.56.33-.47.84-.9 1.27-1.32.62-.63 1.31-1.18 1.99-1.73l1.51-1.23 1.6-1.1-1.51.83c-.29.18-.55.42-.82.63-.53.42-2.02 1.62-2.25 1.8-.16.13-.31.21-.39.16-.09-.05.05-.4.16-.55.33-.42.84-.78 1.28-1.13l.22-.18c0-.05 0-.09.01-.12.05-.17.2-.22.32-.3l.51-.35c.31-.22.63-.41.95-.61zm15.29-6.66c-.04 0-.07 0-.1-.01-.91.3-1.82.59-2.74.89-.89.35-1.79.7-2.7 1.06-.82.29-1.59.71-2.39 1.07.19-.07.38-.15.58-.23.27-.11.56-.23.85-.36 1.07-.47 2.16-.87 3.25-1.3 1.1-.4 2.22-.71 3.33-1.07 1.19-.35 2.41-.58 3.62-.88l-2.09.45c-.37.08-1.44.34-1.61.38z"/></g></g></g><g><g><g><path d="m3.54 71.91-.03-.29c-.22-1.53-.34-3.07-.42-4.62-.25-5.03.21-10.11 1.46-15 1.09-4.2 2.7-8.27 4.82-12.05 1.02-1.83 2.03-3.45 3.14-5.01 1.09-1.57 2.28-3.07 3.68-4.62 1.8-2.03 4.17-4.33 6.33-5.92.1-.08.21-.16.31-.2.19-.07.22.08.11.25s-.29.35-.48.51l-.04.04c.01.04.01.08-.01.12-.04.12-.14.23-.25.32-1.54 1.3-3.11 2.79-4.58 4.39-1.46 1.61-2.84 3.33-4.08 5.02-1.14 1.54-2.11 3.16-3.03 4.79 2.16-3.67 4.28-6.61 7.25-9.75 2-2.12 4.64-4.5 7.03-6.1.11-.08.24-.16.34-.2.2-.07.22.08.09.26-.13.17-.33.36-.55.52-3.03 2.23-5.97 5-8.56 8.13-2.6 3.11-4.83 6.59-6.58 10.1-1.48 2.94-2.6 6.01-3.41 9.15-.82 3.14-1.33 6.36-1.56 9.64-.24 3.28-.17 6.59.24 9.85.18 1.64.49 3.26.83 4.87.1.4.29 1.16.46 1.87.2.7.38 1.34.41 1.52.05.25.06.45-.02.51-.09.07-.34-.28-.44-.49-.28-.58-.47-1.31-.62-1.97-.25-.96-.46-1.93-.66-2.91-.28-1.44-.5-2.89-.67-4.34l.08 1.94.19 1.15c.1.76.56 2.87.61 3.19.03.23.04.42-.04.47-.09.06-.33-.27-.42-.47-.24-.55-.34-1.25-.47-1.86l-.07-.32c-.04-.02-.08-.05-.1-.07-.13-.14-.1-.32-.12-.48l-.07-.7c-.02-.4-.07-.82-.1-1.24zm1.45-18.74c-.02.04-.04.07-.06.1-.47 2.11-.81 4.25-1.02 6.43-.12.98-.16 1.96-.22 2.94.02-.23.05-.46.08-.7.04-.33.08-.68.12-1.04.19-2.62.59-5.24 1.2-7.8.32-1.36.71-2.71 1.15-4.04-.25.76-.52 1.52-.73 2.3-.14.43-.46 1.63-.52 1.81z"/></g></g></g><g><g><g><path d="m19.61 110.03-.13-.21c-.76-1.11-1.54-2.2-2.25-3.34-2.37-3.67-4.49-7.5-6.29-11.48-1.56-3.42-2.86-6.95-4-10.53-1.1-3.47-1.85-6.37-2.56-9.93-.44-2.31-.94-5.13-1.07-7.45-.01-.11-.01-.23.01-.32.05-.17.19-.13.27.03s.13.38.15.59l.01.05c.04.01.07.03.1.06.07.09.11.21.13.34.43 3.5 1.26 7.4 2.14 10.97.43 1.61.87 3.19 1.41 4.75-1.09-3.56-1.89-6.61-2.53-10.32-.48-2.5-.88-5.57-1.01-8.07 0-.12-.01-.25.01-.35.05-.18.19-.13.27.04s.13.41.15.64c.53 6.57 2.2 13.92 4.42 20.44 1.86 5.47 4.25 10.57 7.05 15.62.72 1.25 1.41 2.52 2.19 3.73l1.15 1.84 1.21 1.79c.78 1.21 1.69 2.34 2.52 3.52.44.57 1.72 2.15 1.89 2.41.12.18.19.35.14.43-.06.09-.39-.09-.55-.22-.43-.37-.81-.9-1.18-1.37-.55-.67-1.06-1.37-1.58-2.07l-1.14-1.54-1.09-1.58.82 1.49c.19.28.39.55.59.83.4.54 1.52 2.04 1.67 2.29.11.17.17.32.12.4-.06.09-.38-.08-.53-.2-.4-.34-.72-.86-1.05-1.29l-.17-.23c-.05 0-.09 0-.12-.01-.17-.06-.21-.21-.28-.32l-.32-.51zm-7.66-14.51c.01.04.01.07.01.1.42.84.84 1.69 1.25 2.54.44.84.88 1.67 1.33 2.52.39.77.83 1.5 1.25 2.25-.09-.18-.17-.36-.27-.56-.13-.25-.27-.53-.41-.81l-1.62-3.04c-.51-1.03-1-2.07-1.5-3.1-.5-1.11-.97-2.24-1.46-3.36l.8 1.95c.14.35.56 1.35.62 1.51z"/></g></g></g><g><g><g><path d="m40.85 136.66-.14-.16c-.82-.85-1.66-1.67-2.46-2.53-2.66-2.76-5.23-5.61-7.66-8.57-2.09-2.55-4.11-5.15-6.07-7.8-1.89-2.56-3.45-4.67-5.24-7.3-1.17-1.7-2.6-3.75-3.63-5.5-.05-.08-.1-.18-.12-.26-.03-.16.11-.19.25-.1.13.09.26.24.37.39l.03.04c.04-.01.07-.01.11 0 .1.03.18.11.24.21 1.72 2.58 3.8 5.41 5.67 8.05.86 1.19 1.73 2.35 2.62 3.49-1.94-2.64-3.57-4.88-5.42-7.64-1.26-1.86-2.8-4.11-3.92-6.02-.05-.09-.11-.19-.13-.28-.03-.17.11-.19.25-.09s.28.26.39.44c3.16 4.91 7 10.31 10.66 15.18 3.07 4.08 6.31 7.84 9.69 11.66 1.69 1.91 3.42 3.79 5.18 5.62.88.92 1.79 1.82 2.68 2.73.46.45 1.75 1.69 1.93 1.9.12.15.2.29.16.37-.05.1-.38-.02-.53-.11-.43-.26-.82-.69-1.19-1.06-.55-.53-1.09-1.07-1.63-1.61-.8-.79-1.6-1.58-2.38-2.39l.92 1.18.63.63c.41.41 1.59 1.58 1.75 1.77.11.14.18.27.14.35-.05.09-.36 0-.5-.08-.4-.23-.75-.64-1.09-.98l-.17-.17c-.04.01-.09.02-.11.01-.16-.02-.21-.15-.29-.24l-.34-.41zm-9.23-11.11c.01.03.02.06.03.09 1.09 1.25 2.18 2.5 3.28 3.77l1.5 1.69c-.11-.14-.21-.28-.33-.43-.16-.2-.33-.41-.5-.63-1.35-1.5-2.67-3.03-3.96-4.59l-2.03-2.51 1.14 1.47c.2.26.8 1.01.87 1.14z"/></g></g></g><g><g><g><path d="m66.63 162.54-.14-.13-2.33-2.03c-2.52-2.21-4.98-4.47-7.36-6.84-2.04-2.03-4.04-4.1-6.01-6.2-1.9-2.02-3.49-3.68-5.34-5.75-1.21-1.34-2.7-2.93-3.8-4.32-.05-.07-.11-.14-.13-.21-.04-.14.09-.19.23-.14.13.05.27.16.38.29l.03.03c.03-.01.07-.02.1-.02.1.01.18.07.25.14 1.81 2.02 3.96 4.22 5.87 6.3.87.94 1.76 1.84 2.65 2.74-1.95-2.1-3.62-3.85-5.54-6.03-1.31-1.46-2.92-3.22-4.12-4.74-.06-.07-.12-.15-.14-.23-.04-.15.09-.2.23-.14s.28.19.4.32c3.36 3.84 7.32 8.09 10.98 11.95 3.07 3.24 6.24 6.22 9.47 9.28 1.62 1.53 3.26 3.05 4.93 4.52.83.75 1.68 1.46 2.52 2.2.43.36 1.64 1.36 1.8 1.54.12.13.19.25.15.33-.04.1-.35.03-.49-.03-.4-.19-.76-.54-1.11-.84l-1.53-1.29-2.24-1.92.87.98.59.51c.39.33 1.49 1.27 1.64 1.43.1.12.17.23.13.31-.05.09-.34.05-.47-.01-.37-.17-.7-.5-1.02-.77l-.16-.14c-.04.02-.08.03-.1.03-.15.01-.2-.11-.27-.19l-.32-.34zm-8.83-9.02c.01.03.02.05.03.08 1.05 1 2.1 2 3.17 3.01l1.44 1.36c-.1-.11-.21-.23-.31-.36-.15-.16-.32-.33-.48-.51-1.29-1.2-2.57-2.42-3.82-3.67l-1.98-2.01 1.11 1.18c.18.21.77.81.84.92z"/></g></g></g><g><g><g><path d="m107.74 197.18-.21-.18-3.53-2.81c-3.84-3.04-7.67-6.08-11.44-9.2-3.24-2.68-6.46-5.4-9.66-8.13-3.09-2.65-5.66-4.81-8.69-7.52-1.97-1.76-4.38-3.86-6.22-5.71-.09-.09-.18-.19-.23-.28-.09-.17.05-.23.23-.15s.38.23.56.4l.05.04c.04-.01.08-.02.12-.01.12.02.25.11.35.2 2.92 2.68 6.37 5.58 9.5 8.31 1.42 1.24 2.85 2.42 4.28 3.59-3.18-2.74-5.89-5.04-9.04-7.9-2.14-1.92-4.74-4.25-6.73-6.27-.1-.1-.2-.2-.25-.3-.1-.18.04-.23.23-.14s.41.26.6.44c5.42 5.14 11.89 10.66 17.84 15.73 4.99 4.25 9.99 8.2 15.06 12.36l7.62 6.21 3.82 3.09c.64.52 2.45 1.95 2.7 2.2.18.17.31.33.28.42-.03.1-.44-.03-.64-.14-.56-.31-1.11-.8-1.63-1.22l-2.29-1.84-3.39-2.7 1.38 1.32.89.72c.58.47 2.24 1.79 2.47 2.01.16.16.28.31.25.4-.03.1-.42-.01-.6-.11-.52-.27-1.02-.73-1.5-1.11l-.25-.2c-.05.01-.09.02-.12.02-.19-.02-.28-.17-.4-.27l-.5-.46zm-13.96-12.09c.03.03.04.06.06.1 1.65 1.34 3.3 2.67 4.97 4.02l2.24 1.83c-.16-.15-.33-.31-.51-.47-.24-.21-.5-.45-.77-.68-2.02-1.63-4.02-3.26-6.02-4.92l-3.17-2.65 1.8 1.55c.35.29 1.28 1.08 1.4 1.22z"/></g></g></g></g><g><g><g><g><path d="m205.18 27.21.8.84c1.1 1.1 2.22 2.21 3.41 3.12l1.87 1.53c.61.53 1.14 1.13 1.72 1.7 2.19 2.37 3.93 5.11 5.31 7.99 1.17 2.33 1.95 4.82 2.69 7.31.62 2.52 1.18 5.06 1.44 7.63.63 5.14.54 10.36-.14 15.48-.64 5.13-2.02 10.25-4.54 14.85-2.54 4.61-6.19 8.44-10.11 11.79-13.68 11.31-29.13 19.95-43.27 30.38-3.41 2.53-6.61 5.02-9.58 7.63-1.47 1.32-2.93 2.63-4.37 3.93-1.45 1.27-2.64 2.76-4.05 4.17-.68.7-1.49 1.39-2.24 1.97-.37.3-.73.59-1.04.91-.31.33-.63.72-.94 1.08-.63.74-1.26 1.47-1.89 2.21s-1.28 1.47-1.86 2.27c-2.37 3.15-4.46 6.59-6.32 10.4-.63 1.23-1.32 2.52-2.21 3.73s-1.95 2.27-2.92 3.37c-.97 1.09-1.85 2.26-2.6 3.52-.78 1.26-1.29 2.6-1.88 4.05-1.18 2.83-2.51 5.56-3.67 8.26-1.15 2.69-2.11 5.39-2.98 7.95-.17.5-.34 1.03-.49 1.4-.29.72-.34.42-.17-.34s.47-1.78.8-2.73l.08-.25c-.01-.08-.01-.18.02-.34.08-.44.26-1.03.46-1.58 1.35-3.93 3.26-7.79 4.98-11.81.44-1 .81-2.04 1.26-3.05.46-1.01 1-1.98 1.62-2.91 1.2-1.88 2.84-3.45 4.28-5.15 1.45-1.71 2.42-3.75 3.42-5.76 1.01-2.01 2.13-3.96 3.35-5.84 1.23-1.87 2.5-3.71 3.96-5.37.72-.84 1.44-1.68 2.15-2.52.37-.41.69-.85 1.09-1.24s.83-.73 1.25-1.06c5.54-5.52 11.21-10.94 17.41-15.63-1.75 1.34-3.44 2.67-5.08 4.04-1.65 1.34-3.17 2.8-4.73 4.16-.77.7-1.54 1.39-2.3 2.08-.75.72-1.43 1.48-2.13 2.23-.69.75-1.39 1.49-2.14 2.17-.74.68-1.6 1.24-2.34 1.97-1.37 1.53-2.67 3.1-4.02 4.66-1.28 1.61-2.47 3.31-3.59 5.08s-2.17 3.61-3.14 5.54c-.97 1.91-1.94 3.87-3.39 5.54-.96 1.14-2.08 2.22-3.07 3.48-.99 1.24-1.88 2.61-2.6 4.1-.36.74-.65 1.52-.96 2.27-.31.76-.64 1.51-.97 2.27-.68 1.51-1.36 3.02-2.04 4.54-2.73 6.09-4.71 12.44-6.2 18.2-.14.56-.29 1.15-.42 1.58-.25.81-.31.48-.19-.36.13-.85.38-1.99.67-3.06 1-3.82 2.21-7.65 3.62-11.46 1.39-3.84 3.26-7.52 4.85-11.3.4-.93.74-1.91 1.22-2.9.47-.97 1.01-1.9 1.62-2.79 1.19-1.8 2.76-3.32 4.08-4.85 1.33-1.52 2.26-3.33 3.21-5.22.95-1.9 1.99-3.78 3.13-5.59s2.37-3.57 3.68-5.26c1.41-1.63 2.74-3.26 4.22-4.89.85-.81 1.72-1.36 2.44-2.06.75-.69 1.46-1.46 2.17-2.24.72-.77 1.44-1.58 2.24-2.31l2.37-2.13c6.23-5.77 13.07-10.71 19.83-15.35 11.35-7.76 22.91-14.86 33.45-23.27 5.21-4.2 10.04-9.05 12.76-15.14 2.76-6.07 3.71-12.89 3.88-19.65.05-6.76-.85-13.62-3.35-19.91-1.24-3.13-2.87-6.12-4.98-8.71-.26-.32-.52-.66-.79-.97l-.88-.89c-.29-.3-.58-.6-.88-.89l-.96-.81-.97-.8c-.36-.28-.71-.56-1.03-.85-.67-.58-1.29-1.19-1.91-1.79-2.45-2.44-4.74-5.01-7.14-7.43-.6-.6-1.2-1.2-1.83-1.74-.59-.52-1.32-1-2.01-1.5-1.4-.97-2.82-1.9-4.29-2.73-1.46-.84-4.37-2.23-7.28-2.73-2.9-.53-5.67-.38-6.39-.37-1.02.02-1.85.05-2-.03-.17-.08 1.5-.38 2.43-.43 2.62-.23 5.74.03 8.41.87 3.92 1.19 7.38 3.5 10.7 5.87 4.63 3.84 8.22 8.84 12.98 12.62-2.09-1.67-3.86-3.68-5.67-5.62l-3.3-3.48c-1.09-1.12-3.15-3.36-5.54-4.82-2.28-1.6-4.53-2.82-5.12-3.14-.85-.44-1.52-.8-1.62-.92-.1-.17 1.41.33 2.18.71 2.23 1.04 4.6 2.66 6.69 4.19.38.28.73.58 1.06.88.13.06.25.13.33.18.57.4 1.03.93 1.48 1.4l1.94 2.08zm5.13 68.85c.13-.11.23-.2.34-.29 3.15-3.13 5.88-6.74 7.68-10.84 1.82-4.08 2.87-8.49 3.38-12.96.49-4.02.6-8.08.31-12.11.05.94.12 1.9.1 2.9 0 .67.01 1.37.01 2.1-.03.72-.06 1.46-.09 2.2-.23 5.4-1.06 10.83-2.97 15.9-.95 2.53-2.22 4.95-3.76 7.17-1.55 2.22-3.36 4.25-5.31 6.13-4.17 3.99-8.88 7.37-13.56 10.74 2.7-1.92 5.4-3.86 8.01-5.9.71-.56 2.07-1.65 3.28-2.7 1.22-1.06 2.29-2.08 2.58-2.34z"/></g></g></g><g><g><g><path d="m198.98 96.58.24-.43c1.28-2.33 2.44-4.73 3.39-7.21 3.18-8.05 4.41-16.81 3.94-25.42-.16-3.72-.86-7.37-1.71-11-.91-3.63-1.95-7.22-3.3-10.69-1.28-3.37-2.82-6.25-4.46-9.13-1.63-2.87-3.29-5.73-5.38-8.64-1.35-1.87-3.07-3.79-5.02-5.4-1.95-1.62-4.17-2.83-6.28-3.69-.2-.08-.42-.17-.57-.26-.28-.17-.13-.26.2-.21s.76.18 1.16.35l.1.04c.04-.02.09-.03.17-.03.2.01.45.09.68.2 3.25 1.44 6.28 3.87 8.75 6.79 2.47 2.95 4.46 6.29 6.3 9.5 1.65 2.93 3.31 5.82 4.59 8.89-1.42-3.49-3.16-6.51-4.87-9.54-1.76-3-3.53-6.03-5.96-9-1.66-1.98-3.76-3.99-6.2-5.5-2.43-1.53-5.15-2.51-7.61-3.17-.24-.06-.49-.13-.67-.21-.34-.15-.18-.25.19-.22s.87.1 1.34.24c3.3.88 6.63 2.38 9.45 4.69 2.83 2.28 5.15 5.21 7.11 8.27 1.99 3.06 3.77 6.24 5.48 9.43 1.71 3.22 3.06 6.6 4.14 9.95.9 2.82 1.7 5.63 2.35 8.48.29 1.44.67 2.86.84 4.31l.32 2.17c.1.72.13 1.46.2 2.18.48 5.83.15 11.73-1.11 17.53-1.28 5.79-3.37 11.41-6.26 16.59-.34.66-.73 1.29-1.13 1.92l-1.18 1.88c-.85 1.22-1.72 2.42-2.62 3.59-.48.57-1.39 1.65-2.24 2.65-.91.94-1.76 1.8-1.99 2.02-.33.31-.61.53-.71.51-.12-.02.29-.65.53-.97.69-.91 1.7-1.77 2.44-2.72l1.69-2.02 1.55-2.12c1.5-2.1 2.82-4.33 4.01-6.63-.6.97-1.13 1.97-1.79 2.9l-1.09 1.73c-.33.58-1.08 1.62-1.78 2.58-.35.48-.68.94-.95 1.3-.3.34-.52.6-.62.71-.28.3-.52.52-.63.5-.12-.02.19-.61.39-.91.59-.83 1.26-1.82 1.92-2.68l.33-.45c0-.07 0-.13.02-.17.09-.28.29-.49.44-.72l.67-.99c.4-.56.81-1.16 1.2-1.77zm8.35-31.3c-.01.07-.02.13-.03.19.18 3.79-.15 7.6-.74 11.39l-.45 2.55-.61 2.52c.11-.39.22-.78.34-1.19.15-.55.34-1.16.44-1.78.92-4.54 1.29-9.19 1.14-13.83-.08-2.47-.3-4.93-.69-7.37.18 1.41.41 2.81.47 4.23.05.77.21 2.96.13 3.29z"/></g></g></g><g><g><g><path d="m218.33 90.03-.27.76c-1.37 4.11-3.07 8.12-5.02 11.99-6.35 12.63-15.51 23.61-25.68 33.28-4.38 4.17-8.92 8.14-13.59 11.97-4.67 3.82-9.46 7.48-14.2 11.19-9.19 7.12-16.48 13.33-24.56 21.68-5.26 5.39-11.26 12.27-16.16 17.86-.24.27-.49.56-.7.74-.39.36-.37.13-.08-.31.3-.44.75-1.01 1.2-1.54l.12-.13c0-.06.03-.13.08-.23.15-.27.4-.61.66-.91 7.39-8.62 15.99-18.28 24.9-26.17 4.03-3.58 8.14-6.95 12.3-10.26-4.73 3.71-9.05 7.22-13.18 10.96-4.14 3.74-8.12 7.67-12.32 12.1-5.69 5.98-12.17 13.6-17.5 19.72-.26.3-.53.61-.76.82-.42.4-.39.15-.06-.33s.82-1.11 1.31-1.68c6.96-8.16 14.44-16.88 22.69-25.06 4.13-4.08 8.47-8.01 12.94-11.68 4.46-3.68 9-7.18 13.42-10.62 7.43-5.74 14.57-11.6 21.27-17.95 6.7-6.33 13-13.12 18.48-20.67 5.47-7.54 9.98-15.82 13.03-24.62 1.52-4.4 2.66-8.93 3.35-13.53.09-.57.22-1.41.31-2.36s.24-2.01.28-3.04c.05-1.03.13-2.01.14-2.8s.02-1.39.02-1.63c.02-.7.07-1.27.16-1.37.1-.11.25 1.04.29 1.67.06.9.08 1.88.01 2.87-.06.99-.08 2-.21 2.95-.14 1.39-.27 2.79-.51 4.17-.19 1.39-.47 2.76-.75 4.13-.86 4.03-2.05 8-3.51 11.85.36-.83.7-1.68 1.01-2.53.31-.86.67-1.7.93-2.57.3-1.05.65-2.09.91-3.16.26-1.04.77-3.03 1.12-4.9.39-1.86.59-3.6.7-4.05.12-.64.2-1.16.3-1.24.11-.09.17.99.1 1.57-.07.83-.19 1.73-.33 2.63-.18.9-.37 1.81-.54 2.68-.06.3-.11.59-.19.89.02.09.03.19.03.26-.01.47-.18.92-.3 1.35-.18.63-.33 1.26-.53 1.88-.39 1.11-.72 2.25-1.11 3.37zm-29.36 43.5c.09-.08.16-.13.24-.19 4.31-4.29 8.41-8.8 12.22-13.64 1.72-2.17 3.33-4.42 4.89-6.7-.36.54-.76 1.05-1.17 1.61-.54.74-1.13 1.56-1.74 2.36-4.41 5.96-9.38 11.49-14.68 16.67-2.82 2.76-5.73 5.43-8.7 8.03 1.71-1.49 3.41-3 5.08-4.53.91-.85 3.47-3.25 3.86-3.61z"/></g></g></g><g><g><g><path d="m210.72 102.89-.42.56c-2.19 3.07-4.6 5.98-7.19 8.72-8.4 8.97-18.48 16.04-28.35 23.11-8.49 6.06-16.47 12.82-23.85 20.19-3.56 3.56-6.67 6.95-9.66 10.45-2.96 3.53-5.92 7.07-9.16 10.94-2.08 2.52-4.34 5.35-6.48 8.24-2.13 2.89-4.13 5.87-5.8 8.61-.16.27-.33.55-.48.74-.28.36-.32.16-.15-.27.18-.43.46-.99.77-1.5l.08-.13c-.01-.05 0-.12.03-.21.08-.26.25-.58.43-.88 5.19-8.42 12.57-16.92 19.17-24.84 3.02-3.58 6.1-7.02 9.31-10.35-3.66 3.73-6.89 7.33-10 11.05-3.09 3.72-6.26 7.41-9.6 11.52-2.25 2.79-4.67 5.94-6.91 9.2-2.25 3.25-4.27 6.65-5.89 9.81-.16.31-.32.63-.47.85-.28.42-.32.2-.15-.28s.45-1.12.75-1.71c4.31-8.4 10.61-16.27 17.07-23.97 3.24-3.84 6.41-7.78 9.81-11.51 3.38-3.73 6.88-7.3 10.44-10.64 5.96-5.61 12.17-10.8 18.7-15.55l2.42-1.82 2.45-1.75c1.63-1.18 3.26-2.36 4.89-3.54 3.25-2.38 6.46-4.83 9.6-7.4 6.26-5.15 12.1-10.86 16.86-17.4 2.39-3.26 4.49-6.73 6.21-10.38.43-.91 1.23-2.67 1.82-4.35.63-1.67 1.09-3.24 1.22-3.65.19-.58.36-1.04.47-1.1.12-.07 0 .94-.12 1.48-.32 1.54-.97 3.26-1.58 4.8-.9 2.26-1.97 4.45-3.14 6.58-1.73 3.14-3.74 6.12-5.93 8.96 1.01-1.21 2-2.45 2.92-3.74.55-.78 1.05-1.59 1.56-2.39.49-.79 1.4-2.33 2.18-3.79.77-1.46 1.41-2.84 1.59-3.2.26-.5.48-.9.59-.94.14-.04-.1.87-.28 1.35-.49 1.37-1.3 2.87-2.05 4.21l-.38.69c0 .09-.02.17-.03.23-.12.4-.38.73-.58 1.05-.3.48-.62.95-.94 1.42-.55.85-1.15 1.68-1.75 2.53zm-34.33 30.33c.09-.05.16-.09.24-.12 4.29-3.07 8.59-6.17 12.8-9.47 1.89-1.48 3.75-3.01 5.57-4.58-.43.36-.87.72-1.34 1.09-.62.5-1.31 1.05-1.99 1.59-4.99 4.08-10.23 7.83-15.49 11.55-2.78 2.02-5.51 4.09-8.27 6.13l4.77-3.51c.86-.64 3.3-2.47 3.71-2.68z"/></g></g></g><g><g><g><path d="m176.46 13.22c.03.05.32.15.43.19l.61.26 1.21.53c.8.36 1.63.57 2.42.96.94.46 2 .88 2.89 1.34.03.02.08.01.13-.04s.12-.16.12-.23c0-.04-.01-.05-.03-.06-.3-.26-.74-.43-1.08-.61-.52-.29-.99-.47-1.52-.74-.55-.28-1.11-.56-1.67-.82-.65-.31-1.34-.54-2.02-.77-.23-.08-.45-.16-.68-.24l-.37-.14c-.08-.03-.16-.11-.28-.03-.04.03-.14.15-.17.24-.02.07-.01.12.01.16z"/></g></g></g><g><g><g><path d="m177.19 13.02c.09.04.69.07.9.09l1.28.11c.85.08 1.7.16 2.54.27 1.69.21 3.34.34 4.98.78 1.95.52 4.03 1.26 5.65 2.3.06.04.13.05.21.02s.17-.13.16-.21c-.01-.04-.03-.07-.06-.09-.58-.48-1.41-.9-2.09-1.21-1.05-.52-1.98-.81-3.1-1.15-1.16-.36-2.34-.62-3.53-.83-1.39-.24-2.79-.34-4.19-.42l-1.4-.08-.77-.05c-.17-.01-.36-.07-.54.03-.06.03-.17.18-.17.28.02.09.07.14.13.16z"/></g></g></g><g><g><g><path d="m185.99 113.88c.1-.04.62-.51.81-.67l1.11-.98c.73-.66 1.45-1.35 2.14-2.05 1.4-1.4 2.56-2.94 3.81-4.47 1.5-1.82 2.9-3.98 4.09-5.9.04-.07.06-.15.04-.24-.02-.08-.13-.17-.21-.15-.05.01-.07.04-.1.08-.53.67-1.05 1.57-1.55 2.28-.77 1.08-1.38 1.99-2.22 3.02-.86 1.07-1.76 2.11-2.68 3.12-1.08 1.17-2.15 2.35-3.28 3.48-.38.37-.76.74-1.15 1.1-.21.2-.43.39-.66.58-.15.13-.35.24-.41.45-.02.07-.02.26.06.33.05.05.12.05.2.02z"/></g></g></g><g><g><g><path d="m185.71 113.86c.1-.04.64-.45.83-.59.38-.3.77-.59 1.13-.9.75-.61 1.47-1.25 2.17-1.91 1.41-1.33 2.55-2.83 3.76-4.33 1.44-1.8 2.73-3.96 3.76-5.91.04-.07.05-.15.02-.23s-.14-.16-.22-.14c-.04.01-.07.05-.09.08-.48.68-.93 1.59-1.38 2.29-.7 1.08-1.27 1.99-2.06 3.01-.82 1.05-1.69 2.07-2.6 3.04-1.06 1.13-2.14 2.24-3.29 3.28-.38.35-.77.69-1.18 1.01-.22.18-.44.36-.67.52-.16.12-.35.21-.43.41-.03.07-.03.26.04.33.06.06.14.06.21.04z"/></g></g></g><g><g><g><path d="m206.19 35.61.19.33c1.07 1.72 2.1 3.46 3.03 5.26 3.07 5.82 5.36 12.14 6.2 18.74.68 5.67.41 11.42-.71 16.99-.52 2.69-1.19 5.12-1.99 7.49-.78 2.38-1.75 4.7-2.97 7.15-1.57 3.19-3.84 6.89-6.09 9.59-.11.13-.22.27-.33.35-.2.16-.25 0-.15-.23.1-.24.29-.52.48-.78l.05-.07c-.01-.04-.02-.08-.01-.14.04-.15.13-.32.25-.47 1.57-2.13 3.08-4.54 4.41-7.06 1.31-2.54 2.44-5.2 3.37-7.8.87-2.35 1.46-4.76 1.97-7.18-1.23 5.45-2.84 9.95-5.5 14.96-1.81 3.38-4.43 7.25-6.99 10.01-.12.14-.25.28-.37.36-.22.16-.26 0-.13-.25s.34-.54.57-.81c1.62-1.87 3.13-3.93 4.51-6.14 1.4-2.2 2.65-4.54 3.72-6.99 2.19-4.87 3.65-10.11 4.38-15.21.64-4.28.68-8.59.2-12.81-.47-4.23-1.58-8.37-3.1-12.42-1.5-4.06-3.51-7.93-5.76-11.64-1.12-1.86-2.35-3.66-3.6-5.44-.32-.44-.94-1.28-1.5-2.06-.59-.76-1.12-1.47-1.25-1.66-.18-.28-.31-.51-.27-.6.05-.1.49.23.71.44.6.6 1.18 1.4 1.7 2.12.78 1.05 1.54 2.11 2.28 3.19 1.09 1.58 2.13 3.21 3.13 4.85l-1.19-2.25-.84-1.28c-.53-.85-2.17-3.16-2.4-3.52-.16-.26-.27-.48-.22-.57.05-.1.47.21.66.41.55.56 1.02 1.34 1.5 2.01l.24.35c.06.01.11.03.14.04.21.12.28.34.39.52l.46.79zm8.52 23.08c0-.06.01-.1.01-.15-.48-2.79-1.15-5.56-2.09-8.28-.42-1.22-.85-2.44-1.36-3.63.1.28.22.57.31.87.14.41.29.85.43 1.3 1.2 3.24 2.11 6.59 2.62 10.01.16.91.25 1.82.33 2.74.11.91.13 1.83.17 2.75-.02-1.06-.06-2.11-.18-3.16-.03-.29-.08-.84-.13-1.35s-.11-.97-.11-1.1z"/></g></g></g><g><g><g><path d="m180.35 13.31c.15.08 1.18.43 1.54.56.71.3 1.44.56 2.13.89 1.41.63 2.77 1.36 4.09 2.16 2.63 1.59 5.08 3.36 7.28 5.52 2.62 2.59 5.11 5.76 6.78 8.87.06.11.15.21.25.26s.24.02.25-.09c.01-.06-.02-.12-.05-.18-.57-1.23-1.46-2.64-2.25-3.75-1.19-1.75-2.33-3.08-3.77-4.62-1.5-1.6-3.13-3.08-4.88-4.41-2.04-1.54-4.26-2.83-6.58-3.89-.78-.35-1.55-.69-2.35-.99-.43-.17-.87-.34-1.32-.49-.3-.1-.62-.26-.94-.25-.11 0-.34.08-.35.19-.01.09.07.16.17.22z"/></g></g></g><g><g><g><path d="m188.74 17.34c.06.1.6.55.79.72l1.12 1.01c.74.68 1.47 1.37 2.2 2.07 1.45 1.4 2.93 2.68 4.3 4.16 1.63 1.76 3.43 3.66 4.9 5.43.05.06.13.11.22.12s.21-.06.22-.15c.01-.05-.02-.09-.04-.12-.48-.73-1.21-1.53-1.79-2.2-.88-1.05-1.67-1.86-2.58-2.88-.95-1.05-1.92-2.08-2.92-3.09-1.16-1.17-2.39-2.27-3.64-3.35l-1.25-1.08-.68-.6c-.16-.14-.3-.32-.52-.36-.08-.01-.27.02-.32.1-.07.08-.05.15-.01.22z"/></g></g></g><g><g><g><path d="m198.33 25.24c.01.07.25.42.33.54.16.25.33.5.49.75.33.5.65 1 .98 1.5.65 1 1.42 1.88 2.07 2.88.78 1.19 1.72 2.42 2.48 3.55.03.04.08.07.15.06s.19-.07.22-.14c.02-.03.01-.06 0-.08-.21-.48-.6-.98-.89-1.42-.43-.69-.84-1.21-1.27-1.89-.45-.71-.9-1.41-1.36-2.11-.53-.82-1.12-1.59-1.69-2.38-.19-.26-.38-.52-.57-.79-.1-.15-.2-.29-.3-.44-.07-.1-.11-.24-.26-.27-.05-.01-.22.01-.3.08-.07.05-.09.1-.08.16z"/></g></g></g><g><g><g><path d="m116.74 188.99c-.08.17-.39 1.34-.51 1.75l-.7 2.48-1.4 4.95c-.21.76-.41 1.51-.62 2.27-.32 1.2-.63 2.4-.95 3.6l2.68-3.15c.6-.69 1.2-1.39 1.81-2.09 2.71-3.06 5.57-6.47 8.15-9.42.09-.1.17-.23.19-.35s-.05-.24-.17-.2c-.06.02-.12.07-.17.12-1.05 1.05-2.22 2.46-3.21 3.58-1.54 1.75-2.79 3.18-4.32 4.93l-2.27 2.55-1.13 1.28-.14.15-.02.01-.02.02c-.01.01-.02.01-.02.01l.01-.03c.01-.02.02-.04.02-.04l.26-.94.54-2.02 1.06-4.05.72-2.7.41-1.48c.09-.34.24-.7.22-1.05-.01-.12-.09-.37-.2-.37-.1-.01-.17.08-.22.19z"/></g></g></g><g><g><g><path d="m114.04 201.87c.09-.1.47-.84.61-1.1l.86-1.55c.58-1.03 1.18-2.05 1.79-3.07 1.23-2.02 2.35-4.04 3.71-5.98 1.62-2.32 3.39-4.83 5.09-6.93.06-.07.1-.17.1-.27s-.09-.2-.19-.18c-.05.01-.09.05-.12.08-.72.74-1.47 1.76-2.11 2.59-1 1.26-1.75 2.36-2.69 3.67-.97 1.35-1.92 2.73-2.82 4.13-1.05 1.63-2 3.32-2.92 5.04l-.91 1.71-.5.94c-.11.22-.27.43-.28.69 0 .09.06.29.16.32.08.02.15-.02.22-.09z"/></g></g></g><g><g><g><path d="m114.53 200.92c.07-.05.36-.51.47-.68.22-.32.43-.64.65-.97.43-.64.86-1.29 1.29-1.93.86-1.29 1.56-2.63 2.42-3.92 1.03-1.54 2.05-3.27 3.01-4.76.03-.05.05-.12.02-.2-.03-.07-.13-.16-.21-.15-.04 0-.07.03-.09.05-.45.51-.86 1.23-1.24 1.79-.6.86-1.03 1.61-1.62 2.48-.61.9-1.22 1.8-1.83 2.7-.7 1.05-1.35 2.14-2 3.22-.22.36-.44.72-.67 1.07-.12.2-.25.39-.38.58-.09.13-.22.26-.2.44 0 .06.08.22.17.27.09.07.15.05.21.01z"/></g></g></g><g><g><g><path d="m117.79 198.47c.12-.1.75-.9.97-1.18l1.39-1.66c.93-1.1 1.89-2.17 2.86-3.24 1.94-2.12 3.79-4.23 5.88-6.21 2.49-2.36 5.24-4.89 7.81-6.96.09-.07.17-.17.2-.28s-.03-.23-.14-.22c-.06 0-.11.04-.16.07-1.03.71-2.19 1.72-3.16 2.55-1.5 1.25-2.67 2.37-4.11 3.69-1.49 1.37-2.95 2.78-4.36 4.24-1.65 1.69-3.19 3.47-4.69 5.29l-1.49 1.83-.81 1.01c-.18.23-.42.46-.51.75-.03.1-.02.33.07.38.07.06.16.02.25-.06z"/></g></g></g><g><g><g><path d="m179.12 119.79c-.15.06-1.06.62-1.39.81l-1.94 1.17-3.86 2.38c-2.56 1.6-4.95 3.32-7.47 4.98-3.02 1.97-6.2 4.27-9.02 6.26-.1.07-.19.16-.23.27s.01.23.12.23c.06 0 .12-.03.17-.07 1.12-.67 2.41-1.63 3.51-2.37 1.7-1.14 3.07-2.12 4.78-3.24l5.33-3.44c2.07-1.34 4.12-2.67 6.19-4.01l2.08-1.31 1.15-.71c.26-.16.58-.3.77-.55.07-.09.15-.31.08-.39-.06-.06-.16-.05-.27-.01z"/></g></g></g><g><g><g><path d="m205.19 100.63c.1-.09.56-.83.73-1.08l.97-1.56c.64-1.05 1.26-2.11 1.86-3.18 1.2-2.15 2.12-4.36 3.14-6.59 1.22-2.67 2.27-5.68 3.15-8.34.03-.09.04-.2 0-.29s-.16-.16-.24-.11c-.04.03-.07.08-.09.12-.42.97-.8 2.22-1.19 3.22-.6 1.54-1.07 2.82-1.74 4.33-.7 1.56-1.44 3.1-2.22 4.62-.91 1.77-1.81 3.54-2.78 5.27-.33.58-.66 1.15-1 1.71l-.58.93c-.14.21-.32.42-.35.68-.01.09.03.3.13.34.06.04.14 0 .21-.07z"/></g></g></g><g><g><g><path d="m215.41 62.27c-.03.05 0 .37 0 .49l.01.69c0 .46 0 .91-.02 1.37-.03.91.05 1.8-.06 2.71-.14 1.08-.24 2.27-.46 3.29-.01.04.01.08.07.12s.19.08.25.06c.04-.01.05-.03.06-.04.18-.37.23-.87.31-1.27.14-.62.17-1.14.26-1.76.1-.64.17-1.29.22-1.95.06-.76.02-1.52-.04-2.28-.02-.25-.03-.51-.05-.76l-.02-.42c0-.1.03-.2-.09-.28-.04-.03-.19-.07-.29-.06-.08.02-.12.05-.15.09z"/></g></g></g><g><g><g><path d="m215.39 38.18c.01.09.24.58.31.75l.44 1.06c.29.71.56 1.43.82 2.15.52 1.44 1.12 2.81 1.53 4.29.48 1.76 1.02 3.68 1.33 5.4.01.06.05.12.12.15s.21.03.26-.03c.03-.03.03-.07.03-.1-.03-.67-.23-1.47-.37-2.14-.2-1.03-.45-1.86-.7-2.87-.26-1.05-.56-2.09-.9-3.13-.39-1.2-.88-2.37-1.4-3.52l-.52-1.15-.28-.63c-.07-.14-.1-.32-.26-.41-.06-.03-.23-.05-.32 0-.07.06-.09.12-.09.18z"/></g></g></g><g><g><g><path d="m205.43 82.77c.06-.06.24-.57.3-.74l.39-1.07c.26-.71.5-1.43.73-2.15.47-1.44.71-2.9 1.08-4.37.44-1.75.72-3.7.98-5.41.01-.06-.01-.13-.06-.18-.06-.05-.19-.09-.26-.05-.04.02-.05.05-.06.08-.19.63-.28 1.42-.41 2.07-.21 1-.33 1.83-.58 2.81-.26 1.02-.53 2.04-.82 3.05-.34 1.18-.67 2.35-1 3.53-.12.39-.24.78-.37 1.16l-.23.63c-.05.14-.15.29-.1.46.02.06.13.2.22.23.09.02.14-.01.19-.05z"/></g></g></g><g><g><g><path d="m218.21 41.35c0 .09.22.62.29.81l.4 1.15c.26.77.49 1.54.71 2.32.43 1.56.91 3.06 1.17 4.66.31 1.91.61 3.99.67 5.84 0 .06.03.13.1.18s.2.06.26.01c.03-.03.04-.06.04-.1.07-.71-.02-1.58-.08-2.29-.07-1.11-.22-2.01-.37-3.11-.16-1.14-.36-2.27-.61-3.39-.29-1.31-.71-2.58-1.17-3.83l-.47-1.25-.26-.69c-.06-.16-.09-.34-.25-.45-.06-.04-.23-.07-.32-.02-.09.03-.11.09-.11.16z"/></g></g></g><g><g><g><path d="m128.35 180.5c.1-.08.59-.73.77-.95l1.07-1.36 2.14-2.72c1.43-1.82 2.68-3.68 4.11-5.5 1.7-2.17 3.46-4.6 5.07-6.68.06-.07.1-.17.09-.26s-.1-.19-.2-.17c-.05.01-.09.05-.12.08-.69.73-1.4 1.73-2.03 2.53-.96 1.24-1.74 2.25-2.7 3.49-1 1.27-2.01 2.54-3.01 3.8-1.16 1.48-2.27 3-3.38 4.51l-1.13 1.5-.63.82c-.14.19-.34.37-.38.61-.02.09.01.29.1.34.08.04.16.01.23-.04z"/></g></g></g></g><g><g><g><path d="m91.32 114.47-.18-.07c-1.01-.31-2-.68-2.98-1.09-3.17-1.33-6.14-3.16-8.72-5.46-2.21-1.98-4.14-4.27-5.7-6.79-.76-1.21-1.39-2.36-1.94-3.54-.57-1.18-1.05-2.39-1.49-3.75-.58-1.76-1.12-3.95-1.27-5.78-.01-.09-.02-.18 0-.25.03-.13.15-.1.21.02.07.12.11.29.14.46l.01.04c.03.01.06.02.08.04.06.07.1.16.11.26.41 2.72 1.39 5.7 2.57 8.31.53 1.19 1.17 2.3 1.84 3.39-1.47-2.49-2.5-4.74-3.32-7.56-.56-1.9-1.03-4.27-1.11-6.22 0-.09-.01-.19.01-.27.04-.14.15-.1.21.03s.1.32.12.5c.42 5.09 2.51 10.68 5.58 15.03 2.55 3.67 5.9 6.58 9.74 8.83 1.92 1.14 3.96 2.07 6.08 2.76 1.06.36 2.14.64 3.23.89.27.05.8.15 1.28.24.49.08.94.14 1.05.17.16.04.29.1.31.17.02.08-.27.16-.43.17-.44.02-.95-.07-1.4-.16-.67-.11-1.33-.26-1.98-.42-.97-.24-1.92-.52-2.87-.84l1.21.53.76.22c.5.16 1.93.47 2.15.54.15.05.27.11.28.18.01.08-.27.15-.41.16-.41.01-.87-.14-1.29-.23l-.22-.05c-.03.02-.06.05-.08.05-.13.05-.23-.02-.33-.06l-.45-.16c-.26-.09-.53-.19-.8-.29zm-10.98-6.58c.02.02.03.05.04.07 1.13.94 2.33 1.8 3.59 2.59.56.37 1.15.69 1.73 1.02-.13-.08-.27-.17-.4-.27-.19-.12-.39-.25-.6-.39-1.54-.91-3.01-1.95-4.36-3.12-.72-.62-1.41-1.28-2.07-1.96.38.39.75.8 1.15 1.17.2.22.83.79.92.89z"/></g></g></g><g><g><g><path d="m98.93 112.72c.11-.05.22-.09.33-.13.9-.35 1.81-.47 2.6-.71.77-.22 1.44-.69 2.05-1.25.92-.88 1.38-2.23 1.72-3.58.17-.69.32-1.38.44-2.08.13-.71.27-1.51.77-2.24.25-.36.58-.67.94-.89.37-.24.75-.35.98-.49.24-.15.31-.23.36-.46.05-.22.02-.56-.01-.88-.18-1.28-.8-2.58-1.81-3.28-.43-.3-.93-.46-1.44-.48-.24-.01-.57.01-.88.03l-.94.05c-1.25.05-2.51.05-3.76 0-2.5-.1-5-.4-7.45-.91-4.73-1.02-8.56-2.35-12.79-4.7-.7-.36-1.39-.82-2.12-1.24-.7-.47-1.44-.94-2.14-1.43-.7-.48-1.38-.94-2.09-1.21-.72-.28-1.41-.36-2.04-.16-.12.03-.25.09-.35.1-.19.04-.19-.09-.02-.22.16-.14.43-.24.7-.29l.07-.01c.01-.03.04-.06.08-.09.12-.06.29-.1.45-.09 1.19.06 2.28.7 3.29 1.38 1.02.69 2.06 1.39 3.15 2.01 2.17 1.28 4.48 2.37 6.75 3.25 2.06.8 4.16 1.41 6.3 1.86-4.8-1.12-8.74-2.67-13.03-5.23-.73-.42-1.47-.93-2.23-1.43-.76-.51-1.51-1.08-2.38-1.5-.85-.42-1.86-.69-2.82-.43-.92.24-1.79.86-2.07 1.79-.05.18-.08.37-.11.51-.05.28-.16.2-.21-.11-.04-.31.06-.75.26-1.09.76-1.19 2.15-1.72 3.48-1.53 1.3.19 2.37.9 3.33 1.55 1.9 1.32 3.89 2.54 6 3.57 4.21 2.09 8.82 3.48 13.32 4.11 1.89.26 3.78.43 5.67.44.94.01 1.89 0 2.83-.05l1.42-.08c.55-.04 1.13.06 1.65.27 1.06.42 1.81 1.29 2.31 2.2.49.94.77 1.94.78 3.04-.01.29-.05.62-.21.95-.17.34-.47.6-.73.75-.55.3-.91.39-1.2.63-.59.44-.82 1.24-.99 2.19-.18.97-.4 1.92-.67 2.88-.29.96-.66 1.93-1.33 2.79-.33.43-.75.8-1.15 1.1-.41.31-.88.6-1.38.8-1.03.39-1.98.47-2.82.76-.83.24-1.49.88-2.51 1.34-1.03.42-2.07.48-3.09.43-.51-.03-1.49-.17-2.35-.48-.86-.3-1.58-.74-1.75-.87-.25-.18-.43-.36-.42-.44.01-.09.48.1.72.21.69.32 1.48.7 2.25.9 1.13.3 2.32.36 3.47.15.87-.13 1.63-.61 2.33-1.08.7-.48 1.51-.72 2.34-.9-.74.12-1.47.27-2.15.63-.39.23-.76.49-1.15.71-.37.24-1.17.52-1.95.58-.77.08-1.49.01-1.67-.03-.26-.04-.46-.12-.49-.19-.03-.09.41-.14.63-.15.64-.03 1.4-.01 2.05-.14.11-.02.22-.05.33-.08.02-.04.05-.07.07-.09.13-.12.3-.14.45-.2.21-.08.43-.19.65-.32.46-.22.89-.51 1.38-.72zm9.57-15.66c.03.04.04.08.05.12.75.99 1.16 2.24 1.16 3.49-.01.31-.09.63-.31.86-.21.23-.51.36-.8.49-.58.24-1.13.62-1.44 1.19-.57 1.01-.58 2.2-.88 3.29.07-.26.14-.52.21-.79.08-.37.17-.77.27-1.18.15-.73.43-1.48 1.02-1.96.29-.24.63-.4.98-.55.34-.15.72-.36.88-.75.16-.37.14-.78.1-1.15-.03-.38-.11-.76-.21-1.13-.22-.73-.55-1.45-1.06-2.04-.52-.64-1.24-1.13-2.06-1.29-.83-.13-1.64.01-2.45.02l1.4-.05c.47-.02.96-.01 1.4.15.25.08.71.28 1.05.58.38.27.63.61.69.7z"/></g></g></g><g><g><g><path d="m109.08 101.39c-.07-.01-.47.13-.62.17l-.87.23c-.58.14-1.17.26-1.76.37-1.17.22-2.32.41-3.51.5-1.38.03-2.89-.34-4.08-.99-.04-.02-.1-.02-.16.02s-.14.15-.14.22c0 .04.02.06.04.07.42.34 1.04.57 1.55.75.79.29 1.48.39 2.32.45.89.05 1.72-.09 2.58-.13 1-.08 1.97-.34 2.93-.61.32-.1.64-.19.96-.29l.52-.16c.12-.04.26-.04.34-.18.03-.05.05-.21.01-.31-.01-.07-.06-.1-.11-.11z"/></g></g></g><g><g><g><path d="m100.28 112.45c-.04-.04-.35-.08-.46-.1l-.64-.14c-.42-.1-.84-.22-1.26-.35-.82-.27-1.66-.45-2.44-.85-.92-.48-1.93-1-2.71-1.62-.03-.02-.07-.02-.13.01s-.15.13-.17.2c-.01.04 0 .05.02.07.25.31.66.56.99.78.49.36.95.58 1.48.88.55.31 1.12.59 1.71.83.69.28 1.41.44 2.14.57.24.04.49.08.73.12l.4.07c.09.01.19.07.29-.03.03-.03.11-.17.11-.28 0-.08-.03-.13-.06-.16z"/></g></g></g><g><g><g><path d="m71.61 91.15c0 .12.24.84.32 1.1.19.5.35 1.02.57 1.51.4 1 .87 1.97 1.39 2.92 1.03 1.9 2.4 3.51 3.82 5.12 1.7 1.93 3.94 3.65 6.04 4.93.07.05.16.07.25.05s.18-.12.15-.21c-.01-.05-.05-.08-.08-.11-.73-.56-1.69-1.15-2.42-1.73-1.11-.9-2.03-1.65-3.01-2.7-1.01-1.08-1.93-2.24-2.77-3.46-.96-1.42-1.85-2.89-2.59-4.45-.24-.52-.47-1.04-.67-1.58-.11-.29-.22-.59-.31-.89-.07-.21-.1-.44-.27-.6-.06-.06-.24-.14-.33-.1-.06.04-.09.11-.09.2z"/></g></g></g><g><g><g><path d="m73.42 87.68c.04.05.36.17.47.22l.66.31c.44.21.87.44 1.29.67.85.47 1.74.82 2.57 1.35.99.63 2.12 1.23 3.07 1.82.03.02.08.02.14-.02s.14-.15.14-.22c0-.04-.01-.05-.03-.07-.31-.31-.78-.54-1.14-.78-.55-.37-1.04-.63-1.6-.99-.58-.38-1.16-.75-1.76-1.11-.69-.41-1.43-.75-2.18-1.06-.25-.1-.5-.21-.75-.31l-.41-.17c-.09-.04-.18-.12-.31-.05-.04.02-.15.14-.18.24-.02.08-.01.13.02.17z"/></g></g></g></g></svg>