<?xml version="1.0" encoding="UTF-8"?>
<svg xmlns="http://www.w3.org/2000/svg" id="Layer_1" data-name="Layer 1" viewBox="0 0 64 64" width="512" height="512"><path d="M55.329,25.906a1,1,0,0,0-.658,1.888C57.342,28.724,59,29.952,59,31c0,2.088-6.468,5-17,5s-17-2.912-17-5,6.468-5,17-5a1,1,0,0,0,0-2c-9.211,0-19,2.453-19,7v4c0,4.547,9.789,7,19,7s19-2.453,19-7V31C61,29.576,60.016,27.537,55.329,25.906ZM42,40c-10.532,0-17-2.912-17-5v-.739C28.331,36.707,35.316,38,42,38s13.669-1.293,17-3.739V35C59,37.088,52.532,40,42,40Z"/><path d="M63,43a1,1,0,0,0-1,1c0,2.039-7.791,5-20,5a1,1,0,0,0-1,1v7a1,1,0,0,0,1,1c10.933,0,22-2.4,22-7V44A1,1,0,0,0,63,43Zm-1,8c0,1.982-7.367,4.837-19,4.993v-5c7.789-.1,15.476-1.427,19-3.889Z"/><path d="M60.429,35a1,1,0,0,0-.858,1.807C61.092,37.533,62,38.351,62,39c0,2.039-7.791,5-20,5s-20-2.961-20-5c0-.649.908-1.467,2.429-2.189A1,1,0,0,0,23.571,35C21.2,36.128,20,37.473,20,39V56c0,4.6,11.067,7,22,7s22-2.4,22-7V39C64,37.473,62.8,36.128,60.429,35ZM42,61c-12.209,0-20-2.961-20-5V42.1C25.674,44.67,33.872,46,42,46s16.326-1.33,20-3.9V56C62,58.039,54.209,61,42,61Z"/><path d="M35.127,5.505,31.636,1.911A3.254,3.254,0,0,0,29.2,1c-3.886,0-11.06,4.7-17.855,11.693C3.724,20.541-2.322,30.206.873,33.495l3.491,3.594A3.254,3.254,0,0,0,6.8,38c3.886,0,11.06-4.7,17.854-11.693C32.276,18.459,38.322,8.794,35.127,5.505ZM12.781,14.087C19.853,6.808,26.4,3,29.2,3a1.36,1.36,0,0,1,1,.305c1.467,1.509-1.807,9.093-10.472,18.014C12.656,28.6,6.114,32.406,3.307,32.406a1.365,1.365,0,0,1-1-.3h0C.842,30.588,4.118,23.006,12.781,14.087ZM23.219,24.913C16.147,32.192,9.605,36,6.8,36a1.36,1.36,0,0,1-1-.3L4.428,34.283c4.047-.744,10.544-5.2,16.734-11.571,5.669-5.837,10.459-12.674,11.231-17.151l1.3,1.338C35.159,8.409,31.884,15.992,23.219,24.913Z"/><path d="M53,32a1,1,0,0,1-1-1,9.736,9.736,0,0,0-3.461-7.345C47.248,26.166,43.4,29,39,29a11.111,11.111,0,0,0-7.3,2.709,1,1,0,0,1-1.412-1.416A12.924,12.924,0,0,1,39,27c4.681,0,8-3.792,8-5a1,1,0,0,1,1.515-.857A12,12,0,0,1,54,31,1,1,0,0,1,53,32Z"/></svg>
