<svg id="Layer_1" viewBox="0 0 64 64" xmlns="http://www.w3.org/2000/svg" data-name="Layer 1"><path d="m58.631 41.513v-14.999c0-1.031-.839-1.869-1.869-1.869s-1.869.838-1.869 1.869v11.038c0 .265-.105.52-.293.707l-3.439 3.44c-.097.858-.473 1.69-1.129 2.347l-5.807 5.806c-.391.391-1.023.391-1.414 0s-.391-1.023 0-1.414l5.807-5.806c.758-.757.758-1.99 0-2.748-.759-.757-1.99-.756-2.747 0l-8.283 8.284c-.361.362-.569.862-.569 1.374v10.458h10.049v-4.081c0-.265.105-.52.293-.707l9.555-9.555c1.107-1.107 1.717-2.579 1.717-4.144z"/><path d="m5.369 41.513c0 1.565.609 3.037 1.717 4.144l9.555 9.555c.188.188.293.442.293.707v4.081h10.049v-10.458c0-.511-.208-1.012-.569-1.374l-8.283-8.284c-.758-.757-1.989-.756-2.747 0-.758.757-.758 1.99 0 2.748l5.807 5.806c.391.391.391 1.023 0 1.414s-1.023.391-1.414 0l-5.807-5.806c-.656-.656-1.032-1.489-1.129-2.347l-3.439-3.44c-.188-.188-.293-.442-.293-.707v-11.038c0-1.031-.839-1.869-1.869-1.869s-1.869.838-1.869 1.869v14.999z"/><path d="m26.931 17.491c.275.184.543.377.802.579.092.072.185.143.275.217.289.236.567.483.834.74.037.036.078.069.115.106.302.297.587.609.859.931.065.077.124.157.187.234.202.25.395.506.579.769.073.104.144.208.213.314.179.273.348.553.507.838.045.081.095.16.138.242.195.366.373.741.532 1.124.008.019.018.036.026.055.008-.02.019-.038.027-.058.159-.381.336-.753.529-1.116.047-.089.101-.175.15-.263.155-.276.317-.547.491-.811.074-.113.151-.225.228-.336.175-.25.358-.493.55-.73.073-.091.142-.183.217-.272.266-.314.545-.619.84-.909.056-.055.117-.106.174-.16.247-.235.502-.462.767-.68.106-.087.214-.17.323-.254.239-.185.485-.362.737-.532.108-.073.213-.147.323-.217.358-.227.724-.444 1.106-.64.021-.011.043-.019.064-.03.363-.185.739-.352 1.122-.506.047-.019.089-.043.136-.061-.314-4.761-3.298-9.005-7.784-11.038-4.486 2.033-7.47 6.277-7.784 11.038.044.017.085.04.129.058.819.33 1.594.73 2.32 1.192.091.058.178.119.267.179z"/><path d="m18.875 17.045h-4.897v4.687c0 6.411 5.439 11.626 12.125 11.626h4.897v-4.677c0-4.948-3.266-9.36-8.126-10.979-1.269-.437-2.61-.657-3.999-.657z"/><path d="m50.022 21.732v-4.687h-4.897c-1.389 0-2.73.22-3.988.654-4.262 1.419-7.295 4.974-7.987 9.156-.099.597-.15 1.208-.15 1.826v4.677h4.907c6.681 0 12.115-5.215 12.115-11.626z"/></svg>