<svg id="Layer_1" enable-background="new 0 0 33 33" height="33" viewBox="0 0 33 33" width="33" xmlns="http://www.w3.org/2000/svg"><g fill="#414042"><circle cx="17.711" cy="3.775" r="3.017"/><circle cx="28.441" cy="19.755" r="3.016"/><path d="m32.5 25.78c0-.941-.752-1.71-1.684-1.752.295.402.434.919.33 1.446-.17.864-.934 1.492-1.813 1.492-.119 0-.238-.011-.357-.034l-4.732-.929c-1.053-.207-1.945-.991-2.33-1.983h-19.654c-.969 0-1.76.792-1.76 1.76v3.379h3.167v3.082h3.246v-3.082h19.172v3.082h3.246v-3.082h3.169z"/><path d="m2.233 23.415h10.203 2.82.357 4.598c.605 0 1.135-.041 1.607-.117-.08-.817-.127-1.768.076-2.62l.557 2.686c.176.944.986 1.765 1.93 1.95l4.73.928c.074.015.148.021.223.021.535 0 1.014-.378 1.121-.924.121-.621-.283-1.222-.902-1.344l-4.73-.928s-.008-2.896-.137-3.891c-.057-.439-.293-.93-.773-1.313-.006.047-.004.093-.014.139-.098.484-.379.9-.791 1.174-.305.201-.656.309-1.02.309-.623 0-1.199-.31-1.543-.828l-.188-.285c-.014.353-.127.704-.35 1.01-.346.479-.906.764-1.496.764-.393 0-.768-.123-1.084-.354l-2.408-1.746c-.668.1-1.291.193-1.818.273-.773.117-1.357.209-1.586.244-.365.078-9.701 2.063-9.841 2.111-.553.191-.949.715-.949 1.332 0 .778.631 1.409 1.408 1.409z"/><path d="m15.201 17.307 2.639 1.916c.203.147.439.218.672.218.354 0 .703-.164.928-.473.371-.511.256-1.227-.254-1.598l-3.586-2.601c-.193-.141-.484-.546-.557-.773l-.646-2.064c.393.693 1.055 1.847 1.254 2.056.152.161.521.46.836.708.285-.637.592-1.336.904-2.072l3.742 5.646c.221.332.584.512.955.512.217 0 .436-.062.631-.19.527-.349.67-1.06.322-1.586l-4.67-7.044s-.891-1.688-2.617-2.555c-.641-.322-2.891-1.725-4.77 1.689 0 0-1.096 2.148-2.172 4.327-.523 1.058-1.195 2.897-1.211 5.276 1.086-.232 2.369-.506 3.885-.828.385-.06 1.932-.301 3.715-.564z"/></g></svg>