<?xml version="1.0" encoding="UTF-8"?>
<svg xmlns="http://www.w3.org/2000/svg" id="Layer_3" data-name="Layer 3" viewBox="0 0 64 64" width="512" height="512"><path d="M51,28.6a9.4,9.4,0,0,0-1.339-4.835,15.958,15.958,0,0,1-2-5.349L49,1.077,47,.923l-1.18,15.333c-.7,1.289-1.432,2.553-2.2,3.8L32,22.479,20.373,20.056c-.764-1.248-1.5-2.512-2.2-3.8L17,.923,15,1.077,16.337,18.42a15.98,15.98,0,0,1-2,5.348A9.4,9.4,0,0,0,22.4,38a8.847,8.847,0,0,0,3.1-.563L32,35l-2.479-2.727c-.164-.18-.32-.367-.482-.548L32,30.573l2.961,1.152c-.162.181-.318.368-.482.548L32,35l6.5,2.437A8.847,8.847,0,0,0,41.6,38,9.4,9.4,0,0,0,51,28.6Zm-8.871-6.192q-.634.963-1.3,1.908L36.9,23.5ZM38.54,25.884,32,28.427l-6.54-2.543L32,24.522ZM21.871,22.411,27.1,23.5l-3.928.818Q22.505,23.374,21.871,22.411Zm5.766,7.713c-.51-.6-1.008-1.214-1.5-1.831l3.1,1.207Zm7.122-.624,3.1-1.207c-.492.617-.99,1.229-1.5,1.831Z"/><path d="M15,45.38V47.3a46.2,46.2,0,0,0,9.217,2.242l-.837-2.211A56.292,56.292,0,0,1,15,45.38Z"/><path d="M40.622,47.333l-.837,2.21A46.16,46.16,0,0,0,49,47.3V45.38A56.494,56.494,0,0,1,40.622,47.333Z"/><path d="M34.3,49h-.435l.964,1.446-1.664,1.109L32,49.8l-1.168,1.752-1.664-1.109L30.132,49H29.7a2.7,2.7,0,0,1-2.232-1.185q-.918-.073-1.831-.177l4.593,12.137A1.9,1.9,0,0,0,32,61h0a1.9,1.9,0,0,0,1.772-1.225l4.595-12.136q-.915.1-1.833.178A2.7,2.7,0,0,1,34.3,49Z"/><path d="M34.831,47.929c.568-.028,1.136-.067,1.7-.112A2.682,2.682,0,0,0,37,46.3a2.3,2.3,0,0,0-4.219-1.277L32,46.2l-.781-1.172A2.3,2.3,0,0,0,27,46.3a2.682,2.682,0,0,0,.465,1.512q.874.071,1.752.116Zm-.386-1.794A.315.315,0,0,1,35,46.3a.7.7,0,0,1-.7.7h-.435ZM29,46.3a.3.3,0,0,1,.555-.168l.577.865H29.7A.7.7,0,0,1,29,46.3Z"/></svg>
