<svg enable-background="new 0 0 512 512" height="512" viewBox="0 0 512 512" width="512" xmlns="http://www.w3.org/2000/svg"><g id="_x30_6_Wedding_Cake"><g><path d="m468.175 368.854h-13.608c.05-7.128 0-109.016 0-110.462 0-13.758-11.166-24.924-24.924-24.924h-7.527v-93.065c0-14.306-11.664-25.97-25.971-25.97h-34.444v-39.18c0-5.832-3.439-10.867-8.424-13.209 1.695-2.742 2.742-5.982 2.742-9.471 0-7.876-10.468-27.516-13.708-33.348-1.745-3.19-6.978-3.19-8.723 0-3.19 5.832-13.658 25.472-13.658 33.348 0 3.489 1.047 6.729 2.742 9.471-4.985 2.343-8.474 7.377-8.474 13.209v39.18h-34.444v-39.18c0-5.832-3.489-10.867-8.474-13.209 1.695-2.742 2.742-5.982 2.742-9.471 0-7.876-10.468-27.516-13.658-33.348-1.745-3.19-6.978-3.19-8.723 0-3.24 5.832-13.708 25.472-13.708 33.348 0 3.489 1.047 6.729 2.791 9.471-4.985 2.343-8.474 7.377-8.474 13.209v39.18h-34.494v-39.18c0-5.832-3.489-10.867-8.474-13.209 1.745-2.742 2.791-5.982 2.791-9.471 0-7.876-10.468-27.516-13.708-33.348-1.745-3.19-6.978-3.19-8.723 0-3.19 5.832-13.658 25.472-13.658 33.348 0 3.489 1.047 6.729 2.742 9.471-4.985 2.343-8.474 7.377-8.474 13.209v39.18h-34.445c-14.306 0-25.921 11.664-25.921 25.97v93.065h-7.577c-13.708 0-24.924 11.166-24.924 24.924v110.462h-13.56c-2.742 0-4.985 2.243-4.985 4.985 0 19.789 16.101 35.94 35.94 35.94h154.277c-6.131 30.058-21.434 61.312-77.064 75.419h-35.491c-2.742 0-4.985 2.243-4.985 4.985s2.243 4.985 4.985 4.985h278.995c2.742 0 4.985-2.243 4.985-4.985s-2.243-4.985-4.985-4.985h-35.491c-55.629-14.107-70.932-45.361-77.064-75.419h154.278c19.789 0 35.94-16.151 35.94-35.94-.001-2.742-2.244-4.985-4.985-4.985zm-144.009-293.6c0-2.542 2.094-4.636 4.636-4.636h18.294c2.592 0 4.636 2.093 4.636 4.636v39.18h-27.566zm-81.949 0c0-2.542 2.094-4.636 4.636-4.636h18.294c2.542 0 4.636 2.093 4.636 4.636v39.18h-27.566zm-81.998 0c0-2.542 2.094-4.636 4.636-4.636h18.294c2.542 0 4.636 2.093 4.636 4.636v39.18h-27.565v-39.18zm-60.365 65.15c0-8.823 7.178-16.001 15.951-16.001h280.341c8.823 0 16.001 7.178 16.001 16.001v19.989c-4.237-2.293-17.297-19.59-35.591-3.14-6.48 5.882-11.565 5.882-18.095 0-10.119-9.122-20.985-9.471-31.454 0-6.53 5.882-11.614 5.882-18.144 0-10.318-9.272-21.135-9.321-31.454 0-6.53 5.882-11.615 5.882-18.095 0-10.318-9.272-21.185-9.321-31.503 0-6.48 5.882-11.565 5.882-18.095 0-10.119-9.122-20.986-9.421-31.454 0-6.53 5.882-11.614 5.882-18.095 0-10.318-9.321-21.185-9.321-31.454 0-6.53 5.882-11.614 5.882-18.144 0-2.592-2.343-5.733-5.134-10.717-6.331v-10.518zm0 57.075c1.396.748 2.592 1.844 4.038 3.19 10.318 9.272 21.185 9.272 31.503 0 6.48-5.882 11.565-5.882 18.095 0 10.318 9.272 21.135 9.272 31.454 0 6.53-5.882 11.614-5.882 18.095 0 10.318 9.272 21.185 9.272 31.454 0 6.53-5.882 11.614-5.882 18.144 0 10.318 9.272 21.135 9.272 31.454 0 6.48-5.882 11.565-5.882 18.095 0 10.318 9.272 21.135 9.272 31.454 0 6.53-5.882 11.615-5.882 18.144 0 10.318 9.272 21.135 9.272 31.454 0 13.309-12.013 17.098 3.539 28.911 6.281v26.518h-312.295zm-32.501 60.914c0-8.225 6.729-14.954 14.954-14.954h347.335c8.275 0 14.954 6.73 14.954 14.954v26.918c-2.442-.897-4.337-2.492-6.53-4.486-12.013-10.817-24.475-10.817-36.488 0-8.175 7.378-14.904 7.427-23.129 0-12.013-10.817-24.475-10.817-36.488 0-8.125 7.328-14.804 7.477-23.129 0-11.963-10.817-24.425-10.817-36.438 0-8.125 7.328-14.805 7.477-23.079 0-12.013-10.817-24.475-10.817-36.488 0-8.125 7.328-14.805 7.477-23.079 0-12.013-10.817-24.475-10.817-36.488 0-8.125 7.328-14.805 7.477-23.079 0-12.013-10.817-24.475-10.817-36.488 0-8.125 7.328-14.804 7.477-23.079 0-3.19-2.841-7.028-6.231-13.259-7.477v-14.955zm0 68.589c2.442.947 4.337 2.492 6.58 4.486 11.963 10.817 24.425 10.867 36.438 0 8.125-7.328 14.854-7.477 23.129 0 11.963 10.817 24.425 10.817 36.438 0 8.125-7.328 14.855-7.477 23.129 0 11.963 10.817 24.425 10.867 36.438 0 8.125-7.328 14.805-7.477 23.129 0 11.963 10.817 24.425 10.817 36.438 0 8.125-7.328 14.805-7.477 23.079 0 12.013 10.817 24.475 10.817 36.488 0 8.125-7.278 14.804-7.477 23.129 0 11.963 10.817 24.475 10.817 36.488 0 8.125-7.328 14.854-7.427 23.129 0 3.14 2.891 6.979 6.281 13.21 7.477v29.908h-377.242zm369.867 72.827h-362.439c-12.611 0-23.179-9.072-25.522-20.986h413.433c-2.343 11.914-12.861 20.986-25.472 20.986z" fill="rgb(0,0,0)"/></g></g></svg>