<svg id="Image" enable-background="new 0 0 64 64" height="64" viewBox="0 0 64 64" width="64" xmlns="http://www.w3.org/2000/svg"><g fill="none" stroke="#424242" stroke-linejoin="round" stroke-miterlimit="10"><g stroke-width="2"><path d="m30 5c0 1.5-.271 4.911-2.167 5.833-2.396 1.167-8.258 2.22-10.021 3.292-6.645 4.042-7.31 23.458-11.812 28.875"/><path d="m23 29c-2.987 4.167-8 20.833-11 30"/><path d="m18.319 39.77c1.171 3.6 3.681 10.24 3.681 13.23v6"/><path d="m43.125 5c.542 3.75 1.792 7.417 4.875 8 3.162.599 9 .455 9 10l-.886 9.043"/><path d="m52.9 44.84c-.25 2.95-.9 7.2-.9 8.16v6"/><path d="m23 39h-4.41"/><path d="m28.42 45h-8.36"/><path d="m50.088 13.455 2.912 10.545"/><path d="m24.334 12c2.249 3.914 3.666 6.083 3.666 11"/><path d="m28 23c3.083 6 14 7.75 14 15 0 1.572-.897 8-9 8-4.766 0-8.028-2.662-10-7 3.42-2.667 5-8.417 5-16z"/><path d="m53 24c-.5 10-4.253 11.46-8 14 0 2.77 2.584 7 5.998 7 6.002 0 7.002-4.125 7.002-7 0-4.167-3.583-7.5-5-14"/></g><path d="m48.5 13.086c-1.813-.38-3.125.914-5.5.914" stroke-width="1.5"/><path d="m26.42 11.384c4.663-1.051 7.518 2.616 10.58 2.616" stroke-width="1.5"/><path d="m45 38h-3" stroke-width="2"/><path d="m48.05 43.9c-4.399-1.97-8.42-.08-8.75.09-.01.01-.02.01-.02.01" stroke-width="2"/></g></svg>