<svg id="Image" enable-background="new 0 0 64 64" height="64" viewBox="0 0 64 64" width="64" xmlns="http://www.w3.org/2000/svg"><g><g fill="none"><path d="m54 13-7 10" stroke="#424242" stroke-linejoin="round" stroke-miterlimit="10" stroke-width="2"/><path d="m13.063 11 2.937 12" stroke="#424242" stroke-linejoin="round" stroke-miterlimit="10" stroke-width="2"/><path d="m41.475 25.939c-.9.639-1.76 1.339-2.564 2.094"/><path d="m49.694 27.199c-.594-1.533-1.454-2.95-2.694-4.199-1.926.72-3.8 1.716-5.525 2.939" stroke="#424242" stroke-linejoin="round" stroke-miterlimit="10" stroke-width="2"/><path d="m50.503 30.075c-.19-.993-.452-1.955-.809-2.875"/><path d="m38.91 28.034c-2.903 2.723-5.093 6.157-5.91 9.966h-3c-1.478-6.886-7.441-12.548-14-15-3.635 3.66-4 8.761-4 14 0 3.375 4.328 5.938 7.934 6.761.851.194 1.711.239 2.565.239 2.763 0 5.452-1.054 7.501-3h3c2.049 1.946 4.738 3 7.501 3 .854 0 1.714-.045 2.565-.239 3.606-.823 7.934-3.386 7.934-6.761 0-2.378-.075-4.727-.497-6.925" stroke="#424242" stroke-linejoin="round" stroke-miterlimit="10" stroke-width="2"/><path d="m12 27.063.576 4.384"/><path d="m49.265 40.58s-2.265 9.107-2.265 11.42c0 3.063 1 5.688 1 7" stroke="#424242" stroke-linejoin="round" stroke-miterlimit="10" stroke-width="2"/><path d="m13.735 40.58s2.265 9.107 2.265 11.42c0 3.063-1 5.688-1 7" stroke="#424242" stroke-linejoin="round" stroke-miterlimit="10" stroke-width="2"/><path d="m58 24.75c-.029 14.835-1.062 15.688-1.062 20.25v14" stroke="#424242" stroke-linejoin="round" stroke-miterlimit="10" stroke-width="2"/><path d="m57.113 19.694c.551 1.522.887 3.111.887 4.431v.625"/><path d="m39.655 9.752c1.226 1.803 3.064 3.248 5.283 3.248 4 0 7.412.518 8.902 1.592 1.287.929 2.494 2.948 3.273 5.102" stroke="#424242" stroke-linejoin="round" stroke-miterlimit="10" stroke-width="2"/><path d="m38.245 6.704c.269 1.006.751 2.079 1.41 3.048"/><path d="m38 5c0 .52.084 1.1.245 1.704" stroke="#424242" stroke-linejoin="round" stroke-miterlimit="10" stroke-width="2"/><path d="m25 5c0 3-2.813 8-6.938 8-4 0-7.413.518-8.902 1.592-2.197 1.585-4.16 6.346-4.16 9.533 0 15.438 1.063 16.25 1.063 20.875s0 14 0 14" stroke="#424242" stroke-linejoin="round" stroke-miterlimit="10" stroke-width="2"/><path d="m36.699 14.41c3.076-1.02 4.579.396 7.06-1.57" stroke="#424242" stroke-linejoin="round" stroke-miterlimit="10" stroke-width="1.5"/><path d="m35.063 15.125c.595-.32 1.137-.55 1.637-.715"/><path d="m27.938 15.125c-4.25-2.285-5.813 0-8.696-2.285" stroke="#424242" stroke-linejoin="round" stroke-miterlimit="10" stroke-width="1.5"/></g><g><path d="m47 29.75c-.203 0-.405-.005-.606-.014l.07-1.498c.622.029 1.26.007 1.872-.066l.178 1.489c-.497.059-1.006.089-1.514.089zm-2.708-.289c-.688-.149-1.372-.358-2.031-.622l.559-1.393c.58.232 1.183.417 1.789.547zm6.301-.224-.422-1.439c.597-.175 1.185-.402 1.747-.675l.656 1.349c-.638.309-1.304.567-1.981.765zm-10.23-1.348c-.602-.368-1.178-.789-1.712-1.252l.982-1.134c.472.409.98.781 1.513 1.105zm14.034-.503-.871-1.222c.507-.361.988-.769 1.43-1.21l1.061 1.061c-.5.5-1.045.962-1.62 1.371zm-17.228-2.267c-.45-.544-.857-1.13-1.212-1.742l1.299-.751c.313.54.672 1.057 1.069 1.537zm20.219-.723-1.221-.871c.362-.508.684-1.049.956-1.609l1.35.656c-.31.635-.674 1.248-1.085 1.824zm-22.337-2.939c-.247-.664-.439-1.351-.572-2.044l1.473-.282c.117.61.287 1.217.506 1.802zm24.186-.865-1.439-.422c.176-.599.302-1.215.373-1.833l1.49.174c-.082.701-.224 1.402-.424 2.081zm-24.984-3.29-.003-.302c0-.606.043-1.216.128-1.813l1.484.211c-.074.527-.112 1.066-.112 1.602l.003.271zm25.497-.302h-1.5c0-.624-.052-1.252-.154-1.867l1.48-.246c.115.696.174 1.407.174 2.113zm-23.468-3.426-1.43-.456c.215-.671.488-1.331.813-1.961l1.332.688c-.285.556-.526 1.137-.715 1.729zm21.353-.254c-.203-.587-.459-1.164-.759-1.712l1.316-.72c.34.622.629 1.275.86 1.942zm-19.644-3.06-1.199-.901c.427-.567.9-1.101 1.409-1.585l1.035 1.086c-.449.427-.868.898-1.245 1.4zm17.853-.214c-.385-.488-.814-.949-1.277-1.371l1.01-1.109c.523.477 1.01.999 1.445 1.551zm-15.15-2.363-.841-1.243c.586-.396 1.208-.747 1.85-1.041l.625 1.364c-.567.26-1.117.569-1.634.92zm12.387-.149c-.524-.338-1.08-.633-1.652-.879l.592-1.378c.648.278 1.278.613 1.873.996zm-8.992-1.404-.389-1.449c.681-.182 1.383-.308 2.089-.375l.141 1.494c-.622.058-1.242.17-1.841.33zm5.564-.066c-.604-.146-1.227-.243-1.849-.287l.105-1.496c.705.049 1.41.159 2.097.325z" fill="#424242"/></g></g></svg>