<svg id="Image" enable-background="new 0 0 64 64" height="64" viewBox="0 0 64 64" width="64" xmlns="http://www.w3.org/2000/svg"><g><g fill="none"><path d="m38 5c0 3 2.813 8 6.938 8 4 0 7.412.518 8.902 1.592 2.197 1.585 4.16 6.345 4.16 9.533 0 15.438-1.063 16.25-1.063 20.875s0 14 0 14" stroke="#424242" stroke-linejoin="round" stroke-miterlimit="10" stroke-width="2"/><path d="m26 5c0 3-2.813 8-6.938 8-4 0-7.412.518-8.902 1.592-2.197 1.585-4.16 6.346-4.16 9.533 0 15.438 1.063 16.25 1.063 20.875s0 14 0 14" stroke="#424242" stroke-linejoin="round" stroke-miterlimit="10" stroke-width="2"/><path d="m46 13v10" stroke="#424242" stroke-linejoin="round" stroke-miterlimit="10" stroke-width="2"/><path d="m18 13v10" stroke="#424242" stroke-linejoin="round" stroke-miterlimit="10" stroke-width="2"/><path d="m33.922 34.918c-.385.994-.694 2.023-.922 3.082h-2c-.226-1.052-.533-2.076-.915-3.064"/><path d="m50.541 32.001c-.662-3.391-2.082-6.525-4.541-9.001-5.55 2.075-9.958 6.45-12.078 11.918" stroke="#424242" stroke-linejoin="round" stroke-miterlimit="10" stroke-width="2"/><path d="m51 37c0-1.695-.143-3.377-.459-4.999"/><path d="m13 37c0 3.375 4.328 5.938 7.934 6.761.851.194 1.711.239 2.565.239 2.763 0 5.452-1.054 7.501-3h2c2.049 1.946 4.738 3 7.501 3 .854 0 1.714-.045 2.565-.239 3.606-.823 7.934-3.386 7.934-6.761" stroke="#424242" stroke-linejoin="round" stroke-miterlimit="10" stroke-width="2"/><path d="m13.459 32c-.316 1.623-.459 3.304-.459 5"/><path d="m30.085 34.936c-2.117-5.478-6.528-9.859-12.085-11.936-2.458 2.476-3.879 5.609-4.541 9" stroke="#424242" stroke-linejoin="round" stroke-miterlimit="10" stroke-width="2"/><path d="m51 27.063-.576 4.384"/><path d="m13 27.063.576 4.384"/><path d="m47.156 50.428c-.097.655-.156 1.201-.156 1.572 0 3.063 1 5.688 1 7" stroke="#424242" stroke-linejoin="round" stroke-miterlimit="10" stroke-width="2"/><path d="m16.844 50.428c.097.655.156 1.201.156 1.572 0 3.063-1 5.688-1 7" stroke="#424242" stroke-linejoin="round" stroke-miterlimit="10" stroke-width="2"/><path d="m48.016 45.957c-.344 1.585-.674 3.226-.859 4.472"/><path d="m15.984 45.957c.344 1.585.674 3.226.859 4.472"/><path d="m49.265 40.58s-.646 2.602-1.249 5.376" stroke="#424242" stroke-linejoin="round" stroke-miterlimit="10" stroke-width="2"/><path d="m14.735 40.58s.646 2.602 1.249 5.376" stroke="#424242" stroke-linejoin="round" stroke-miterlimit="10" stroke-width="2"/><path d="m35.063 15.125c4.25-2.285 5.813 0 8.696-2.285" stroke="#424242" stroke-linejoin="round" stroke-miterlimit="10" stroke-width="1.5"/><path d="m28.938 15.125c-4.25-2.285-5.813 0-8.696-2.285" stroke="#424242" stroke-linejoin="round" stroke-miterlimit="10" stroke-width="1.5"/><path d="m52.917 29.501c-.503-.286-1.091-.561-1.753-.82"/><path d="m10.985 28.558c-1.276.746-1.985 1.572-1.985 2.442 0 3.314 10.295 6 23 6s23-2.687 23-6c0-.892-.745-1.738-2.083-2.499" stroke="#424242" stroke-linejoin="round" stroke-miterlimit="10" stroke-width="2"/><path d="m12.833 28.683c-.704.276-1.323.569-1.848.875"/><path d="m52.004 41.498c-.48-.285-1.041-.559-1.673-.817"/><path d="m11.997 41.499c-1.282.762-1.997 1.608-1.997 2.501 0 3.314 9.848 6 22 6s22-2.687 22-6c0-.893-.715-1.74-1.996-2.502" stroke="#424242" stroke-linejoin="round" stroke-miterlimit="10" stroke-width="2"/><path d="m13.666 40.683c-.631.259-1.189.531-1.669.816"/></g><path d="m25 33-7 2.874 6 4.126z" fill="#424242"/><path d="m25 46.29-7 2.874 6 4.126z" fill="#424242"/></g></svg>