<svg id="Image" enable-background="new 0 0 64 64" height="64" viewBox="0 0 64 64" width="64" xmlns="http://www.w3.org/2000/svg"><g><g fill="none"><path d="m30 5c0 1.5-.271 4.911-2.167 5.833-2.396 1.167-8.332 2.107-10.021 3.292-4.812 3.375-8.31 12.458-12.812 17.875" stroke="#424242" stroke-linejoin="round" stroke-miterlimit="10" stroke-width="2"/><path d="m9 46.113c-1.214 2.02-2.277 4.021-3 5.887" stroke="#424242" stroke-linejoin="round" stroke-miterlimit="10" stroke-width="2"/><path d="m11.202 42.635c-.76 1.151-1.506 2.318-2.202 3.479"/><path d="m11.375 42.375c-.058.087-.115.173-.173.26"/><path d="m19 30c-.688 2.556-4.262 7.302-7.625 12.375" stroke="#424242" stroke-linejoin="round" stroke-miterlimit="10" stroke-width="2"/><path d="m20.807 52.93c-.29 2.633-.807 5.351-.807 6.07" stroke="#424242" stroke-linejoin="round" stroke-miterlimit="10" stroke-width="2"/><path d="m20.979 49.186c.013.249.021.519.021.814 0 .879-.079 1.898-.193 2.93"/><path d="m17 33.979c.094 1.302 1 4.021 2 4.021 1.618 2.026 1.5 3 2 5-.973 3.197-.163 3.465-.021 6.186" stroke="#424242" stroke-linejoin="round" stroke-miterlimit="10" stroke-width="2"/><path d="m43.125 5c.542 3.75 1.792 5.417 4.875 6 4.004.758 7.063 1.875 8.125 3.75.386.682.821 2.67.926 5.066l-.051 8.184" stroke="#424242" stroke-linejoin="round" stroke-miterlimit="10" stroke-width="2"/><path d="m53 43c0 2.563-1 8.813-1 10s1 5 1 6" stroke="#424242" stroke-linejoin="round" stroke-miterlimit="10" stroke-width="2"/><path d="m23 37-4 1" stroke="#424242" stroke-linejoin="round" stroke-miterlimit="10" stroke-width="2"/><path d="m27.97 43h-6.97" stroke="#424242" stroke-linejoin="round" stroke-miterlimit="10" stroke-width="2"/><path d="m50.953 12 1.047 10" stroke="#424242" stroke-linejoin="round" stroke-miterlimit="10" stroke-width="2"/><path d="m24.334 12 3.666 10" stroke="#424242" stroke-linejoin="round" stroke-miterlimit="10" stroke-width="2"/><path d="m30.084 43.72c-3.205-.919-5.553-3.351-7.084-6.72 0-3.5.438-5.573 1.281-7.61" stroke="#424242" stroke-linejoin="round" stroke-miterlimit="10" stroke-width="2"/><path d="m30.422 43.811c-.113-.028-.226-.059-.338-.091"/><path d="m33.377 44.119c-.104.003-.209.004-.314.004-.936 0-1.815-.107-2.641-.312"/><path d="m25.828 26.226c.625-1.183 1.352-2.532 2.172-4.226 5.084 3.125 10.531 4.469 13.767 10.156.789 1.387 1.233 2.649 1.233 4.47 0 .289-.076.577-.132.863-.355 1.854-1.435 3.49-2.998 4.547-1.887 1.276-4.129 2.021-6.493 2.082" stroke="#424242" stroke-linejoin="round" stroke-miterlimit="10" stroke-width="2"/><path d="m24.281 29.39c.418-1.007.935-2.006 1.547-3.165"/><path d="m52 22c3.89 2.912 7 7.654 7 12 0 2.875-1.041 9-9.002 9-2.83 0-5.516-1.512-7.131-3.852" stroke="#424242" stroke-linejoin="round" stroke-miterlimit="10" stroke-width="2"/><path d="m52 22c-4.529 3.813-5.313 10.875-9.06 13.415" stroke="#424242" stroke-linejoin="round" stroke-miterlimit="10" stroke-width="2"/><path d="m49.249 11.256c-1.813-.381-4.874 1.744-7.249 1.744" stroke="#424242" stroke-linejoin="round" stroke-miterlimit="10" stroke-width="1.5"/><path d="m26.42 11.384c2.268-.196 4.518 1.616 7.58 1.616" stroke="#424242" stroke-linejoin="round" stroke-miterlimit="10" stroke-width="1.5"/></g><g><path d="m21 51.75c-.203 0-.405-.005-.606-.014l.069-1.498c.624.028 1.258.007 1.873-.066l.178 1.489c-.497.059-1.007.089-1.514.089zm-2.709-.289c-.689-.148-1.372-.357-2.03-.621l.558-1.393c.58.232 1.182.417 1.789.548zm6.301-.224-.422-1.439c.597-.175 1.185-.402 1.746-.675l.656 1.349c-.636.309-1.302.567-1.98.765zm-10.228-1.348c-.603-.369-1.179-.79-1.712-1.252l.982-1.134c.471.409.979.78 1.512 1.105zm14.033-.503-.871-1.221c.507-.362.988-.769 1.43-1.211l1.061 1.061c-.501.5-1.045.962-1.62 1.371zm-17.228-2.267c-.451-.544-.858-1.13-1.212-1.742l1.299-.751c.312.54.672 1.057 1.069 1.537zm20.218-.724-1.222-.87c.363-.509.685-1.05.957-1.609l1.349.656c-.308.634-.673 1.247-1.084 1.823zm-22.337-2.938c-.247-.662-.439-1.35-.573-2.044l1.474-.282c.117.612.287 1.219.504 1.802zm24.187-.865-1.439-.421c.175-.599.301-1.216.374-1.834l1.489.176c-.082.701-.225 1.401-.424 2.079zm-24.984-3.287-.003-.305c0-.606.042-1.216.127-1.813l1.485.212c-.074.526-.112 1.065-.112 1.601l.003.268zm25.497-.305h-1.5c0-.626-.052-1.254-.154-1.866l1.479-.247c.116.693.175 1.404.175 2.113zm-23.47-3.425-1.429-.457c.215-.672.488-1.332.813-1.96l1.333.688c-.286.554-.527 1.136-.717 1.729zm21.354-.255c-.203-.587-.458-1.163-.758-1.713l1.316-.719c.34.623.629 1.275.859 1.941zm-19.641-3.061-1.2-.899c.422-.564.896-1.098 1.408-1.586l1.035 1.085c-.452.431-.87.902-1.243 1.4zm17.85-.214c-.385-.489-.815-.95-1.276-1.37l1.009-1.11c.523.476 1.009.998 1.446 1.552zm-15.149-2.363-.842-1.241c.585-.397 1.207-.747 1.85-1.041l.624 1.364c-.567.259-1.116.569-1.632.918zm12.388-.148c-.524-.337-1.08-.633-1.653-.879l.592-1.378c.649.279 1.28.614 1.873.996zm-8.994-1.404-.388-1.449c.682-.182 1.384-.308 2.089-.375l.141 1.494c-.621.058-1.241.17-1.842.33zm5.565-.066c-.604-.146-1.227-.243-1.849-.287l.104-1.496c.707.049 1.412.159 2.098.325z" fill="#424242"/></g></g></svg>