<svg id="Layer_2" enable-background="new 0 0 512 512" viewBox="0 0 512 512" xmlns="http://www.w3.org/2000/svg"><g style="fill:none;stroke:#474747;stroke-width:15;stroke-linecap:round;stroke-linejoin:round;stroke-miterlimit:10"><g><path d="m156.743 264.494c17.078 14.501 23.591-1.124 26.823 27.562 26.131-3.753 25.404 36.73 68.511 45.332"/><path d="m146.515 309.211 37.144 31.539"/></g><path d="m211.102 239.662-12.147-20.664c-3.42-7.499-.281-17.893 7.833-19.339 54.556-9.72 82.049-58.811 82.049-58.811s7.962-60.923-83.409-62.821"/><path d="m213.72 137.937 47.624 27.582"/><path d="m400.161 273.756c-42.268-20.577-85.912-62.517-85.912-62.517"/><path d="m392.539 272.625s-6.8 12.059-4.516 27.392"/><path d="m194.222 147.023s12.734 2.432 27.722-1.527"/><path d="m367.594 255.372s-6.375 12.145-7.32 18.518"/><path d="m190.013 104.468c-24.582 27.257-47.944 59.044-58.6 90.105-64.988 189.427-48.016 203.121 90.307 249.647"/><path d="m277.27 20.754s-19.142 18.606-33.963 31.572c-8.753 7.658-14.833 12.938-25.548 23.491"/><path d="m165.087 423.801c20.423 54.573 18.572 66.486 18.572 66.486"/><path d="m343.497 161.151s22.205-11.585 46.583-2.614c34.749 12.787 51.37 85.991 51.37 85.991"/><g><path d="m452.952 364.101v3.272"/><path d="m452.952 405.059v3.272"/><path d="m430.837 386.216h3.272"/><path d="m471.795 386.216h3.272"/></g><g><path d="m61.59 82.354v3.271"/><path d="m61.59 123.311v3.272"/><path d="m39.476 104.468h3.271"/><path d="m80.434 104.468h3.271"/></g><g><path d="m348.457 422.105v3.272"/><path d="m348.457 463.063v3.272"/><path d="m326.342 444.22h3.272"/><path d="m367.3 444.22h3.272"/></g></g></svg>